/* XPM */
static char * close_normal_xpm[] = {
"33 24 335 2",
"  	c None",
". 	c #FAF0ED",
"+ 	c #EBBFB6",
"@ 	c #E9BDB5",
"# 	c #E9BDB3",
"$ 	c #E6BBB2",
"% 	c #E6BAB1",
"& 	c #E4B9B0",
"* 	c #E2B7AE",
"= 	c #E1B6AD",
"- 	c #DEB4AB",
"; 	c #DDB4AA",
"> 	c #DBB2AA",
", 	c #DAB1A8",
"' 	c #D8B0A7",
") 	c #D6AEA5",
"! 	c #D4ADA4",
"~ 	c #D1AAA2",
"{ 	c #D0A9A1",
"] 	c #CDA8A0",
"^ 	c #CDA79F",
"/ 	c #CBA69E",
"( 	c #CAA49C",
"_ 	c #C6A29B",
": 	c #C6A19A",
"< 	c #C5A199",
"[ 	c #C39F98",
"} 	c #C19E96",
"| 	c #C09D95",
"1 	c #BF9B94",
"2 	c #BE9B93",
"3 	c #9A6D64",
"4 	c #3F3F3F",
"5 	c #AAAAAA",
"6 	c #FBF3F0",
"7 	c #F1D5CE",
"8 	c #EFD1CA",
"9 	c #EECEC8",
"0 	c #ECCBC4",
"a 	c #EAC8C0",
"b 	c #E7C3BC",
"c 	c #E6C1B9",
"d 	c #E2BDB5",
"e 	c #E0BAB2",
"f 	c #DDB7AE",
"g 	c #DBB4AA",
"h 	c #D5ACA4",
"i 	c #D3A9A0",
"j 	c #CEA49C",
"k 	c #CCA198",
"l 	c #C79E95",
"m 	c #C59A91",
"n 	c #C2978D",
"o 	c #BE938A",
"p 	c #BB8F86",
"q 	c #B88C82",
"r 	c #B4887F",
"s 	c #B1857B",
"t 	c #AF8178",
"u 	c #AC7E74",
"v 	c #A87A6F",
"w 	c #A4766C",
"x 	c #A17269",
"y 	c #7F5850",
"z 	c #3D3D3D",
"A 	c #A7A7A7",
"B 	c #EFCDC2",
"C 	c #CD6651",
"D 	c #CD654F",
"E 	c #C8634F",
"F 	c #C6634F",
"G 	c #C3634D",
"H 	c #BE614D",
"I 	c #BB604D",
"J 	c #BA604D",
"K 	c #B7604C",
"L 	c #B55F4C",
"M 	c #B15E4C",
"N 	c #AD5D4B",
"O 	c #AB5D4B",
"P 	c #A75A4A",
"Q 	c #A55A4A",
"R 	c #A15A4A",
"S 	c #A0594A",
"T 	c #9E594A",
"U 	c #9B584A",
"V 	c #985749",
"W 	c #945649",
"X 	c #925649",
"Y 	c #905548",
"Z 	c #8E5448",
"` 	c #8C5448",
" .	c #4D2E27",
"..	c #565656",
"+.	c #949494",
"@.	c #EBC5B7",
"#.	c #CD6750",
"$.	c #CA644F",
"%.	c #C6634D",
"&.	c #C0624D",
"*.	c #B8604D",
"=.	c #B25E4C",
"-.	c #AE5D4B",
";.	c #A75C4B",
">.	c #A25A4A",
",.	c #3D221D",
"'.	c #8B5348",
").	c #352724",
"!.	c #717171",
"~.	c #7F7F7F",
"{.	c #EABDAF",
"].	c #CD6850",
"^.	c #BF624D",
"/.	c #974F3F",
"(.	c #40241E",
"_.	c #6E3E34",
":.	c #8A5347",
"<.	c #7B483C",
"[.	c #282727",
"}.	c #8F8F8F",
"|.	c #696969",
"1.	c #E7B5A5",
"2.	c #CA6750",
"3.	c #C8644F",
"4.	c #8C4A3B",
"5.	c #48261E",
"6.	c #41241E",
"7.	c #6F3E34",
"8.	c #AD776D",
"9.	c #955649",
"0.	c #875347",
"a.	c #543029",
"b.	c #363636",
"c.	c #989898",
"d.	c #595959",
"e.	c #DD9480",
"f.	c #BA3719",
"g.	c #B73317",
"h.	c #B43115",
"i.	c #AD3015",
"j.	c #AA2F14",
"k.	c #A62E14",
"l.	c #A22D14",
"m.	c #9E2C13",
"n.	c #A64530",
"o.	c #6A1E0C",
"p.	c #3B1007",
"q.	c #6F1E0D",
"r.	c #78210F",
"s.	c #350F06",
"t.	c #5E1A0B",
"u.	c #954F40",
"v.	c #78220F",
"w.	c #72200F",
"x.	c #70200F",
"y.	c #6D1F0E",
"z.	c #6A1E0E",
"A.	c #681E0E",
"B.	c #661D0E",
"C.	c #651D0D",
"D.	c #611C0D",
"E.	c #5F1B0D",
"F.	c #33211E",
"G.	c #747474",
"H.	c #494949",
"I.	c #D98A74",
"J.	c #A42E14",
"K.	c #9A2B13",
"L.	c #A9523F",
"M.	c #651C0C",
"N.	c #370F06",
"O.	c #390F07",
"P.	c #5B190B",
"Q.	c #9F5A4B",
"R.	c #7B2310",
"S.	c #74210F",
"T.	c #591B0E",
"U.	c #232222",
"V.	c #5B5B5B",
"W.	c #484848",
"X.	c #D57F68",
"Y.	c #BE3819",
"Z.	c #B53217",
"`.	c #952A12",
" +	c #A95846",
".+	c #AC6456",
"++	c #AC6657",
"@+	c #802410",
"#+	c #411E17",
"$+	c #2B2B2B",
"%+	c #858585",
"&+	c #474747",
"*+	c #464646",
"=+	c #D1745B",
"-+	c #B13115",
";+	c #AB3015",
">+	c #9C2C13",
",+	c #56180A",
"'+	c #380F06",
")+	c #380F07",
"!+	c #441308",
"~+	c #5E1B0D",
"{+	c #28201E",
"]+	c #525252",
"^+	c #676767",
"/+	c #454545",
"(+	c #444444",
"_+	c #CF694E",
":+	c #BF371A",
"<+	c #BD3417",
"[+	c #B73217",
"}+	c #A12D13",
"|+	c #4C1509",
"1+	c #671C0C",
"2+	c #AB6353",
"3+	c #AB6354",
"4+	c #5E1A0C",
"5+	c #350E06",
"6+	c #792210",
"7+	c #481C13",
"8+	c #202020",
"9+	c #767676",
"0+	c #424242",
"a+	c #D05E42",
"b+	c #C0381A",
"c+	c #BE3418",
"d+	c #B93317",
"e+	c #4F1609",
"f+	c #6D1E0D",
"g+	c #AD5C49",
"h+	c #912912",
"i+	c #8B2611",
"j+	c #320E06",
"k+	c #551D10",
"l+	c #201D1D",
"m+	c #686868",
"n+	c #404040",
"o+	c #CF5135",
"p+	c #C53819",
"q+	c #C03518",
"r+	c #5A190B",
"s+	c #711F0E",
"t+	c #B5604D",
"u+	c #932912",
"v+	c #9F5445",
"w+	c #92412F",
"x+	c #5E1C0F",
"y+	c #251D1B",
"z+	c #303030",
"A+	c #CE4626",
"B+	c #C83819",
"C+	c #C53617",
"D+	c #B64C35",
"E+	c #B85C48",
"F+	c #982B13",
"G+	c #8C2812",
"H+	c #892611",
"I+	c #832511",
"J+	c #822410",
"K+	c #671D0E",
"L+	c #2B1B18",
"M+	c #242424",
"N+	c #636363",
"O+	c #3C3C3C",
"P+	c #A0331A",
"Q+	c #CC3919",
"R+	c #C83719",
"S+	c #C53618",
"T+	c #691F0F",
"U+	c #311B16",
"V+	c #1D1D1D",
"W+	c #3A3A3A",
"X+	c #201817",
"Y+	c #A53218",
"Z+	c #CE3919",
"`+	c #852511",
" @	c #5B1E11",
".@	c #231917",
"+@	c #1E1E1E",
"@@	c #515151",
"#@	c #383838",
"$@	c #373737",
"%@	c #343434",
"&@	c #262626",
"*@	c #1D1716",
"=@	c #932E18",
"-@	c #752210",
";@	c #3C1B14",
">@	c #171716",
",@	c #555555",
"'@	c #414141",
")@	c #353535",
"!@	c #2C2C2C",
"~@	c #4A4A4A",
"{@	c #2A2A2A",
"]@	c #151515",
"^@	c #461F16",
"/@	c #AA3218",
"(@	c #C23518",
"_@	c #722211",
":@	c #411B14",
"<@	c #191615",
"[@	c #434343",
"}@	c #2F2F2F",
"|@	c #222222",
"1@	c #371B15",
"2@	c #682416",
"3@	c #8D2B17",
"4@	c #A93017",
"5@	c #AC3016",
"6@	c #A92F15",
"7@	c #A22E15",
"8@	c #A02D14",
"9@	c #9A2C14",
"0@	c #942A13",
"a@	c #7E2613",
"b@	c #531F13",
"c@	c #291814",
"d@	c #333333",
"e@	c #323232",
"f@	c #292929",
"g@	c #1C1C1C",
"h@	c #272727",
"i@	c #1B1B1B",
"j@	c #181818",
"k@	c #212121",
"l@	c #4C4C4C",
"m@	c #232323",
"n@	c #2E2E2E",
"o@	c #252525",
"p@	c #1A1A1A",
"q@	c #191919",
"r@	c #282828",
"s@	c #2D2D2D",
"t@	c #161616",
". + @ # $ % & * = - ; > , ' ) ! ~ { ] ^ / ( _ : < [ } | 1 2 3 4 5 ",
"6 7 8 9 0 a b c d e f g ' h i j k l m n o p q r s t u v w x y z A ",
"B C D E F G H I J K L M N O P Q R S T U V V W W X Y Z Z Z `  ...+.",
"@.#.$.E %.&.H J *.L =.-.O ;.P >.R ,.U V V W W Y Z Z ` ` '.'.).!.~.",
"{.].E F G ^.I J K /.M N O P >.R (._.V V W W Y Z Z ` '.:.:.<.[.}.|.",
"1.2.3.%.&.H I J L 4.5.O ;.P R 6.7.8.V 9.W Y Z Z ` '.:.0.0.a.b.c.d.",
"e.f.g.h.i.j.k.l.m.n.o.p.q.r.s.t.u.v.v.w.x.y.z.A.B.C.D.E.E.F...G.H.",
"I.f.g.h.i.j.J.l.m.K.L.M.N.O.P.Q.R.v.S.w.x.z.z.B.C.D.E.E.T.U.G.V.W.",
"X.Y.g.Z.i.j.k.l.m.K.`. +.+++R @+R.v.S.w.y.z.A.B.C.D.E.E.#+$+%+&+*+",
"=+Y.g.Z.-+;+k.J.m.>+`.,+'+)+!+@+R.v.S.w.y.z.A.B.C.D.E.~+{+]+^+/+(+",
"_+:+<+[+h.i.j.J.}+m.|+1+2+3+4+5+@+6+v.w.x.z.z.A.C.C.D.7+8+9+H.0+0+",
"a+b+c+d+[+-+;+k.J.e+f+g+h+i+Q 4+j+R.v.S.w.y.z.z.B.C.k+l+4 m+n+n+n+",
"o+p+q+c+[+Z.-+j.r+s+t+K.u+h+i+v+w+@+6+v.w.w.y.z.A.x+y+z+^+4 z z z ",
"A+B+C+q+c+[+Z.i.D+E+}+>+F+h+G+H+I+J+R.v.v.w.x.y.K+L+M+N+0+O+O+O+O+",
"P+Q+R+S+q+<+[+h.;+j.J.m.>+`.h+i+H+I+@+R.v.S.w.T+U+V+V.(+W+W+W+W+W+",
"X+Y+Z+R+S+q+<+[+h.;+k.l.m.K.u+h+i+`+I+@+R.v. @.@+@@@*+#@$@$@#@#@%@",
"&@*@=@Z+R+S+c+d+[+-+j.J.l.m.F+u+G+i+I+J+-@;@>@$+,@'@)@)@)@)@)@)@!@",
"~@{@]@^@/@R+(@c+d+Z.i.j.J.}+>+F+h+G+_@:@<@+@[@@@#@%@%@%@%@%@%@}@$+",
"M+0+n+|@]@1@2@3@4@5@6@7@8@9@0@a@b@c@]@|@z ]+'@d@d@d@d@d@d@d@e@f@f@",
"g@g@h@0+*+)@&@i@j@j@j@j@j@j@j@j@k@d@&+l@z z+z+z+z+z+z+z+z+z+&@&@&@",
"i@i@i@i@m@W+(+H.~@~@~@~@~@~@~@~@/+O+e@n@n@n@n@n@n@n@n@n@n@o@M+M+M+",
"p@p@p@p@q@i@r@s@s@s@s@s@s@s@s@s@!@s@s@s@!@s@!@s@!@s@s@s@M+m@|@|@m@",
"j@j@j@j@j@j@j@8+f@{@{@{@{@{@{@{@{@{@{@{@{@{@{@{@{@{@r@8+8+8+8+8+k@",
"g@t@t@t@t@t@t@t@q@&@r@r@r@r@r@r@r@r@r@r@r@r@r@r@r@k@+@+@+@+@+@+@+@"};
