/* XPM */
static char * close_pressed_xpm[] = {
"33 24 621 2",
"  	c None",
". 	c #FAF0EC",
"+ 	c #EBC0B4",
"@ 	c #E9BFB3",
"# 	c #EAC0B1",
"$ 	c #E7BFB0",
"% 	c #E8BFAE",
"& 	c #E6BFAD",
"* 	c #E5BEAB",
"= 	c #E4BEA9",
"- 	c #E2BDA8",
"; 	c #E1BEA7",
"> 	c #E0BCA7",
", 	c #DFBCA5",
"' 	c #DDBBA4",
") 	c #DBB9A3",
"! 	c #DAB8A1",
"~ 	c #D7B5A0",
"{ 	c #D6B4A0",
"] 	c #D3B29E",
"^ 	c #D2B19D",
"/ 	c #D0AF9C",
"( 	c #CEAC9A",
"_ 	c #CAA89A",
": 	c #C9A699",
"< 	c #C7A598",
"[ 	c #C5A297",
"} 	c #C2A095",
"| 	c #C09E95",
"1 	c #BF9B93",
"2 	c #BE9B92",
"3 	c #9A6D64",
"4 	c #3F3F3F",
"5 	c #AAAAAA",
"6 	c #FBF3ED",
"7 	c #F1D6CB",
"8 	c #F0D4C5",
"9 	c #EFD2C3",
"0 	c #EED1BE",
"a 	c #EDD0BA",
"b 	c #EBCDB4",
"c 	c #EACDB2",
"d 	c #E8CBAE",
"e 	c #E7CAAB",
"f 	c #E5C9A7",
"g 	c #E3C7A4",
"h 	c #E1C5A1",
"i 	c #DFC29F",
"j 	c #DEC09D",
"k 	c #DBBC9A",
"l 	c #D9B897",
"m 	c #D4B594",
"n 	c #D2B091",
"o 	c #CEAC8E",
"p 	c #CAA78C",
"q 	c #C6A188",
"r 	c #C29C84",
"s 	c #BC9681",
"t 	c #B8907D",
"u 	c #B4897A",
"v 	c #AF8375",
"w 	c #AA7D6F",
"x 	c #A5776C",
"y 	c #A17269",
"z 	c #7F5850",
"A 	c #3D3D3D",
"B 	c #A7A7A7",
"C 	c #EFCEC0",
"D 	c #D07055",
"E 	c #D27556",
"F 	c #D07A59",
"G 	c #D0805C",
"H 	c #D0875E",
"I 	c #CF8B60",
"J 	c #CF9062",
"K 	c #D19565",
"L 	c #D09966",
"M 	c #D09C68",
"N 	c #CF9F69",
"O 	c #CEA069",
"P 	c #CEA06A",
"Q 	c #CB9F69",
"R 	c #C99D69",
"S 	c #C59B67",
"T 	c #C39666",
"U 	c #BF9264",
"V 	c #BA8D62",
"W 	c #B5875F",
"X 	c #B1815C",
"Y 	c #AB7A59",
"Z 	c #A77456",
"` 	c #A16D53",
" .	c #9B6750",
"..	c #95604D",
"+.	c #925B4A",
"@.	c #905749",
"#.	c #8C5548",
"$.	c #4D2E26",
"%.	c #565656",
"&.	c #949494",
"*.	c #EBC7B6",
"=.	c #D17456",
"-.	c #D17A59",
";.	c #D2825C",
">.	c #D38B60",
",.	c #D29262",
"'.	c #D49966",
").	c #D49F6A",
"!.	c #D6A56D",
"~.	c #D8AA70",
"{.	c #D8AF71",
"].	c #D8B373",
"^.	c #D8B574",
"/.	c #D6B675",
"(.	c #D6B573",
"_.	c #D3B373",
":.	c #D0B071",
"<.	c #50432B",
"[.	c #C7A46C",
"}.	c #C39D69",
"|.	c #BE9665",
"1.	c #B78E62",
"2.	c #B2865F",
"3.	c #AA7D5A",
"4.	c #A37456",
"5.	c #9D6C52",
"6.	c #97644F",
"7.	c #925E4C",
"8.	c #8E584A",
"9.	c #8C5549",
"0.	c #352724",
"a.	c #717171",
"b.	c #7F7F7F",
"c.	c #EBC1AE",
"d.	c #D27757",
"e.	c #D17D5B",
"f.	c #D3885F",
"g.	c #D59263",
"h.	c #D69B67",
"i.	c #D7A26B",
"j.	c #D9AA6F",
"k.	c #DCB272",
"l.	c #B99B62",
"m.	c #DEBE78",
"n.	c #DFC37A",
"o.	c #E0C77C",
"p.	c #DFC77D",
"q.	c #DEC77B",
"r.	c #DCC47B",
"s.	c #584D31",
"t.	c #968353",
"u.	c #CEB172",
"v.	c #CAAA6E",
"w.	c #C2A16B",
"x.	c #BD9867",
"y.	c #B58F62",
"z.	c #AE845E",
"A.	c #A77A59",
"B.	c #9F7155",
"C.	c #996751",
"D.	c #925F4C",
"E.	c #8E594A",
"F.	c #7D4A3E",
"G.	c #292827",
"H.	c #8F8F8F",
"I.	c #696969",
"J.	c #E8BAA3",
"K.	c #D07A58",
"L.	c #D2815C",
"M.	c #D58D61",
"N.	c #D59665",
"O.	c #D7A06A",
"P.	c #D9A96E",
"Q.	c #DCB273",
"R.	c #DEBA76",
"S.	c #AF975F",
"T.	c #5C5132",
"U.	c #E5CF7F",
"V.	c #E6D282",
"W.	c #E7D482",
"X.	c #E5D382",
"Y.	c #5C5434",
"Z.	c #9D8E58",
"`.	c #E0CE94",
" +	c #D4BB77",
".+	c #CEB272",
"++	c #C8A86F",
"@+	c #BF9F69",
"#+	c #B89464",
"$+	c #B18A60",
"%+	c #A97F5B",
"&+	c #A17456",
"*+	c #9A6A51",
"=+	c #90614D",
"-+	c #8C5A4A",
";+	c #57342B",
">+	c #373736",
",+	c #989898",
"'+	c #595959",
")+	c #DF9C81",
"!+	c #C35329",
"~+	c #C65E32",
"{+	c #C96C39",
"]+	c #CA7A43",
"^+	c #CE874B",
"/+	c #D09454",
"(+	c #D3A05B",
"_+	c #D7AC62",
":+	c #DFC07B",
"<+	c #9F8B50",
"[+	c #5C522F",
"}+	c #B7A660",
"|+	c #CABA6C",
"1+	c #5C5531",
"2+	c #A39556",
"3+	c #E2D08E",
"4+	c #D3B96B",
"5+	c #CCAE64",
"6+	c #C3A05D",
"7+	c #BA9355",
"8+	c #AF854C",
"9+	c #A57744",
"0+	c #99693B",
"a+	c #8F5A33",
"b+	c #854B29",
"c+	c #773C20",
"d+	c #6D2F18",
"e+	c #662513",
"f+	c #372520",
"g+	c #575756",
"h+	c #747474",
"i+	c #494949",
"j+	c #DC9277",
"k+	c #C4542B",
"l+	c #C66032",
"m+	c #C96F3B",
"n+	c #CB7D45",
"o+	c #CE8B4D",
"p+	c #D19755",
"q+	c #D5A45D",
"r+	c #D9B065",
"s+	c #DEBC6C",
"t+	c #E7D18D",
"u+	c #A09255",
"v+	c #5D5632",
"w+	c #625B35",
"x+	c #A29958",
"y+	c #EBDE9C",
"z+	c #DFCB75",
"A+	c #D7BF6F",
"B+	c #CEB367",
"C+	c #C6A460",
"D+	c #BB9758",
"E+	c #AF884E",
"F+	c #A67A46",
"G+	c #9A6A3D",
"H+	c #8F5B33",
"I+	c #814B29",
"J+	c #753B21",
"K+	c #6C2E18",
"L+	c #602414",
"M+	c #272624",
"N+	c #757574",
"O+	c #5B5B5B",
"P+	c #484848",
"Q+	c #D8896A",
"R+	c #C7562B",
"S+	c #C76133",
"T+	c #CB703D",
"U+	c #CC7E46",
"V+	c #D08B4E",
"W+	c #D29956",
"X+	c #D6A65E",
"Y+	c #DBB266",
"Z+	c #DFBE6D",
"`+	c #E4CA75",
" @	c #EDDD98",
".@	c #F0E5A4",
"+@	c #F1E7A7",
"@@	c #EFE59F",
"#@	c #E7D77D",
"$@	c #E0CD78",
"%@	c #D9C270",
"&@	c #D0B569",
"*@	c #C6A761",
"=@	c #BB9958",
"-@	c #B1894F",
";@	c #8E5B32",
">@	c #804928",
",@	c #74391F",
"'@	c #6B2C16",
")@	c #48261C",
"!@	c #2E2E2C",
"~@	c #858585",
"{@	c #474747",
"]@	c #464646",
"^@	c #D57F60",
"/@	c #C7572C",
"(@	c #CD7F46",
"_@	c #CF8C4E",
":@	c #D39855",
"<@	c #D6A55E",
"[@	c #DAB266",
"}@	c #E0BE6D",
"|@	c #E3C974",
"1@	c #897D48",
"2@	c #5F5833",
"3@	c #7A7343",
"4@	c #E6D67D",
"5@	c #E0CC77",
"6@	c #D8C170",
"7@	c #CEB469",
"8@	c #C5A661",
"9@	c #BA9857",
"0@	c #A47845",
"a@	c #98683B",
"b@	c #8C5630",
"c@	c #7D4425",
"d@	c #71341C",
"e@	c #682915",
"f@	c #2D2621",
"g@	c #545453",
"h@	c #676767",
"i@	c #454545",
"j@	c #444444",
"k@	c #D37552",
"l@	c #C8552C",
"m@	c #CB6132",
"n@	c #CC6F3D",
"o@	c #CF7C44",
"p@	c #D08A4C",
"q@	c #D49655",
"r@	c #D5A35C",
"s@	c #DAAF64",
"t@	c #DDBB6B",
"u@	c #716238",
"v@	c #A09053",
"w@	c #EDDF9F",
"x@	c #EFE2A2",
"y@	c #A59959",
"z@	c #DEC874",
"A@	c #D6BD6E",
"B@	c #CEB166",
"C@	c #C3A35E",
"D@	c #BA9555",
"E@	c #AD854C",
"F@	c #A27442",
"G@	c #966237",
"H@	c #88502B",
"I@	c #7C3F21",
"J@	c #6F3018",
"K@	c #502619",
"L@	c #242422",
"M@	c #777776",
"N@	c #494948",
"O@	c #424242",
"P@	c #D26A49",
"Q@	c #C8522B",
"R@	c #CB5E31",
"S@	c #CC6C3A",
"T@	c #D07A43",
"U@	c #D0874B",
"V@	c #D39352",
"W@	c #D59E5A",
"X@	c #D9AA60",
"Y@	c #6D5A33",
"Z@	c #9C864C",
"`@	c #E8D494",
" #	c #E4CC76",
".#	c #E4CE79",
"+#	c #E9D998",
"@#	c #564C2C",
"##	c #D3B76A",
"$#	c #CAAA62",
"%#	c #C09D5A",
"&#	c #B78E51",
"*#	c #AA7D48",
"=#	c #9D6B3D",
"-#	c #915932",
";#	c #824627",
">#	c #77371C",
",#	c #5F2B17",
"'#	c #262420",
")#	c #414140",
"!#	c #686868",
"~#	c #404040",
"{#	c #D25C3B",
"]#	c #CC5028",
"^#	c #CB5A2F",
"/#	c #CE6737",
"(#	c #CE7440",
"_#	c #D08248",
":#	c #D38D4F",
"<#	c #D49955",
"[#	c #755A32",
"}#	c #987945",
"|#	c #E4C88D",
"1#	c #DFBD6E",
"2#	c #DFC170",
"3#	c #E0C471",
"4#	c #DDC270",
"5#	c #E1CC8D",
"6#	c #DABF7D",
"7#	c #CEAD64",
"8#	c #C5A15C",
"9#	c #BC9454",
"0#	c #B1834B",
"a#	c #A57341",
"b#	c #976036",
"c#	c #884C2B",
"d#	c #7C3C21",
"e#	c #6A2D19",
"f#	c #2D251F",
"g#	c #333332",
"h#	c #686867",
"i#	c #D04F2C",
"j#	c #CD4A24",
"k#	c #CD542A",
"l#	c #CD6033",
"m#	c #D06D3C",
"n#	c #D07942",
"o#	c #D2864B",
"p#	c #D39051",
"q#	c #DBA86E",
"r#	c #DFB881",
"s#	c #D8AB62",
"t#	c #D9B266",
"u#	c #DAB568",
"v#	c #D8B668",
"w#	c #D6B568",
"x#	c #D3B066",
"y#	c #CEA961",
"z#	c #C7A05B",
"A#	c #BD9454",
"B#	c #B3854B",
"C#	c #AA7642",
"D#	c #9C6337",
"E#	c #8F512C",
"F#	c #824022",
"G#	c #74311A",
"H#	c #34251D",
"I#	c #292926",
"J#	c #646463",
"K#	c #424241",
"L#	c #3C3C3C",
"M#	c #A33A1E",
"N#	c #CF4621",
"O#	c #CD4D27",
"P#	c #CE572C",
"Q#	c #CE6335",
"R#	c #D06F3C",
"S#	c #D07B44",
"T#	c #D2854A",
"U#	c #D18F51",
"V#	c #D59855",
"W#	c #D49F5A",
"X#	c #D4A45E",
"Y#	c #D5A860",
"Z#	c #D2A860",
"`#	c #D1A65F",
" $	c #CBA05C",
".$	c #C69957",
"+$	c #BE8F51",
"@$	c #B58248",
"#$	c #AA7340",
"$$	c #9E6336",
"%$	c #92512C",
"&$	c #864223",
"*$	c #77341B",
"=$	c #3B261C",
"-$	c #222220",
";$	c #5C5C5B",
">$	c #3A3A3A",
",$	c #241C19",
"'$	c #A83A1D",
")$	c #D04722",
"!$	c #CE4E28",
"~$	c #CE572D",
"{$	c #CE6234",
"]$	c #CF6E3B",
"^$	c #CE7843",
"/$	c #D18147",
"($	c #CF8A4C",
"_$	c #CF8F50",
":$	c #CF9354",
"<$	c #CE9655",
"[$	c #CC9655",
"}$	c #C79253",
"|$	c #C38D4F",
"1$	c #BD834A",
"2$	c #B37743",
"3$	c #AB6B3C",
"4$	c #A15D32",
"5$	c #954F2A",
"6$	c #8B4121",
"7$	c #69321C",
"8$	c #2E241D",
"9$	c #242421",
"0$	c #535352",
"a$	c #383838",
"b$	c #373737",
"c$	c #343434",
"d$	c #272726",
"e$	c #211B18",
"f$	c #97361D",
"g$	c #D14621",
"h$	c #CE4C26",
"i$	c #CE552B",
"j$	c #CB6738",
"k$	c #CD703D",
"l$	c #CA7841",
"m$	c #C97C44",
"n$	c #C77F46",
"o$	c #C78148",
"p$	c #C47F47",
"q$	c #BE7C44",
"r$	c #B87540",
"s$	c #AF6C3B",
"t$	c #A95F34",
"u$	c #9D542D",
"v$	c #964826",
"w$	c #853C20",
"x$	c #4A2B1D",
"y$	c #21211C",
"z$	c #2F2F2D",
"A$	c #414141",
"B$	c #353535",
"C$	c #2C2C2C",
"D$	c #4A4A49",
"E$	c #2B2B2A",
"F$	c #191917",
"G$	c #4C261A",
"H$	c #AF3E1F",
"I$	c #CD4924",
"J$	c #CA4F28",
"K$	c #C9572D",
"L$	c #C75E31",
"M$	c #C66335",
"N$	c #C26636",
"O$	c #C16838",
"P$	c #BD6938",
"Q$	c #BA6637",
"R$	c #B56235",
"S$	c #B05C31",
"T$	c #A7532C",
"U$	c #9E4A27",
"V$	c #833C20",
"W$	c #512E1F",
"X$	c #25221C",
"Y$	c #252521",
"Z$	c #464644",
"`$	c #525251",
" %	c #383837",
".%	c #2F2F2F",
"+%	c #2B2B2B",
"@%	c #242424",
"#%	c #252523",
"$%	c #1B1B18",
"%%	c #40251B",
"&%	c #72331E",
"*%	c #983F22",
"=%	c #B34926",
"-%	c #B74D27",
";%	c #B64F29",
">%	c #B1502A",
",%	c #B05029",
"'%	c #AA4D28",
")%	c #A34926",
"!%	c #8E4224",
"~%	c #653620",
"{%	c #3A2B1E",
"]%	c #22221B",
"^%	c #2A2A25",
"/%	c #41413E",
"(%	c #333333",
"_%	c #323232",
":%	c #292929",
"<%	c #1C1C1C",
"[%	c #272727",
"}%	c #484847",
"|%	c #383836",
"1%	c #2C2C29",
"2%	c #242420",
"3%	c #25251F",
"4%	c #272720",
"5%	c #2A2A21",
"6%	c #2B2B22",
"7%	c #282820",
"8%	c #2B2B26",
"9%	c #393936",
"0%	c #4B4B48",
"a%	c #4E4E4D",
"b%	c #3E3E3D",
"c%	c #303030",
"d%	c #262626",
"e%	c #1B1B1B",
"f%	c #232322",
"g%	c #3B3B3A",
"h%	c #4B4B49",
"i%	c #4D4D4B",
"j%	c #4E4E4B",
"k%	c #4F4F4C",
"l%	c #474745",
"m%	c #2E2E2E",
"n%	c #252525",
"o%	c #1A1A1A",
"p%	c #191919",
"q%	c #282827",
"r%	c #2D2D2D",
"s%	c #2E2E2D",
"t%	c #2D2D2C",
"u%	c #232323",
"v%	c #222222",
"w%	c #181818",
"x%	c #202020",
"y%	c #2A2A2A",
"z%	c #2A2A29",
"A%	c #282828",
"B%	c #212121",
"C%	c #161616",
"D%	c #1E1E1E",
". + @ # $ % & * = - ; > , ' ) ! ~ { ] ^ / ( _ : < [ } | 1 2 3 4 5 ",
"6 7 8 9 0 a b c d e f g h i j k l m n o p q r s t u v w x y z A B ",
"C D E F G H I J K L M N O P Q R S T U V W X Y Z `  ...+.@.#.$.%.&.",
"*.=.-.;.>.,.'.).!.~.{.].^./.(._.:.<.[.}.|.1.2.3.4.5.6.7.8.9.0.a.b.",
"c.d.e.f.g.h.i.j.k.l.m.n.o.p.q.r.s.t.u.v.w.x.y.z.A.B.C.D.E.F.G.H.I.",
"J.K.L.M.N.O.P.Q.R.S.T.U.V.W.X.Y.Z.`. +.+++@+#+$+%+&+*+=+-+;+>+,+'+",
")+!+~+{+]+^+/+(+_+:+<+[+}+|+1+2+3+4+5+6+7+8+9+0+a+b+c+d+e+f+g+h+i+",
"j+k+l+m+n+o+p+q+r+s+t+u+v+w+x+y+z+A+B+C+D+E+F+G+H+I+J+K+L+M+N+O+P+",
"Q+R+S+T+U+V+W+X+Y+Z+`+ @.@+@@@#@$@%@&@*@=@-@F+G+;@>@,@'@)@!@~@{@]@",
"^@/@S+T+(@_@:@<@[@}@|@1@2@w+3@4@5@6@7@8@9@E+0@a@b@c@d@e@f@g@h@i@j@",
"k@l@m@n@o@p@q@r@s@t@u@v@w@x@y@1+z@A@B@C@D@E@F@G@H@I@J@K@L@M@N@O@O@",
"P@Q@R@S@T@U@V@W@X@Y@Z@`@ #.#+#v@@###$#%#&#*#=#-#;#>#,#'#)#!#~#~#~#",
"{#]#^#/#(#_#:#<#[#}#|#1#2#3#4#5#6#7#8#9#0#a#b#c#d#e#f#g#h#4 A A A ",
"i#j#k#l#m#n#o#p#q#r#s#t#u#v#w#x#y#z#A#B#C#D#E#F#G#H#I#J#K#L#L#L#L#",
"M#N#O#P#Q#R#S#T#U#V#W#X#Y#Z#`# $.$+$@$#$$$%$&$*$=$-$;$j@>$>$>$>$>$",
",$'$)$!$~${$]$^$/$($_$:$<$[$}$|$1$2$3$4$5$6$7$8$9$0$]@a$b$b$a$a$c$",
"d$e$f$g$h$i$R@j$k$l$m$n$o$p$q$r$s$t$u$v$w$x$y$z$g+A$B$B$B$B$B$B$C$",
"D$E$F$G$H$I$J$K$L$M$N$O$P$Q$R$S$T$U$V$W$X$Y$Z$`$ %c$c$c$c$c$c$.%+%",
"@%K#)##%$%%%&%*%=%-%;%>%,%'%)%!%~%{%]%^%/%g@K#g#(%(%(%(%(%(%_%:%:%",
"<%<%[%O@}%|%1%2%3%4%5%6%6%5%7%3%8%9%0%a%b%c%c%c%c%c%c%c%c%c%d%d%d%",
"e%e%e%e%f%g%Z$h%i%j%j%k%k%j%j%i%l%b%g#m%m%m%m%m%m%m%m%m%m%n%@%@%@%",
"o%o%o%o%p%e%q%r%r%s%s%s%s%s%s%r%C$t%r%r%C$r%C$r%C$r%r%r%@%u%v%v%u%",
"w%w%w%w%w%w%w%x%:%y%z%z%z%y%y%y%y%y%y%y%y%y%y%y%y%y%A%x%x%x%x%x%B%",
"<%C%C%C%C%C%C%C%p%d%A%A%A%A%A%A%A%A%A%A%A%A%A%A%A%B%D%D%D%D%D%D%D%"};
