/* XPM */
static char * close_inactive_xpm[] = {
"33 24 270 2",
"  	c None",
". 	c #908A89",
"+ 	c #876E68",
"@ 	c #866C68",
"# 	c #866C67",
"$ 	c #846B66",
"% 	c #836A65",
"& 	c #826964",
"* 	c #816863",
"= 	c #7F6762",
"- 	c #7E6662",
"; 	c #7D6660",
"> 	c #7C6560",
", 	c #7B645F",
"' 	c #7A635E",
") 	c #78625D",
"! 	c #77615C",
"~ 	c #76605C",
"{ 	c #76605B",
"] 	c #755F5B",
"^ 	c #745E59",
"/ 	c #725D59",
"( 	c #725C58",
"_ 	c #715C58",
": 	c #705B57",
"< 	c #6F5B56",
"[ 	c #6E5A55",
"} 	c #6E5955",
"| 	c #6D5954",
"1 	c #583E39",
"2 	c #2B2B2B",
"3 	c #AAAAAA",
"4 	c #908C8B",
"5 	c #8A7A77",
"6 	c #897875",
"7 	c #897673",
"8 	c #887570",
"9 	c #86736E",
"0 	c #85706C",
"a 	c #846F6A",
"b 	c #826C68",
"c 	c #816B66",
"d 	c #7F6964",
"e 	c #7E6762",
"f 	c #79615C",
"g 	c #765E59",
"h 	c #755C57",
"i 	c #725B55",
"j 	c #715853",
"k 	c #6F5751",
"l 	c #6D544F",
"m 	c #6B524D",
"n 	c #6A504A",
"o 	c #674E49",
"p 	c #664C46",
"q 	c #644A45",
"r 	c #634842",
"s 	c #60463F",
"t 	c #5E443E",
"u 	c #5C413C",
"v 	c #49322E",
"w 	c #292929",
"x 	c #A7A7A7",
"y 	c #897570",
"z 	c #763A2E",
"A 	c #763A2D",
"B 	c #73392D",
"C 	c #72392D",
"D 	c #70392C",
"E 	c #6D372C",
"F 	c #6B372C",
"G 	c #69372B",
"H 	c #68362B",
"I 	c #66362B",
"J 	c #63352B",
"K 	c #62352B",
"L 	c #60332A",
"M 	c #5F332A",
"N 	c #5C332A",
"O 	c #5B332A",
"P 	c #59322A",
"Q 	c #57322A",
"R 	c #55312A",
"S 	c #54312A",
"T 	c #533129",
"U 	c #513029",
"V 	c #503029",
"W 	c #2C1A16",
"X 	c #454545",
"Y 	c #949494",
"Z 	c #87706B",
"` 	c #74392D",
" .	c #72392C",
"..	c #6E382C",
"+.	c #6A372C",
"@.	c #64352B",
"#.	c #60352B",
"$.	c #5D332A",
"%.	c #502F29",
"&.	c #1E1614",
"*.	c #676767",
"=.	c #7F7F7F",
"-.	c #866B66",
";.	c #4F2F28",
">.	c #462922",
",.	c #171616",
"'.	c #8C8C8C",
").	c #696969",
"!.	c #846660",
"~.	c #67362B",
"{.	c #58322A",
"].	c #4D2F28",
"^.	c #301B17",
"/.	c #242424",
"(.	c #989898",
"_.	c #595959",
":.	c #7E5149",
"<.	c #6A1D0D",
"[.	c #691C0D",
"}.	c #671C0C",
"|.	c #631B0C",
"1.	c #621B0B",
"2.	c #5F1A0B",
"3.	c #5D190B",
"4.	c #5B190A",
"5.	c #58180A",
"6.	c #55180A",
"7.	c #53170A",
"8.	c #501509",
"9.	c #4E1509",
"0.	c #4B1509",
"a.	c #4A1409",
"b.	c #461409",
"c.	c #451308",
"d.	c #411208",
"e.	c #401208",
"f.	c #3E1108",
"g.	c #3D1108",
"h.	c #3B1108",
"i.	c #3A1008",
"j.	c #3A1007",
"k.	c #371007",
"l.	c #360F07",
"m.	c #1D1311",
"n.	c #4A4A4A",
"o.	c #747474",
"p.	c #494949",
"q.	c #7B4B41",
"r.	c #5E1A0B",
"s.	c #491409",
"t.	c #421308",
"u.	c #330F08",
"v.	c #141313",
"w.	c #707070",
"x.	c #5B5B5B",
"y.	c #484848",
"z.	c #79443A",
"A.	c #6C1D0D",
"B.	c #681C0D",
"C.	c #25110D",
"D.	c #1B1B1B",
"E.	c #858585",
"F.	c #474747",
"G.	c #464646",
"H.	c #773E32",
"I.	c #661C0C",
"J.	c #621B0C",
"K.	c #59190A",
"L.	c #171211",
"M.	c #444444",
"N.	c #76372A",
"O.	c #6D1D0D",
"P.	c #5C190A",
"Q.	c #57180A",
"R.	c #54170A",
"S.	c #50170A",
"T.	c #451309",
"U.	c #29100A",
"V.	c #121212",
"W.	c #757575",
"X.	c #424242",
"Y.	c #763223",
"Z.	c #6E1E0D",
"`.	c #311009",
" +	c #121010",
".+	c #333333",
"++	c #686868",
"@+	c #404040",
"#+	c #762B1C",
"$+	c #711F0D",
"%+	c #4C1509",
"&+	c #361008",
"*+	c #15100F",
"=+	c #232323",
"-+	c #3F3F3F",
";+	c #3D3D3D",
">+	c #762614",
",+	c #731F0E",
"'+	c #3B1008",
")+	c #180F0D",
"!+	c #171717",
"~+	c #626262",
"{+	c #3C3C3C",
"]+	c #5B1C0E",
"^+	c #75200E",
"/+	c #3C1108",
"(+	c #1C0F0C",
"_+	c #111111",
":+	c #3A3A3A",
"<+	c #120D0D",
"[+	c #5F1C0D",
"}+	c #76200E",
"|+	c #341109",
"1+	c #140E0D",
"2+	c #131313",
"3+	c #4E4E4E",
"4+	c #383838",
"5+	c #373737",
"6+	c #343434",
"7+	c #1C1C1C",
"8+	c #100D0C",
"9+	c #541A0D",
"0+	c #431309",
"a+	c #220F0B",
"b+	c #0D0D0C",
"c+	c #212121",
"d+	c #545454",
"e+	c #414141",
"f+	c #353535",
"g+	c #2C2C2C",
"h+	c #0C0C0C",
"i+	c #28110C",
"j+	c #621C0D",
"k+	c #6F1E0D",
"l+	c #411309",
"m+	c #250F0B",
"n+	c #0E0C0C",
"o+	c #3E3E3E",
"p+	c #515151",
"q+	c #2F2F2F",
"r+	c #181818",
"s+	c #1F0F0C",
"t+	c #3B140C",
"u+	c #51180D",
"v+	c #611B0D",
"w+	c #611B0C",
"x+	c #5D1A0C",
"y+	c #5C190B",
"z+	c #58190B",
"A+	c #48150A",
"B+	c #2F110A",
"C+	c #170D0B",
"D+	c #525252",
"E+	c #323232",
"F+	c #272727",
"G+	c #303030",
"H+	c #1E1E1E",
"I+	c #0F0F0F",
"J+	c #2D2D2D",
"K+	c #4C4C4C",
"L+	c #262626",
"M+	c #2E2E2E",
"N+	c #252525",
"O+	c #1A1A1A",
"P+	c #191919",
"Q+	c #282828",
"R+	c #222222",
"S+	c #202020",
"T+	c #2A2A2A",
"U+	c #161616",
". + @ # $ $ % & * = = - ; > , ' ) ! ~ { ] ^ / ( _ : < [ } | 1 2 3 ",
"4 5 6 7 8 9 0 a b c d e > ' f g h i j k l m n o p q r s t u v w x ",
"y z A B C D E F F G H I J K L M N N O P Q Q R R S T U U U V W X Y ",
"Z z ` B  ...E F +.H I @.K #.L $.N O P Q Q R R T U U V V %.%.&.*.=.",
"-.A B C D ..F F G H I J K L $.N O P Q Q R R T U U V %.;.;.>.,.'.).",
"!.` B  ...E F F H ~.I K #.L N N O {.Q R R T U U V %.;.].].^./.(._.",
":.<.[.}.|.1.2.3.4.5.6.7.8.9.0.a.b.c.c.d.e.f.g.h.i.j.k.l.l.m.n.o.p.",
"q.<.[.}.|.1.r.3.4.5.6.7.8.9.0.s.b.c.t.d.e.g.g.i.j.k.l.l.u.v.w.x.y.",
"z.A.[.B.|.1.2.3.4.5.6.7.8.9.0.s.b.c.t.d.f.g.h.i.j.k.l.l.C.D.E.F.G.",
"H.A.[.B.I.J.2.r.4.K.6.7.8.9.0.s.b.c.t.d.f.g.h.i.j.k.l.l.L.y.*.X M.",
"N.O.A.[.}.|.1.r.P.4.Q.R.S.8.0.a.s.T.c.d.e.g.g.h.j.j.k.U.V.W.p.X.X.",
"Y.Z.O.<.[.I.J.2.r.4.K.6.7.8.9.0.s.b.c.t.d.f.g.g.i.j.`. +.+++@+@+@+",
"#+$+Z.O.[.B.I.1.r.3.4.5.R.7.8.%+a.s.T.c.d.d.f.g.h.&+*+=+*.-+;+;+;+",
">+,+$+Z.O.[.B.|.1.r.P.K.Q.7.S.9.0.a.b.c.c.d.e.f.'+)+!+~+X.{+{+{+{+",
"]+^+,+$+Z.A.[.}.J.1.r.4.K.6.7.8.9.0.s.b.c.t.d./+(+_+_.M.:+:+:+:+:+",
"<+[+}+,+$+Z.A.[.}.J.2.3.4.5.R.7.8.%+0.s.b.c.|+1+2+3+G.4+5+5+4+4+6+",
"7+8+9+}+,+$+O.<.[.I.1.r.3.4.Q.R.S.8.0.a.0+a+b+c+d+e+f+f+f+f+f+f+g+",
"n.c+h+i+j+,+k+O.<.B.|.1.r.P.K.Q.7.S.l+m+n+2+o+p+4+6+6+6+6+6+6+q+2 ",
"/.X.;+r+h+s+t+u+v+|.w+x+y+z+6.A+B+C+h+r+4+D+e+.+.+.+.+.+.+.+E+w w ",
"7+7+F+X.M.G+H+V.I+I+I+I+I+I+I+I+r+J+G.K+;+G+G+G+G+G+G+G+G+G+L+L+L+",
"D.D.D.D.=+:+M.p.n.n.n.n.n.n.n.n.X {+E+M+M+M+M+M+M+M+M+M+M+N+/././.",
"O+O+O+O+P+D.Q+J+J+J+J+J+J+J+J+J+g+J+J+J+g+J+g+J+g+J+J+J+/.=+R+R+=+",
"r+r+r+r+r+r+r+S+w T+T+T+T+T+T+T+T+T+T+T+T+T+T+T+T+T+Q+S+S+S+S+S+c+",
"7+U+U+U+U+U+U+U+P+L+Q+Q+Q+Q+Q+Q+Q+Q+Q+Q+Q+Q+Q+Q+Q+c+H+H+H+H+H+H+H+"};
