/* XPM */
static char * hide_normal_xpm[] = {
"29 24 245 2",
"  	c None",
". 	c #211715",
"+ 	c #F5A999",
"@ 	c #F5AA9A",
"# 	c #F5AA9B",
"$ 	c #F7AC9C",
"% 	c #F7AD9D",
"& 	c #F8AE9F",
"* 	c #F8AFA0",
"= 	c #F8B0A0",
"- 	c #F8B1A1",
"; 	c #F8B2A3",
"> 	c #F8B2A4",
", 	c #F8B4A5",
"' 	c #F8B4A6",
") 	c #F8B5A7",
"! 	c #F8B7A8",
"~ 	c #F8B7AA",
"{ 	c #F8B8AA",
"] 	c #F8B9AB",
"^ 	c #F8BAAD",
"/ 	c #F7BAAE",
"( 	c #F6BCAF",
"_ 	c #F7BDB1",
": 	c #F7BEB2",
"< 	c #F7BFB3",
"[ 	c #F6C0B4",
"} 	c #E2AEA3",
"| 	c #151515",
"1 	c #EA8E7A",
"2 	c #F39683",
"3 	c #F59A86",
"4 	c #F69C89",
"5 	c #F79F8D",
"6 	c #F7A18F",
"7 	c #F7A492",
"8 	c #F7A795",
"9 	c #F8A998",
"0 	c #F8AC9B",
"a 	c #F8B3A4",
"b 	c #F8B6A7",
"c 	c #F8BAAE",
"d 	c #F7BDB0",
"e 	c #F8BFB4",
"f 	c #F7C2B7",
"g 	c #F8C4BA",
"h 	c #F8C6BC",
"i 	c #F8C9C0",
"j 	c #F8CBC2",
"k 	c #F8CEC6",
"l 	c #F8D0C8",
"m 	c #F8D3CC",
"n 	c #F8D0C7",
"o 	c #E2B0A5",
"p 	c #191919",
"q 	c #C05039",
"r 	c #F26F53",
"s 	c #F36F53",
"t 	c #EF6E53",
"u 	c #EE6E53",
"v 	c #EC6D53",
"w 	c #EA6D53",
"x 	c #E96C52",
"y 	c #E66C52",
"z 	c #E56C52",
"A 	c #E36B52",
"B 	c #C2644E",
"C 	c #242424",
"D 	c #6D2C1F",
"E 	c #CD5E46",
"F 	c #C35943",
"G 	c #C45B45",
"H 	c #A34B39",
"I 	c #E26B51",
"J 	c #E16C51",
"K 	c #C1654E",
"L 	c #3A3A3A",
"M 	c #1B1514",
"N 	c #E8674C",
"O 	c #C05842",
"P 	c #53261C",
"Q 	c #B6543F",
"R 	c #CA5E47",
"S 	c #50251C",
"T 	c #A14B39",
"U 	c #E16B51",
"V 	c #DF6B51",
"W 	c #BD644E",
"X 	c #4E4E4E",
"Y 	c #171717",
"Z 	c #873624",
"` 	c #F56F53",
" .	c #F5907A",
"..	c #A74D3A",
"+.	c #52251C",
"@.	c #B4533E",
"#.	c #EC9785",
"$.	c #DF6A51",
"%.	c #DC6951",
"&.	c #DB6A50",
"*.	c #414141",
"=.	c #282828",
"-.	c #18110F",
";.	c #D43B1B",
">.	c #F0421D",
",.	c #F2421D",
"'.	c #EF411C",
").	c #EE6244",
"!.	c #A32C13",
"~.	c #4F1509",
"{.	c #E43F1C",
"].	c #882510",
"^.	c #7E220F",
"/.	c #E4674D",
"(.	c #DB3C1B",
"_.	c #D83C1A",
":.	c #D63B1A",
"<.	c #D13A1A",
"[.	c #D03A19",
"}.	c #CE3A19",
"|.	c #A63318",
"1.	c #3F3F3F",
"2.	c #3C3C3C",
"3.	c #301611",
"4.	c #E73F1C",
"5.	c #BA3215",
"6.	c #A42C13",
"7.	c #ED6649",
"8.	c #A22C13",
"9.	c #B43115",
"0.	c #E45D41",
"a.	c #A32C14",
"b.	c #6B1D0C",
"c.	c #CE3919",
"d.	c #CC3A19",
"e.	c #A33218",
"f.	c #3D3D3D",
"g.	c #353535",
"h.	c #101010",
"i.	c #4E1C12",
"j.	c #F1411C",
"k.	c #F4431D",
"l.	c #B73C21",
"m.	c #511609",
"n.	c #B33115",
"o.	c #EB6549",
"p.	c #E55031",
"q.	c #A02C13",
"r.	c #4B1409",
"s.	c #972A12",
"t.	c #3B3B3B",
"u.	c #2E2E2E",
"v.	c #0E0E0E",
"w.	c #6C2314",
"x.	c #F3421C",
"y.	c #F26D51",
"z.	c #A5361F",
"A.	c #501609",
"B.	c #B23015",
"C.	c #CB3718",
"D.	c #4C1509",
"E.	c #992A12",
"F.	c #CC3919",
"G.	c #CA3819",
"H.	c #A23218",
"I.	c #393939",
"J.	c #252525",
"K.	c #3E1911",
"L.	c #EA401C",
"M.	c #F6431D",
"N.	c #F07359",
"O.	c #A53922",
"P.	c #621A0B",
"Q.	c #B23115",
"R.	c #E5765E",
"S.	c #A23117",
"T.	c #343434",
"U.	c #373737",
"V.	c #2D2D2D",
"W.	c #1E1E1E",
"X.	c #151111",
"Y.	c #A12F17",
"Z.	c #EB401C",
"`.	c #EF765C",
" +	c #C16A58",
".+	c #C4604B",
"++	c #E8765E",
"@+	c #DA3C1A",
"#+	c #A33017",
"$+	c #272727",
"%+	c #313131",
"&+	c #222222",
"*+	c #0C0C0C",
"=+	c #32150E",
"-+	c #C43719",
";+	c #E9401C",
">+	c #E33E1B",
",+	c #DD3D1B",
"'+	c #A53116",
")+	c #262626",
"!+	c #2B2B2B",
"~+	c #333333",
"{+	c #323232",
"]+	c #1C1C1C",
"^+	c #31140E",
"/+	c #942C16",
"(+	c #D33A1A",
"_+	c #E03E1B",
":+	c #DF3D1A",
"<+	c #D53B1A",
"[+	c #D0391A",
"}+	c #CF391A",
"|+	c #CD381A",
"1+	c #C83719",
"2+	c #C33619",
"3+	c #C23617",
"4+	c #9C2D14",
"5+	c #2F2F2F",
"6+	c #303030",
"7+	c #0F0F0F",
"8+	c #232323",
"9+	c #3E3E3E",
"0+	c #404040",
"a+	c #434343",
"b+	c #444444",
"c+	c #464646",
"d+	c #484848",
"e+	c #494949",
"f+	c #4C4C4C",
"g+	c #4D4D4D",
"h+	c #515151",
"i+	c #525252",
"j+	c #535353",
"k+	c #565656",
"l+	c #575756",
"m+	c #212121",
"n+	c #2C2C2C",
"o+	c #292929",
"p+	c #2A2A2A",
"q+	c #202020",
"r+	c #1B1B1B",
"s+	c #1A1A1A",
"t+	c #1F1F1F",
"u+	c #181818",
"v+	c #1D1D1D",
". + @ # $ % & * = - ; > , ' ) ! ~ { ] ^ / / ( _ : < [ [ } ",
"| 1 2 3 4 5 6 7 8 9 0 & - a b { c d e f g h i j k l m n o ",
"p q r r s s s s s s s s s s r r t u u u v w w x x y z A B ",
"C D r s s s s s s s s s s E F t u u v w G H y z z A I J K ",
"L M N s s s s s s s s s s O P Q u v w R S T z A I U U V W ",
"X Y Z s s s ` ` ` ` s s s  ...+.@.v G S T #.I U U $.%.&.W ",
"*.=.-.;.>.,.,.,.,.,.>.>.>.'.).!.~.{.].^./.(._._.:.<.[.}.|.",
"1.2.| 3.4.,.,.,.,.,.,.>.>.5.6.7.8.{.9.0.a.b._.:.<.[.c.d.e.",
"f.f.g.h.i.j.k.k.k.,.,.>.>.l.m.n.o.{.p.q.r.s._.<.[.[.c.d.e.",
"t.2.2.u.v.w.x.k.k.k.,.>.>.y.z.A.B.{.C.D.E.U :.<.[.c.F.G.H.",
"I.I.I.I.J.h.K.L.M.k.k.,.>.'.N.O.P.{.m.Q.R._._.<.[.[.F.G.S.",
"T.U.U.U.U.V.W.X.Y.M.k.,.>.>.Z.`. +{..+++(.@+_.:.[.[.c.d.#+",
"$+u.g.T.T.T.%+&+*+=+-+k.,.>.'.Z.;+4.{.>+,+@+_._.<.[.[.c.'+",
")+)+!+~+~+~+~+{+$+]+*+^+/+(+_+:+@+@+<+<+[+}+|+G.G.1+2+3+4+",
"C C C $+5+6+6+%+%+V.&+Y 7+v.v.v.v.v.v.v.v.v.v.v.v.v.v.v.v.",
"&+&+8+&+8+8+&+$+!+u.u.~+f.9+0+a+a+b+c+d+e+f+g+X h+i+j+k+l+",
"m+m+m+m+m+m+m+m+m+m+m+8+)+n+n+n+n+n+!+!+n+n+n+n+n+n+n+n+n+",
"o+!+!+p+p+o+o+o+=.=.J.8+m+m+q+q+q+q+q+q+q+q+q+m+m+&+8+8+8+",
"o+o+o+o+o+o+o+o+o+o+o+o+o+o+$+m+W.W.W.W.W.W.W.W.W.W.W.W.W.",
")+)+)+)+)+)+)+)+)+)+J.)+)+)+)+)+8+]+]+]+]+]+]+]+]+]+]+]+]+",
"C C C C C C C C C C 8+q+8+C C C C ]+r+r+r+r+r+r+r+r+r+r+r+",
"8+8+8+8+8+8+8+8+8+8+8+m+]+r+]+]+s+s+s+s+s+p s+p s+s+s+s+p ",
"q+q+q+q+q+q+q+q+q+q+m+q+q+t+]+p u+u+u+u+u+u+u+u+s+r+]+v+W.",
"W.W.W.W.W.W.W.W.W.W.W.W.W.W.W.W.W.W.v+v+v+v+W.W.W.W.W.W.W."};
