/* XPM */
static char * hide_active_xpm[] = {
"29 24 239 2",
"  	c None",
". 	c #211715",
"+ 	c #F5A999",
"@ 	c #F5AA9A",
"# 	c #F5AA9B",
"$ 	c #F7AC9C",
"% 	c #F7AD9D",
"& 	c #F8AE9F",
"* 	c #F8AFA0",
"= 	c #F8B0A0",
"- 	c #F8B1A1",
"; 	c #F8B2A3",
"> 	c #F8B2A4",
", 	c #F8B4A5",
"' 	c #F8B4A6",
") 	c #F8B5A7",
"! 	c #F8B7A8",
"~ 	c #F8B7AA",
"{ 	c #F8B8AA",
"] 	c #F8B9AB",
"^ 	c #F8BAAD",
"/ 	c #F7BAAE",
"( 	c #F6BCAF",
"_ 	c #F7BDB1",
": 	c #F7BEB2",
"< 	c #F7BFB3",
"[ 	c #F6C0B4",
"} 	c #E2AEA3",
"| 	c #151515",
"1 	c #EA8E7A",
"2 	c #F39683",
"3 	c #F59A86",
"4 	c #F69C89",
"5 	c #F79F8D",
"6 	c #F7A18F",
"7 	c #F7A492",
"8 	c #F7A795",
"9 	c #F8A998",
"0 	c #F8AC9B",
"a 	c #F8B3A4",
"b 	c #F8B6A7",
"c 	c #F8BAAE",
"d 	c #F7BDB0",
"e 	c #F8BFB4",
"f 	c #F7C2B7",
"g 	c #F8C4BA",
"h 	c #F8C6BC",
"i 	c #F8C9C0",
"j 	c #F8CBC2",
"k 	c #F8CEC6",
"l 	c #F8D0C8",
"m 	c #F8D3CC",
"n 	c #E2B0A5",
"o 	c #191919",
"p 	c #C05039",
"q 	c #F26F53",
"r 	c #F36F53",
"s 	c #EF6E53",
"t 	c #EE6E53",
"u 	c #EC6D53",
"v 	c #EA6D53",
"w 	c #E96C52",
"x 	c #E66C52",
"y 	c #E56C52",
"z 	c #E36B52",
"A 	c #C2624D",
"B 	c #242424",
"C 	c #6D2C1F",
"D 	c #CD5E46",
"E 	c #C35943",
"F 	c #C45B45",
"G 	c #A34B39",
"H 	c #E26B51",
"I 	c #E16B51",
"J 	c #C0624D",
"K 	c #3A3A3A",
"L 	c #1B1514",
"M 	c #E8674C",
"N 	c #C05842",
"O 	c #53261C",
"P 	c #B6543F",
"Q 	c #CA5E47",
"R 	c #50251C",
"S 	c #A14B39",
"T 	c #DF6A51",
"U 	c #BC604D",
"V 	c #4E4E4E",
"W 	c #171717",
"X 	c #873624",
"Y 	c #F56F53",
"Z 	c #F5907A",
"` 	c #A74D3A",
" .	c #52251C",
"..	c #B4533E",
"+.	c #EC9785",
"@.	c #DC6951",
"#.	c #DB6950",
"$.	c #BB604D",
"%.	c #414141",
"&.	c #282828",
"*.	c #18110F",
"=.	c #D43B1B",
"-.	c #F0421D",
";.	c #F2421D",
">.	c #EF411C",
",.	c #EE6244",
"'.	c #A32C13",
").	c #4F1509",
"!.	c #E43F1C",
"~.	c #882510",
"{.	c #7E220F",
"].	c #E4674D",
"^.	c #DB3C1B",
"/.	c #D83C1A",
"(.	c #D63B1A",
"_.	c #D13A1A",
":.	c #D03A19",
"<.	c #CE3919",
"[.	c #A42D14",
"}.	c #3F3F3F",
"|.	c #3C3C3C",
"1.	c #301611",
"2.	c #E73F1C",
"3.	c #BA3215",
"4.	c #A42C13",
"5.	c #ED6649",
"6.	c #A22C13",
"7.	c #B43115",
"8.	c #E45D41",
"9.	c #A32C14",
"0.	c #6B1D0C",
"a.	c #CC3919",
"b.	c #A12C14",
"c.	c #3D3D3D",
"d.	c #353535",
"e.	c #101010",
"f.	c #4E1C12",
"g.	c #F1411C",
"h.	c #F4431D",
"i.	c #B73C21",
"j.	c #511609",
"k.	c #B33115",
"l.	c #EB6549",
"m.	c #E55031",
"n.	c #A02C13",
"o.	c #4B1409",
"p.	c #972A12",
"q.	c #3B3B3B",
"r.	c #2E2E2E",
"s.	c #0E0E0E",
"t.	c #6C2314",
"u.	c #F3421C",
"v.	c #F26D51",
"w.	c #A5361F",
"x.	c #501609",
"y.	c #B23015",
"z.	c #CB3718",
"A.	c #4C1509",
"B.	c #992A12",
"C.	c #CA3719",
"D.	c #A02C14",
"E.	c #393939",
"F.	c #252525",
"G.	c #3E1911",
"H.	c #EA401C",
"I.	c #F6431D",
"J.	c #F07359",
"K.	c #A53922",
"L.	c #621A0B",
"M.	c #B23115",
"N.	c #E5765E",
"O.	c #343434",
"P.	c #373737",
"Q.	c #2D2D2D",
"R.	c #1E1E1E",
"S.	c #151111",
"T.	c #A12F17",
"U.	c #EB401C",
"V.	c #EF765C",
"W.	c #C16A58",
"X.	c #C4604B",
"Y.	c #E8765E",
"Z.	c #DA3C1A",
"`.	c #272727",
" +	c #313131",
".+	c #222222",
"++	c #0C0C0C",
"@+	c #32150E",
"#+	c #C43719",
"$+	c #E9401C",
"%+	c #E33E1B",
"&+	c #DD3D1B",
"*+	c #262626",
"=+	c #2B2B2B",
"-+	c #333333",
";+	c #323232",
">+	c #1C1C1C",
",+	c #31140E",
"'+	c #942C16",
")+	c #D33A1A",
"!+	c #E03E1B",
"~+	c #DF3D1A",
"{+	c #D53B1A",
"]+	c #D0391A",
"^+	c #CF391A",
"/+	c #CD381A",
"(+	c #CA3819",
"_+	c #C83719",
":+	c #C33619",
"<+	c #C23618",
"[+	c #9B2B13",
"}+	c #2F2F2F",
"|+	c #303030",
"1+	c #0F0F0F",
"2+	c #232323",
"3+	c #3E3E3E",
"4+	c #404040",
"5+	c #434343",
"6+	c #444444",
"7+	c #464646",
"8+	c #484848",
"9+	c #494949",
"0+	c #4C4C4C",
"a+	c #4D4D4D",
"b+	c #515151",
"c+	c #525252",
"d+	c #535353",
"e+	c #565656",
"f+	c #575757",
"g+	c #212121",
"h+	c #2C2C2C",
"i+	c #292929",
"j+	c #2A2A2A",
"k+	c #202020",
"l+	c #1B1B1B",
"m+	c #1A1A1A",
"n+	c #1F1F1F",
"o+	c #181818",
"p+	c #1D1D1D",
". + @ # $ % & * = - ; > , ' ) ! ~ { ] ^ / / ( _ : < [ [ } ",
"| 1 2 3 4 5 6 7 8 9 0 & - a b { c d e f g h i j k l m l n ",
"o p q q r r r r r r r r r r q q s t t t u v v w w x y z A ",
"B C q r r r r r r r r r r D E s t t u v F G x y y z H I J ",
"K L M r r r r r r r r r r N O P t u v Q R S y z H I I T U ",
"V W X r r r Y Y Y Y r r r Z `  ...u F R S +.H I I T @.#.$.",
"%.&.*.=.-.;.;.;.;.;.-.-.-.>.,.'.).!.~.{.].^././.(._.:.<.[.",
"}.|.| 1.2.;.;.;.;.;.;.-.-.3.4.5.6.!.7.8.9.0./.(._.:.<.a.b.",
"c.c.d.e.f.g.h.h.h.;.;.-.-.i.j.k.l.!.m.n.o.p./._.:.:.<.a.b.",
"q.|.|.r.s.t.u.h.h.h.;.-.-.v.w.x.y.!.z.A.B.I (._.:.<.a.C.D.",
"E.E.E.E.F.e.G.H.I.h.h.;.-.>.J.K.L.!.j.M.N././._.:.:.a.C.D.",
"O.P.P.P.P.Q.R.S.T.I.h.;.-.-.U.V.W.!.X.Y.^.Z./.(.:.:.<.a.b.",
"`.r.d.O.O.O. +.+++@+#+h.;.-.>.U.$+2.!.%+&+Z././._.:.:.<.[.",
"*+*+=+-+-+-+-+;+`.>+++,+'+)+!+~+Z.Z.{+{+]+^+/+(+(+_+:+<+[+",
"B B B `.}+|+|+ + +Q..+W 1+s.s.s.s.s.s.s.s.s.s.s.s.s.s.s.s.",
".+.+2+.+2+2+.+`.=+r.r.-+c.3+4+5+5+6+7+8+9+0+a+V b+c+d+e+f+",
"g+g+g+g+g+g+g+g+g+g+g+2+*+h+h+h+h+h+=+=+h+h+h+h+h+h+h+h+h+",
"i+=+=+j+j+i+i+i+&.&.F.2+g+g+k+k+k+k+k+k+k+k+k+g+g+.+2+2+2+",
"i+i+i+i+i+i+i+i+i+i+i+i+i+i+`.g+R.R.R.R.R.R.R.R.R.R.R.R.R.",
"*+*+*+*+*+*+*+*+*+*+F.*+*+*+*+*+2+>+>+>+>+>+>+>+>+>+>+>+>+",
"B B B B B B B B B B 2+k+2+B B B B >+l+l+l+l+l+l+l+l+l+l+l+",
"2+2+2+2+2+2+2+2+2+2+2+g+>+l+>+>+m+m+m+m+m+o m+o m+m+m+m+o ",
"k+k+k+k+k+k+k+k+k+k+g+k+k+n+>+o o+o+o+o+o+o+o+o+m+l+>+p+R.",
"R.R.R.R.R.R.R.R.R.R.R.R.R.R.R.R.R.R.p+p+p+p+R.R.R.R.R.R.R."};
