/* XPM */
static char * hide_inactive_xpm[] = {
"29 24 175 2",
"  	c None",
". 	c #130D0C",
"+ 	c #8D6158",
"@ 	c #8D6258",
"# 	c #8D6259",
"$ 	c #8E6359",
"% 	c #8E635A",
"& 	c #8E645B",
"* 	c #8E645C",
"= 	c #8E655C",
"- 	c #8E665C",
"; 	c #8E665D",
"> 	c #8E665E",
", 	c #8E675F",
"' 	c #8E6860",
") 	c #8E6960",
"! 	c #8E6962",
"~ 	c #8E6A62",
"{ 	c #8E6B63",
"] 	c #8E6B64",
"^ 	c #8D6C64",
"/ 	c #8E6C66",
"( 	c #8E6D66",
"_ 	c #8E6E67",
": 	c #8D6E67",
"< 	c #82645D",
"[ 	c #0C0C0C",
"} 	c #865146",
"| 	c #8C564B",
"1 	c #8D584D",
"2 	c #8D594E",
"3 	c #8E5B51",
"4 	c #8E5C52",
"5 	c #8E5E54",
"6 	c #8E6055",
"7 	c #8E6157",
"8 	c #8E675E",
"9 	c #8E6C65",
"0 	c #8E6F69",
"a 	c #8E706B",
"b 	c #8E726C",
"c 	c #8E736E",
"d 	c #8E756F",
"e 	c #8E7672",
"f 	c #8E7773",
"g 	c #8E7975",
"h 	c #82655F",
"i 	c #0F0F0F",
"j 	c #6E2E20",
"k 	c #8B3F2F",
"l 	c #8C3F2F",
"m 	c #893F2F",
"n 	c #883E2F",
"o 	c #863E2F",
"p 	c #843E2F",
"q 	c #823D2F",
"r 	c #6F382C",
"s 	c #1B1B1B",
"t 	c #3E1911",
"u 	c #823D2E",
"v 	c #813D2E",
"w 	c #6E382C",
"x 	c #363636",
"y 	c #0F0C0B",
"z 	c #853B2B",
"A 	c #803D2E",
"B 	c #6C372C",
"C 	c #4E4E4E",
"D 	c #0E0E0E",
"E 	c #4D1F14",
"F 	c #8D3F2F",
"G 	c #7E3C2E",
"H 	c #6B372C",
"I 	c #414141",
"J 	c #232323",
"K 	c #0D0908",
"L 	c #7A220F",
"M 	c #8A2610",
"N 	c #8B2610",
"O 	c #892510",
"P 	c #872410",
"Q 	c #862410",
"R 	c #852410",
"S 	c #832410",
"T 	c #80230F",
"U 	c #7F230F",
"V 	c #7E220F",
"W 	c #7C220E",
"X 	c #7B220E",
"Y 	c #78210E",
"Z 	c #77210E",
"` 	c #76200E",
" .	c #5E190B",
"..	c #3F3F3F",
"+.	c #3C3C3C",
"@.	c #1B0C09",
"#.	c #82230F",
"$.	c #7D220E",
"%.	c #75200E",
"&.	c #5C190B",
"*.	c #3D3D3D",
"=.	c #343434",
"-.	c #090909",
";.	c #2C100A",
">.	c #8A2510",
",.	c #8C2610",
"'.	c #3B3B3B",
").	c #2C2C2C",
"!.	c #080808",
"~.	c #3E140B",
"{.	c #741F0E",
"].	c #393939",
"^.	c #222222",
"/.	c #230E09",
"(.	c #8D2610",
"_.	c #373737",
":.	c #121212",
"<.	c #0C0909",
"[.	c #5C1B0D",
"}.	c #272727",
"|.	c #2E2E2E",
"1.	c #353535",
"2.	c #313131",
"3.	c #1C1C1C",
"4.	c #060606",
"5.	c #1C0C08",
"6.	c #701F0E",
"7.	c #262626",
"8.	c #2B2B2B",
"9.	c #333333",
"0.	c #323232",
"a.	c #141414",
"b.	c #1C0B08",
"c.	c #55190C",
"d.	c #79210E",
"e.	c #81230F",
"f.	c #80230E",
"g.	c #7A220E",
"h.	c #77200E",
"i.	c #74200E",
"j.	c #731F0E",
"k.	c #6F1F0D",
"l.	c #59180A",
"m.	c #242424",
"n.	c #2F2F2F",
"o.	c #303030",
"p.	c #2D2D2D",
"q.	c #212121",
"r.	c #131313",
"s.	c #0A0A0A",
"t.	c #3E3E3E",
"u.	c #404040",
"v.	c #434343",
"w.	c #444444",
"x.	c #464646",
"y.	c #484848",
"z.	c #494949",
"A.	c #4C4C4C",
"B.	c #4D4D4D",
"C.	c #515151",
"D.	c #525252",
"E.	c #535353",
"F.	c #565656",
"G.	c #575757",
"H.	c #292929",
"I.	c #2A2A2A",
"J.	c #282828",
"K.	c #252525",
"L.	c #202020",
"M.	c #1E1E1E",
"N.	c #1A1A1A",
"O.	c #191919",
"P.	c #1F1F1F",
"Q.	c #181818",
"R.	c #1D1D1D",
". + @ # $ % & * = - ; > , , ' ) ! ~ ~ { ] ] ^ / ( _ : : < ",
"[ } | 1 2 3 4 5 6 7 $ & - 8 ' ~ ] 9 _ 0 a b c d e f g f h ",
"i j k k l l l l l l l l l l k k m m m m n o o o o p p q r ",
"s t k l l l l l l l l l l l k m m m n o o o p p p q u v w ",
"x y z l l l l l l l l l l k k m m n o o o p p q u v v A B ",
"C D E l l l F F F F l l l k m m m n o o p p u v v A G G H ",
"I J K L M N N N N N M M M O P Q R S S T U V W W X Y Z `  .",
"..+.D @.R N N N N N N M M O P Q R S #.T V $.W X Y Z ` %.&.",
"*.*.=.-.;.>.,.,.,.N N M M O P Q R S #.U V W W Y Z Z ` %.&.",
"'.+.+.).!.~.,.,.,.,.N M M O P Q R S #.U $.W X Y Z ` %.{.&.",
"].].].].^.-./.Q (.,.,.N M O P Q R S #.U V W W Y Z Z %.{.&.",
"=._._._._.).:.<.[.(.,.N M M P Q R S #.T V $.W X Z Z ` %.&.",
"}.|.1.=.=.=.2.3.4.5.6.,.N M O P Q R S #.U $.W W Y Z Z `  .",
"7.7.8.9.9.9.9.0.7.a.4.b.c.d.e.f.$.$.g.g.h.h.` i.i.j.6.k.l.",
"m.m.m.}.n.o.o.2.2.p.q.r.s.!.!.!.!.!.!.!.!.!.!.!.!.!.!.!.!.",
"^.^.J ^.J J ^.}.8.|.|.9.*.t.u.v.v.w.x.y.z.A.B.C C.D.E.F.G.",
"q.q.q.q.q.q.q.q.q.q.q.J 7.).).).).).8.8.).).).).).).).).).",
"H.8.8.I.I.H.H.H.J.J.K.J q.q.L.L.L.L.L.L.L.L.L.q.q.^.J J J ",
"H.H.H.H.H.H.H.H.H.H.H.H.H.H.}.q.M.M.M.M.M.M.M.M.M.M.M.M.M.",
"7.7.7.7.7.7.7.7.7.7.K.7.7.7.7.7.J 3.3.3.3.3.3.3.3.3.3.3.3.",
"m.m.m.m.m.m.m.m.m.m.J L.J m.m.m.m.3.s s s s s s s s s s s ",
"J J J J J J J J J J J q.3.s 3.3.N.N.N.N.N.O.N.O.N.N.N.N.O.",
"L.L.L.L.L.L.L.L.L.L.q.L.L.P.3.O.Q.Q.Q.Q.Q.Q.Q.Q.N.s 3.R.M.",
"M.M.M.M.M.M.M.M.M.M.M.M.M.M.M.M.M.M.R.R.R.R.M.M.M.M.M.M.M."};
