/* XPM */
static char * hide_pressed_xpm[] = {
"29 24 416 2",
"  	c None",
". 	c #211715",
"+ 	c #F5A999",
"@ 	c #F5AA9A",
"# 	c #F5AA9B",
"$ 	c #F7AC9B",
"% 	c #F7AE9D",
"& 	c #F8B09E",
"* 	c #F8B2A0",
"= 	c #F8B49E",
"- 	c #F8B7A0",
"; 	c #F8B9A1",
"> 	c #F8BAA3",
", 	c #F8BDA3",
"' 	c #F8BEA4",
") 	c #F9C0A5",
"! 	c #F8C2A4",
"~ 	c #F8C3A6",
"{ 	c #F8C4A6",
"] 	c #F8C5A7",
"^ 	c #F8C5A9",
"/ 	c #F7C5A9",
"( 	c #F7C5AA",
"_ 	c #F8C5AD",
": 	c #F7C5AE",
"< 	c #F6C4AF",
"[ 	c #F6C3B2",
"} 	c #F6C2B2",
"| 	c #E2AFA2",
"1 	c #151515",
"2 	c #EA8E7A",
"3 	c #F39682",
"4 	c #F59A85",
"5 	c #F69D89",
"6 	c #F7A28D",
"7 	c #F7A68F",
"8 	c #F7AB92",
"9 	c #F7B095",
"0 	c #F8B498",
"a 	c #F9B999",
"b 	c #F8BD9C",
"c 	c #F9C29E",
"d 	c #F9C5A0",
"e 	c #F9C9A2",
"f 	c #F8CCA4",
"g 	c #F9CEA6",
"h 	c #F8D0A7",
"i 	c #F9D2AA",
"j 	c #F8D4AC",
"k 	c #F9D5AF",
"l 	c #F8D6B0",
"m 	c #F8D7B4",
"n 	c #F9D7B7",
"o 	c #F9D7BC",
"p 	c #F9D7C0",
"q 	c #F8D7C5",
"r 	c #F8D2C4",
"s 	c #E2B2A4",
"t 	c #191919",
"u 	c #C05039",
"v 	c #F26F53",
"w 	c #F27054",
"x 	c #F37254",
"y 	c #F37656",
"z 	c #F37A59",
"A 	c #F4805A",
"B 	c #F4865E",
"C 	c #F58C61",
"D 	c #F59263",
"E 	c #F69866",
"F 	c #F69D68",
"G 	c #F7A26B",
"H 	c #F5A66C",
"I 	c #F7AA6F",
"J 	c #F5AC70",
"K 	c #F5AE71",
"L 	c #F5AE70",
"M 	c #F4AE71",
"N 	c #F3AB70",
"O 	c #F1A96F",
"P 	c #F0A56D",
"Q 	c #F09E69",
"R 	c #EF9766",
"S 	c #EB8D61",
"T 	c #E8825C",
"U 	c #E57757",
"V 	c #C46A50",
"W 	c #242424",
"X 	c #6D2C1F",
"Y 	c #F37153",
"Z 	c #F37455",
"` 	c #F37857",
" .	c #F47E5A",
"..	c #F4865D",
"+.	c #F58D61",
"@.	c #F69465",
"#.	c #F69C68",
"$.	c #F7A36B",
"%.	c #D29560",
"&.	c #C8935E",
"*.	c #F6BA75",
"=.	c #F7BE78",
"-.	c #F7C079",
";.	c #F5C179",
">.	c #F5C079",
",.	c #CD9E64",
"'.	c #AA8152",
").	c #F1B473",
"!.	c #EFAD70",
"~.	c #EEA36B",
"{.	c #EA9666",
"].	c #E6885E",
"^.	c #E37C58",
"/.	c #C46C52",
"(.	c #3A3A3A",
"_.	c #1B1514",
":.	c #E8684C",
"<.	c #F37154",
"[.	c #F37555",
"}.	c #F37A58",
"|.	c #F4825B",
"1.	c #F58A5F",
"2.	c #F69364",
"3.	c #F69B68",
"4.	c #F7A46B",
"5.	c #F8AB6F",
"6.	c #F8B373",
"7.	c #C5945E",
"8.	c #55422A",
"9.	c #BC985E",
"0.	c #F7CC7D",
"a.	c #F8CE7F",
"b.	c #F7D07F",
"c.	c #D6B26E",
"d.	c #54462B",
"e.	c #AB8A57",
"f.	c #F2C078",
"g.	c #F1B775",
"h.	c #EDAC6F",
"i.	c #EA9D68",
"j.	c #E78D61",
"k.	c #E27E5A",
"l.	c #C06D52",
"m.	c #4E4E4E",
"n.	c #171717",
"o.	c #873724",
"p.	c #F37556",
"q.	c #F47B58",
"r.	c #F6835C",
"s.	c #F78C60",
"t.	c #F69665",
"u.	c #F89F69",
"v.	c #F7A96E",
"w.	c #F8B172",
"x.	c #F9BA76",
"y.	c #F9D098",
"z.	c #AD8D57",
"A.	c #55472C",
"B.	c #BCA163",
"C.	c #F9D984",
"D.	c #D0B66F",
"E.	c #554A2D",
"F.	c #AD955B",
"G.	c #F7DDA5",
"H.	c #F3C87B",
"I.	c #F0BE78",
"J.	c #EEB271",
"K.	c #EAA16A",
"L.	c #E38F62",
"M.	c #E07F5A",
"N.	c #C16E52",
"O.	c #414141",
"P.	c #282828",
"Q.	c #18110F",
"R.	c #D43E1D",
"S.	c #F04A21",
"T.	c #F35127",
"U.	c #F35C2D",
"V.	c #F46A36",
"W.	c #F5773F",
"X.	c #F68447",
"Y.	c #F69151",
"Z.	c #F79D57",
"`.	c #F7AA5F",
" +	c #F7B566",
".+	c #F8CB87",
"++	c #AE8D51",
"@+	c #554829",
"#+	c #F8D77C",
"$+	c #94824B",
"%+	c #8C7946",
"&+	c #F7DB96",
"*+	c #F4C873",
"=+	c #F1BE6C",
"-+	c #EEB064",
";+	c #EA9E58",
">+	c #E2884A",
",+	c #DB6F3A",
"'+	c #D5582C",
")+	c #AC4121",
"!+	c #3F3F3F",
"~+	c #3C3C3C",
"{+	c #321812",
"]+	c #E74520",
"^+	c #F25025",
"/+	c #F35A2C",
"(+	c #F46735",
"_+	c #F5753D",
":+	c #F58446",
"<+	c #F6924F",
"[+	c #F6A058",
"}+	c #F7AC60",
"|+	c #C08F51",
"1+	c #AE884E",
"2+	c #F9D791",
"3+	c #AE9657",
"4+	c #F8DD80",
"5+	c #C5B166",
"6+	c #F8E295",
"7+	c #B6A05C",
"8+	c #78653A",
"9+	c #F2C26E",
"0+	c #EEB365",
"a+	c #E8A05B",
"b+	c #E28A4B",
"c+	c #DB703C",
"d+	c #D4592C",
"e+	c #A94121",
"f+	c #3D3D3D",
"g+	c #353534",
"h+	c #111110",
"i+	c #522215",
"j+	c #F14C23",
"k+	c #F55629",
"l+	c #F56332",
"m+	c #F6713A",
"n+	c #F67F44",
"o+	c #F68F4E",
"p+	c #F79D56",
"q+	c #F7AB60",
"r+	c #BD9057",
"s+	c #554326",
"t+	c #BE9F5B",
"u+	c #FADF97",
"v+	c #F9DF81",
"w+	c #F9E38F",
"x+	c #B3A15D",
"y+	c #544A2B",
"z+	c #AB9053",
"A+	c #F2C370",
"B+	c #ECB466",
"C+	c #E8A15A",
"D+	c #E28B4C",
"E+	c #D35A2C",
"F+	c #A94221",
"G+	c #3B3B3B",
"H+	c #2E2E2E",
"I+	c #712B19",
"J+	c #F35025",
"K+	c #F55C2D",
"L+	c #F66835",
"M+	c #F5773D",
"N+	c #F58648",
"O+	c #F59552",
"P+	c #F7A45C",
"Q+	c #F8C489",
"R+	c #AE8953",
"S+	c #554628",
"T+	c #BFA35F",
"U+	c #F9DA7F",
"V+	c #DFC572",
"W+	c #554B2B",
"X+	c #AC9455",
"Y+	c #F5D795",
"Z+	c #F0BF6D",
"`+	c #EBB064",
" @	c #E79F59",
".@	c #E1884B",
"+@	c #DA6F3B",
"@@	c #D2572C",
"#@	c #A84121",
"$@	c #393939",
"%@	c #393938",
"&@	c #262625",
"*@	c #151512",
"=@	c #472317",
"-@	c #EB5026",
";@	c #F75D2D",
">@	c #F66A35",
",@	c #F7783F",
"'@	c #F68749",
")@	c #F59753",
"!@	c #F6A75D",
"~@	c #F8C88F",
"{@	c #AE8B56",
"]@	c #695531",
"^@	c #F7CE77",
"/@	c #584B2B",
"(@	c #C5A660",
"_@	c #F5D89C",
":@	c #F1C06E",
"<@	c #EFB566",
"[@	c #E9A75F",
"}@	c #E59754",
"|@	c #E18247",
"1@	c #D96B38",
"2@	c #D0552B",
"3@	c #A83F20",
"4@	c #343434",
"5@	c #373737",
"6@	c #2F2F2E",
"7@	c #232321",
"8@	c #201D17",
"9@	c #A94022",
"0@	c #F75C2D",
"a@	c #F4753D",
"b@	c #F58447",
"c@	c #F59451",
"d@	c #F4A059",
"e@	c #F7C38D",
"f@	c #C8A67E",
"g@	c #F3B869",
"h@	c #CEAB7A",
"i@	c #F6CC95",
"j@	c #EFB265",
"k@	c #EEAB60",
"l@	c #EBA25B",
"m@	c #E89753",
"n@	c #E2884B",
"o@	c #DE7740",
"p@	c #D76333",
"q@	c #D25228",
"r@	c #A83C1E",
"s@	c #272727",
"t@	c #353535",
"u@	c #333332",
"v@	c #272725",
"w@	c #161612",
"x@	c #412617",
"y@	c #CA4E28",
"z@	c #F46F39",
"A@	c #F47B42",
"B@	c #F48748",
"C@	c #F2904F",
"D@	c #F29753",
"E@	c #F19A55",
"F@	c #F09B56",
"G@	c #F09855",
"H@	c #EB9552",
"I@	c #E98E4E",
"J@	c #E78749",
"K@	c #E48044",
"L@	c #DD733E",
"M@	c #D96735",
"N@	c #D7582D",
"O@	c #D24A24",
"P@	c #A8391C",
"Q@	c #262626",
"R@	c #2B2B2B",
"S@	c #333333",
"T@	c #2B2B29",
"U@	c #242420",
"V@	c #1A1A14",
"W@	c #43291A",
"X@	c #A24827",
"Y@	c #DA5D30",
"Z@	c #E76936",
"`@	c #E7703B",
" #	c #E4743E",
".#	c #E5763F",
"+#	c #E0763F",
"@#	c #E0753E",
"##	c #DD703C",
"$#	c #DB6D3B",
"%#	c #D86837",
"&#	c #D46233",
"*#	c #D35B2F",
"=#	c #CF532A",
"-#	c #C84925",
";#	c #C5411D",
">#	c #9E3217",
",#	c #2F2F2F",
"'#	c #303030",
")#	c #313131",
"!#	c #2D2D2D",
"~#	c #222222",
"{#	c #0F0F0F",
"]#	c #0E0E0E",
"^#	c #232323",
"/#	c #3E3E3E",
"(#	c #404040",
"_#	c #434343",
":#	c #444444",
"<#	c #464646",
"[#	c #484848",
"}#	c #494949",
"|#	c #4C4C4C",
"1#	c #4D4D4D",
"2#	c #515151",
"3#	c #525252",
"4#	c #535353",
"5#	c #565656",
"6#	c #575756",
"7#	c #212121",
"8#	c #2C2C2C",
"9#	c #292929",
"0#	c #2A2A2A",
"a#	c #252525",
"b#	c #202020",
"c#	c #1E1E1E",
"d#	c #1C1C1C",
"e#	c #1B1B1B",
"f#	c #1A1A1A",
"g#	c #1F1F1F",
"h#	c #181818",
"i#	c #1D1D1D",
". + @ # $ % & * = - ; > , ' ) ! ~ { ] ^ / / ( _ : < [ } | ",
"1 2 3 4 5 6 7 8 9 0 a b c d e f g h i j k l m n o p q r s ",
"t u v w x y z A B C D E F G H I J K L M N O P Q R S T U V ",
"W X v Y Z `  ...+.@.#.$.I %.&.*.=.-.;.>.,.'.).!.~.{.].^./.",
"(._.:.<.[.}.|.1.2.3.4.5.6.7.8.9.0.a.b.c.d.e.f.g.h.i.j.k.l.",
"m.n.o.<.p.q.r.s.t.u.v.w.x.y.z.A.B.C.D.E.F.G.H.I.J.K.L.M.N.",
"O.P.Q.R.S.T.U.V.W.X.Y.Z.`. +.+++@+#+$+%+&+*+=+-+;+>+,+'+)+",
"!+~+1 {+]+^+/+(+_+:+<+[+}+|+1+2+3+4+5+6+7+8+9+0+a+b+c+d+e+",
"f+f+g+h+i+j+k+l+m+n+o+p+q+r+s+t+u+v+w+x+y+z+A+B+C+D+c+E+F+",
"G+~+~+H+h+I+J+K+L+M+N+O+P+Q+R+S+T+U+V+W+X+Y+Z+`+ @.@+@@@#@",
"$@$@$@%@&@*@=@-@;@>@,@'@)@!@~@{@]@^@/@(@_@:@<@[@}@|@1@2@3@",
"4@5@5@5@5@6@7@8@9@0@L+a@b@c@d@e@f@g@h@i@j@k@l@m@n@o@p@q@r@",
"s@H+t@4@4@4@u@v@w@x@y@l+z@A@B@C@D@E@F@G@H@I@J@K@L@M@N@O@P@",
"Q@Q@R@S@S@S@u@u@T@U@V@W@X@Y@Z@`@ #.#+#@###$#%#&#*#=#-#;#>#",
"W W W s@,#'#'#)#)#!#~#n.{#]#]#]#]#]#]#]#]#]#]#]#]#]#]#]#]#",
"~#~#^#~#^#^#~#s@R@H+H+S@f+/#(#_#_#:#<#[#}#|#1#m.2#3#4#5#6#",
"7#7#7#7#7#7#7#7#7#7#7#^#Q@8#8#8#8#8#R@R@8#8#8#8#8#8#8#8#8#",
"9#R@R@0#0#9#9#9#P.P.a#^#7#7#b#b#b#b#b#b#b#b#b#7#7#~#^#^#^#",
"9#9#9#9#9#9#9#9#9#9#9#9#9#9#s@7#c#c#c#c#c#c#c#c#c#c#c#c#c#",
"Q@Q@Q@Q@Q@Q@Q@Q@Q@Q@a#Q@Q@Q@Q@Q@^#d#d#d#d#d#d#d#d#d#d#d#d#",
"W W W W W W W W W W ^#b#^#W W W W d#e#e#e#e#e#e#e#e#e#e#e#",
"^#^#^#^#^#^#^#^#^#^#^#7#d#e#d#d#f#f#f#f#f#t f#t f#f#f#f#t ",
"b#b#b#b#b#b#b#b#b#b#7#b#b#g#d#t h#h#h#h#h#h#h#h#f#e#d#i#c#",
"c#c#c#c#c#c#c#c#c#c#c#c#c#c#c#c#c#c#i#i#i#i#c#c#c#c#c#c#c#"};
