/* XPM */
static char * maximize_pressed_xpm[] = {
"27 24 431 2",
"  	c None",
". 	c #FCF0EC",
"+ 	c #F5C4B6",
"@ 	c #F6C6B8",
"# 	c #F6C8B7",
"$ 	c #F6CAB7",
"% 	c #F6CBB9",
"& 	c #F6CCB8",
"* 	c #F7CEB9",
"= 	c #F6D0BA",
"- 	c #F6D0BB",
"; 	c #F6D1BC",
"> 	c #F6D3BC",
", 	c #F5D4BD",
"' 	c #F5D4BE",
") 	c #F6D4BE",
"! 	c #F6D3BE",
"~ 	c #F6D3BD",
"{ 	c #F5D0BC",
"] 	c #F5CFBC",
"^ 	c #F4CEBB",
"/ 	c #F3CBBA",
"( 	c #F2CAB9",
"_ 	c #F1C9B9",
": 	c #F0C7B7",
"< 	c #EFC5B8",
"[ 	c #DCB3A9",
"} 	c #FCF4EE",
"| 	c #F8DED4",
"1 	c #F8E2D3",
"2 	c #F9E5D5",
"3 	c #F9E9D4",
"4 	c #FAECD5",
"5 	c #FBEED5",
"6 	c #FBF1D6",
"7 	c #FBF2D6",
"8 	c #FCF5D8",
"9 	c #FCF7D9",
"0 	c #FDF9DA",
"a 	c #FDFADC",
"b 	c #FEFCDF",
"c 	c #FFFFE1",
"d 	c #FEFCE0",
"e 	c #FDF9DE",
"f 	c #FCF8DE",
"g 	c #FBF4DD",
"h 	c #FBF2DA",
"i 	c #FAF0DA",
"j 	c #FAECD9",
"k 	c #F9EAD6",
"l 	c #F8E7D6",
"m 	c #F7E3D5",
"n 	c #F5DCCE",
"o 	c #DDB6A9",
"p 	c #F4CFBE",
"q 	c #E47857",
"r 	c #E4815A",
"s 	c #E68A5E",
"t 	c #E89163",
"u 	c #E99765",
"v 	c #EB9C68",
"w 	c #EBA069",
"x 	c #ECA46B",
"y 	c #EBA76D",
"z 	c #EBAA6F",
"A 	c #ECAC70",
"B 	c #ECAD70",
"C 	c #E9A66D",
"D 	c #E8A36B",
"E 	c #E89F69",
"F 	c #E79B67",
"G 	c #E59665",
"H 	c #E39262",
"I 	c #E28C60",
"J 	c #DF875E",
"K 	c #DC7E5B",
"L 	c #D97758",
"M 	c #B96A50",
"N 	c #F2C8B7",
"O 	c #E27C59",
"P 	c #E4885E",
"Q 	c #E59364",
"R 	c #E89D68",
"S 	c #E9A56C",
"T 	c #EAAC6F",
"U 	c #EBB172",
"V 	c #ECB774",
"W 	c #EDBB76",
"X 	c #EEC078",
"Y 	c #EFC37A",
"Z 	c #A78955",
"` 	c #52432A",
" .	c #A78855",
"..	c #EFC078",
"+.	c #EDBC76",
"@.	c #EDB774",
"#.	c #ECB172",
"$.	c #EBAC6F",
"%.	c #E8A66C",
"&.	c #E69F69",
"*.	c #E49966",
"=.	c #E19063",
"-.	c #DD875F",
";.	c #D97D5A",
">.	c #B96E53",
",.	c #EFC0AD",
"'.	c #E07F5A",
").	c #E38C60",
"!.	c #E8A66D",
"~.	c #EBB071",
"{.	c #ECB874",
"].	c #EDBF77",
"^.	c #EFC57B",
"/.	c #F0CB7E",
"(.	c #F1D180",
"_.	c #AA945A",
":.	c #53492C",
"<.	c #F6E1A3",
"[.	c #A99259",
"}.	c #EDB874",
"|.	c #EAB171",
"1.	c #E8A96E",
"2.	c #E5A06A",
"3.	c #E29766",
"4.	c #DE8C61",
"5.	c #DA815C",
"6.	c #BA7055",
"7.	c #EDB9A5",
"8.	c #DE805B",
"9.	c #E28F62",
"0.	c #E8AA6F",
"a.	c #EAB574",
"b.	c #ECBE77",
"c.	c #EEC67B",
"d.	c #F1CE7E",
"e.	c #F2D482",
"f.	c #C7B16C",
"g.	c #574F30",
"h.	c #F7E9A8",
"i.	c #F7E699",
"j.	c #F8E7A5",
"k.	c #544B2D",
"l.	c #C6AD6A",
"m.	c #F1CE7F",
"n.	c #EFC77B",
"o.	c #EDBF78",
"p.	c #EBB774",
"q.	c #E8AE70",
"r.	c #E6A56D",
"s.	c #E29C68",
"t.	c #DF9062",
"u.	c #D9845E",
"v.	c #BB7355",
"w.	c #E39B7F",
"x.	c #D1582D",
"y.	c #D76D3B",
"z.	c #DB8247",
"A.	c #E09453",
"B.	c #E4A25C",
"C.	c #E6AD63",
"D.	c #E9B86A",
"E.	c #EDC370",
"F.	c #F0CD77",
"G.	c #F3DB8C",
"H.	c #F6E399",
"I.	c #F5E182",
"J.	c #5D5531",
"K.	c #F5DD80",
"L.	c #F5E09A",
"M.	c #F2D386",
"N.	c #EEC471",
"O.	c #EBB96A",
"P.	c #E8AF64",
"Q.	c #E5A45D",
"R.	c #E39955",
"S.	c #DF8C4E",
"T.	c #D97F45",
"U.	c #D56F3B",
"V.	c #CE5F32",
"W.	c #A74926",
"X.	c #E09073",
"Y.	c #D36D3A",
"Z.	c #E3A35C",
"`.	c #E7B064",
" +	c #EABB6A",
".+	c #EDC671",
"++	c #EFD078",
"@+	c #F3D97E",
"#+	c #F5E082",
"$+	c #F6E485",
"%+	c #544E2D",
"&+	c #F1D079",
"*+	c #EFC672",
"=+	c #EDBB6C",
"-+	c #EAB064",
";+	c #E6A55E",
">+	c #E49956",
",+	c #DF8E4E",
"'+	c #D98046",
")+	c #D5703B",
"!+	c #CE5F31",
"~+	c #A84A26",
"{+	c #DC8667",
"]+	c #CE582D",
"^+	c #D46C3A",
"/+	c #DA8147",
"(+	c #E09352",
"_+	c #E3A25C",
":+	c #E6AF63",
"<+	c #E9BA6B",
"[+	c #EDC571",
"}+	c #F0CE77",
"|+	c #F2D87D",
"1+	c #F4DE81",
"2+	c #F5E284",
"3+	c #F4DF81",
"4+	c #F3D87D",
"5+	c #F0CF77",
"6+	c #EFC572",
"7+	c #EBBA6B",
"8+	c #E8AF65",
"9+	c #E6A45E",
"0+	c #E39956",
"a+	c #E08D4F",
"b+	c #DC7F46",
"c+	c #D56F3C",
"d+	c #CF6031",
"e+	c #A84A27",
"f+	c #DB7B5E",
"g+	c #CE572C",
"h+	c #D46A38",
"i+	c #DA7F46",
"j+	c #DE9150",
"k+	c #E29F5A",
"l+	c #E5AB61",
"m+	c #E8B568",
"n+	c #ECBF6E",
"o+	c #EEC974",
"p+	c #C0A860",
"q+	c #534A2B",
"r+	c #F3DB7E",
"s+	c #F7E5A5",
"t+	c #534829",
"u+	c #C5A55F",
"v+	c #EEC06E",
"w+	c #EBB768",
"x+	c #E8AC62",
"y+	c #E6A25B",
"z+	c #E39753",
"A+	c #DF8A4D",
"B+	c #DC7D45",
"C+	c #D76E3C",
"D+	c #D05F31",
"E+	c #A94A27",
"F+	c #D67150",
"G+	c #CC542A",
"H+	c #D36636",
"I+	c #D77A42",
"J+	c #DC8A4C",
"K+	c #E09755",
"L+	c #E4A15C",
"M+	c #E5AC62",
"N+	c #E9B467",
"O+	c #EBBD6C",
"P+	c #EFCD89",
"Q+	c #A78D52",
"R+	c #524629",
"S+	c #F1CD77",
"T+	c #524528",
"U+	c #A78A50",
"V+	c #EFC782",
"W+	c #EBB668",
"X+	c #E9AD62",
"Y+	c #E7A45C",
"Z+	c #E59A56",
"`+	c #E2904F",
" @	c #DE8549",
".@	c #DC7942",
"+@	c #D66A39",
"@@	c #D15D30",
"#@	c #AA4825",
"$@	c #D36343",
"%@	c #CE5128",
"&@	c #D15F31",
"*@	c #D4703B",
"=@	c #D97D44",
"-@	c #DC884C",
";@	c #DE9250",
">@	c #E19A57",
",@	c #E3A15B",
"'@	c #E6A95F",
")@	c #E7AF64",
"!@	c #EEC083",
"~@	c #A47F48",
"{@	c #513E23",
"]@	c #A57D47",
"^@	c #EDBE81",
"/@	c #E9AA60",
"(@	c #E8A35C",
"_@	c #E69C57",
":@	c #E59452",
"<@	c #E28C4D",
"[@	c #E18447",
"}@	c #DF7A42",
"|@	c #DB703C",
"1@	c #D76434",
"2@	c #D2572C",
"3@	c #AB4523",
"4@	c #D35735",
"5@	c #CE4924",
"6@	c #D2552C",
"7@	c #D56233",
"8@	c #D86C3A",
"9@	c #D9743F",
"0@	c #DC7B43",
"a@	c #DC8147",
"b@	c #DE874B",
"c@	c #E18C4E",
"d@	c #E19150",
"e@	c #E49352",
"f@	c #E8A771",
"g@	c #ECB282",
"h@	c #EAA974",
"i@	c #E49250",
"j@	c #E48D4E",
"k@	c #E3884B",
"l@	c #E28348",
"m@	c #E37E44",
"n@	c #E27840",
"o@	c #DC713C",
"p@	c #DC6A38",
"q@	c #D96232",
"r@	c #D65A2C",
"s@	c #D35127",
"t@	c #AB401F",
"u@	c #C54625",
"v@	c #C4411E",
"w@	c #C74923",
"x@	c #C95028",
"y@	c #CB572C",
"z@	c #CC5C30",
"A@	c #CD6132",
"B@	c #CF6435",
"C@	c #D06836",
"D@	c #D16B39",
"E@	c #D16D3B",
"F@	c #D36F3C",
"G@	c #D4703D",
"H@	c #D7703C",
"I@	c #D66E3C",
"J@	c #D76D3A",
"K@	c #D66938",
"L@	c #D66636",
"M@	c #D45F31",
"N@	c #D35B2E",
"O@	c #D2562C",
"P@	c #D05128",
"Q@	c #CD4B24",
"R@	c #C64521",
"S@	c #A4381B",
"T@	c #11110F",
"U@	c #141411",
"V@	c #191914",
"W@	c #1E1E17",
"X@	c #212119",
"Y@	c #25251B",
"Z@	c #27281C",
"`@	c #2A2A1E",
" #	c #2C2C1F",
".#	c #2E2E20",
"+#	c #2F2F21",
"@#	c #2F3021",
"##	c #303022",
"$#	c #303021",
"%#	c #222319",
"&#	c #202018",
"*#	c #1A1A15",
"=#	c #161612",
"-#	c #23211C",
";#	c #595959",
">#	c #5A5A59",
",#	c #5E5E5C",
"'#	c #62625F",
")#	c #646460",
"!#	c #666662",
"~#	c #696964",
"{#	c #6B6B66",
"]#	c #6B6B65",
"^#	c #6E6E69",
"/#	c #71716B",
"(#	c #73736E",
"_#	c #74746E",
":#	c #75756F",
"<#	c #767671",
"[#	c #787872",
"}#	c #797A74",
"|#	c #7A7A74",
"1#	c #7B7B76",
"2#	c #7E7E7A",
"3#	c #7F7F7C",
"4#	c #81817E",
"5#	c #81817F",
"6#	c #80807D",
"7#	c #2C2C2A",
"8#	c #2C2C2C",
"9#	c #2C2C2B",
"0#	c #2D2D2C",
"a#	c #2E2E2D",
"b#	c #2F2F2D",
"c#	c #2F2F2E",
"d#	c #2E2E2E",
"e#	c #4C4C4A",
"f#	c #232323",
"g#	c #232322",
"h#	c #222221",
"i#	c #212120",
"j#	c #242424",
"k#	c #272727",
"l#	c #292929",
"m#	c #2D2D2D",
"n#	c #1E1E1E",
"o#	c #1F1F1F",
"p#	c #1C1C1C",
"q#	c #212121",
"r#	c #252525",
"s#	c #1D1D1D",
"t#	c #1B1B1B",
"u#	c #222222",
"v#	c #191919",
"w#	c #1A1A1A",
"x#	c #202020",
". + @ # $ % & * = - ; > , ' ) ! ~ ; { ] ^ / ( _ : < [ ",
"} | 1 2 3 4 5 6 7 8 9 0 a b c d e f g h i j k l m n o ",
"p q r s t u v w x y z A B B A z C D E F G H I J K L M ",
"N O P Q R S T U V W X Y Z `  ...+.@.#.$.%.&.*.=.-.;.>.",
",.'.).F !.~.{.].^./.(._.:.<.:.[./.^.].}.|.1.2.3.4.5.6.",
"7.8.9.&.0.a.b.c.d.e.f.g.h.i.j.k.l.m.n.o.p.q.r.s.t.u.v.",
"w.x.y.z.A.B.C.D.E.F.G.H.I.J.K.L.M.N.O.P.Q.R.S.T.U.V.W.",
"X.x.Y.z.A.Z.`. +.+++@+#+$+%+#+@+&+*+=+-+;+>+,+'+)+!+~+",
"{+]+^+/+(+_+:+<+[+}+|+1+2+%+3+4+5+6+7+8+9+0+a+b+c+d+e+",
"f+g+h+i+j+k+l+m+n+o+p+q+r+s+4+t+u+v+w+x+y+z+A+B+C+D+E+",
"F+G+H+I+J+K+L+M+N+O+P+Q+R+S+T+U+V+W+X+Y+Z+`+ @.@+@@@#@",
"$@%@&@*@=@-@;@>@,@'@)@!@~@{@]@^@/@(@_@:@<@[@}@|@1@2@3@",
"4@5@6@7@8@9@0@a@b@c@d@e@f@g@h@i@j@k@l@m@n@o@p@q@r@s@t@",
"u@v@w@x@y@z@A@B@C@D@E@F@G@G@H@I@J@K@L@7@M@N@O@P@Q@R@S@",
"T@U@V@W@X@Y@Z@`@ #.#+#@#####$#+#.# #`@Z@Y@%#&#W@*#=#-#",
";#>#,#'#)#!#~#{#]#^#/#(#_#:#<#[#}#|#1#1#2#2#3#4#5#6#7#",
"8#9#8#0#a#a#a#b#b#b#b#c#c#c#c#b#b#b#b#a#a#a#0#0#8#d#e#",
"f#f#f#g#g#g#g#g#g#f#f#f#f#f#f#f#f#h#i#i#i#i#i#j#k#l#m#",
"n#n#n#n#n#n#n#n#n#n#n#n#n#n#n#n#n#n#n#n#n#n#n#n#n#n#o#",
"p#p#p#p#p#p#p#p#p#p#p#p#p#n#q#f#j#j#j#r#j#j#q#s#p#p#p#",
"t#t#t#t#t#t#t#t#s#o#q#f#f#j#j#j#j#j#j#j#j#j#j#j#u#p#t#",
"v#w#w#p#o#q#u#f#u#f#f#f#f#u#u#f#f#f#f#f#f#f#u#f#f#u#p#",
"o#o#x#x#x#x#x#x#q#x#x#x#x#x#x#x#x#x#x#x#x#x#x#x#x#x#o#",
"n#n#n#n#n#n#n#n#n#n#n#n#n#n#n#n#n#n#n#n#n#n#n#n#n#n#n#"};
