/* XPM */
static char * maximize_active_xpm[] = {
"27 24 173 2",
"  	c None",
". 	c #FCF0EE",
"+ 	c #F5C3B8",
"@ 	c #F6C4BA",
"# 	c #F6C5BA",
"$ 	c #F6C6BB",
"% 	c #F6C6BD",
"& 	c #F6C7BD",
"* 	c #F6C8BE",
"= 	c #F5CAC0",
"- 	c #F5CAC1",
"; 	c #F5CBC2",
"> 	c #F5CCC3",
", 	c #F5CDC4",
"' 	c #F5CEC5",
") 	c #F5CEC6",
"! 	c #F5CDC5",
"~ 	c #F4CAC2",
"{ 	c #F4CAC1",
"] 	c #F3C9C0",
"^ 	c #F2C7BE",
"/ 	c #F1C6BD",
"( 	c #F1C6BC",
"_ 	c #F0C4BA",
": 	c #EFC3BA",
"< 	c #DCB2AA",
"[ 	c #FCF4F2",
"} 	c #F8DDD8",
"| 	c #F8DFDA",
"1 	c #F9E2DE",
"2 	c #F9E5E0",
"3 	c #FAE8E4",
"4 	c #FBEAE6",
"5 	c #FBEDEA",
"6 	c #FBEFEC",
"7 	c #FBF2F0",
"8 	c #FCF5F2",
"9 	c #FDF7F5",
"0 	c #FDF9F8",
"a 	c #FEFBFB",
"b 	c #FFFFFF",
"c 	c #FDF8F8",
"d 	c #FCF6F5",
"e 	c #FBF2F1",
"f 	c #FBEFED",
"g 	c #FAEDEA",
"h 	c #F9E9E6",
"i 	c #F8E7E2",
"j 	c #F8E4E0",
"k 	c #F7E1DC",
"l 	c #F5DAD4",
"m 	c #DCB4AB",
"n 	c #F5CDC3",
"o 	c #E26B51",
"p 	c #E16B51",
"q 	c #DF6A51",
"r 	c #DC6951",
"s 	c #DB6950",
"t 	c #D96950",
"u 	c #D86950",
"v 	c #D66750",
"w 	c #D56750",
"x 	c #B45E4C",
"y 	c #F2C4BA",
"z 	c #994938",
"A 	c #4B241B",
"B 	c #D36650",
"C 	c #B35D4C",
"D 	c #EEBBB1",
"E 	c #984938",
"F 	c #4A241B",
"G 	c #E3917F",
"H 	c #B15D4C",
"I 	c #ECB3A7",
"J 	c #AE5441",
"K 	c #4C241C",
"L 	c #E19080",
"M 	c #DD7F6A",
"N 	c #E18F7C",
"O 	c #B05541",
"P 	c #D06650",
"Q 	c #E2907E",
"R 	c #CA3719",
"S 	c #C83719",
"T 	c #C53618",
"U 	c #CF5137",
"V 	c #D35F47",
"W 	c #4C1409",
"X 	c #D6644D",
"Y 	c #D04E34",
"Z 	c #C23518",
"` 	c #992A13",
" .	c #DE8371",
"..	c #451208",
"+.	c #D97863",
"@.	c #D76D58",
"#.	c #9D2B13",
"$.	c #431208",
"%.	c #D8725D",
"&.	c #A62D14",
"*.	c #CC3919",
"=.	c #9B2A13",
"-.	c #D3624A",
";.	c #CE573E",
">.	c #8C2611",
",.	c #8F2811",
"'.	c #D3563B",
").	c #CE3919",
"!.	c #D0563D",
"~.	c #D45D45",
"{.	c #8D2611",
"].	c #461308",
"^.	c #902811",
"/.	c #D75E44",
"(.	c #D03A19",
"_.	c #A02C14",
":.	c #D14D30",
"<.	c #D65B41",
"[.	c #DC7058",
"}.	c #D96147",
"|.	c #D13A1A",
"1.	c #D63B1A",
"2.	c #A32D14",
"3.	c #C43F22",
"4.	c #C13618",
"5.	c #C23618",
"6.	c #C33619",
"7.	c #CA3819",
"8.	c #9E2C14",
"9.	c #0E0E0E",
"0.	c #1B1919",
"a.	c #595959",
"b.	c #5B5B5B",
"c.	c #5E5E5E",
"d.	c #5F5F5F",
"e.	c #606060",
"f.	c #636363",
"g.	c #646464",
"h.	c #676767",
"i.	c #696969",
"j.	c #6B6B6B",
"k.	c #6C6C6C",
"l.	c #6D6D6D",
"m.	c #6F6F6F",
"n.	c #717171",
"o.	c #737373",
"p.	c #757575",
"q.	c #767676",
"r.	c #797979",
"s.	c #7A7A7A",
"t.	c #7B7B7B",
"u.	c #7E7E7E",
"v.	c #7F7F7F",
"w.	c #2A2A2A",
"x.	c #2C2C2C",
"y.	c #2E2E2E",
"z.	c #4C4C4C",
"A.	c #232323",
"B.	c #222222",
"C.	c #212121",
"D.	c #242424",
"E.	c #272727",
"F.	c #292929",
"G.	c #2D2D2D",
"H.	c #1E1E1E",
"I.	c #1F1F1F",
"J.	c #1C1C1C",
"K.	c #252525",
"L.	c #1D1D1D",
"M.	c #1B1B1B",
"N.	c #191919",
"O.	c #1A1A1A",
"P.	c #202020",
". + @ # $ % & * = - ; > , ' ) ! , ; ~ { ] ^ / ( _ : < ",
"[ } | 1 2 3 4 5 6 7 8 9 0 a b a c d e f g h i j k l m ",
"n o p p p p p p p q q q q q q q r r r s s s t u v w x ",
"y q q r r r s s s s s s z A z s s s s s t t u v w B C ",
"D s s s t t t t t t t E F G F E t t t t u u v w B B H ",
"I t u u v v v v v v J K L M N F O u u u u v v w B P H ",
"Q R R S S S T T T S U V S W R X Y R R R R R S T T Z ` ",
" .S T T T T T T T T T T T ..S S R R R R R R S T T Z ` ",
"+.T T T T T T T T T T T T ..S S R R R R R R R S T T ` ",
"@.T T T T T T T T T #.$.T %.S ..&.*.*.*.*.*.R R S T =.",
"-.T T T T T T T T T ;.>...R ..,.'.).).).).).*.*.R S #.",
"!.S T T T T T T T S S ~.{.].^./.(.(.(.(.(.(.(.).*.R _.",
":.R R R R R R R R *.*.).<.[.}.(.|.|.|.1.1.|.|.(.(.).2.",
"3.4.4.4.4.4.4.4.5.5.5.5.6.6.S S 7.7.7.7.7.7.7.7.S 5.8.",
"9.9.9.9.9.9.9.9.9.9.9.9.9.9.9.9.9.9.9.9.9.9.9.9.9.9.0.",
"a.a.b.c.d.e.f.g.g.h.i.j.k.l.m.n.o.o.p.q.r.s.t.u.v.u.w.",
"x.x.x.x.x.x.x.x.x.x.x.x.x.x.x.x.x.x.x.x.x.x.x.x.x.y.z.",
"A.A.A.A.A.A.A.A.A.A.A.A.A.A.A.A.A.B.C.C.C.C.C.D.E.F.G.",
"H.H.H.H.H.H.H.H.H.H.H.H.H.H.H.H.H.H.H.H.H.H.H.H.H.H.I.",
"J.J.J.J.J.J.J.J.J.J.J.J.J.H.C.A.D.D.D.K.D.D.C.L.J.J.J.",
"M.M.M.M.M.M.M.M.L.I.C.A.A.D.D.D.D.D.D.D.D.D.D.D.B.J.M.",
"N.O.O.J.I.C.B.A.B.A.A.A.A.B.B.A.A.A.A.A.A.A.B.A.A.B.J.",
"I.I.P.P.P.P.P.P.C.P.P.P.P.P.P.P.P.P.P.P.P.P.P.P.P.P.I.",
"H.H.H.H.H.H.H.H.H.H.H.H.H.H.H.H.H.H.H.H.H.H.H.H.H.H.H."};
