/* XPM */
static char * maximize_normal_xpm[] = {
"27 24 193 2",
"  	c None",
". 	c #FCF0EE",
"+ 	c #F5C3B8",
"@ 	c #F6C4BA",
"# 	c #F6C5BA",
"$ 	c #F6C6BB",
"% 	c #F6C6BD",
"& 	c #F6C7BD",
"* 	c #F6C8BE",
"= 	c #F5CAC0",
"- 	c #F5CAC1",
"; 	c #F5CBC2",
"> 	c #F5CCC3",
", 	c #F5CDC4",
"' 	c #F5CEC5",
") 	c #F5CEC6",
"! 	c #F5CDC5",
"~ 	c #F4CAC2",
"{ 	c #F4CAC1",
"] 	c #F3C9C0",
"^ 	c #F2C7BE",
"/ 	c #F1C6BD",
"( 	c #F1C6BC",
"_ 	c #F0C4BA",
": 	c #EFC3BA",
"< 	c #DCB2AA",
"[ 	c #FCF4F1",
"} 	c #F8DDD7",
"| 	c #F8DFDA",
"1 	c #F9E2DE",
"2 	c #F9E5E0",
"3 	c #FAE8E4",
"4 	c #FBEAE6",
"5 	c #FBEDEA",
"6 	c #FBEFEC",
"7 	c #FBF2F0",
"8 	c #FCF5F2",
"9 	c #FDF7F5",
"0 	c #FDF9F8",
"a 	c #FEFBFB",
"b 	c #FFFFFF",
"c 	c #FDF8F8",
"d 	c #FCF6F5",
"e 	c #FBF2F1",
"f 	c #FBEFED",
"g 	c #FAEDEA",
"h 	c #F9E9E6",
"i 	c #F8E7E2",
"j 	c #F8E4E0",
"k 	c #F7E1DC",
"l 	c #F5DAD3",
"m 	c #DCB4AA",
"n 	c #F5CDC1",
"o 	c #E26B51",
"p 	c #E16B51",
"q 	c #DF6A51",
"r 	c #DC6951",
"s 	c #DB6950",
"t 	c #D96950",
"u 	c #D86950",
"v 	c #D66750",
"w 	c #D56750",
"x 	c #B5604C",
"y 	c #F2C5B9",
"z 	c #994938",
"A 	c #4B241B",
"B 	c #D36750",
"C 	c #B4604D",
"D 	c #EEBCAF",
"E 	c #DB6A50",
"F 	c #984938",
"G 	c #4A241B",
"H 	c #E3917F",
"I 	c #D3664F",
"J 	c #B2604E",
"K 	c #ECB4A7",
"L 	c #D96A50",
"M 	c #AE5441",
"N 	c #4C241C",
"O 	c #E19080",
"P 	c #DD7F6A",
"Q 	c #E18F7C",
"R 	c #B05541",
"S 	c #D06751",
"T 	c #B3624D",
"U 	c #E2937E",
"V 	c #CA3819",
"W 	c #CA3719",
"X 	c #C83719",
"Y 	c #C53618",
"Z 	c #CF5137",
"` 	c #D35F47",
" .	c #4C1409",
"..	c #D6644D",
"+.	c #D04E34",
"@.	c #C53617",
"#.	c #C23719",
"$.	c #9C3017",
"%.	c #DE8671",
"&.	c #C83819",
"*.	c #451208",
"=.	c #9C3117",
"-.	c #DA7B64",
";.	c #C53718",
">.	c #C53819",
",.	c #9D3218",
"'.	c #D87159",
").	c #9D2B13",
"!.	c #431208",
"~.	c #D8725D",
"{.	c #A62D14",
"].	c #CC3919",
"^.	c #C53919",
"/.	c #9E3218",
"(.	c #D4664B",
"_.	c #CE573E",
":.	c #8C2611",
"<.	c #8F2811",
"[.	c #D3563B",
"}.	c #CE3919",
"|.	c #C83A1A",
"1.	c #A03318",
"2.	c #D1593E",
"3.	c #D45D45",
"4.	c #8D2611",
"5.	c #461308",
"6.	c #902811",
"7.	c #D75E44",
"8.	c #D03A19",
"9.	c #CA391A",
"0.	c #A33318",
"a.	c #D14F31",
"b.	c #D65B41",
"c.	c #DC7058",
"d.	c #D96147",
"e.	c #D13A1A",
"f.	c #D63B1A",
"g.	c #D03A18",
"h.	c #CE3B1A",
"i.	c #A53317",
"j.	c #C44122",
"k.	c #C13617",
"l.	c #C13618",
"m.	c #C23618",
"n.	c #C33619",
"o.	c #C83718",
"p.	c #C23718",
"q.	c #A03016",
"r.	c #0E0E0E",
"s.	c #1E1C1A",
"t.	c #595959",
"u.	c #5B5B5B",
"v.	c #5E5E5E",
"w.	c #5F5F5F",
"x.	c #606060",
"y.	c #636363",
"z.	c #646464",
"A.	c #676767",
"B.	c #696969",
"C.	c #6B6B6B",
"D.	c #6C6C6C",
"E.	c #6D6D6D",
"F.	c #6F6F6F",
"G.	c #717171",
"H.	c #737373",
"I.	c #757575",
"J.	c #767676",
"K.	c #797979",
"L.	c #7A7A7A",
"M.	c #7B7B7B",
"N.	c #7E7E7E",
"O.	c #7F7F7F",
"P.	c #7E7E7D",
"Q.	c #2B2B2A",
"R.	c #2C2C2C",
"S.	c #2E2E2E",
"T.	c #4C4C4B",
"U.	c #232323",
"V.	c #222222",
"W.	c #212121",
"X.	c #242424",
"Y.	c #272727",
"Z.	c #292929",
"`.	c #2D2D2D",
" +	c #1E1E1E",
".+	c #1F1F1F",
"++	c #1C1C1C",
"@+	c #252525",
"#+	c #1D1D1D",
"$+	c #1B1B1B",
"%+	c #191919",
"&+	c #1A1A1A",
"*+	c #202020",
". + @ # $ % & * = - ; > , ' ) ! , ; ~ { ] ^ / ( _ : < ",
"[ } | 1 2 3 4 5 6 7 8 9 0 a b a c d e f g h i j k l m ",
"n o p p p p p p p q q q q q q q r r r s s s t u v w x ",
"y q q r r r s s s s s s z A z s s s s s t t u v w B C ",
"D E s s t t t t t t t F G H G F t t t t u u v w I B J ",
"K L u u v v v v v v M N O P Q G R u u u u v v w I S T ",
"U V W X X X Y Y Y X Z ` X  .W ..+.W W W W W X Y @.#.$.",
"%.&.Y Y Y Y Y Y Y Y Y Y Y *.X X W W W W W W X Y @.#.=.",
"-.;.Y Y Y Y Y Y Y Y Y Y Y *.X X W W W W W W W X Y >.,.",
"'.;.Y Y Y Y Y Y Y Y ).!.Y ~.X *.{.].].].].].W W X ^./.",
"(.;.Y Y Y Y Y Y Y Y _.:.*.W *.<.[.}.}.}.}.}.].].W |.1.",
"2.&.Y Y Y Y Y Y Y X X 3.4.5.6.7.8.8.8.8.8.8.8.}.].9.0.",
"a.W W W W W W W W ].].}.b.c.d.8.e.e.e.f.f.e.e.8.g.h.i.",
"j.k.l.l.l.l.l.l.m.m.m.m.n.n.X X V V V V V V V V o.p.q.",
"r.r.r.r.r.r.r.r.r.r.r.r.r.r.r.r.r.r.r.r.r.r.r.r.r.r.s.",
"t.t.u.v.w.x.y.z.z.A.B.C.D.E.F.G.H.H.I.J.K.L.M.N.O.P.Q.",
"R.R.R.R.R.R.R.R.R.R.R.R.R.R.R.R.R.R.R.R.R.R.R.R.R.S.T.",
"U.U.U.U.U.U.U.U.U.U.U.U.U.U.U.U.U.V.W.W.W.W.W.X.Y.Z.`.",
" + + + + + + + + + + + + + + + + + + + + + + + + + +.+",
"++++++++++++++++++++++++++ +W.U.X.X.X.@+X.X.W.#+++++++",
"$+$+$+$+$+$+$+$+#+.+W.U.U.X.X.X.X.X.X.X.X.X.X.X.V.++$+",
"%+&+&+++.+W.V.U.V.U.U.U.U.V.V.U.U.U.U.U.U.U.V.U.U.V.++",
".+.+*+*+*+*+*+*+W.*+*+*+*+*+*+*+*+*+*+*+*+*+*+*+*+*+.+",
" + + + + + + + + + + + + + + + + + + + + + + + + + + +"};
