/* XPM */
static char * maximize_inactive_xpm[] = {
"27 24 130 2",
"  	c None",
". 	c #918A89",
"+ 	c #8D706A",
"@ 	c #8D706B",
"# 	c #8D716B",
"$ 	c #8D726B",
"% 	c #8D726C",
"& 	c #8D736D",
"* 	c #8D746E",
"= 	c #8D746F",
"- 	c #8D756F",
"; 	c #8D7570",
"> 	c #8D7670",
", 	c #8D7671",
"' 	c #8D7672",
") 	c #8C746F",
"! 	c #8C736E",
"~ 	c #8B726D",
"{ 	c #8A726C",
"] 	c #8A706B",
"^ 	c #89706B",
"/ 	c #7E6662",
"( 	c #918C8B",
"_ 	c #8E7F7C",
": 	c #8E807D",
"< 	c #8F827F",
"[ 	c #8F8481",
"} 	c #908583",
"| 	c #908684",
"1 	c #908886",
"2 	c #908988",
"3 	c #908B8A",
"4 	c #918D8B",
"5 	c #918E8D",
"6 	c #918F8E",
"7 	c #929090",
"8 	c #939393",
"9 	c #918E8E",
"0 	c #918D8D",
"a 	c #8F8684",
"b 	c #8E8582",
"c 	c #8E8381",
"d 	c #8E817E",
"e 	c #8D7D7A",
"f 	c #7E6762",
"g 	c #823D2E",
"h 	c #813D2E",
"i 	c #803D2E",
"j 	c #7E3C2E",
"k 	c #7D3C2E",
"l 	c #7C3C2E",
"m 	c #7B3B2E",
"n 	c #7A3B2E",
"o 	c #67362B",
"p 	c #8B706B",
"q 	c #793A2E",
"r 	c #67352B",
"s 	c #896B66",
"t 	c #66352B",
"u 	c #886760",
"v 	c #773A2E",
"w 	c #825348",
"x 	c #741F0E",
"y 	c #731F0E",
"z 	c #711F0D",
"A 	c #6F1E0D",
"B 	c #58180A",
"C 	c #7F4B41",
"D 	c #7D4539",
"E 	c #7B3E32",
"F 	c #75200E",
"G 	c #59180A",
"H 	c #79382A",
"I 	c #76200E",
"J 	c #5A180A",
"K 	c #773123",
"L 	c #77210E",
"M 	c #5C190B",
"N 	c #782C1B",
"O 	c #78210E",
"P 	c #7B220E",
"Q 	c #5D190B",
"R 	c #702413",
"S 	c #6F1F0D",
"T 	c #701F0E",
"U 	c #74200E",
"V 	c #5B190B",
"W 	c #080808",
"X 	c #0F0E0E",
"Y 	c #595959",
"Z 	c #5B5B5B",
"` 	c #5E5E5E",
" .	c #5F5F5F",
"..	c #606060",
"+.	c #636363",
"@.	c #646464",
"#.	c #676767",
"$.	c #696969",
"%.	c #6B6B6B",
"&.	c #6C6C6C",
"*.	c #6D6D6D",
"=.	c #6F6F6F",
"-.	c #717171",
";.	c #737373",
">.	c #757575",
",.	c #767676",
"'.	c #797979",
").	c #7A7A7A",
"!.	c #7B7B7B",
"~.	c #7E7E7E",
"{.	c #7F7F7F",
"].	c #202020",
"^.	c #2C2C2C",
"/.	c #2E2E2E",
"(.	c #4C4C4C",
"_.	c #232323",
":.	c #222222",
"<.	c #212121",
"[.	c #242424",
"}.	c #272727",
"|.	c #292929",
"1.	c #2D2D2D",
"2.	c #1E1E1E",
"3.	c #1F1F1F",
"4.	c #1C1C1C",
"5.	c #252525",
"6.	c #1D1D1D",
"7.	c #1B1B1B",
"8.	c #191919",
"9.	c #1A1A1A",
". + @ # $ % % & * = - ; > , ' , > - ) ) ! ~ { { ] ^ / ",
"( _ : < [ } | 1 2 3 4 5 6 7 8 7 9 0 3 2 1 a b c d e f ",
"> g h h h h h h h i i i i i i i j j j j j j k l m n o ",
"p i i j j j j j j j j j j j j j j j j j k k l m n q r ",
"s j j j k k k k k k k k k k k k k k k k l l m n q q t ",
"u k l l m m m m m m m m m l l l l l l l l m m n q v t ",
"w x x y y y z z z y y y y y x x x x x x x x y z z A B ",
"C y z z z z z z z z z z z y y y x x x x x x y z z A B ",
"D z z z z z z z z z z z z y y y x x x x x x x y z z B ",
"E z z z z z z z z z z z z y y x x F F F F F x x y z G ",
"H z z z z z z z z z z y y x x F F I I I I I F F x y J ",
"K y z z z z z z z y y x x F I I L L L L L L L I F x M ",
"N x x x x x x x x F F I I L L L O O O P P O O L L I Q ",
"R S S S S S S S S S S S T T y y U U U U U U U U y S V ",
"W W W W W W W W W W W W W W W W W W W W W W W W W W X ",
"Y Y Z `  ...+.@.@.#.$.%.&.*.=.-.;.;.>.,.'.).!.~.{.~.].",
"^.^.^.^.^.^.^.^.^.^.^.^.^.^.^.^.^.^.^.^.^.^.^.^.^./.(.",
"_._._._._._._._._._._._._._._._._.:.<.<.<.<.<.[.}.|.1.",
"2.2.2.2.2.2.2.2.2.2.2.2.2.2.2.2.2.2.2.2.2.2.2.2.2.2.3.",
"4.4.4.4.4.4.4.4.4.4.4.4.4.2.<._.[.[.[.5.[.[.<.6.4.4.4.",
"7.7.7.7.7.7.7.7.6.3.<._._.[.[.[.[.[.[.[.[.[.[.[.:.4.7.",
"8.9.9.4.3.<.:._.:._._._._.:.:._._._._._._._.:._._.:.4.",
"3.3.].].].].].].<.].].].].].].].].].].].].].].].].].3.",
"2.2.2.2.2.2.2.2.2.2.2.2.2.2.2.2.2.2.2.2.2.2.2.2.2.2.2."};
