/* XPM */
static char * top_right_active_xpm[] = {
"7 44 64 1",
" 	c None",
".	c #898989",
"+	c #848484",
"@	c #858585",
"#	c #4D4D4D",
"$	c #606060",
"%	c #5A5A5A",
"&	c #595959",
"*	c #565656",
"=	c #5F5F5F",
"-	c #585858",
";	c #4A4A4A",
">	c #5D5D5D",
",	c #5B5B5B",
"'	c #555555",
")	c #525252",
"!	c #535353",
"~	c #515151",
"{	c #494949",
"]	c #414141",
"^	c #484848",
"/	c #474747",
"(	c #3F3F3F",
"_	c #464646",
":	c #434343",
"<	c #3D3D3D",
"[	c #454545",
"}	c #404040",
"|	c #3C3C3C",
"1	c #3B3B3B",
"2	c #424242",
"3	c #393939",
"4	c #373737",
"5	c #343434",
"6	c #353535",
"7	c #333333",
"8	c #313131",
"9	c #2F2F2F",
"0	c #2E2E2E",
"a	c #2C2C2C",
"b	c #2B2B2B",
"c	c #292929",
"d	c #262626",
"e	c #242424",
"f	c #222222",
"g	c #232323",
"h	c #202020",
"i	c #212121",
"j	c #1E1E1E",
"k	c #1D1D1D",
"l	c #1F1F1F",
"m	c #252525",
"n	c #1A1A1A",
"o	c #181818",
"p	c #A1A1A1",
"q	c #131313",
"r	c #727272",
"s	c #A6A6A6",
"t	c #141414",
"u	c #717171",
"v	c #9D9D9D",
"w	c #646565",
"x	c #D2D2D2",
"y	c #8F8F8F",
".++@#  ",
"$%&&&* ",
"=%----;",
">,'''')",
",%!!!!!",
"&&~~~~~",
"{{]]]]]",
"^/(((((",
"_:<<<<<",
"[}||1||",
"2133333",
"}444444",
"<555565",
"4777777",
"8888888",
"9000000",
"aaaaaaa",
"bbbbbbb",
"ccccccc",
"ddddddd",
"eeeeeee",
"fggfgfg",
"hhhhhih",
"jjjjjjj",
"  kikkk",
"  klikk",
"  klgik",
"  klgmg",
"  klgmc",
"  klgmc",
"  klgmc",
"  klgmc",
"  klgmc",
"  klgmc",
"  klgmc",
"  klgmc",
"  klgmc",
"  klgmc",
"  klgmc",
"  klgne",
"  klopj",
"  kqrsl",
"  tuvwl",
"  txywl"};
