/* XPM */
static char * top_left_active_xpm[] = {
"6 45 51 1",
" 	c None",
".	c #4D4D4D",
"+	c #585858",
"@	c #7E7E7E",
"#	c #828282",
"$	c #555555",
"%	c #595959",
"&	c #4A4A4A",
"*	c #525252",
"=	c #565656",
"-	c #535353",
";	c #515151",
">	c #414141",
",	c #3F3F3F",
"'	c #3D3D3D",
")	c #3B3B3B",
"!	c #3C3C3C",
"~	c #393939",
"{	c #373737",
"]	c #343434",
"^	c #353535",
"/	c #333333",
"(	c #313131",
"_	c #2E2E2E",
":	c #2F2F2F",
"<	c #2C2C2C",
"[	c #2B2B2B",
"}	c #292929",
"|	c #262626",
"1	c #242424",
"2	c #232323",
"3	c #202020",
"4	c #212121",
"5	c #1E1E1E",
"6	c #1D1D1D",
"7	c #1F1F1F",
"8	c #252525",
"9	c #1A1A1A",
"0	c #A1A1A1",
"a	c #181818",
"b	c #A6A6A6",
"c	c #727272",
"d	c #131313",
"e	c #646565",
"f	c #9D9D9D",
"g	c #717171",
"h	c #141414",
"i	c #8F8F8F",
"j	c #D2D2D2",
"k	c #8F8E8E",
"l	c #B9B9B9",
"  .+@#",
" $%%%%",
"&+++++",
"*$=$$$",
"------",
";;;;;;",
">>>>>>",
",,,,,,",
"''''''",
")!!!)!",
"~~~~~~",
"{{{{{{",
"]^]]]^",
"//////",
"((((((",
"_::___",
"<<<<<<",
"[[[[[[",
"}}}}}}",
"||||||",
"111111",
"222222",
"343333",
"555555",
"66646 ",
"66476 ",
"64276 ",
"28276 ",
"}8276 ",
"}8276 ",
"}8276 ",
"}8276 ",
"}8276 ",
"}8276 ",
"}8276 ",
"}8276 ",
"}8276 ",
"}8276 ",
"}8276 ",
"19276 ",
"50a76 ",
"7bcd6 ",
"7efgh ",
"7eijh ",
"7eklh "};
