/* XPM */
static char * bottom_inactive_xpm[] = {
"2 5 6 1",
" 	c None",
".	c #323232",
"+	c #1F1F1F",
"@	c #232323",
"#	c #252525",
"$	c #292929",
"..",
"++",
"@@",
"##",
"$$"};
