/* XPM */
static char * close_pressed_xpm[] = {
"33 24 594 2",
"  	c None",
". 	c #F1F1F9",
"+ 	c #C5C6EE",
"@ 	c #C4C5EC",
"# 	c #C3C4EB",
"$ 	c #C4C4EA",
"% 	c #C3C4E7",
"& 	c #C3C4E6",
"* 	c #C3C3E5",
"= 	c #C2C2E3",
"- 	c #C0C2E3",
"; 	c #C0C2E2",
"> 	c #C1C2E1",
", 	c #C0C1E1",
"' 	c #BFC0E1",
") 	c #BEC0E1",
"! 	c #BEBFE0",
"~ 	c #BEBFE1",
"{ 	c #BCBDE2",
"] 	c #BBBDE2",
"^ 	c #B9BAE2",
"/ 	c #B8BAE3",
"( 	c #B8B9E4",
"_ 	c #B6B8E5",
": 	c #B5B6E7",
"< 	c #B5B6E8",
"[ 	c #B3B5E9",
"} 	c #B2B4EA",
"| 	c #B3B4EC",
"1 	c #B2B4EC",
"2 	c #B4B4EC",
"3 	c #8D90D6",
"4 	c #3F3F3F",
"5 	c #AAAAAA",
"6 	c #F4F5F6",
"7 	c #D8D9EF",
"8 	c #D6D7EC",
"9 	c #D5D6EB",
"0 	c #D4D5E7",
"a 	c #D1D2E4",
"b 	c #D0D0E1",
"c 	c #CFD0DF",
"d 	c #CDCEDD",
"e 	c #CDCED9",
"f 	c #CCCCD7",
"g 	c #C9CCD7",
"h 	c #C7CAD5",
"i 	c #C6C8D4",
"j 	c #C4C6D5",
"k 	c #C2C3D5",
"l 	c #BFC0D5",
"m 	c #BDBED5",
"n 	c #BABBD6",
"o 	c #B6B7D8",
"p 	c #B2B4D9",
"q 	c #B0B1DB",
"r 	c #ABADDD",
"s 	c #A7A9DD",
"t 	c #A4A4E1",
"u 	c #9FA1E1",
"v 	c #9C9EE4",
"w 	c #9A9BE4",
"x 	c #9799E5",
"y 	c #9597E6",
"z 	c #7677B6",
"A 	c #3D3D3D",
"B 	c #A7A7A7",
"C 	c #D1D2EC",
"D 	c #7779D8",
"E 	c #7C7ED6",
"F 	c #8285D2",
"G 	c #8789CF",
"H 	c #8B8ECC",
"I 	c #9193C8",
"J 	c #9697C6",
"K 	c #9B9CC4",
"L 	c #9D9FC2",
"M 	c #A0A2C1",
"N 	c #A3A5BF",
"O 	c #A5A7BE",
"P 	c #A6A7BE",
"Q 	c #A7A9BE",
"R 	c #A5A7BF",
"S 	c #A0A2C2",
"T 	c #9FA1C3",
"U 	c #9A9CC6",
"V 	c #9698C9",
"W 	c #9394CC",
"X 	c #8F91CE",
"Y 	c #8B8DD1",
"Z 	c #8689D4",
"` 	c #8486D7",
" .	c #8082DB",
"..	c #7E80DC",
"+.	c #7E81DF",
"@.	c #7F80E0",
"#.	c #47487C",
"$.	c #565656",
"%.	c #949494",
"&.	c #CACBE8",
"*.	c #7C7DD5",
"=.	c #8183D2",
"-.	c #888ACD",
";.	c #8E92CA",
">.	c #9698C5",
",.	c #A3A5C0",
"'.	c #A8AABD",
").	c #AFB0BB",
"!.	c #B3B4B8",
"~.	c #B6B9B6",
"{.	c #B8BBB6",
"].	c #BABCB5",
"^.	c #BABCB4",
"/.	c #B8BAB6",
"(.	c #B6B8B7",
"_.	c #454648",
":.	c #ACAFBC",
"<.	c #A9ABBF",
"[.	c #A3A5C1",
"}.	c #9D9FC6",
"|.	c #9899C9",
"1.	c #9396CD",
"2.	c #8D8FD0",
"3.	c #898BD4",
"4.	c #8486D9",
"5.	c #7F81DE",
"6.	c #7D80E0",
"7.	c #32334B",
"8.	c #717171",
"9.	c #7F7F7F",
"0.	c #C3C5E5",
"a.	c #7E80D2",
"b.	c #8587D0",
"c.	c #8D8FCB",
"d.	c #9698C6",
"e.	c #9FA0C2",
"f.	c #ADAFBB",
"g.	c #B5B6B8",
"h.	c #9C9D96",
"i.	c #C0C2B2",
"j.	c #C4C6AF",
"k.	c #C8CAAE",
"l.	c #CACCAE",
"m.	c #CACCAC",
"n.	c #4F5047",
"o.	c #87887F",
"p.	c #B9BBB6",
"q.	c #B3B5B9",
"r.	c #ACAFBD",
"s.	c #A5A8C1",
"t.	c #A0A1C5",
"u.	c #999BCA",
"v.	c #9294CE",
"w.	c #8C8ED2",
"x.	c #8688D5",
"y.	c #8284DA",
"z.	c #8082DE",
"A.	c #7072CC",
"B.	c #292928",
"C.	c #8F8F8F",
"D.	c #696969",
"E.	c #BCBEE3",
"F.	c #8083D2",
"G.	c #8889CD",
"H.	c #9193C9",
"I.	c #ACAEBB",
"J.	c #B4B6B8",
"K.	c #BCBEB3",
"L.	c #989989",
"M.	c #525346",
"N.	c #D0D2AA",
"O.	c #D4D5A9",
"P.	c #D6D7A8",
"Q.	c #D5D7A9",
"R.	c #555644",
"S.	c #919278",
"T.	c #D2D4BD",
"U.	c #C1C3B2",
"V.	c #BABCB6",
"W.	c #B4B5BA",
"X.	c #ABADBD",
"Y.	c #A5A6C2",
"Z.	c #9E9FC7",
"`.	c #9598CC",
" +	c #9091D0",
".+	c #888AD4",
"++	c #8284D9",
"@+	c #505292",
"#+	c #373736",
"$+	c #989898",
"%+	c #595959",
"&+	c #A0A1DA",
"*+	c #5B5EC8",
"=+	c #6467C5",
"-+	c #7274C0",
";+	c #8082BC",
">+	c #8C8EB8",
",+	c #979AB5",
"'+	c #A2A4B1",
")+	c #ADAFAD",
"!+	c #C0C2B3",
"~+	c #8B8D77",
"{+	c #525342",
"]+	c #A8A881",
"^+	c #BBBC8E",
"/+	c #565642",
"(+	c #969876",
"_+	c #D3D4B8",
":+	c #BFC1A8",
"<+	c #B5B7AB",
"[+	c #ABACB0",
"}+	c #A1A3B3",
"|+	c #9698B7",
"1+	c #8B8CBB",
"2+	c #8285BF",
"3+	c #787AC4",
"4+	c #6D6FC8",
"5+	c #6566CB",
"6+	c #5C5ED0",
"7+	c #595CD4",
"8+	c #343453",
"9+	c #575756",
"0+	c #747474",
"a+	c #494949",
"b+	c #989AD9",
"c+	c #5B5DC8",
"d+	c #6669C3",
"e+	c #7376BF",
"f+	c #8183BB",
"g+	c #8E91B6",
"h+	c #9A9DB3",
"i+	c #A6A8AE",
"j+	c #B1B3AB",
"k+	c #BEBFA8",
"l+	c #D3D4B6",
"m+	c #929471",
"n+	c #565740",
"o+	c #5C5C42",
"p+	c #999A6F",
"q+	c #E0E1B9",
"r+	c #CED0A3",
"s+	c #C5C6A7",
"t+	c #BABCAA",
"u+	c #AFB0AE",
"v+	c #A3A6B2",
"w+	c #989BB6",
"x+	c #8D8FBA",
"y+	c #8486BF",
"z+	c #797BC3",
"A+	c #6466CD",
"B+	c #5B5ED1",
"C+	c #5356C5",
"D+	c #272727",
"E+	c #757574",
"F+	c #5B5B5B",
"G+	c #484848",
"H+	c #8F90D6",
"I+	c #5C5EC7",
"J+	c #6769C3",
"K+	c #7577BF",
"L+	c #8384BB",
"M+	c #9092B7",
"N+	c #9C9EB3",
"O+	c #A7AAAE",
"P+	c #B4B5AB",
"Q+	c #C0C2A7",
"R+	c #CBCDA4",
"S+	c #DEDFB6",
"T+	c #E6E6BA",
"U+	c #E8E9BA",
"V+	c #E6E7B6",
"W+	c #D9DAA0",
"X+	c #D1D2A4",
"Y+	c #C7C8A6",
"Z+	c #BCBEAA",
"`+	c #B0B2AD",
" @	c #A5A7B1",
".@	c #9A9BB5",
"+@	c #8E8FBA",
"@@	c #777AC3",
"#@	c #6B6EC9",
"$@	c #6364CD",
"%@	c #5A5CD1",
"&@	c #414280",
"*@	c #2E2E2C",
"=@	c #858585",
"-@	c #474747",
";@	c #464646",
">@	c #8587D4",
",@	c #5B5FC7",
"'@	c #8184BB",
")@	c #8F92B7",
"!@	c #9C9DB2",
"~@	c #A7A9AF",
"{@	c #B2B5AB",
"]@	c #CACCA4",
"^@	c #7E7E5F",
"/@	c #585940",
"(@	c #5C5D42",
"_@	c #747553",
":@	c #D8DAA0",
"<@	c #D0D1A3",
"[@	c #C6C8A6",
"}@	c #BABDAA",
"|@	c #AFB2AE",
"1@	c #8C8EBB",
"2@	c #8184C0",
"3@	c #7577C5",
"4@	c #696CCA",
"5@	c #5F61CE",
"6@	c #585ACF",
"7@	c #2B2C38",
"8@	c #545453",
"9@	c #676767",
"0@	c #454545",
"a@	c #444444",
"b@	c #7B7CD2",
"c@	c #5C5EC8",
"d@	c #6668C4",
"e@	c #7476C0",
"f@	c #8E8FB7",
"g@	c #9A9BB4",
"h@	c #A4A7AF",
"i@	c #AFB2AC",
"j@	c #BBBEA8",
"k@	c #636452",
"l@	c #919272",
"m@	c #E1E1BB",
"n@	c #E3E4BA",
"o@	c #9B9B72",
"p@	c #CCCEA4",
"q@	c #C2C4A8",
"r@	c #B7BAAB",
"s@	c #ACAFAF",
"t@	c #A2A4B2",
"u@	c #9598B7",
"v@	c #888BBC",
"w@	c #7D7FC1",
"x@	c #7072C6",
"y@	c #6467CC",
"z@	c #5B5DCF",
"A@	c #464896",
"B@	c #242422",
"C@	c #777776",
"D@	c #494948",
"E@	c #424242",
"F@	c #6F72D1",
"G@	c #5A5DCA",
"H@	c #6265C6",
"I@	c #7073C0",
"J@	c #7E80BC",
"K@	c #8A8CB8",
"L@	c #9698B5",
"M@	c #A1A3B2",
"N@	c #ABAEAD",
"O@	c #5A5B55",
"P@	c #868875",
"Q@	c #D4D5BA",
"R@	c #CECFA3",
"S@	c #DBDCB9",
"T@	c #929375",
"U@	c #4E4E41",
"V@	c #BDBFA9",
"W@	c #B2B4AC",
"X@	c #A8AAB0",
"Y@	c #9D9EB4",
"Z@	c #9092BA",
"`@	c #8284BE",
" #	c #7577C4",
".#	c #686AC9",
"+#	c #6061CD",
"@#	c #4D4FAC",
"##	c #262627",
"$#	c #414140",
"%#	c #686868",
"&#	c #404040",
"*#	c #6465D1",
"=#	c #5759CA",
"-#	c #5F62C8",
";#	c #6C6EC3",
">#	c #797BBE",
",#	c #8588B9",
"'#	c #9B9EB2",
")#	c #5B5C61",
"!#	c #7A7C78",
"~#	c #C8CABF",
"{#	c #C4C5A6",
"]#	c #C6C7A6",
"^#	c #CFD0BA",
"/#	c #C4C6B5",
"(#	c #B3B6AC",
"_#	c #AAACAF",
":#	c #A0A3B2",
"<#	c #9495B7",
"[#	c #8588BC",
"}#	c #7A7CC3",
"|#	c #6C6EC8",
"1#	c #6062CD",
"2#	c #5456BF",
"3#	c #2A2A36",
"4#	c #333332",
"5#	c #686867",
"6#	c #5457D1",
"7#	c #5153CC",
"8#	c #6668C6",
"9#	c #7173C2",
"0#	c #898CB9",
"a#	c #9495B6",
"b#	c #ABACBD",
"c#	c #B9BCC1",
"d#	c #AEB0AE",
"e#	c #B4B6AB",
"f#	c #B8BAAA",
"g#	c #BABCA9",
"h#	c #B9BBAA",
"i#	c #B1B2AD",
"j#	c #A8AAAF",
"k#	c #9FA1B3",
"l#	c #9496B7",
"m#	c #8689BC",
"n#	c #7A7CC0",
"o#	c #6D70C6",
"p#	c #6164CC",
"q#	c #575ACA",
"r#	c #2E2F44",
"s#	c #292926",
"t#	c #646463",
"u#	c #424241",
"v#	c #3C3C3C",
"w#	c #3F41A1",
"x#	c #4B4ECF",
"y#	c #5256CB",
"z#	c #5E61C8",
"A#	c #6A6CC5",
"B#	c #7376C1",
"C#	c #7F81BC",
"D#	c #8A8CB9",
"E#	c #9496B6",
"F#	c #9C9DB3",
"G#	c #A2A5B1",
"H#	c #ABADAE",
"I#	c #ACAEAE",
"J#	c #ACADAF",
"K#	c #A7AAB0",
"L#	c #A1A4B2",
"M#	c #999CB5",
"N#	c #8386BC",
"O#	c #7679C1",
"P#	c #6D6FC7",
"Q#	c #6164CB",
"R#	c #5457C3",
"S#	c #323252",
"T#	c #222220",
"U#	c #5C5C5B",
"V#	c #3A3A3A",
"W#	c #1D1D22",
"X#	c #3E40A7",
"Y#	c #4C50CF",
"Z#	c #5558CD",
"`#	c #5E61C9",
" $	c #696CC4",
".$	c #7375C1",
"+$	c #7C7FBE",
"@$	c #8688BA",
"#$	c #8F90B7",
"$$	c #9597B6",
"%$	c #999CB4",
"&$	c #9598B5",
"*$	c #9091B9",
"=$	c #8789BB",
"-$	c #7C7EBF",
";$	c #7173C3",
">$	c #6769C7",
",$	c #5E60CB",
"'$	c #4B4DA0",
")$	c #292933",
"!$	c #242421",
"~$	c #535352",
"{$	c #383838",
"]$	c #373737",
"^$	c #343434",
"/$	c #272726",
"($	c #1B1B1F",
"_$	c #3B3C95",
":$	c #4E51CF",
"<$	c #5456CC",
"[$	c #5D5FC9",
"}$	c #6F72C3",
"|$	c #7779C0",
"1$	c #8385BC",
"2$	c #888ABA",
"3$	c #8889BB",
"4$	c #8588BA",
"5$	c #8184BC",
"6$	c #7A7DBE",
"7$	c #686AC6",
"8$	c #6062CA",
"9$	c #5558BC",
"0$	c #383962",
"a$	c #21211C",
"b$	c #2F2F2D",
"c$	c #414141",
"d$	c #353535",
"e$	c #2C2C2C",
"f$	c #4A4A49",
"g$	c #2B2B2A",
"h$	c #191917",
"i$	c #29294A",
"j$	c #4346AD",
"k$	c #5255CE",
"l$	c #585BCB",
"m$	c #6062C9",
"n$	c #6669C5",
"o$	c #6C6EC4",
"p$	c #7072C2",
"q$	c #7375C2",
"r$	c #7476C1",
"s$	c #7275C3",
"t$	c #6B6DC4",
"u$	c #6567C7",
"v$	c #5D60C9",
"w$	c #5051AA",
"x$	c #3A3B65",
"y$	c #232322",
"z$	c #252521",
"A$	c #464644",
"B$	c #525251",
"C$	c #383837",
"D$	c #2F2F2F",
"E$	c #2B2B2B",
"F$	c #242424",
"G$	c #252523",
"H$	c #1B1B18",
"I$	c #27283D",
"J$	c #393A70",
"K$	c #474898",
"L$	c #5153B7",
"M$	c #575ABF",
"N$	c #5A5DBF",
"O$	c #5C5EBF",
"P$	c #5C5FBE",
"Q$	c #5B5DBE",
"R$	c #595BBF",
"S$	c #4F51A8",
"T$	c #404275",
"U$	c #2E2F3B",
"V$	c #22221B",
"W$	c #2A2A25",
"X$	c #41413E",
"Y$	c #333333",
"Z$	c #323232",
"`$	c #292929",
" %	c #1C1C1C",
".%	c #484847",
"+%	c #383836",
"@%	c #2C2C29",
"#%	c #242420",
"$%	c #25251F",
"%%	c #272720",
"&%	c #2A2A21",
"*%	c #2B2B22",
"=%	c #282820",
"-%	c #2B2B26",
";%	c #393936",
">%	c #4B4B48",
",%	c #4E4E4D",
"'%	c #3E3E3D",
")%	c #303030",
"!%	c #262626",
"~%	c #1B1B1B",
"{%	c #3B3B3A",
"]%	c #4B4B49",
"^%	c #4D4D4B",
"/%	c #4E4E4B",
"(%	c #4F4F4C",
"_%	c #474745",
":%	c #2E2E2E",
"<%	c #252525",
"[%	c #1A1A1A",
"}%	c #191919",
"|%	c #282827",
"1%	c #2D2D2D",
"2%	c #2E2E2D",
"3%	c #2D2D2C",
"4%	c #232323",
"5%	c #222222",
"6%	c #181818",
"7%	c #202020",
"8%	c #2A2A2A",
"9%	c #2A2A29",
"0%	c #282828",
"a%	c #212121",
"b%	c #161616",
"c%	c #1E1E1E",
". + @ # $ % & * = - ; > , ' ) ! ~ { ] ^ / ( _ : < [ } | 1 2 3 4 5 ",
"6 7 8 9 0 a b c d e f g h i j k l m n o p q r s t u v w x y z A B ",
"C D E F G H I J K L M N O P Q R N S T U V W X Y Z `  ...+.@.#.$.%.",
"&.*.=.-.;.>.L ,.'.).!.~.{.].^./.(._.:.<.[.}.|.1.2.3.4. .5.6.7.8.9.",
"0.a.b.c.d.e.P f.g.h.i.j.k.l.m.k.n.o.p.q.r.s.t.u.v.w.x.y.z.A.B.C.D.",
"E.F.G.H.K N I.J.K.L.M.N.O.P.Q.R.S.T.U.V.W.X.Y.Z.`. +.+++z.@+#+$+%+",
"&+*+=+-+;+>+,+'+)+!+~+{+]+^+/+(+_+:+<+[+}+|+1+2+3+4+5+6+7+8+9+0+a+",
"b+c+d+e+f+g+h+i+j+k+l+m+n+o+p+q+r+s+t+u+v+w+x+y+z+4+A+B+C+D+E+F+G+",
"H+I+J+K+L+M+N+O+P+Q+R+S+T+U+V+W+X+Y+Z+`+ @.@+@y+@@#@$@%@&@*@=@-@;@",
">@,@J+K+'@)@!@~@{@:+]@^@/@(@_@:@<@[@}@|@ @w+1@2@3@4@5@6@7@8@9@0@a@",
"b@c@d@e@f+f@g@h@i@j@k@l@m@n@o@/+p@q@r@s@t@u@v@w@x@y@z@A@B@C@D@E@E@",
"F@G@H@I@J@K@L@M@N@O@P@Q@R@<@S@T@U@V@W@X@Y@Z@`@ #.#+#@###$#%#&#&#&#",
"*#=#-#;#>#,#M+'#)#!#~#:+{#[@]#^#/#(#_#:#<#[#}#|#1#2#3#4#5#4 A A A ",
"6#7#*+8#9#J@0#a#b#c#d#e#f#g#h#<+i#j#k#l#m#n#o#p#q#r#s#t#u#v#v#v#v#",
"w#x#y#z#A#B#C#D#E#F#G#j#H#I#J#K#L#M#M+N#O#P#Q#R#S#T#U#a@V#V#V#V#V#",
"W#X#Y#Z#`# $.$+$@$#$$$.@N+N+%$&$*$=$-$;$>$,$'$)$!$~$;@{$]$]${${$^$",
"/$($_$:$<$[$8#}$|$+$1$=$2$3$4$5$6$9#7$8$9$0$a$b$9+c$d$d$d$d$d$d$e$",
"f$g$h$i$j$k$l$m$n$o$p$q$r$s$}$t$u$v$w$x$y$z$A$B$C$^$^$^$^$^$^$D$E$",
"F$u#$#G$H$I$J$K$L$M$N$O$P$Q$R$S$T$U$V$W$X$8@u#4#Y$Y$Y$Y$Y$Y$Z$`$`$",
" % %D+E@.%+%@%#%$%%%&%*%*%&%=%$%-%;%>%,%'%)%)%)%)%)%)%)%)%)%!%!%!%",
"~%~%~%~%y${%A$]%^%/%/%(%(%/%/%^%_%'%4#:%:%:%:%:%:%:%:%:%:%<%F$F$F$",
"[%[%[%[%}%~%|%1%1%2%2%2%2%2%2%1%e$3%1%1%e$1%e$1%e$1%1%1%F$4%5%5%4%",
"6%6%6%6%6%6%6%7%`$8%9%9%9%8%8%8%8%8%8%8%8%8%8%8%8%8%0%7%7%7%7%7%a%",
" %b%b%b%b%b%b%b%}%!%0%0%0%0%0%0%0%0%0%0%0%0%0%0%0%a%c%c%c%c%c%c%c%"};
