/* XPM */
static char * close_normal_xpm[] = {
"33 24 261 2",
"  	c None",
". 	c #F1F1FA",
"+ 	c #C4C5F1",
"@ 	c #C2C3F0",
"# 	c #C0C1F0",
"$ 	c #C0C0F0",
"% 	c #BEBFEF",
"& 	c #BDBEEF",
"* 	c #BCBDEF",
"= 	c #BABAEF",
"- 	c #B8BAEF",
"; 	c #B7B9EE",
"> 	c #B7B8EE",
", 	c #B6B7EE",
"' 	c #B5B6EE",
") 	c #B4B6EE",
"! 	c #B4B5ED",
"~ 	c #B3B4ED",
"{ 	c #B2B4ED",
"] 	c #B1B2ED",
"^ 	c #B1B3ED",
"/ 	c #B1B3EC",
"( 	c #B2B3ED",
"_ 	c #B4B4ED",
": 	c #8D90D6",
"< 	c #3F3F3F",
"[ 	c #AAAAAA",
"} 	c #F4F5F9",
"| 	c #D7D8F4",
"1 	c #D3D4F4",
"2 	c #D1D2F4",
"3 	c #CECFF3",
"4 	c #CACBF2",
"5 	c #C6C7F2",
"6 	c #BBBCEF",
"7 	c #B5B7EE",
"8 	c #AFB1EC",
"9 	c #ADAEEC",
"0 	c #AAABEC",
"a 	c #A9AAEB",
"b 	c #A6A7EA",
"c 	c #A4A5EA",
"d 	c #A1A3E9",
"e 	c #A1A2E9",
"f 	c #9EA0E9",
"g 	c #9C9EE8",
"h 	c #9B9CE8",
"i 	c #999BE7",
"j 	c #989AE7",
"k 	c #9899E7",
"l 	c #9698E6",
"m 	c #9597E6",
"n 	c #7677B6",
"o 	c #3D3D3D",
"p 	c #A7A7A7",
"q 	c #D0D1F0",
"r 	c #6E70DD",
"s 	c #6D6FDE",
"t 	c #6C6FDD",
"u 	c #6B6DDD",
"v 	c #696CDD",
"w 	c #696BDC",
"x 	c #6769DC",
"y 	c #6F71DE",
"z 	c #7173DF",
"A 	c #7275DF",
"B 	c #7376DF",
"C 	c #7678DF",
"D 	c #7779E0",
"E 	c #797BE0",
"F 	c #7C7FE1",
"G 	c #7E7FE1",
"H 	c #47487D",
"I 	c #565656",
"J 	c #949494",
"K 	c #C8C9ED",
"L 	c #6F71DC",
"M 	c #6669DC",
"N 	c #292956",
"O 	c #7B7DE1",
"P 	c #32334B",
"Q 	c #717171",
"R 	c #7F7F7F",
"S 	c #C0C2EA",
"T 	c #6E71DB",
"U 	c #5456B8",
"V 	c #6567DC",
"W 	c #2A2A59",
"X 	c #4A4B9C",
"Y 	c #7577DF",
"Z 	c #6E70CD",
"` 	c #282828",
" .	c #8F8F8F",
"..	c #696969",
"+.	c #B9BAE8",
"@.	c #6E72DA",
"#.	c #6C6EDC",
"$.	c #4D4FAB",
"%.	c #282959",
"&.	c #6366DC",
"*.	c #292A59",
"=.	c #484A9B",
"-.	c #8688E2",
";.	c #4D4F92",
">.	c #363636",
",.	c #989898",
"'.	c #595959",
").	c #9A9BE1",
"!.	c #4245D1",
"~.	c #3B3ED2",
"{.	c #393CD2",
"].	c #373AD2",
"^.	c #3639D2",
"/.	c #3437D1",
"(.	c #3235D1",
"_.	c #4B4ED6",
":.	c #232695",
"<.	c #141555",
"[.	c #282AA7",
"}.	c #2C2EB8",
"|.	c #151655",
"1.	c #272999",
"2.	c #5F62DB",
"3.	c #3A3DD3",
"4.	c #3E41D3",
"5.	c #3F42D4",
"6.	c #4447D5",
"7.	c #4649D5",
"8.	c #474AD6",
"9.	c #4B4DD6",
"0.	c #4C4FD7",
"a.	c #5154D8",
"b.	c #303052",
"c.	c #747474",
"d.	c #494949",
"e.	c #8F91DF",
"f.	c #4043D1",
"g.	c #595BD9",
"h.	c #232592",
"i.	c #141553",
"j.	c #141657",
"k.	c #3C3FD3",
"l.	c #4C4FC7",
"m.	c #232325",
"n.	c #5B5B5B",
"o.	c #484848",
"p.	c #8587DC",
"q.	c #3A3DD1",
"r.	c #3A3B80",
"s.	c #2B2B2B",
"t.	c #858585",
"u.	c #474747",
"v.	c #464646",
"w.	c #7A7DDA",
"x.	c #1D1F7C",
"y.	c #141656",
"z.	c #1A1B6D",
"A.	c #494CD6",
"B.	c #4D50D4",
"C.	c #262736",
"D.	c #525252",
"E.	c #676767",
"F.	c #454545",
"G.	c #444444",
"H.	c #6F71D8",
"I.	c #3F42D1",
"J.	c #191A68",
"K.	c #6A6CDD",
"L.	c #6B6EDD",
"M.	c #161755",
"N.	c #4144D4",
"O.	c #3D3F97",
"P.	c #202020",
"Q.	c #767676",
"R.	c #424242",
"S.	c #6366D7",
"T.	c #4143D2",
"U.	c #6264DB",
"V.	c #262896",
"W.	c #151653",
"X.	c #4244AF",
"Y.	c #1F2025",
"Z.	c #686868",
"`.	c #404040",
" +	c #595BD6",
".+	c #4043D2",
"++	c #1D1F74",
"@+	c #242692",
"#+	c #6668DC",
"$+	c #6265DB",
"%+	c #4648C3",
"&+	c #222232",
"*+	c #303030",
"=+	c #4B4ED4",
"-+	c #3F42D2",
";+	c #3E41D2",
">+	c #5355D8",
",+	c #474ACF",
"'+	c #242541",
")+	c #242424",
"!+	c #636363",
"~+	c #3C3C3C",
"{+	c #383AA2",
"]+	c #4346C8",
"^+	c #27284E",
"/+	c #1D1D1D",
"(+	c #3A3A3A",
"_+	c #191920",
":+	c #3739A8",
"<+	c #3A3CA2",
"[+	c #1E1E2E",
"}+	c #1E1E1E",
"|+	c #515151",
"1+	c #383838",
"2+	c #373737",
"3+	c #343434",
"4+	c #262626",
"5+	c #17171D",
"6+	c #333595",
"7+	c #3F42C1",
"8+	c #282A5F",
"9+	c #171717",
"0+	c #555555",
"a+	c #414141",
"b+	c #353535",
"c+	c #2C2C2C",
"d+	c #4A4A4A",
"e+	c #2A2A2A",
"f+	c #151515",
"g+	c #222248",
"h+	c #383BAF",
"i+	c #383AAE",
"j+	c #282961",
"k+	c #17171B",
"l+	c #434343",
"m+	c #2F2F2F",
"n+	c #222222",
"o+	c #1D1E39",
"p+	c #2A2C6E",
"q+	c #33359A",
"r+	c #393CBC",
"s+	c #3C3FC7",
"t+	c #3538AA",
"u+	c #2A2C72",
"v+	c #1C1D34",
"w+	c #333333",
"x+	c #323232",
"y+	c #292929",
"z+	c #1C1C1C",
"A+	c #272727",
"B+	c #1B1B1B",
"C+	c #181818",
"D+	c #212121",
"E+	c #4C4C4C",
"F+	c #232323",
"G+	c #2E2E2E",
"H+	c #252525",
"I+	c #1A1A1A",
"J+	c #191919",
"K+	c #2D2D2D",
"L+	c #161616",
". + @ # $ % & * = - ; > , ' ) ! ! ~ { ] ^ ^ / ] ( ^ ^ ~ { _ : < [ ",
"} | 1 2 3 4 5 + # % 6 - 7 { 8 9 0 a b c d e f g h i j k l m n o p ",
"q r s t u v w w w x x x x x w w w v t t s y z A B C D E F G H I J ",
"K L t u v w w x x x M M M x x x w N v t t s y A A C D E O F P Q R ",
"S T t v w w x x M U V V V M M x W X w u t s y z A Y C E O Z `  ...",
"+.@.#.w w x x M V $.%.&.&.V V *.=.-.w v t t y z A Y C D O ;.>.,.'.",
").!.~.{.{.].^./.(._.:.<.[.}.|.1.2.].{.3.4.4.5.6.7.8.9.0.a.b.I c.d.",
"e.f.~.{.].].^./.(.(.g.h.i.j.h.M ^.].{.{.k.4.5.6.7.8.9.0.l.m.c.n.o.",
"p.f.q.{.].].^./.(.(.(.2.s y &./.^.].{.{.k.4.5.6.7.8.9.0.r.s.t.u.v.",
"w.f.q.{.].].^./.(.(.(.x.<.y.z./.^.].{.3.4.4.5.6.7.A.9.B.C.D.E.F.G.",
"H.I.3.{.{.].^./.(.(.J.h.K.L.:.M.].].{.3.4.4.N.6.7.A.9.O.P.Q.d.R.R.",
"S.T.3.{.{.].].^./.J.h.U.(.(.V V.W.{.{.k.4.5.N.6.7.9.X.Y.< Z.`.`.`.",
" +.+k.3.{.{.].].++@+#+/././.^.$+a.{.3.4.4.5.6.7.8.%+&+*+E.< o o o ",
"=+-+;+k.3.{.{.].>+&.^.^.^.].].].{.{.k.4.5.N.6.7.,+'+)+!+R.~+~+~+~+",
"{+5.4.4.4.3.{.{.{.].].].].].{.{.{.k.4.4.5.6.7.]+^+/+n.G.(+(+(+(+(+",
"_+:+5.5.4.4.k.3.{.{.{.{.{.{.{.3.k.4.4.5.N.6.<+[+}+|+v.1+2+2+1+1+3+",
"4+5+6+N.5.5.4.4.k.3.3.3.3.3.k.4.4.4.5.N.7+8+9+s.0+a+b+b+b+b+b+b+c+",
"d+e+f+g+h+N.5.5.4.4.4.4.4.4.4.4.5.5.i+j+k+}+l+|+1+3+3+3+3+3+3+m+s.",
")+R.`.n+f+o+p+q+r+s+s+s+s+s+s+t+u+v+f+n+o D.a+w+w+w+w+w+w+w+x+y+y+",
"z+z+A+R.v.b+4+B+C+C+C+C+C+C+C+C+D+w+u.E+o *+*+*+*+*+*+*+*+*+4+4+4+",
"B+B+B+B+F+(+G.d.d+d+d+d+d+d+d+d+F.~+x+G+G+G+G+G+G+G+G+G+G+H+)+)+)+",
"I+I+I+I+J+B+` K+K+K+K+K+K+K+K+K+c+K+K+K+c+K+c+K+c+K+K+K+)+F+n+n+F+",
"C+C+C+C+C+C+C+P.y+e+e+e+e+e+e+e+e+e+e+e+e+e+e+e+e+e+` P.P.P.P.P.D+",
"z+L+L+L+L+L+L+L+J+4+` ` ` ` ` ` ` ` ` ` ` ` ` ` ` D+}+}+}+}+}+}+}+"};
