/* XPM */
static char * close_inactive_xpm[] = {
"33 24 202 2",
"  	c None",
". 	c #8A8A90",
"+ 	c #70718A",
"@ 	c #6F708A",
"# 	c #6E6F8A",
"$ 	c #6E6E8A",
"% 	c #6D6E89",
"& 	c #6C6D89",
"* 	c #6C6C89",
"= 	c #6B6B89",
"- 	c #6A6B89",
"; 	c #696A89",
"> 	c #686989",
", 	c #686889",
"' 	c #676889",
") 	c #676888",
"! 	c #676788",
"~ 	c #666788",
"{ 	c #666688",
"] 	c #51537B",
"^ 	c #2B2B2B",
"/ 	c #AAAAAA",
"( 	c #8C8D90",
"_ 	c #7B7C8D",
": 	c #797A8D",
"< 	c #78798C",
"[ 	c #76778C",
"} 	c #74758B",
"| 	c #72728B",
"1 	c #6B6C89",
"2 	c #646688",
"3 	c #636488",
"4 	c #626288",
"5 	c #616287",
"6 	c #5F6086",
"7 	c #5E5F86",
"8 	c #5C5D86",
"9 	c #5B5C86",
"0 	c #595B85",
"a 	c #595985",
"b 	c #585985",
"c 	c #575885",
"d 	c #565784",
"e 	c #555784",
"f 	c #444468",
"g 	c #292929",
"h 	c #A7A7A7",
"i 	c #77778C",
"j 	c #3E3F7F",
"k 	c #3D3E7F",
"l 	c #3C3E7F",
"m 	c #3C3D7E",
"n 	c #3B3C7E",
"o 	c #3F417F",
"p 	c #414280",
"q 	c #414380",
"r 	c #424480",
"s 	c #444580",
"t 	c #444581",
"u 	c #454681",
"v 	c #474981",
"w 	c #484981",
"x 	c #282948",
"y 	c #454545",
"z 	c #949494",
"A 	c #3A3C7E",
"B 	c #464881",
"C 	c #1C1D2B",
"D 	c #676767",
"E 	c #7F7F7F",
"F 	c #6C6E89",
"G 	c #3A3B7E",
"H 	c #434480",
"I 	c #3F4076",
"J 	c #171717",
"K 	c #8C8C8C",
"L 	c #696969",
"M 	c #393A7E",
"N 	c #2C2D54",
"O 	c #242424",
"P 	c #989898",
"Q 	c #595959",
"R 	c #555584",
"S 	c #232579",
"T 	c #212379",
"U 	c #202279",
"V 	c #1F2179",
"W 	c #1F2079",
"X 	c #1D1F78",
"Y 	c #1C1E78",
"Z 	c #24267A",
"` 	c #27287A",
" .	c #282A7A",
"..	c #282A7B",
"+.	c #2B2C7B",
"@.	c #2B2D7B",
"#.	c #2E307C",
"$.	c #1B1B2F",
"%.	c #4A4A4A",
"&.	c #747474",
"*.	c #494949",
"=.	c #4E5083",
"-.	c #222479",
";.	c #2B2D72",
">.	c #141415",
",.	c #707070",
"'.	c #5B5B5B",
").	c #484848",
"!.	c #212249",
"~.	c #1B1B1B",
"{.	c #858585",
"].	c #474747",
"^.	c #464646",
"/.	c #424380",
"(.	c #2A2B7B",
"_.	c #2C2E7A",
":.	c #15161F",
"<.	c #444444",
"[.	c #3B3D7E",
"}.	c #25277A",
"|.	c #232457",
"1.	c #121212",
"2.	c #757575",
"3.	c #424242",
"4.	c #35377D",
"5.	c #262764",
"6.	c #111215",
"7.	c #333333",
"8.	c #686868",
"9.	c #404040",
"0.	c #30317C",
"a.	c #282970",
"b.	c #13131C",
"c.	c #232323",
"d.	c #3F3F3F",
"e.	c #3D3D3D",
"f.	c #292B7B",
"g.	c #282A77",
"h.	c #141525",
"i.	c #626262",
"j.	c #3C3C3C",
"k.	c #1F205D",
"l.	c #262873",
"m.	c #16172C",
"n.	c #111111",
"o.	c #3A3A3A",
"p.	c #0E0E12",
"q.	c #1F2060",
"r.	c #21225D",
"s.	c #11111A",
"t.	c #131313",
"u.	c #4E4E4E",
"v.	c #383838",
"w.	c #373737",
"x.	c #343434",
"y.	c #1C1C1C",
"z.	c #0D0D10",
"A.	c #1D1E55",
"B.	c #24266F",
"C.	c #171836",
"D.	c #0D0D0D",
"E.	c #212121",
"F.	c #545454",
"G.	c #414141",
"H.	c #353535",
"I.	c #2C2C2C",
"J.	c #0C0C0C",
"K.	c #131329",
"L.	c #202264",
"M.	c #202164",
"N.	c #171737",
"O.	c #0D0D0F",
"P.	c #3E3E3E",
"Q.	c #515151",
"R.	c #2F2F2F",
"S.	c #181818",
"T.	c #101120",
"U.	c #18193F",
"V.	c #1D1E58",
"W.	c #20226C",
"X.	c #222472",
"Y.	c #1E2062",
"Z.	c #181941",
"`.	c #10101D",
" +	c #525252",
".+	c #323232",
"++	c #272727",
"@+	c #303030",
"#+	c #1E1E1E",
"$+	c #0F0F0F",
"%+	c #2D2D2D",
"&+	c #4C4C4C",
"*+	c #262626",
"=+	c #2E2E2E",
"-+	c #252525",
";+	c #1A1A1A",
">+	c #191919",
",+	c #282828",
"'+	c #222222",
")+	c #202020",
"!+	c #2A2A2A",
"~+	c #161616",
". + @ # $ % & * = - ; ; > , ' ) ) ! ~ { ~ ~ ~ { ~ ~ ~ ! ~ ! ] ^ / ",
"( _ : < [ } | + # % 1 - > ~ 2 3 4 5 6 7 8 8 9 0 a b c c d e f g h ",
"i j j j k l m m m n n n n n m m m l j j j o p q r s t u v w x y z ",
"| j j k l m m n n n A A A n n n m m l j j j o q q s t u B v C D E ",
"F j j l m m n n A G G G G A A n n m m k j j o p q H s u B I J K L ",
"> j k m m n n A G M M M M G G A n m m l j j o p q H s t B N O P Q ",
"R S T U U V W X Y Y Y Y Y Y X W V V U T S S Z `  ...+.@.#.$.%.&.*.",
"=.-.T U V V W X Y Y Y Y Y Y Y X W V U U -.S Z `  ...+.@.;.>.,.'.).",
"w -.U U V V W X Y Y Y Y Y Y Y X W V U U -.S Z `  ...+.@.!.~.{.].^.",
"/.-.U U V V W X Y Y Y Y Y Y Y X W V U T S S Z `  .(.+._.:.).D y <.",
"[.-.T U U V W X Y Y Y Y Y Y Y W V V U T S S }.`  .(.+.|.1.2.*.3.3.",
"4.S T U U V V W X Y Y Y Y Y X W V U U -.S Z }.`  .+.5.6.7.8.9.9.9.",
"0.S -.T U U V V W X X X X X W V V U T S S Z `  ...a.b.c.D d.e.e.e.",
"f.S S -.T U U V V V W W W V V V U U -.S Z }.`  .g.h.J i.3.j.j.j.j.",
"k.Z S S S T U U U V V V V V U U U -.S S Z `  .l.m.n.Q <.o.o.o.o.o.",
"p.q.Z Z S S -.T U U U U U U U T -.S S Z }.` r.s.t.u.^.v.w.w.v.v.x.",
"y.z.A.}.Z Z S S -.T T T T T -.S S S Z }.B.C.D.E.F.G.H.H.H.H.H.H.I.",
"%.E.J.K.L.}.Z Z S S S S S S S S Z Z M.N.O.t.P.Q.v.x.x.x.x.x.x.R.^ ",
"O 3.e.S.J.T.U.V.W.X.X.X.X.X.X.Y.Z.`.J.S.v. +G.7.7.7.7.7.7.7..+g g ",
"y.y.++3.<.@+#+1.$+$+$+$+$+$+$+$+S.%+^.&+e.@+@+@+@+@+@+@+@+@+*+*+*+",
"~.~.~.~.c.o.<.*.%.%.%.%.%.%.%.%.y j..+=+=+=+=+=+=+=+=+=+=+-+O O O ",
";+;+;+;+>+~.,+%+%+%+%+%+%+%+%+%+I.%+%+%+I.%+I.%+I.%+%+%+O c.'+'+c.",
"S.S.S.S.S.S.S.)+g !+!+!+!+!+!+!+!+!+!+!+!+!+!+!+!+!+,+)+)+)+)+)+E.",
"y.~+~+~+~+~+~+~+>+*+,+,+,+,+,+,+,+,+,+,+,+,+,+,+,+E.#+#+#+#+#+#+#+"};
