/* XPM */
static char * hide_pressed_xpm[] = {
"29 24 415 2",
"  	c None",
". 	c #191920",
"+ 	c #B7B8EE",
"@ 	c #B8B9EE",
"# 	c #B6B7ED",
"$ 	c #B8B8ED",
"% 	c #B9BAEA",
"& 	c #BBBCE8",
"* 	c #BCBDE7",
"= 	c #BDBEE5",
"- 	c #BEBFE4",
"; 	c #C0C1E3",
"> 	c #C1C2E3",
", 	c #C3C4E2",
"' 	c #C4C5E0",
") 	c #C5C7DF",
"! 	c #C7C8DF",
"~ 	c #C7C9DF",
"{ 	c #C8C9E0",
"] 	c #C9C9E2",
"^ 	c #C8C9E4",
"/ 	c #C8C9E5",
"( 	c #C7C8E8",
"_ 	c #C6C8EB",
": 	c #C7C8ED",
"< 	c #B4B5DC",
"[ 	c #151515",
"} 	c #A1A2E2",
"| 	c #AAABEA",
"1 	c #ACAEEB",
"2 	c #AEB0E9",
"3 	c #B1B2E7",
"4 	c #B4B5E4",
"5 	c #B8B9E3",
"6 	c #BBBCE0",
"7 	c #BFC0DD",
"8 	c #C2C4DC",
"9 	c #C6C7DA",
"0 	c #C8CAD8",
"a 	c #CCCCD7",
"b 	c #CDCFD5",
"c 	c #D0D2D5",
"d 	c #D2D3D4",
"e 	c #D4D5D5",
"f 	c #D6D7D5",
"g 	c #D7D8D6",
"h 	c #D7D8D7",
"i 	c #D9DADA",
"j 	c #DADBDD",
"k 	c #DBDBE1",
"l 	c #D9DAE6",
"m 	c #DADBEA",
"n 	c #D6D7EE",
"o 	c #B8B8DB",
"p 	c #191919",
"q 	c #6C6DB7",
"r 	c #8B8DE4",
"s 	c #898CE3",
"t 	c #8B8CE0",
"u 	c #8C8EDF",
"v 	c #8E8FDC",
"w 	c #9193D8",
"x 	c #9597D5",
"y 	c #999BD2",
"z 	c #9FA0CF",
"A 	c #A2A3CB",
"B 	c #A6A8C8",
"C 	c #AAACC6",
"D 	c #ADAFC3",
"E 	c #B1B2C2",
"F 	c #B2B3C0",
"G 	c #B4B5BF",
"H 	c #B4B6BE",
"I 	c #B3B5BF",
"J 	c #B0B2C0",
"K 	c #AEB0C1",
"L 	c #ABADC3",
"M 	c #A7A8C6",
"N 	c #A0A1CA",
"O 	c #9799CE",
"P 	c #8F90D5",
"Q 	c #8688DA",
"R 	c #7577BD",
"S 	c #242424",
"T 	c #3D3E68",
"U 	c #8E91E6",
"V 	c #8D8FE3",
"W 	c #8F91E0",
"X 	c #8F92DE",
"Y 	c #9595DB",
"Z 	c #999BD6",
"` 	c #9E9ED2",
" .	c #A2A5CE",
"..	c #A8A9CA",
"+.	c #AEAFC6",
"@.	c #B4B5C3",
"#.	c #9C9DA2",
"$.	c #979997",
"%.	c #C0C2B8",
"&.	c #C4C5B7",
"*.	c #C6C6B6",
"=.	c #C5C7B5",
"-.	c #A3A499",
";.	c #868781",
">.	c #BBBDBB",
",.	c #B4B6C0",
"'.	c #ACADC5",
").	c #A0A3CA",
"!.	c #9497D2",
"~.	c #8A8ED7",
"{.	c #797BBC",
"].	c #3A3A3A",
"^.	c #17171B",
"/.	c #898ADA",
"(.	c #9294E4",
"_.	c #9293E1",
":.	c #9597DE",
"<.	c #999AD9",
"[.	c #9EA1D4",
"}.	c #A5A6CF",
"|.	c #ABACCB",
"1.	c #B1B3C6",
"2.	c #B6B8C2",
"3.	c #BDBEBD",
"4.	c #9B9C94",
"5.	c #45453E",
"6.	c #9C9D88",
"7.	c #D0D3AF",
"8.	c #D3D4AE",
"9.	c #D4D5AD",
"0.	c #B6B796",
"a.	c #47483C",
"b.	c #8F8F7D",
"c.	c #C5C8B6",
"d.	c #BFC0BB",
"e.	c #B4B7C0",
"f.	c #A7AAC7",
"g.	c #9A9CCF",
"h.	c #8D90D6",
"i.	c #797CBB",
"j.	c #4E4E4E",
"k.	c #171717",
"l.	c #4D4E7F",
"m.	c #9496E4",
"n.	c #9697E3",
"o.	c #999BDF",
"p.	c #9D9ED9",
"q.	c #A3A5D4",
"r.	c #A9ACCE",
"s.	c #B0B2CA",
"t.	c #B7B9C4",
"u.	c #BDBFBF",
"v.	c #C5C6BB",
"w.	c #D6D7C6",
"x.	c #91937C",
"y.	c #494A3C",
"z.	c #A4A581",
"A.	c #DDDEA9",
"B.	c #BABB8D",
"C.	c #4C4C3A",
"D.	c #999978",
"E.	c #E0E1C6",
"F.	c #CECFB1",
"G.	c #C5C7B7",
"H.	c #BBBCBC",
"I.	c #AEAEC5",
"J.	c #9D9FCD",
"K.	c #9192D5",
"L.	c #7E80BA",
"M.	c #414141",
"N.	c #282828",
"O.	c #131318",
"P.	c #6C6EC5",
"Q.	c #7879DB",
"R.	c #7B7DD9",
"S.	c #8385D3",
"T.	c #8B8DCE",
"U.	c #9496CA",
"V.	c #9D9EC3",
"W.	c #A6A7BF",
"X.	c #AEB0B9",
"Y.	c #B8BAB5",
"Z.	c #C0C2B0",
"`.	c #D2D4BA",
" +	c #929476",
".+	c #4A4A39",
"++	c #DCDDA4",
"@+	c #848562",
"#+	c #7C7D5D",
"$+	c #DFE0B8",
"%+	c #CFD1A8",
"&+	c #C6C8AC",
"*+	c #BABCB1",
"=+	c #ACADB7",
"-+	c #989BBE",
";+	c #8486C6",
">+	c #7274CD",
",+	c #5759AA",
"'+	c #3F3F3F",
")+	c #3C3C3C",
"!+	c #20212F",
"~+	c #7879D4",
"{+	c #8182DA",
"]+	c #8485D5",
"^+	c #8C8ED0",
"/+	c #9798CA",
"(+	c #9FA1C3",
"_+	c #A9ABBD",
":+	c #B3B5B9",
"<+	c #BBBDB3",
"[+	c #989A88",
"}+	c #8F9178",
"|+	c #DEDFB8",
"1+	c #9B9B73",
"2+	c #E1E3A1",
"3+	c #B4B67F",
"4+	c #E6E7B0",
"5+	c #A3A579",
"6+	c #696952",
"7+	c #CACCAA",
"8+	c #BDC0AF",
"9+	c #AFB1B7",
"0+	c #9B9EBE",
"a+	c #8789C7",
"b+	c #7477CE",
"c+	c #585AAA",
"d+	c #3D3D3D",
"e+	c #353534",
"f+	c #111110",
"g+	c #32324B",
"h+	c #8082DB",
"i+	c #8788D9",
"j+	c #8E90D3",
"k+	c #9697CC",
"l+	c #9FA1C7",
"m+	c #A9ABC1",
"n+	c #B3B4BA",
"o+	c #BDBFB6",
"p+	c #9A9B8A",
"q+	c #47483B",
"r+	c #A6A680",
"s+	c #E5E6B6",
"t+	c #E4E5A1",
"u+	c #E8E9A9",
"v+	c #A4A674",
"w+	c #4C4D37",
"x+	c #969675",
"y+	c #CCCEAA",
"z+	c #BFC1AF",
"A+	c #B1B2B6",
"B+	c #9DA0BE",
"C+	c #898BC6",
"D+	c #7579CD",
"E+	c #595DAA",
"F+	c #3B3B3B",
"G+	c #2E2E2E",
"H+	c #434467",
"I+	c #8688DB",
"J+	c #8B8DD7",
"K+	c #9395D2",
"L+	c #9B9ECA",
"M+	c #A5A7C4",
"N+	c #AFB1BE",
"O+	c #BABBB8",
"P+	c #D1D3C4",
"Q+	c #93937E",
"R+	c #494A3A",
"S+	c #A9AA80",
"T+	c #E1E2A3",
"U+	c #CBCC90",
"V+	c #4D4D38",
"W+	c #999B73",
"X+	c #DDDFBD",
"Y+	c #CACBAC",
"Z+	c #BEC0B0",
"`+	c #B0B2B7",
" @	c #9EA0BF",
".@	c #8A8CC7",
"+@	c #7779CE",
"@@	c #5C5DAB",
"#@	c #393939",
"$@	c #393938",
"%@	c #262625",
"&@	c #151512",
"*@	c #30303E",
"=@	c #8486D1",
"-@	c #8F91D7",
";@	c #9798D1",
">@	c #9FA0CB",
",@	c #A9AAC4",
"'@	c #B2B4BD",
")@	c #BCBEB7",
"!@	c #D5D6C6",
"~@	c #94957F",
"{@	c #5A5B48",
"]@	c #D9DAA8",
"^@	c #4E4F3B",
"/@	c #AEAF86",
"(@	c #DEE0C2",
"_@	c #CCCDAC",
":@	c #C3C5AF",
"<@	c #B8BBB5",
"[@	c #ABADBA",
"}@	c #9A9BC2",
"|@	c #888AC9",
"1@	c #777ACF",
"2@	c #5C5EAC",
"3@	c #343434",
"4@	c #373737",
"5@	c #2F2F2E",
"6@	c #232321",
"7@	c #1F1F1A",
"8@	c #656795",
"9@	c #9092D7",
"0@	c #9798D2",
"a@	c #9EA1CC",
"b@	c #A8AAC6",
"c@	c #B1B3BF",
"d@	c #B9BBBA",
"e@	c #D2D4C9",
"f@	c #B0B1A5",
"g@	c #C9CBB0",
"h@	c #B4B6A5",
"i@	c #D8D9C7",
"j@	c #C3C5B1",
"k@	c #BDBFB4",
"l@	c #B5B7B7",
"m@	c #ACAEBA",
"n@	c #A0A3C0",
"o@	c #9395C6",
"p@	c #8387CC",
"q@	c #7678D1",
"r@	c #272727",
"s@	c #353535",
"t@	c #333332",
"u@	c #272725",
"v@	c #161612",
"w@	c #303036",
"x@	c #7B7DB1",
"y@	c #9596D5",
"z@	c #9B9DCF",
"A@	c #A4A5CA",
"B@	c #ABACC4",
"C@	c #AFB1C0",
"D@	c #B3B5BE",
"E@	c #B4B6BB",
"F@	c #B2B3BC",
"G@	c #AEB0BC",
"H@	c #A9ABBF",
"I@	c #A3A5C1",
"J@	c #9B9EC3",
"K@	c #9295C7",
"L@	c #898BCB",
"M@	c #7D7ED1",
"N@	c #7173D6",
"O@	c #595BAE",
"P@	c #262626",
"Q@	c #2B2B2B",
"R@	c #333333",
"S@	c #2B2B29",
"T@	c #242420",
"U@	c #1A1A14",
"V@	c #333337",
"W@	c #68698B",
"X@	c #888ABC",
"Y@	c #9495C4",
"Z@	c #999AC2",
"`@	c #9A9BC1",
" #	c #9A9BBE",
".#	c #989ABE",
"+#	c #9698BE",
"@#	c #9394BF",
"##	c #8F91C1",
"$#	c #8A8CC1",
"%#	c #8588C3",
"&#	c #7F80C4",
"*#	c #797AC6",
"=#	c #7072C9",
"-#	c #686AC9",
";#	c #5254A3",
">#	c #2F2F2F",
",#	c #303030",
"'#	c #313131",
")#	c #2D2D2D",
"!#	c #222222",
"~#	c #0F0F0F",
"{#	c #0E0E0E",
"]#	c #232323",
"^#	c #3E3E3E",
"/#	c #404040",
"(#	c #434343",
"_#	c #444444",
":#	c #464646",
"<#	c #484848",
"[#	c #494949",
"}#	c #4C4C4C",
"|#	c #4D4D4D",
"1#	c #515151",
"2#	c #525252",
"3#	c #535353",
"4#	c #565656",
"5#	c #575756",
"6#	c #212121",
"7#	c #2C2C2C",
"8#	c #292929",
"9#	c #2A2A2A",
"0#	c #252525",
"a#	c #202020",
"b#	c #1E1E1E",
"c#	c #1C1C1C",
"d#	c #1B1B1B",
"e#	c #1A1A1A",
"f#	c #1F1F1F",
"g#	c #181818",
"h#	c #1D1D1D",
". + @ + # $ % % & * = - ; > , ' ) ) ! ~ ~ { ] ^ / ( _ : < ",
"[ } | | 1 2 3 4 5 6 7 8 9 0 a b c d e f g h i j k l m n o ",
"p q r s t u v w x y z A B C D E F G H I J K L M N O P Q R ",
"S T U V W X Y Z `  ...+.@.#.$.%.&.*.=.*.-.;.>.,.'.).!.~.{.",
"].^./.(._.:.<.[.}.|.1.2.3.4.5.6.7.8.9.0.a.b.c.d.e.f.g.h.i.",
"j.k.l.m.n.o.p.q.r.s.t.u.v.w.x.y.z.A.B.C.D.E.F.G.H.I.J.K.L.",
"M.N.O.P.Q.R.S.T.U.V.W.X.Y.Z.`. +.+++@+#+$+%+&+*+=+-+;+>+,+",
"'+)+[ !+~+{+]+^+/+(+_+:+<+[+}+|+1+2+3+4+5+6+7+8+9+0+a+b+c+",
"d+d+e+f+g+h+i+j+k+l+m+n+o+p+q+r+s+t+u+v+w+x+y+z+A+B+C+D+E+",
"F+)+)+G+f+H+I+J+K+L+M+N+O+P+Q+R+S+T+U+V+W+X+Y+Z+`+ @.@+@@@",
"#@#@#@$@%@&@*@=@-@;@>@,@'@)@!@~@{@]@^@/@(@_@:@<@[@}@|@1@2@",
"3@4@4@4@4@5@6@7@8@9@0@a@b@c@d@e@f@g@h@i@j@k@l@m@n@o@p@q@2@",
"r@G+s@3@3@3@t@u@v@w@x@y@z@A@B@C@D@E@E@F@G@H@I@J@K@L@M@N@O@",
"P@P@Q@R@R@R@t@t@S@T@U@V@W@X@Y@Z@`@ #.#+#@###$#%#&#*#=#-#;#",
"S S S r@>#,#,#'#'#)#!#k.~#{#{#{#{#{#{#{#{#{#{#{#{#{#{#{#{#",
"!#!#]#!#]#]#!#r@Q@G+G+R@d+^#/#(#(#_#:#<#[#}#|#j.1#2#3#4#5#",
"6#6#6#6#6#6#6#6#6#6#6#]#P@7#7#7#7#7#Q@Q@7#7#7#7#7#7#7#7#7#",
"8#Q@Q@9#9#8#8#8#N.N.0#]#6#6#a#a#a#a#a#a#a#a#a#6#6#!#]#]#]#",
"8#8#8#8#8#8#8#8#8#8#8#8#8#8#r@6#b#b#b#b#b#b#b#b#b#b#b#b#b#",
"P@P@P@P@P@P@P@P@P@P@0#P@P@P@P@P@]#c#c#c#c#c#c#c#c#c#c#c#c#",
"S S S S S S S S S S ]#a#]#S S S S c#d#d#d#d#d#d#d#d#d#d#d#",
"]#]#]#]#]#]#]#]#]#]#]#6#c#d#c#c#e#e#e#e#e#p e#p e#e#e#e#p ",
"a#a#a#a#a#a#a#a#a#a#6#a#a#f#c#p g#g#g#g#g#g#g#g#e#d#c#h#b#",
"b#b#b#b#b#b#b#b#b#b#b#b#b#b#b#b#b#b#h#h#h#h#b#b#b#b#b#b#b#"};
