/* XPM */
static char * hide_normal_xpm[] = {
"29 24 251 2",
"  	c None",
". 	c #191920",
"+ 	c #B7B8EE",
"@ 	c #B8B9EE",
"# 	c #B6B7EE",
"$ 	c #B7B7EE",
"% 	c #B7B9EF",
"& 	c #B8B9EF",
"* 	c #B9BAEF",
"= 	c #BABAEF",
"- 	c #BBBCEF",
"; 	c #BDBDEF",
"> 	c #BDBEEF",
", 	c #BEBFEF",
"' 	c #BFBFEF",
") 	c #C0C0F0",
"! 	c #C0C1F0",
"~ 	c #C2C3F0",
"{ 	c #C3C3F1",
"] 	c #C3C5F1",
"^ 	c #C5C6F1",
"/ 	c #B3B4DE",
"( 	c #151515",
"_ 	c #A1A2E2",
": 	c #AAABEB",
"< 	c #ABADEC",
"[ 	c #ACAEEC",
"} 	c #ADAEEC",
"| 	c #AEAFEC",
"1 	c #B0B1EC",
"2 	c #B1B2EC",
"3 	c #B3B4ED",
"4 	c #B5B6EE",
"5 	c #B7B9EE",
"6 	c #BABBEF",
"7 	c #BCBDEF",
"8 	c #BEC0F0",
"9 	c #C6C6F1",
"0 	c #C8C8F2",
"a 	c #CACAF2",
"b 	c #CDCDF3",
"c 	c #CFD0F4",
"d 	c #D2D3F4",
"e 	c #D3D4F5",
"f 	c #D6D7F5",
"g 	c #D4D5F4",
"h 	c #B6B7DE",
"i 	c #191919",
"j 	c #6C6DB7",
"k 	c #8B8DE4",
"l 	c #888BE4",
"m 	c #8889E3",
"n 	c #8688E3",
"o 	c #8485E2",
"p 	c #8285E2",
"q 	c #8183E2",
"r 	c #8082E2",
"s 	c #7E7FE1",
"t 	c #7C7FE1",
"u 	c #7B7DE1",
"v 	c #797BE0",
"w 	c #7779E0",
"x 	c #7072BF",
"y 	c #242424",
"z 	c #3D3E68",
"A 	c #8E91E6",
"B 	c #8C8EE5",
"C 	c #6B6DBF",
"D 	c #6466B5",
"E 	c #6768BC",
"F 	c #56579D",
"G 	c #7D80E0",
"H 	c #7274BE",
"I 	c #3A3A3A",
"J 	c #17171B",
"K 	c #898ADB",
"L 	c #9092E6",
"M 	c #8E8FE5",
"N 	c #8A8BE4",
"O 	c #8587E3",
"P 	c #6668B3",
"Q 	c #2C2C4D",
"R 	c #6163AC",
"S 	c #7F81E2",
"T 	c #6B6EC3",
"U 	c #2A2B4D",
"V 	c #57599D",
"W 	c #4E4E4E",
"X 	c #171717",
"Y 	c #4C4D7F",
"Z 	c #9294E6",
"` 	c #9293E6",
" .	c #A0A1E8",
"..	c #5B5D9E",
"+.	c #2C2D4D",
"@.	c #6163AB",
"#.	c #6B6DBD",
"$.	c #2B2C4D",
"%.	c #595A9E",
"&.	c #A4A5E9",
"*.	c #7F80E0",
"=.	c #7577BD",
"-.	c #414141",
";.	c #282828",
">.	c #131318",
",.	c #6A6CC6",
"'.	c #7274DF",
").	c #7072DF",
"!.	c #6F71DE",
"~.	c #6D6FDE",
"{.	c #6B6EDE",
"].	c #686ADD",
"^.	c #6769DC",
"/.	c #6366DC",
"(.	c #6062DB",
"_.	c #7C7EE1",
":.	c #414499",
"<.	c #20204B",
"[.	c #5B5EDA",
"}.	c #353782",
"|.	c #32347B",
"1.	c #585AD9",
"2.	c #595BD8",
"3.	c #4B4DAC",
"4.	c #3F3F3F",
"5.	c #3C3C3C",
"6.	c #1E1F2E",
"7.	c #7475D7",
"8.	c #6A6CDD",
"9.	c #4E50AB",
"0.	c #45479A",
"a.	c #434499",
"b.	c #4A4DAE",
"c.	c #7679E0",
"d.	c #4346A2",
"e.	c #2C2E6B",
"f.	c #595CDA",
"g.	c #5A5DD9",
"h.	c #3D3D3D",
"i.	c #353535",
"j.	c #101010",
"k.	c #2D2D49",
"l.	c #797BE1",
"m.	c #7476DF",
"n.	c #595AAA",
"o.	c #23244C",
"p.	c #4F50A9",
"q.	c #8284E3",
"r.	c #7173DE",
"s.	c #45479E",
"t.	c #21214B",
"u.	c #5D5FDA",
"v.	c #5C5FD9",
"w.	c #4D50AD",
"x.	c #3B3B3B",
"y.	c #2E2E2E",
"z.	c #0E0E0E",
"A.	c #3C3D65",
"B.	c #7A7CE1",
"C.	c #9092E5",
"D.	c #53559D",
"E.	c #24254C",
"F.	c #5051AA",
"G.	c #5A5CC5",
"H.	c #22234B",
"I.	c #5E61DB",
"J.	c #5E60D9",
"K.	c #4F51AD",
"L.	c #393939",
"M.	c #252525",
"N.	c #26263A",
"O.	c #797BD7",
"P.	c #7D7FE2",
"Q.	c #7577E0",
"R.	c #9698E7",
"S.	c #57589E",
"T.	c #2E2F5E",
"U.	c #26264F",
"V.	c #5354B1",
"W.	c #6264DB",
"X.	c #6163DA",
"Y.	c #5052AE",
"Z.	c #343434",
"`.	c #373737",
" +	c #2D2D2D",
".+	c #1E1E1E",
"++	c #131315",
"@+	c #575995",
"#+	c #9A9BE8",
"$+	c #8384BD",
"%+	c #7D7EC1",
"&+	c #9799E7",
"*+	c #6567DC",
"=+	c #6365DA",
"-+	c #5254AE",
";+	c #272727",
">+	c #313131",
",+	c #222222",
"'+	c #0C0C0C",
")+	c #20202F",
"!+	c #6A6CB5",
"~+	c #5254AF",
"{+	c #262626",
"]+	c #2B2B2B",
"^+	c #333333",
"/+	c #323232",
"(+	c #1C1C1C",
"_+	c #1F1F2E",
":+	c #51528A",
"<+	c #6F71C5",
"[+	c #7577D3",
"}+	c #7476D2",
"|+	c #7173D2",
"1+	c #6F71D1",
"2+	c #6D6ED0",
"3+	c #6B6DD0",
"4+	c #696BD0",
"5+	c #686AD0",
"6+	c #6668D0",
"7+	c #6365CF",
"8+	c #6163CF",
"9+	c #6062CD",
"0+	c #4E50A4",
"a+	c #2F2F2F",
"b+	c #303030",
"c+	c #0F0F0F",
"d+	c #232323",
"e+	c #3E3E3E",
"f+	c #404040",
"g+	c #434343",
"h+	c #444444",
"i+	c #464646",
"j+	c #484848",
"k+	c #494949",
"l+	c #4C4C4C",
"m+	c #4D4D4D",
"n+	c #515151",
"o+	c #525252",
"p+	c #535353",
"q+	c #565656",
"r+	c #575756",
"s+	c #212121",
"t+	c #2C2C2C",
"u+	c #292929",
"v+	c #2A2A2A",
"w+	c #202020",
"x+	c #1B1B1B",
"y+	c #1A1A1A",
"z+	c #1F1F1F",
"A+	c #181818",
"B+	c #1D1D1D",
". + @ + # $ + # + + + + % & * = - - ; > , ' ) ! ~ { ] ^ / ",
"( _ : : < [ } | 1 2 3 4 + 5 6 7 8 ! { 9 0 a b c d e f g h ",
"i j k l m n o p q r r s t t u u v v v v w w v v v v u u x ",
"y z A B k l m n o p q r r C D t t u u u E F u u u u u G H ",
"I J K L M B N l m n O p q P Q R S s t T U V t t t t t G H ",
"W X Y Z ` L M B k l l n n  ...+.@.r #.$.%.&.s s s s s *.=.",
"-.;.>.,.'.).!.~.{.].^././.(._.:.<.[.}.|._.1.1.1.1.1.1.2.3.",
"4.5.( 6.7.w '.).).~.{.8.^.9.0.q a.(.b.c.d.e.f.f.f.f.f.g.3.",
"h.h.i.j.k.v l.w m.'.).~.~.n.o.p.q./.r.s.t.:.u.[.[.[.[.v.w.",
"x.5.5.y.z.A._.B.l.w m.'.).C.D.E.F.^.G.H.0.n (.(.(.I.I.J.K.",
"L.L.L.L.M.j.N.O.P._.l.w Q.'.R.S.T.{.U.V.Z /././.W.(.(.X.Y.",
"Z.`.`.`.`. +.+++@+S P._.B.w Q.#+$+!.%+&+8.].^.*+/././.=+-+",
";+y.i.Z.Z.Z.>+,+'+)+!+S P._.B.w Q.'.).!.~.{.8.].^.^.*+/.~+",
"{+{+]+^+^+^+^+/+;+(+'+_+:+<+[+}+|+1+2+3+4+5+6+6+7+7+8+9+0+",
"y y y ;+a+b+b+>+>+ +,+X c+z.z.z.z.z.z.z.z.z.z.z.z.z.z.z.z.",
",+,+d+,+d+d+,+;+]+y.y.^+h.e+f+g+g+h+i+j+k+l+m+W n+o+p+q+r+",
"s+s+s+s+s+s+s+s+s+s+s+d+{+t+t+t+t+t+]+]+t+t+t+t+t+t+t+t+t+",
"u+]+]+v+v+u+u+u+;.;.M.d+s+s+w+w+w+w+w+w+w+w+w+s+s+,+d+d+d+",
"u+u+u+u+u+u+u+u+u+u+u+u+u+u+;+s+.+.+.+.+.+.+.+.+.+.+.+.+.+",
"{+{+{+{+{+{+{+{+{+{+M.{+{+{+{+{+d+(+(+(+(+(+(+(+(+(+(+(+(+",
"y y y y y y y y y y d+w+d+y y y y (+x+x+x+x+x+x+x+x+x+x+x+",
"d+d+d+d+d+d+d+d+d+d+d+s+(+x+(+(+y+y+y+y+y+i y+i y+y+y+y+i ",
"w+w+w+w+w+w+w+w+w+w+s+w+w+z+(+i A+A+A+A+A+A+A+A+y+x+(+B+.+",
".+.+.+.+.+.+.+.+.+.+.+.+.+.+.+.+.+.+B+B+B+B+.+.+.+.+.+.+.+"};
