/* XPM */
static char * hide_inactive_xpm[] = {
"29 24 187 2",
"  	c None",
". 	c #0E0E12",
"+ 	c #696A89",
"@ 	c #6A6A89",
"# 	c #686989",
"$ 	c #696989",
"% 	c #6A6B89",
"& 	c #6B6B89",
"* 	c #6B6C89",
"= 	c #6C6C89",
"- 	c #6C6D89",
"; 	c #6D6E89",
"> 	c #6E6E89",
", 	c #6E6E8A",
"' 	c #6E6F8A",
") 	c #6F708A",
"! 	c #70708A",
"~ 	c #70718A",
"{ 	c #71728A",
"] 	c #67677F",
"^ 	c #0C0C0C",
"/ 	c #5C5D82",
"( 	c #626287",
"_ 	c #626388",
": 	c #636488",
"< 	c #646488",
"[ 	c #656688",
"} 	c #666688",
"| 	c #676788",
"1 	c #686889",
"2 	c #6D6E8A",
"3 	c #72728A",
"4 	c #73738B",
"5 	c #74748B",
"6 	c #76768C",
"7 	c #77778C",
"8 	c #79798C",
"9 	c #797A8D",
"0 	c #7B7B8D",
"a 	c #7A7A8D",
"b 	c #686980",
"c 	c #0F0F0F",
"d 	c #3E3E69",
"e 	c #505183",
"f 	c #4E5083",
"g 	c #4E4E82",
"h 	c #4D4E82",
"i 	c #4C4C82",
"j 	c #4A4C82",
"k 	c #4A4B82",
"l 	c #494A82",
"m 	c #484981",
"n 	c #474981",
"o 	c #464881",
"p 	c #454681",
"q 	c #444581",
"r 	c #3F406E",
"s 	c #1B1B1B",
"t 	c #23233B",
"u 	c #515384",
"v 	c #505184",
"w 	c #3F416E",
"x 	c #363636",
"y 	c #0D0D0F",
"z 	c #4E4F7E",
"A 	c #535484",
"B 	c #515284",
"C 	c #4F5083",
"D 	c #4C4D82",
"E 	c #4E4E4E",
"F 	c #0E0E0E",
"G 	c #2B2C49",
"H 	c #545584",
"I 	c #545484",
"J 	c #41426E",
"K 	c #414141",
"L 	c #232323",
"M 	c #0A0A0D",
"N 	c #3D3E72",
"O 	c #414280",
"P 	c #404180",
"Q 	c #3F417F",
"R 	c #3E3F7F",
"S 	c #3D3F7F",
"T 	c #3B3D7F",
"U 	c #3B3C7E",
"V 	c #393A7E",
"W 	c #37387E",
"X 	c #36377E",
"Y 	c #35367D",
"Z 	c #34367D",
"` 	c #33357D",
" .	c #32337D",
"..	c #282963",
"+.	c #3F3F3F",
"@.	c #3C3C3C",
"#.	c #11111A",
"$.	c #42437B",
"%.	c #3D3E7F",
"&.	c #3A3B7E",
"*.	c #38397E",
"=.	c #3D3D3D",
"-.	c #343434",
";.	c #090909",
">.	c #19192A",
",.	c #424480",
"'.	c #292B64",
").	c #3B3B3B",
"!.	c #2C2C2C",
"~.	c #080808",
"{.	c #22233A",
"].	c #474881",
"^.	c #464781",
"/.	c #2A2B64",
"(.	c #393939",
"_.	c #222222",
":.	c #151521",
"<.	c #45467B",
"[.	c #484982",
"}.	c #434481",
"|.	c #2B2C64",
"1.	c #373737",
"2.	c #121212",
"3.	c #0A0A0C",
"4.	c #323355",
"5.	c #2C2E64",
"6.	c #272727",
"7.	c #2E2E2E",
"8.	c #353535",
"9.	c #313131",
"0.	c #1C1C1C",
"a.	c #060606",
"b.	c #12121B",
"c.	c #3D3E68",
"d.	c #2D2E65",
"e.	c #262626",
"f.	c #2B2B2B",
"g.	c #333333",
"h.	c #323232",
"i.	c #141414",
"j.	c #2E2F4F",
"k.	c #3F4171",
"l.	c #434479",
"m.	c #424479",
"n.	c #414279",
"o.	c #3F4178",
"p.	c #3E3F77",
"q.	c #3D3E77",
"r.	c #3C3D77",
"s.	c #3B3D77",
"t.	c #3A3B77",
"u.	c #393A77",
"v.	c #373977",
"w.	c #373876",
"x.	c #2B2C5E",
"y.	c #242424",
"z.	c #2F2F2F",
"A.	c #303030",
"B.	c #2D2D2D",
"C.	c #212121",
"D.	c #131313",
"E.	c #0A0A0A",
"F.	c #3E3E3E",
"G.	c #404040",
"H.	c #434343",
"I.	c #444444",
"J.	c #464646",
"K.	c #484848",
"L.	c #494949",
"M.	c #4C4C4C",
"N.	c #4D4D4D",
"O.	c #515151",
"P.	c #525252",
"Q.	c #535353",
"R.	c #565656",
"S.	c #575757",
"T.	c #292929",
"U.	c #2A2A2A",
"V.	c #282828",
"W.	c #252525",
"X.	c #202020",
"Y.	c #1E1E1E",
"Z.	c #1A1A1A",
"`.	c #191919",
" +	c #1F1F1F",
".+	c #181818",
"++	c #1D1D1D",
". + @ + # $ + # + + + + + @ % & * * = - ; > , ' ) ! ~ { ] ",
"^ / ( ( _ : : < [ } | 1 + + & = 2 ' ! 3 4 5 6 7 8 9 0 a b ",
"c d e f g h i j k l l m n n o o p p p p q q p p p p o o r ",
"s t u v e f g h i j k l l l n n n o o o o o o o o o o n w ",
"x y z A B v C f g h D j k k l l l m n n n n n n n n n n w ",
"E F G H I A B v e f f h h i j k k l l l l m m m m m m m J ",
"K L M N O P Q R S T U V V W W X Y Z ` `  . . . . . . . ...",
"+.@.F #.$.q O P P R S %.U &.V *.W W X Z Z Z ` ` ` ` ` ` ..",
"=.=.-.;.>.p p q ,.O P R R %.T U V V *.W W X Y Z Z Z Z Z '.",
").@.@.!.~.{.].^.p q ,.O P Q R %.T U &.V V W W W W X X Y /.",
"(.(.(.(._.;.:.<.[.].p q }.O P Q R S %.U &.V V V *.W W W |.",
"-.1.1.1.1.!.2.3.4.l [.].^.q }.O P Q R S %.T U &.V V V *.5.",
"6.7.8.-.-.-.9.0.a.b.c.l [.].^.q }.O P Q R S %.T U U &.V d.",
"e.e.f.g.g.g.g.h.e.i.a.#.j.k.l.m.n.o.p.q.r.s.t.t.u.u.v.w.x.",
"y.y.y.6.z.A.A.9.9.B.C.D.E.~.~.~.~.~.~.~.~.~.~.~.~.~.~.~.~.",
"_._.L _.L L _.6.f.7.7.g.=.F.G.H.H.I.J.K.L.M.N.E O.P.Q.R.S.",
"C.C.C.C.C.C.C.C.C.C.C.L e.!.!.!.!.!.f.f.!.!.!.!.!.!.!.!.!.",
"T.f.f.U.U.T.T.T.V.V.W.L C.C.X.X.X.X.X.X.X.X.X.C.C._.L L L ",
"T.T.T.T.T.T.T.T.T.T.T.T.T.T.6.C.Y.Y.Y.Y.Y.Y.Y.Y.Y.Y.Y.Y.Y.",
"e.e.e.e.e.e.e.e.e.e.W.e.e.e.e.e.L 0.0.0.0.0.0.0.0.0.0.0.0.",
"y.y.y.y.y.y.y.y.y.y.L X.L y.y.y.y.0.s s s s s s s s s s s ",
"L L L L L L L L L L L C.0.s 0.0.Z.Z.Z.Z.Z.`.Z.`.Z.Z.Z.Z.`.",
"X.X.X.X.X.X.X.X.X.X.C.X.X. +0.`..+.+.+.+.+.+.+.+Z.s 0.++Y.",
"Y.Y.Y.Y.Y.Y.Y.Y.Y.Y.Y.Y.Y.Y.Y.Y.Y.Y.++++++++Y.Y.Y.Y.Y.Y.Y."};
