/* XPM */
static char * maximize_normal_xpm[] = {
"27 24 210 2",
"  	c None",
". 	c #F2F2FB",
"+ 	c #C9CAF2",
"@ 	c #CACBF2",
"# 	c #CBCCF2",
"$ 	c #CCCDF2",
"% 	c #CDCEF3",
"& 	c #CECFF3",
"* 	c #D0D0F3",
"= 	c #D0D1F4",
"- 	c #D2D2F4",
"; 	c #D2D3F4",
"> 	c #D3D3F4",
", 	c #D3D4F5",
"' 	c #D4D5F5",
") 	c #D5D6F5",
"! 	c #D1D2F4",
"~ 	c #D0D2F4",
"{ 	c #CFD0F3",
"] 	c #CDCDF3",
"^ 	c #CACCF2",
"/ 	c #CACAF2",
"( 	c #C8C9F2",
"_ 	c #B7B7DF",
": 	c #F5F5FB",
"< 	c #E1E2F7",
"[ 	c #E3E3F8",
"} 	c #E6E6F8",
"| 	c #E8E9F9",
"1 	c #EBEBFA",
"2 	c #ECEDFA",
"3 	c #EFEFFB",
"4 	c #F1F2FB",
"5 	c #F4F4FB",
"6 	c #F5F6FC",
"7 	c #F8F8FD",
"8 	c #FAFAFD",
"9 	c #FCFCFE",
"0 	c #FFFFFF",
"a 	c #FBFBFE",
"b 	c #F9F9FD",
"c 	c #F7F7FC",
"d 	c #ECECFA",
"e 	c #E9E9F9",
"f 	c #E6E7F8",
"g 	c #DCDDF6",
"h 	c #B8B9DF",
"i 	c #D2D3F2",
"j 	c #7C7FE1",
"k 	c #7E7FE1",
"l 	c #7F81E2",
"m 	c #7B7DE1",
"n 	c #797BE0",
"o 	c #7779E0",
"p 	c #7678DF",
"q 	c #7376DF",
"r 	c #7275DF",
"s 	c #686ABD",
"t 	c #CCCDF0",
"u 	c #58599D",
"v 	c #2B2B4D",
"w 	c #57599D",
"x 	c #7376DE",
"y 	c #696ABD",
"z 	c #C5C6EE",
"A 	c #7F80E0",
"B 	c #9FA1E9",
"C 	c #2A2B4D",
"D 	c #7577DF",
"E 	c #7275DE",
"F 	c #7274DE",
"G 	c #6869BC",
"H 	c #BFC0ED",
"I 	c #8081E1",
"J 	c #8082E2",
"K 	c #6667B7",
"L 	c #2C2D50",
"M 	c #9FA2E9",
"N 	c #8F92E5",
"O 	c #9D9FE8",
"P 	c #6465B7",
"Q 	c #7173DE",
"R 	c #7072DD",
"S 	c #6769BB",
"T 	c #A4A5E6",
"U 	c #595BD8",
"V 	c #585AD9",
"W 	c #5659D9",
"X 	c #6B6DDD",
"Y 	c #7779DF",
"Z 	c #5356D8",
"` 	c #1F2052",
" .	c #787AE0",
"..	c #6265DB",
"+.	c #4E51D7",
"@.	c #4C4FD7",
"#.	c #4B4DD6",
"$.	c #494CD6",
"%.	c #4649D5",
"&.	c #4447D4",
"*.	c #4346D3",
"=.	c #383AA8",
"-.	c #9A9BE4",
";.	c #5557D8",
">.	c #1C1D4A",
",.	c #5154D8",
"'.	c #474AD6",
").	c #4447D5",
"!.	c #393BA8",
"~.	c #9294E3",
"{.	c #5A5DD9",
"].	c #595CDA",
"^.	c #4144D4",
"/.	c #4144D3",
"(.	c #3A3BA8",
"_.	c #8B8DE1",
":.	c #5C5FD9",
"<.	c #5B5EDA",
"[.	c #4447AD",
"}.	c #1D1E4A",
"|.	c #8688E3",
"1.	c #1B1C4A",
"2.	c #4042B1",
"3.	c #4244D2",
"4.	c #8586DF",
"5.	c #5F62DA",
"6.	c #5D5FDA",
"7.	c #7375DF",
"8.	c #3C3E98",
"9.	c #383A97",
"0.	c #686ADC",
"a.	c #4346D2",
"b.	c #7B7DDD",
"c.	c #6163DA",
"d.	c #6062DB",
"e.	c #5E61DB",
"f.	c #7678E0",
"g.	c #3B3D97",
"h.	c #3A3C97",
"i.	c #7174DF",
"j.	c #7477DD",
"k.	c #6264DB",
"l.	c #8284E2",
"m.	c #383AA7",
"n.	c #6568CE",
"o.	c #5D60CD",
"p.	c #5D60CE",
"q.	c #5C5ECD",
"r.	c #5A5CCD",
"s.	c #585BCD",
"t.	c #5759CC",
"u.	c #5558CC",
"v.	c #5356CC",
"w.	c #5254CB",
"x.	c #5052CA",
"y.	c #4E51CA",
"z.	c #4C4FCA",
"A.	c #494CC9",
"B.	c #474AC9",
"C.	c #4648C8",
"D.	c #4447C8",
"E.	c #4345C8",
"F.	c #4244C7",
"G.	c #4244C6",
"H.	c #4144C6",
"I.	c #35389F",
"J.	c #0E0E0E",
"K.	c #1C1C1C",
"L.	c #595959",
"M.	c #5B5B5B",
"N.	c #5E5E5E",
"O.	c #5F5F5F",
"P.	c #606060",
"Q.	c #636363",
"R.	c #646464",
"S.	c #676767",
"T.	c #696969",
"U.	c #6B6B6B",
"V.	c #6C6C6C",
"W.	c #6D6D6D",
"X.	c #6F6F6F",
"Y.	c #717171",
"Z.	c #737373",
"`.	c #757575",
" +	c #767676",
".+	c #797979",
"++	c #7A7A7A",
"@+	c #7B7B7B",
"#+	c #7E7E7E",
"$+	c #7F7F7F",
"%+	c #7E7E7D",
"&+	c #2B2B2A",
"*+	c #2C2C2C",
"=+	c #2E2E2E",
"-+	c #4C4C4B",
";+	c #232323",
">+	c #222222",
",+	c #212121",
"'+	c #242424",
")+	c #272727",
"!+	c #292929",
"~+	c #2D2D2D",
"{+	c #1E1E1E",
"]+	c #1F1F1F",
"^+	c #252525",
"/+	c #1D1D1D",
"(+	c #1B1B1B",
"_+	c #191919",
":+	c #1A1A1A",
"<+	c #202020",
". + @ # $ % & * = - ; > , ' ) ' > ! ~ = { ] $ ^ / ( _ ",
": < [ } | 1 2 3 4 5 6 7 8 9 0 a b c 5 4 3 d e f [ g h ",
"i j j j k k l l l l l l l k k j j j m n n o p p q r s ",
"t j j k k l l l l l l l u v w j j m n n o p p q r x y ",
"z A k l l l l l l l l u v B C w m m n o p p D r E F G ",
"H I l J J J J J l l K L M N O C P n o o p p q r Q R S ",
"T U V V V V V V V W X Y Z ` Z  ...+.@.#.#.$.%.%.&.*.=.",
"-.U V V V V V V V W W ;.Z >.Z ,.+.+.@.#.#.'.%.).&.*.!.",
"~.{.].].].V V V V V W ;.Z >.Z ,.+.@.@.#.$.'.%.).^./.(.",
"_.:.<.<.].].].V V V [.}.Z |.Z 1.2.@.@.#.$.'.%.).^.3.(.",
"4.5.6.<.<.<.].].V V 7.8.}.Z >.9.0.@.@.#.$.'.%.).^.a.(.",
"b.c.d.e.6.<.<.].].V V f.g.>.h.i.+.+.@.#.#.'.%.%.).*.!.",
"j.k.d.d.d.e.6.<.].].V V q l.D ,.,.+.@.#.#.$.%.%.&.*.m.",
"n.o.p.q.r.r.s.t.u.v.v.w.w.x.y.y.z.A.B.B.C.D.E.F.G.H.I.",
"J.J.J.J.J.J.J.J.J.J.J.J.J.J.J.J.J.J.J.J.J.J.J.J.J.J.K.",
"L.L.M.N.O.P.Q.R.R.S.T.U.V.W.X.Y.Z.Z.`. +.+++@+#+$+%+&+",
"*+*+*+*+*+*+*+*+*+*+*+*+*+*+*+*+*+*+*+*+*+*+*+*+*+=+-+",
";+;+;+;+;+;+;+;+;+;+;+;+;+;+;+;+;+>+,+,+,+,+,+'+)+!+~+",
"{+{+{+{+{+{+{+{+{+{+{+{+{+{+{+{+{+{+{+{+{+{+{+{+{+{+]+",
"K.K.K.K.K.K.K.K.K.K.K.K.K.{+,+;+'+'+'+^+'+'+,+/+K.K.K.",
"(+(+(+(+(+(+(+(+/+]+,+;+;+'+'+'+'+'+'+'+'+'+'+'+>+K.(+",
"_+:+:+K.]+,+>+;+>+;+;+;+;+>+>+;+;+;+;+;+;+;+>+;+;+>+K.",
"]+]+<+<+<+<+<+<+,+<+<+<+<+<+<+<+<+<+<+<+<+<+<+<+<+<+]+",
"{+{+{+{+{+{+{+{+{+{+{+{+{+{+{+{+{+{+{+{+{+{+{+{+{+{+{+"};
