/* XPM */
static char * maximize_inactive_xpm[] = {
"27 24 145 2",
"  	c None",
". 	c #8B8B90",
"+ 	c #73748B",
"@ 	c #74758B",
"# 	c #75758B",
"$ 	c #75768B",
"% 	c #76768C",
"& 	c #76778C",
"* 	c #77778C",
"= 	c #77788C",
"- 	c #79798C",
"; 	c #797A8D",
"> 	c #7A7A8D",
", 	c #7A7B8D",
"' 	c #78798C",
") 	c #77798C",
"! 	c #74748B",
"~ 	c #73738B",
"{ 	c #696980",
"] 	c #8D8D91",
"^ 	c #81828E",
"/ 	c #82828E",
"( 	c #84848E",
"_ 	c #85868F",
": 	c #878790",
"< 	c #888890",
"[ 	c #898990",
"} 	c #8A8B90",
"| 	c #8C8C90",
"1 	c #8E8E91",
"2 	c #909091",
"3 	c #919192",
"4 	c #939393",
"5 	c #909092",
"6 	c #8F8F91",
"7 	c #86868F",
"8 	c #84858E",
"9 	c #7E7F8E",
"0 	c #6A6A81",
"a 	c #474981",
"b 	c #484981",
"c 	c #494A82",
"d 	c #464881",
"e 	c #454681",
"f 	c #444581",
"g 	c #444580",
"h 	c #424480",
"i 	c #414380",
"j 	c #3A3B6D",
"k 	c #70718A",
"l 	c #434480",
"m 	c #414280",
"n 	c #3A3A6C",
"o 	c #6D6E89",
"p 	c #3F417F",
"q 	c #393A6C",
"r 	c #5D5D86",
"s 	c #32337D",
"t 	c #31337D",
"u 	c #31327C",
"v 	c #2F317C",
"w 	c #2E307C",
"x 	c #2C2E7B",
"y 	c #2B2D7B",
"z 	c #2B2C7B",
"A 	c #2A2B7B",
"B 	c #282A7A",
"C 	c #27287A",
"D 	c #25277A",
"E 	c #1C1D61",
"F 	c #575885",
"G 	c #282A7B",
"H 	c #525384",
"I 	c #33357D",
"J 	c #24267A",
"K 	c #4E4F83",
"L 	c #34367D",
"M 	c #4A4B82",
"N 	c #36377E",
"O 	c #35367D",
"P 	c #37387E",
"Q 	c #38397E",
"R 	c #393B77",
"S 	c #353776",
"T 	c #353676",
"U 	c #333576",
"V 	c #323476",
"W 	c #323375",
"X 	c #313275",
"Y 	c #2F3175",
"Z 	c #2F3075",
"` 	c #2E2F74",
" .	c #2C2E74",
"..	c #2B2D74",
"+.	c #2A2B73",
"@.	c #282A73",
"#.	c #282973",
"$.	c #272873",
"%.	c #262773",
"&.	c #262772",
"*.	c #242672",
"=.	c #1C1D5C",
"-.	c #080808",
";.	c #0E0E0F",
">.	c #595959",
",.	c #5B5B5B",
"'.	c #5E5E5E",
").	c #5F5F5F",
"!.	c #606060",
"~.	c #636363",
"{.	c #646464",
"].	c #676767",
"^.	c #696969",
"/.	c #6B6B6B",
"(.	c #6C6C6C",
"_.	c #6D6D6D",
":.	c #6F6F6F",
"<.	c #717171",
"[.	c #737373",
"}.	c #757575",
"|.	c #767676",
"1.	c #797979",
"2.	c #7A7A7A",
"3.	c #7B7B7B",
"4.	c #7E7E7E",
"5.	c #7F7F7F",
"6.	c #202020",
"7.	c #2C2C2C",
"8.	c #2E2E2E",
"9.	c #4C4C4C",
"0.	c #232323",
"a.	c #222222",
"b.	c #212121",
"c.	c #242424",
"d.	c #272727",
"e.	c #292929",
"f.	c #2D2D2D",
"g.	c #1E1E1E",
"h.	c #1F1F1F",
"i.	c #1C1C1C",
"j.	c #252525",
"k.	c #1D1D1D",
"l.	c #1B1B1B",
"m.	c #191919",
"n.	c #1A1A1A",
". + @ # $ % & * = - - - ; > , > - ' ) = * % $ @ ! ~ { ",
"] ^ / ( _ : < [ } | ] 1 2 3 4 5 6 1 | } [ < 7 8 / 9 0 ",
"- a a a b b c c c c c c c b b a a a d e e f g g h i j ",
"# a a b b c c c c c c c b b a a a d e e f g g h i i j ",
"k b b c c c c c c c c b b a a a d d e f g g l i i m n ",
"o c c c c c c c c c b b a a a d d e f f g g h i m p q ",
"r s s s s s s s s t u u v v v w x x y z z A B B C D E ",
"F s s s s s s s s t t u v v v w x x y z z G B C C D E ",
"H I I I I s s s s s t u v v v w x y y z A G B C D J E ",
"K L L L I I I s s s t u v v v w x y y z A G B C D J E ",
"M N O L L L I I s s s t u v v w x y y z A G B C D D E ",
"e P P N O L L I I s s t u v v w x x y z z G B B C D E ",
"i Q P P P N O L I I s s t v v w w x y z z A B B C D E ",
"R S S T U U V W X Y Y Z Z `  . ...+.@.@.#.$.%.&.&.*.=.",
"-.-.-.-.-.-.-.-.-.-.-.-.-.-.-.-.-.-.-.-.-.-.-.-.-.-.;.",
">.>.,.'.).!.~.{.{.].^./.(._.:.<.[.[.}.|.1.2.3.4.5.4.6.",
"7.7.7.7.7.7.7.7.7.7.7.7.7.7.7.7.7.7.7.7.7.7.7.7.7.8.9.",
"0.0.0.0.0.0.0.0.0.0.0.0.0.0.0.0.0.a.b.b.b.b.b.c.d.e.f.",
"g.g.g.g.g.g.g.g.g.g.g.g.g.g.g.g.g.g.g.g.g.g.g.g.g.g.h.",
"i.i.i.i.i.i.i.i.i.i.i.i.i.g.b.0.c.c.c.j.c.c.b.k.i.i.i.",
"l.l.l.l.l.l.l.l.k.h.b.0.0.c.c.c.c.c.c.c.c.c.c.c.a.i.l.",
"m.n.n.i.h.b.a.0.a.0.0.0.0.a.a.0.0.0.0.0.0.0.a.0.0.a.i.",
"h.h.6.6.6.6.6.6.b.6.6.6.6.6.6.6.6.6.6.6.6.6.6.6.6.6.h.",
"g.g.g.g.g.g.g.g.g.g.g.g.g.g.g.g.g.g.g.g.g.g.g.g.g.g.g."};
