/* XPM */
static char * maximize_pressed_xpm[] = {
"27 24 436 2",
"  	c None",
". 	c #F2F2F9",
"+ 	c #CACBEF",
"@ 	c #CCCDED",
"# 	c #CECFEB",
"$ 	c #D0D1EA",
"% 	c #D1D2EA",
"& 	c #D2D3E9",
"* 	c #D5D5E8",
"= 	c #D5D6E8",
"- 	c #D7D7E7",
"; 	c #D8D8E7",
"> 	c #D9D9E6",
", 	c #D8DAE7",
"' 	c #D9DAE7",
") 	c #DADBE7",
"! 	c #D9DAE8",
"~ 	c #D6D7E8",
"{ 	c #D5D7E9",
"] 	c #D4D5EA",
"^ 	c #D3D4EA",
"/ 	c #D1D1EB",
"( 	c #CFD0EA",
"_ 	c #CDCFEB",
": 	c #CCCCEC",
"< 	c #C9CAEE",
"[ 	c #B8B8DD",
"} 	c #F5F5F8",
"| 	c #E2E3F2",
"1 	c #E5E5EE",
"2 	c #E9E9EB",
"3 	c #EBECE9",
"4 	c #EEEEE6",
"5 	c #EFF0E5",
"6 	c #F1F2E3",
"7 	c #F3F5E1",
"8 	c #F6F6E1",
"9 	c #F7F8E0",
"0 	c #F9F9E0",
"a 	c #FBFBE0",
"b 	c #FCFCE1",
"c 	c #FFFFE1",
"d 	c #FCFCE2",
"e 	c #FAFAE2",
"f 	c #F8F8E3",
"g 	c #F6F6E4",
"h 	c #F3F4E5",
"i 	c #F2F2E7",
"j 	c #EFEFE9",
"k 	c #ECECE9",
"l 	c #E9EAEB",
"m 	c #DEDFEE",
"n 	c #BABBDC",
"o 	c #D3D5ED",
"p 	c #878ADA",
"q 	c #8E92D4",
"r 	c #969AD0",
"s 	c #9FA0CD",
"t 	c #A4A5CA",
"u 	c #A9ABC8",
"v 	c #ADAEC6",
"w 	c #B0B1C4",
"x 	c #B2B4C3",
"y 	c #B5B7C1",
"z 	c #B6B8C0",
"A 	c #B7B9C0",
"B 	c #B7B8BF",
"C 	c #B6B7C0",
"D 	c #B3B6C1",
"E 	c #B1B3C2",
"F 	c #ADB0C3",
"G 	c #AAABC5",
"H 	c #A5A7C7",
"I 	c #A1A3C9",
"J 	c #9B9DCB",
"K 	c #9698CD",
"L 	c #9193D0",
"M 	c #888BD4",
"N 	c #8184D7",
"O 	c #7273BA",
"P 	c #CECFEA",
"Q 	c #8B8ED7",
"R 	c #9599D1",
"S 	c #A2A3CB",
"T 	c #ABABC6",
"U 	c #BCBEBD",
"V 	c #C0C2BA",
"W 	c #C4C6B7",
"X 	c #C8CAB5",
"Y 	c #CACCB4",
"Z 	c #8E8F7D",
"` 	c #46463D",
" .	c #8D8E7E",
"..	c #C8C9B5",
"+.	c #C3C6B6",
"@.	c #BFC0B9",
"#.	c #BABBBC",
"$.	c #B4B6BE",
"%.	c #AEAFC1",
"&.	c #A7A9C4",
"*.	c #A2A3C7",
"=.	c #989BCB",
"-.	c #8F92CF",
";.	c #878AD2",
">.	c #7577B8",
",.	c #C9CAE8",
"'.	c #9091D5",
").	c #9C9DCF",
"!.	c #B3B4C3",
"~.	c #BBBCBD",
"{.	c #C1C3B9",
"].	c #C7C9B5",
"^.	c #CDCFB2",
"/.	c #D2D4AF",
"(.	c #D5D8AD",
"_.	c #989977",
":.	c #4B4B3A",
"<.	c #E4E5C0",
"[.	c #4A4B3A",
"}.	c #969678",
"|.	c #D0D2AF",
"1.	c #CBCDB2",
"2.	c #C5C7B4",
"3.	c #BFBFB8",
"4.	c #B8B9BB",
"5.	c #B1B2BF",
"6.	c #A9AAC3",
"7.	c #9FA1C7",
"8.	c #9597CC",
"9.	c #8A8CD1",
"0.	c #7778B8",
"a.	c #C4C5E6",
"b.	c #9394D5",
"c.	c #A0A1CE",
"d.	c #ADAFC6",
"e.	c #B8B9C0",
"f.	c #C0C2BB",
"g.	c #CED0B2",
"h.	c #D5D6AD",
"i.	c #DADBAB",
"j.	c #B5B688",
"k.	c #50513A",
"l.	c #EBECBC",
"m.	c #E8E9B1",
"n.	c #E9EABB",
"o.	c #4C4C39",
"p.	c #B1B18A",
"q.	c #D3D4AD",
"r.	c #CBCDB1",
"s.	c #C4C6B5",
"t.	c #BCBEB8",
"u.	c #B5B7BC",
"v.	c #ACAEC1",
"w.	c #A2A5C5",
"x.	c #9799C9",
"y.	c #8B8DCF",
"z.	c #787AB6",
"A.	c #AAACDE",
"B.	c #7376CD",
"C.	c #8486C7",
"D.	c #9598BF",
"E.	c #A5A7B9",
"F.	c #B0B2B5",
"G.	c #BABCB1",
"H.	c #C3C5AE",
"I.	c #CDCEA9",
"J.	c #D4D5A6",
"K.	c #DFE0AE",
"L.	c #E7E7B3",
"M.	c #E3E59E",
"N.	c #56573C",
"O.	c #E1E2A1",
"P.	c #E3E3B7",
"Q.	c #D8D9AF",
"R.	c #CACBA9",
"S.	c #BFC2AC",
"T.	c #B5B7AF",
"U.	c #ACAEB3",
"V.	c #A1A3B6",
"W.	c #9596BA",
"X.	c #888BBD",
"Y.	c #797BC2",
"Z.	c #686BC6",
"`.	c #4F51A5",
" +	c #A2A3DD",
".+	c #7476CD",
"++	c #8487C6",
"@+	c #9798BF",
"#+	c #A6A7B9",
"$+	c #B1B3B4",
"%+	c #BCBEB0",
"&+	c #C5C7AB",
"*+	c #CFD0A8",
"=+	c #D5D8A5",
"-+	c #DEDFA2",
";+	c #E4E5A0",
">+	c #E7E89E",
",+	c #4F5036",
"'+	c #E3E5A0",
")+	c #DDDEA2",
"!+	c #D5D6A5",
"~+	c #CCCDA8",
"{+	c #C2C3AC",
"]+	c #B8B9AF",
"^+	c #ADAFB2",
"/+	c #9698B9",
"(+	c #878ABD",
"_+	c #7A7CC1",
":+	c #696BC5",
"<+	c #5152A5",
"[+	c #9A9CDC",
"}+	c #7577CE",
"|+	c #8588C8",
"1+	c #9799C0",
"2+	c #A6A8BA",
"3+	c #BBBDAF",
"4+	c #C4C6AC",
"5+	c #CECFA9",
"6+	c #D6D7A6",
"7+	c #DCDFA2",
"8+	c #E2E3A0",
"9+	c #E5E79F",
"0+	c #4F4F36",
"a+	c #E2E49F",
"b+	c #DCDEA2",
"c+	c #D3D6A4",
"d+	c #CBCCA8",
"e+	c #C0C2AC",
"f+	c #B6B8AF",
"g+	c #ABAEB3",
"h+	c #A0A3B6",
"i+	c #9597BA",
"j+	c #888ABE",
"k+	c #7779C2",
"l+	c #666AC5",
"m+	c #9495DB",
"n+	c #7678CD",
"o+	c #8688C7",
"p+	c #9698C1",
"q+	c #A3A6BA",
"r+	c #AFB1B6",
"s+	c #B8BBB1",
"t+	c #C0C2AE",
"u+	c #C9CBAB",
"v+	c #D1D3A7",
"w+	c #ACAD83",
"x+	c #4C4C37",
"y+	c #DFE1A0",
"z+	c #E8E9BC",
"A+	c #4A4A38",
"B+	c #AAAB89",
"C+	c #C6C7AA",
"D+	c #BDBFAD",
"E+	c #B3B5B1",
"F+	c #A9ABB3",
"G+	c #9EA0B6",
"H+	c #9295BA",
"I+	c #8687BE",
"J+	c #7578C3",
"K+	c #6768C5",
"L+	c #5152A6",
"M+	c #8D8FD9",
"N+	c #7579CF",
"O+	c #8485C8",
"P+	c #9194C2",
"Q+	c #9EA1BD",
"R+	c #A9ACB8",
"S+	c #B2B3B6",
"T+	c #B9BBB2",
"U+	c #C1C2AE",
"V+	c #C7C9AB",
"W+	c #D5D6B8",
"X+	c #929475",
"Y+	c #494939",
"Z+	c #D3D5A6",
"`+	c #484839",
" @	c #8E8F76",
".@	c #CCCEB7",
"+@	c #BCBEAD",
"@@	c #B4B6B0",
"#@	c #ABADB3",
"$@	c #A1A4B6",
"%@	c #979AB9",
"&@	c #8C8FBC",
"*@	c #8082C0",
"=@	c #7174C4",
"-@	c #6467C7",
";@	c #4E4FA6",
">@	c #8284D7",
",@	c #7476D1",
"'@	c #8182CC",
")@	c #8B8EC6",
"!@	c #9EA0BE",
"~@	c #ABADB8",
"{@	c #B6B8B1",
"]@	c #BBBDB0",
"^@	c #CACBBE",
"/@	c #86877A",
"(@	c #41423C",
"_@	c #84857A",
":@	c #C5C6BE",
"<@	c #B2B4B1",
"[@	c #ACAEB4",
"}@	c #A4A7B5",
"|@	c #9D9EB8",
"1@	c #9597BB",
"2@	c #8C8EBD",
"3@	c #8284C0",
"4@	c #797BC3",
"5@	c #6D6FC7",
"6@	c #5F62C9",
"7@	c #4A4CA6",
"8@	c #7A7DD9",
"9@	c #7072D4",
"0@	c #787AD0",
"a@	c #8283CB",
"b@	c #8A8BC8",
"c@	c #8E91C5",
"d@	c #9495C2",
"e@	c #9699C0",
"f@	c #9A9DBE",
"g@	c #9FA1BD",
"h@	c #A1A3BB",
"i@	c #A4A5BA",
"j@	c #B4B5C5",
"k@	c #BCBCCC",
"l@	c #B3B5C7",
"m@	c #9DA0BA",
"n@	c #9A9CBC",
"o@	c #9496BD",
"p@	c #8E90BE",
"q@	c #888ABF",
"r@	c #8384C1",
"s@	c #7B7EC3",
"t@	c #7375C5",
"u@	c #6C6EC7",
"v@	c #6165C9",
"w@	c #585BCB",
"x@	c #4547A5",
"y@	c #696CCC",
"z@	c #6669C9",
"A@	c #6C6FC7",
"B@	c #7173C5",
"C@	c #7577C3",
"D@	c #7A7EC0",
"E@	c #7D7FBF",
"F@	c #7E81BD",
"G@	c #7F83BD",
"H@	c #8185BD",
"I@	c #8384BB",
"J@	c #8485BC",
"K@	c #8284BB",
"L@	c #8082BB",
"M@	c #7E81BB",
"N@	c #7A7DBC",
"O@	c #7578BC",
"P@	c #7173BD",
"Q@	c #6E71BD",
"R@	c #6A6BBD",
"S@	c #6567BE",
"T@	c #5F61C0",
"U@	c #5A5CC0",
"V@	c #5557C0",
"W@	c #4E51C3",
"X@	c #3D409E",
"Y@	c #11110F",
"Z@	c #141411",
"`@	c #191914",
" #	c #1E1E17",
".#	c #212119",
"+#	c #25251B",
"@#	c #27281C",
"##	c #2A2A1E",
"$#	c #2C2C1F",
"%#	c #2E2E20",
"&#	c #2F2F21",
"*#	c #2F3021",
"=#	c #303022",
"-#	c #303021",
";#	c #222319",
">#	c #202018",
",#	c #1A1A15",
"'#	c #161612",
")#	c #21211E",
"!#	c #595959",
"~#	c #5A5A59",
"{#	c #5E5E5C",
"]#	c #62625F",
"^#	c #646460",
"/#	c #666662",
"(#	c #696964",
"_#	c #6B6B66",
":#	c #6B6B65",
"<#	c #6E6E69",
"[#	c #71716B",
"}#	c #73736E",
"|#	c #74746E",
"1#	c #75756F",
"2#	c #767671",
"3#	c #787872",
"4#	c #797A74",
"5#	c #7A7A74",
"6#	c #7B7B76",
"7#	c #7E7E7A",
"8#	c #7F7F7C",
"9#	c #81817E",
"0#	c #81817F",
"a#	c #80807D",
"b#	c #2C2C2A",
"c#	c #2C2C2C",
"d#	c #2C2C2B",
"e#	c #2D2D2C",
"f#	c #2E2E2D",
"g#	c #2F2F2D",
"h#	c #2F2F2E",
"i#	c #2E2E2E",
"j#	c #4C4C4A",
"k#	c #232323",
"l#	c #232322",
"m#	c #222221",
"n#	c #212120",
"o#	c #242424",
"p#	c #272727",
"q#	c #292929",
"r#	c #2D2D2D",
"s#	c #1E1E1E",
"t#	c #1F1F1F",
"u#	c #1C1C1C",
"v#	c #212121",
"w#	c #252525",
"x#	c #1D1D1D",
"y#	c #1B1B1B",
"z#	c #222222",
"A#	c #191919",
"B#	c #1A1A1A",
"C#	c #202020",
". + @ # $ % & * = - ; > , ' ) ! ; ~ { ] ^ / ( _ : < [ ",
"} | 1 2 3 4 5 6 7 8 9 0 a b c d e f g h i j k l 1 m n ",
"o p q r s t u v w x y z A B C D E F G H I J K L M N O ",
"P Q R S T E A U V W X Y Z `  ...+.@.#.$.%.&.*.=.-.;.>.",
",.'.).u !.~.{.].^./.(._.:.<.[.}.|.1.2.3.4.5.6.7.8.9.0.",
"a.b.c.d.e.f.X g.h.i.j.k.l.m.n.o.p.q.r.s.t.u.v.w.x.y.z.",
"A.B.C.D.E.F.G.H.I.J.K.L.M.N.O.P.Q.R.S.T.U.V.W.X.Y.Z.`.",
" +.+++@+#+$+%+&+*+=+-+;+>+,+'+)+!+~+{+]+^+V./+(+_+:+<+",
"[+}+|+1+2+$+3+4+5+6+7+8+9+0+a+b+c+d+e+f+g+h+i+j+k+l+<+",
"m+n+o+p+q+r+s+t+u+v+w+x+y+z+)+A+B+C+D+E+F+G+H+I+J+K+L+",
"M+N+O+P+Q+R+S+T+U+V+W+X+Y+Z+`+ @.@+@@@#@$@%@&@*@=@-@;@",
">@,@'@)@p+!@E.~@$+{@]@^@/@(@_@:@<@[@}@|@1@2@3@4@5@6@7@",
"8@9@0@a@b@c@d@e@f@g@h@i@j@k@l@m@n@o@p@q@r@s@t@u@v@w@x@",
"y@z@A@B@C@Y.D@E@F@G@H@I@J@K@L@M@N@O@P@Q@R@S@T@U@V@W@X@",
"Y@Z@`@ #.#+#@###$#%#&#*#=#=#-#&#%#$###@#+#;#># #,#'#)#",
"!#~#{#]#^#/#(#_#:#<#[#}#|#1#2#3#4#5#6#6#7#7#8#9#0#a#b#",
"c#d#c#e#f#f#f#g#g#g#g#h#h#h#h#g#g#g#g#f#f#f#e#e#c#i#j#",
"k#k#k#l#l#l#l#l#l#k#k#k#k#k#k#k#k#m#n#n#n#n#n#o#p#q#r#",
"s#s#s#s#s#s#s#s#s#s#s#s#s#s#s#s#s#s#s#s#s#s#s#s#s#s#t#",
"u#u#u#u#u#u#u#u#u#u#u#u#u#s#v#k#o#o#o#w#o#o#v#x#u#u#u#",
"y#y#y#y#y#y#y#y#x#t#v#k#k#o#o#o#o#o#o#o#o#o#o#o#z#u#y#",
"A#B#B#u#t#v#z#k#z#k#k#k#k#z#z#k#k#k#k#k#k#k#z#k#k#z#u#",
"t#t#C#C#C#C#C#C#v#C#C#C#C#C#C#C#C#C#C#C#C#C#C#C#C#C#t#",
"s#s#s#s#s#s#s#s#s#s#s#s#s#s#s#s#s#s#s#s#s#s#s#s#s#s#s#"};
