/* XPM */
static char * bottom_right_active_xpm[] = {
"6 25 20 1",
" 	c None",
".	c #141414",
"+	c #D2D2D2",
"@	c #8F8F8F",
"#	c #646565",
"$	c #1F1F1F",
"%	c #717171",
"&	c #9D9D9D",
"*	c #1D1D1D",
"=	c #131313",
"-	c #727272",
";	c #A6A6A6",
">	c #181818",
",	c #A1A1A1",
"'	c #1E1E1E",
")	c #232323",
"!	c #1A1A1A",
"~	c #252525",
"{	c #292929",
"]	c #242424",
" .+@#$",
" .%&#$",
" *=-;$",
" *$>,'",
" *$)!~",
" *$)~{",
" *$)~{",
" *$)~{",
" *$)~{",
" *$)~{",
" *$)~{",
" *$)~{",
" *$)~{",
" *$)~{",
" *$)~{",
" *$)~{",
" *$)~{",
" *$)~{",
" *$)~{",
" *$)~{",
"]*$)~{",
"$$$)~{",
"))))~{",
"~~~~~{",
"{{{{{{"};
