/* XPM */
static char * bottom_left_active_xpm[] = {
"6 25 20 1",
" 	c None",
".	c #1F1F1F",
"+	c #646565",
"@	c #8F8F8F",
"#	c #D2D2D2",
"$	c #141414",
"%	c #9D9D9D",
"&	c #717171",
"*	c #A6A6A6",
"=	c #727272",
"-	c #131313",
";	c #1D1D1D",
">	c #1E1E1E",
",	c #A1A1A1",
"'	c #181818",
")	c #252525",
"!	c #1A1A1A",
"~	c #232323",
"{	c #292929",
"]	c #222222",
".+@#$ ",
".+%&$ ",
".*=-; ",
">,'.; ",
")!~.; ",
"{)~.; ",
"{)~.; ",
"{)~.; ",
"{)~.; ",
"{)~.; ",
"{)~.; ",
"{)~.; ",
"{)~.; ",
"{)~.; ",
"{)~.; ",
"{)~.; ",
"{)~.; ",
"{)~.; ",
"{)~.; ",
"{)~.; ",
"{)~.;]",
"{)~...",
"{)~~~~",
"{)))))",
"{{{{{{"};
