/* XPM */
static char * close_inactive_xpm[] = {
"33 24 249 2",
"  	c None",
". 	c #8A8D89",
"+ 	c #6F7A6A",
"@ 	c #6F7A69",
"# 	c #6E7A68",
"$ 	c #6E7A67",
"% 	c #6E7B67",
"& 	c #6E7B66",
"* 	c #6D7B66",
"= 	c #6C7B65",
"- 	c #6D7B65",
"; 	c #6C7C64",
"> 	c #6C7D63",
", 	c #6C7D62",
"' 	c #6B7D62",
") 	c #6B7D61",
"! 	c #6B7D60",
"~ 	c #6B7E60",
"{ 	c #6A7E5F",
"] 	c #6B7F5E",
"^ 	c #6A7F5E",
"/ 	c #6A7F5D",
"( 	c #697F5D",
"_ 	c #69805C",
": 	c #537043",
"< 	c #2B2B2B",
"[ 	c #AAAAAA",
"} 	c #8C8E8B",
"| 	c #7B8277",
"1 	c #798175",
"2 	c #798174",
"3 	c #777F72",
"4 	c #767F70",
"5 	c #747E6E",
"6 	c #737E6C",
"7 	c #717D6A",
"8 	c #707D69",
"9 	c #6F7C67",
"0 	c #6C7B64",
"a 	c #6B7B62",
"b 	c #6A7A60",
"c 	c #687A5E",
"d 	c #677A5C",
"e 	c #667A5B",
"f 	c #657959",
"g 	c #647957",
"h 	c #627955",
"i 	c #627954",
"j 	c #607953",
"k 	c #5F7951",
"l 	c #5E784F",
"m 	c #5D794D",
"n 	c #5C794C",
"o 	c #5B784A",
"p 	c #597849",
"q 	c #597847",
"r 	c #455F36",
"s 	c #292929",
"t 	c #A7A7A7",
"u 	c #767E72",
"v 	c #3E5830",
"w 	c #3F5930",
"x 	c #3F5A31",
"y 	c #3F5B31",
"z 	c #415C31",
"A 	c #415D31",
"B 	c #415E31",
"C 	c #425F31",
"D 	c #446132",
"E 	c #446332",
"F 	c #446333",
"G 	c #456433",
"H 	c #456633",
"I 	c #466733",
"J 	c #476934",
"K 	c #486A34",
"L 	c #486B35",
"M 	c #496C35",
"N 	c #4A6E35",
"O 	c #4B7036",
"P 	c #4C7136",
"Q 	c #4C7236",
"R 	c #2A3F1D",
"S 	c #454545",
"T 	c #949494",
"U 	c #717B6B",
"V 	c #3E572F",
"W 	c #405B31",
"X 	c #486A35",
"Y 	c #1D2718",
"Z 	c #676767",
"` 	c #7F7F7F",
" .	c #6C7766",
"..	c #43662F",
"+.	c #171717",
"@.	c #8C8C8C",
"#.	c #696969",
"$.	c #677460",
"%.	c #3D562F",
"&.	c #446232",
"*.	c #2E4820",
"=.	c #242424",
"-.	c #989898",
";.	c #595959",
">.	c #54654A",
",.	c #224310",
"'.	c #234510",
").	c #244511",
"!.	c #244811",
"~.	c #254811",
"{.	c #264A12",
"].	c #274B12",
"^.	c #274D13",
"/.	c #284E13",
"(.	c #284F13",
"_.	c #295013",
":.	c #2A5114",
"<.	c #2A5314",
"[.	c #2B5414",
"}.	c #2D5715",
"|.	c #2D5815",
"1.	c #2E5915",
"2.	c #2F5B16",
"3.	c #2F5C16",
"4.	c #305D16",
"5.	c #315F17",
"6.	c #326017",
"7.	c #336318",
"8.	c #1C2815",
"9.	c #4A4A4A",
"0.	c #747474",
"a.	c #494949",
"b.	c #4D6042",
"c.	c #224110",
"d.	c #234410",
"e.	c #274C12",
"f.	c #2C5615",
"g.	c #2E5A15",
"h.	c #305D17",
"i.	c #2F5917",
"j.	c #141514",
"k.	c #707070",
"l.	c #5B5B5B",
"m.	c #484848",
"n.	c #465B3B",
"o.	c #21400F",
"p.	c #223A15",
"q.	c #1B1B1B",
"r.	c #858585",
"s.	c #474747",
"t.	c #464646",
"u.	c #3F5533",
"v.	c #203E0E",
"w.	c #203F0F",
"x.	c #264911",
"y.	c #2F5B15",
"z.	c #161B13",
"A.	c #444444",
"B.	c #38502B",
"C.	c #1F3D0E",
"D.	c #244114",
"E.	c #121212",
"F.	c #757575",
"G.	c #424242",
"H.	c #324923",
"I.	c #1F3B0E",
"J.	c #1F3C0E",
"K.	c #274814",
"L.	c #111311",
"M.	c #333333",
"N.	c #686868",
"O.	c #404040",
"P.	c #2B441C",
"Q.	c #1E3A0E",
"R.	c #284D13",
"S.	c #131810",
"T.	c #232323",
"U.	c #3F3F3F",
"V.	c #3D3D3D",
"W.	c #233E14",
"X.	c #1D3A0D",
"Y.	c #294E13",
"Z.	c #141C10",
"`.	c #626262",
" +	c #3C3C3C",
".+	c #182C0D",
"++	c #1C370D",
"@+	c #264912",
"#+	c #15200F",
"$+	c #111111",
"%+	c #3A3A3A",
"&+	c #0D0E0D",
"*+	c #182D0D",
"=+	c #1F3A11",
"-+	c #11150E",
";+	c #131313",
">+	c #4E4E4E",
",+	c #383838",
"'+	c #373737",
")+	c #343434",
"!+	c #1C1C1C",
"~+	c #0D0D0C",
"{+	c #16270C",
"]+	c #1B350C",
"^+	c #213F10",
"/+	c #15230E",
"(+	c #0D0D0D",
"_+	c #212121",
":+	c #545454",
"<+	c #414141",
"[+	c #353535",
"}+	c #2C2C2C",
"|+	c #0C0C0C",
"1+	c #10170C",
"2+	c #182C0C",
"3+	c #1B340C",
"4+	c #1C360E",
"5+	c #15220D",
"6+	c #0D0E0C",
"7+	c #3E3E3E",
"8+	c #515151",
"9+	c #2F2F2F",
"0+	c #181818",
"a+	c #0E130C",
"b+	c #131E0C",
"c+	c #182F0C",
"d+	c #1A320C",
"e+	c #1C360D",
"f+	c #1A310D",
"g+	c #15230D",
"h+	c #0E140C",
"i+	c #525252",
"j+	c #323232",
"k+	c #272727",
"l+	c #303030",
"m+	c #1E1E1E",
"n+	c #0F0F0F",
"o+	c #2D2D2D",
"p+	c #4C4C4C",
"q+	c #262626",
"r+	c #2E2E2E",
"s+	c #252525",
"t+	c #1A1A1A",
"u+	c #191919",
"v+	c #282828",
"w+	c #222222",
"x+	c #202020",
"y+	c #2A2A2A",
"z+	c #161616",
". + @ # # $ % & & * = - ; ; > > , ' ) ! ~ ~ { { ] ^ / ( _ _ : < [ ",
"} | 1 2 3 4 5 6 7 8 9 * 0 a b c d e f g h i j k l m n o p q r s t ",
"u v v w x y z A B C D D E F G H I I J K K L M N N N O O P Q R S T ",
"U V v w x x W A B B C D D E F H H I I J K X L M N N N O O P Y Z ` ",
" .V v v w x y W A B C C D D E F H H I I J K X L M N N N O ..+.@.#.",
"$.%.V v v w x y W A B B C D D &.F G H I I J K K L M M N N *.=.-.;.",
">.,.,.'.).).!.~.~.{.].^./.(._.:.<.[.[.}.|.1.2.3.4.5.6.6.7.8.9.0.a.",
"b.c.,.,.d.'.).).!.~.~.{.e.^./.(.:.:.[.[.f.}.1.g.3.4.h.6.i.j.k.l.m.",
"n.o.o.c.,.,.d.'.).).!.~.~.{.e././.(.:.:.[.[.}.|.1.2.3.4.p.q.r.s.t.",
"u.v.w.o.o.o.c.,.d.'.).).!.~.x.{.e./.(._.:.<.[.}.|.1.2.y.z.m.Z S A.",
"B.C.v.v.v.w.o.o.c.,.,.'.).).!.~.x.].^./.(.:.<.[.f.}.1.D.E.F.a.G.G.",
"H.I.J.J.C.C.v.v.w.o.o.c.,.d.).).~.~.{.e./.(.:.:.[.f.K.L.M.N.O.O.O.",
"P.Q.I.I.I.I.J.J.C.v.v.o.o.c.,.'.).!.~.x.]./.(.:.:.R.S.T.Z U.V.V.V.",
"W.X.X.X.X.Q.Q.I.I.J.C.v.v.o.o.,.d.).).~.x.]./.(.Y.Z.+.`.G. + + + +",
".+++++++++++X.X.X.Q.I.I.C.v.w.o.c.,.).).~.x.].@+#+$+;.A.%+%+%+%+%+",
"&+*+++++++++++++++X.X.Q.I.J.C.v.o.c.,.).).~.=+-+;+>+t.,+'+'+,+,+)+",
"!+~+{+]+]+++++++++++++X.X.I.I.C.v.o.c.d.^+/+(+_+:+<+[+[+[+[+[+[+}+",
"9._+|+1+2+3+3+]+++++++++X.X.I.I.C.w.4+5+6+;+7+8+,+)+)+)+)+)+)+9+< ",
"=.G.V.0+|+a+b+{+c+d+3+3+3+e+e+f+g+h+|+0+,+i+<+M.M.M.M.M.M.M.j+s s ",
"!+!+k+G.A.l+m+E.n+n+n+n+n+n+n+n+0+o+t.p+V.l+l+l+l+l+l+l+l+l+q+q+q+",
"q.q.q.q.T.%+A.a.9.9.9.9.9.9.9.9.S  +j+r+r+r+r+r+r+r+r+r+r+s+=.=.=.",
"t+t+t+t+u+q.v+o+o+o+o+o+o+o+o+o+}+o+o+o+}+o+}+o+}+o+o+o+=.T.w+w+T.",
"0+0+0+0+0+0+0+x+s y+y+y+y+y+y+y+y+y+y+y+y+y+y+y+y+y+v+x+x+x+x+x+_+",
"!+z+z+z+z+z+z+z+u+q+v+v+v+v+v+v+v+v+v+v+v+v+v+v+v+_+m+m+m+m+m+m+m+"};
