/* XPM */
static char * close_pressed_xpm[] = {
"33 24 615 2",
"  	c None",
". 	c #F1F5EC",
"+ 	c #C3D5B6",
"@ 	c #C3D6B5",
"# 	c #C3D6B4",
"$ 	c #C4D7B2",
"% 	c #C5D8B1",
"& 	c #C5D9B1",
"* 	c #C6DAAF",
"= 	c #C6DAAD",
"- 	c #C6DBAD",
"; 	c #C5DBAC",
"> 	c #C7DCAC",
", 	c #C6DDAA",
"' 	c #C6DEA9",
") 	c #C5DEA8",
"! 	c #C5DEA7",
"~ 	c #C2DDA8",
"{ 	c #C2DDA6",
"] 	c #C1DEA5",
"^ 	c #C1DEA4",
"/ 	c #C0DFA4",
"( 	c #BEDEA4",
"_ 	c #BDDEA3",
": 	c #BDDFA3",
"< 	c #BADEA3",
"[ 	c #B9DDA2",
"} 	c #B7DEA2",
"| 	c #B7DFA0",
"1 	c #91C475",
"2 	c #3F3F3F",
"3 	c #AAAAAA",
"4 	c #F4F7ED",
"5 	c #D8E3CC",
"6 	c #D6E2C6",
"7 	c #D6E3C5",
"8 	c #D5E2C0",
"9 	c #D4E2BC",
"0 	c #D3E2B7",
"a 	c #D2E2B5",
"b 	c #D1E1B2",
"c 	c #D1E1AF",
"d 	c #D0E1AB",
"e 	c #CEE1A9",
"f 	c #CDE1A6",
"g 	c #CBE1A4",
"h 	c #CBE0A2",
"i 	c #C9E0A0",
"j 	c #C7DE9D",
"k 	c #C4DE9B",
"l 	c #C1DD99",
"m 	c #BEDC97",
"n 	c #BADB95",
"o 	c #B8DA93",
"p 	c #B4D990",
"q 	c #B0D88D",
"r 	c #ACD58B",
"s 	c #A9D588",
"t 	c #A4D385",
"u 	c #A0D282",
"v 	c #9DD17F",
"w 	c #9BD17C",
"x 	c #79A65F",
"y 	c #3D3D3D",
"z 	c #A7A7A7",
"A 	c #D0DEC2",
"B 	c #77A058",
"C 	c #7CA35B",
"D 	c #84AB5E",
"E 	c #8AAF61",
"F 	c #90B464",
"G 	c #97BA66",
"H 	c #9CBE69",
"I 	c #A1C26B",
"J 	c #A5C66D",
"K 	c #A9CA70",
"L 	c #ACCB70",
"M 	c #AECE71",
"N 	c #B0CF72",
"O 	c #B0D073",
"P 	c #AFD173",
"Q 	c #ADD171",
"R 	c #ACCF70",
"S 	c #A9D06F",
"T 	c #A6CE6E",
"U 	c #A2CC6B",
"V 	c #9ECB6A",
"W 	c #9ACB68",
"X 	c #97CA67",
"Y 	c #92C864",
"Z 	c #8EC663",
"` 	c #8BC862",
" .	c #88C65F",
"..	c #86C660",
"+.	c #84C65F",
"@.	c #496F33",
"#.	c #565656",
"$.	c #949494",
"%.	c #C9D8B7",
"&.	c #7BA259",
"*.	c #82A75D",
"=.	c #8AB060",
"-.	c #93B666",
";.	c #9ABB68",
">.	c #A1C16C",
",.	c #A9C76F",
"'.	c #AFCB72",
").	c #B4CF75",
"!.	c #B9D376",
"~.	c #BED679",
"{.	c #C0D87A",
"].	c #C1DA7B",
"^.	c #C1DA7A",
"/.	c #C0DB7A",
"(.	c #BDD979",
"_.	c #48542E",
":.	c #B6D675",
"<.	c #B2D573",
"[.	c #ADD270",
"}.	c #A8D06F",
"|.	c #A2CD6C",
"1.	c #9DCC6A",
"2.	c #99CB67",
"3.	c #8DC662",
"4.	c #8AC761",
"5.	c #86C560",
"6.	c #85C55F",
"7.	c #33442A",
"8.	c #717171",
"9.	c #7F7F7F",
"0.	c #C3D4AF",
"a.	c #7EA35A",
"b.	c #86AA5F",
"c.	c #90B163",
"d.	c #9ABA68",
"e.	c #A3C06D",
"f.	c #ABC670",
"g.	c #B2CC74",
"h.	c #BAD277",
"i.	c #A1B465",
"j.	c #C5DB7C",
"k.	c #CADE7E",
"l.	c #CEE180",
"m.	c #CFE181",
"n.	c #CFE380",
"o.	c #CDE280",
"p.	c #525B33",
"q.	c #8C9D58",
"r.	c #C0DC7A",
"s.	c #BBD977",
"t.	c #B5D775",
"u.	c #AFD471",
"v.	c #9CCC69",
"w.	c #96CA67",
"x.	c #90C763",
"y.	c #8AC461",
"z.	c #87C660",
"A.	c #77B353",
"B.	c #292928",
"C.	c #8F8F8F",
"D.	c #696969",
"E.	c #BCCFA4",
"F.	c #7FA55B",
"G.	c #88AC5F",
"H.	c #94B466",
"I.	c #9EBB6A",
"J.	c #A7C36E",
"K.	c #B0CA72",
"L.	c #B8D077",
"M.	c #C0D57A",
"N.	c #9CAA62",
"O.	c #545B34",
"P.	c #D4E483",
"Q.	c #D8E685",
"R.	c #DAE885",
"S.	c #DAE886",
"T.	c #575E35",
"U.	c #94A15B",
"V.	c #D7E798",
"W.	c #C8DF7E",
"X.	c #C2DC7A",
"Y.	c #BBD877",
"Z.	c #B4D674",
"`.	c #A6CE6D",
" +	c #98C967",
".+	c #90C664",
"++	c #8BC561",
"@+	c #86C25F",
"#+	c #547F39",
"$+	c #373736",
"%+	c #989898",
"&+	c #595959",
"*+	c #9FB983",
"=+	c #59892D",
"-+	c #669236",
";+	c #769F3F",
">+	c #84A949",
",+	c #91B251",
"'+	c #9CBC59",
")+	c #A8C460",
"!+	c #B3CC67",
"~+	c #C6D97F",
"{+	c #8E9D53",
"]+	c #545B31",
"^+	c #ABB763",
"/+	c #BECB6F",
"(+	c #585D32",
"_+	c #99A759",
":+	c #D7E792",
"<+	c #C6DD72",
"[+	c #BCD76C",
"}+	c #B4D366",
"|+	c #AACE60",
"1+	c #A0C859",
"2+	c #96C453",
"3+	c #8BC04B",
"4+	c #82BB45",
"5+	c #78B73E",
"6+	c #6FB438",
"7+	c #66AF32",
"8+	c #60B02F",
"9+	c #354A27",
"0+	c #575756",
"a+	c #747474",
"b+	c #494949",
"c+	c #96B278",
"d+	c #5A872E",
"e+	c #679336",
"f+	c #759E40",
"g+	c #85A94A",
"h+	c #92B352",
"i+	c #9FBC5A",
"j+	c #ABC561",
"k+	c #B6CE69",
"l+	c #C2D670",
"m+	c #D6E391",
"n+	c #94A057",
"o+	c #585C33",
"p+	c #5D6236",
"q+	c #9BA45A",
"r+	c #E3ED9F",
"s+	c #D3E47A",
"t+	c #CADE75",
"u+	c #C0D96E",
"v+	c #B6D368",
"w+	c #ACCE62",
"x+	c #A1C85A",
"y+	c #97C454",
"z+	c #8DBE4C",
"A+	c #82BA46",
"B+	c #77B53D",
"C+	c #6CAF38",
"D+	c #65AF32",
"E+	c #59A02D",
"F+	c #272925",
"G+	c #757574",
"H+	c #5B5B5B",
"I+	c #484848",
"J+	c #8CAA6C",
"K+	c #679036",
"L+	c #769C41",
"M+	c #86A94A",
"N+	c #93B252",
"O+	c #9FBC5B",
"P+	c #ACC562",
"Q+	c #B8CE6A",
"R+	c #C4D671",
"S+	c #CFDE78",
"T+	c #E0EA9A",
"U+	c #E7EFA6",
"V+	c #EAF1A8",
"W+	c #E8F0A1",
"X+	c #DCE980",
"Y+	c #D4E47C",
"Z+	c #CBDE75",
"`+	c #C2D96F",
" @	c #B6D268",
".@	c #ACCD61",
"+@	c #A1C65A",
"@@	c #97C253",
"#@	c #8BBC4C",
"$@	c #7EB644",
"%@	c #74B13D",
"&@	c #69AC35",
"*@	c #61A92E",
"=@	c #436B29",
"-@	c #2E2E2C",
";@	c #858585",
">@	c #474747",
",@	c #464646",
"'@	c #81A361",
")@	c #59852D",
"!@	c #678E36",
"~@	c #769B40",
"{@	c #83A649",
"]@	c #91AF51",
"^@	c #9EB959",
"/@	c #AAC461",
"(@	c #B6CD69",
"_@	c #C3D570",
":@	c #CEDD77",
"<@	c #808749",
"[@	c #5A5F34",
"}@	c #5D6136",
"|@	c #757B44",
"1@	c #DBE780",
"2@	c #D3E37B",
"3@	c #CADD75",
"4@	c #BFD76F",
"5@	c #B5D168",
"6@	c #AACB61",
"7@	c #9EC459",
"8@	c #94BE52",
"9@	c #88BA4A",
"0@	c #7BB342",
"a@	c #6FAD3A",
"b@	c #65A933",
"c@	c #5CA42C",
"d@	c #2C3524",
"e@	c #545453",
"f@	c #676767",
"g@	c #454545",
"h@	c #444444",
"i@	c #759954",
"j@	c #57832E",
"k@	c #648D35",
"l@	c #73983F",
"m@	c #81A247",
"n@	c #8FAD50",
"o@	c #9CB758",
"p@	c #A7C05F",
"q@	c #B3C867",
"r@	c #BED26E",
"s@	c #646C3A",
"t@	c #939D55",
"u@	c #E2EBA2",
"v@	c #E5EDA3",
"w@	c #9CA55B",
"x@	c #575C32",
"y@	c #CFDF78",
"z@	c #C6DA73",
"A@	c #BCD46C",
"B@	c #B1CE65",
"C@	c #A6C75E",
"D@	c #9CC157",
"E@	c #8EBA4F",
"F@	c #82B446",
"G@	c #76AD3E",
"H@	c #69A736",
"I@	c #5FA42F",
"J@	c #487728",
"K@	c #242422",
"L@	c #777776",
"M@	c #494948",
"N@	c #424242",
"O@	c #6A8E49",
"P@	c #537E2C",
"Q@	c #5F8833",
"R@	c #6E933C",
"S@	c #7D9F45",
"T@	c #8AA94E",
"U@	c #97B255",
"V@	c #A2BB5D",
"W@	c #ADC463",
"X@	c #5C6635",
"Y@	c #87944E",
"Z@	c #D6E196",
"`@	c #D0DE79",
" #	c #D2E07B",
".#	c #DCE79A",
"+#	c #939E56",
"@#	c #4F562D",
"##	c #C0D56F",
"$#	c #B6CF69",
"%#	c #ACC962",
"&#	c #A1C25A",
"*#	c #94BB52",
"=#	c #88B44B",
"-#	c #79AB41",
";#	c #6CA638",
">#	c #62A231",
",#	c #4F8629",
"'#	c #262821",
")#	c #414140",
"!#	c #686868",
"~#	c #404040",
"{#	c #5C833B",
"]#	c #4F7928",
"^#	c #5B8330",
"/#	c #698E38",
"(#	c #779942",
"_#	c #83A349",
":#	c #8FAC52",
"<#	c #9BB558",
"[#	c #5B6834",
"}#	c #7B8A46",
"|#	c #CAD88F",
"1#	c #C1D270",
"2#	c #C5D672",
"3#	c #C8D874",
"4#	c #C7D874",
"5#	c #D0DF90",
"6#	c #C7D882",
"7#	c #ADC863",
"8#	c #A2C15C",
"9#	c #97BA54",
"0#	c #89B44C",
"a#	c #7CAB43",
"b#	c #6FA53B",
"c#	c #629D33",
"d#	c #548F2B",
"e#	c #2A3321",
"f#	c #333332",
"g#	c #686867",
"h#	c #4A752B",
"i#	c #487423",
"j#	c #537C2A",
"k#	c #5F8633",
"l#	c #6D903C",
"m#	c #7B9B44",
"n#	c #87A54C",
"o#	c #93AE53",
"p#	c #ABC071",
"q#	c #B9CB83",
"r#	c #AEC465",
"s#	c #B5C968",
"t#	c #B9CC6B",
"u#	c #BBCE6B",
"v#	c #BACE6C",
"w#	c #B7CD69",
"x#	c #B2C966",
"y#	c #A0BD5B",
"z#	c #95B854",
"A#	c #88B04C",
"B#	c #7CA843",
"C#	c #6FA23A",
"D#	c #629B33",
"E#	c #58932C",
"F#	c #2E3B21",
"G#	c #292926",
"H#	c #646463",
"I#	c #424241",
"J#	c #3C3C3C",
"K#	c #34551D",
"L#	c #3F6B20",
"M#	c #487226",
"N#	c #547B2C",
"O#	c #618535",
"P#	c #6E8F3D",
"Q#	c #7C9B45",
"R#	c #87A44C",
"S#	c #91AC52",
"T#	c #9BB358",
"U#	c #A2BA5D",
"V#	c #A7BE60",
"W#	c #ABC262",
"X#	c #ACC363",
"Y#	c #ACC263",
"Z#	c #A8C061",
"`#	c #A2BC5D",
" $	c #99B857",
".$	c #90B250",
"+$	c #83A949",
"@$	c #78A342",
"#$	c #6B9B39",
"$$	c #5F9532",
"%$	c #538B2B",
"&$	c #314321",
"*$	c #222220",
"=$	c #5C5C5B",
"-$	c #3A3A3A",
";$	c #1C1E19",
">$	c #33551C",
",$	c #497226",
"'$	c #537A2D",
")$	c #5F8433",
"!$	c #6B8D3B",
"~$	c #779643",
"{$	c #829E49",
"]$	c #8CA84E",
"^$	c #92AC52",
"/$	c #98B156",
"($	c #9AB458",
"_$	c #98B457",
":$	c #94B153",
"<$	c #8EAD50",
"[$	c #85A74A",
"}$	c #7BA144",
"|$	c #719C3D",
"1$	c #659336",
"2$	c #5B902F",
"3$	c #497228",
"4$	c #29301F",
"5$	c #242421",
"6$	c #535352",
"7$	c #383838",
"8$	c #373737",
"9$	c #343434",
"0$	c #272726",
"a$	c #1B1C18",
"b$	c #2F4C1B",
"c$	c #3E681E",
"d$	c #466E23",
"e$	c #51782A",
"f$	c #5B8131",
"g$	c #668938",
"h$	c #70903D",
"i$	c #7E9B46",
"j$	c #83A149",
"k$	c #85A24A",
"l$	c #85A34A",
"m$	c #82A248",
"n$	c #6E963B",
"o$	c #658F35",
"p$	c #5C8C31",
"q$	c #517F2B",
"r$	c #364B22",
"s$	c #21211C",
"t$	c #2F2F2D",
"u$	c #414141",
"v$	c #353535",
"w$	c #2C2C2C",
"x$	c #4A4A49",
"y$	c #2B2B2A",
"z$	c #191917",
"A$	c #242F1A",
"B$	c #36571D",
"C$	c #426A21",
"D$	c #4A7027",
"E$	c #53782C",
"F$	c #5C8131",
"G$	c #628635",
"H$	c #678937",
"I$	c #6A8C3A",
"J$	c #6D903B",
"K$	c #6B8F3B",
"L$	c #6A8F39",
"M$	c #658B36",
"N$	c #5F8832",
"O$	c #58852E",
"P$	c #4A7128",
"Q$	c #374B22",
"R$	c #23251D",
"S$	c #252521",
"T$	c #464644",
"U$	c #525251",
"V$	c #383837",
"W$	c #2F2F2F",
"X$	c #2B2B2B",
"Y$	c #242424",
"Z$	c #252523",
"`$	c #1B1B18",
" %	c #232C1B",
".%	c #30431D",
"+%	c #3C5720",
"@%	c #446724",
"#%	c #4B6F27",
"$%	c #4F742A",
"%%	c #51762B",
"&%	c #52762B",
"*%	c #52782B",
"=%	c #4F7629",
"-%	c #496B28",
";%	c #3C5224",
">%	c #2C351F",
",%	c #22221B",
"'%	c #2A2A25",
")%	c #41413E",
"!%	c #333333",
"~%	c #323232",
"{%	c #292929",
"]%	c #1C1C1C",
"^%	c #272727",
"/%	c #484847",
"(%	c #383836",
"_%	c #2C2C29",
":%	c #242420",
"<%	c #25251F",
"[%	c #272720",
"}%	c #2A2A21",
"|%	c #2B2B22",
"1%	c #282820",
"2%	c #2B2B26",
"3%	c #393936",
"4%	c #4B4B48",
"5%	c #4E4E4D",
"6%	c #3E3E3D",
"7%	c #303030",
"8%	c #262626",
"9%	c #1B1B1B",
"0%	c #232322",
"a%	c #3B3B3A",
"b%	c #4B4B49",
"c%	c #4D4D4B",
"d%	c #4E4E4B",
"e%	c #4F4F4C",
"f%	c #474745",
"g%	c #2E2E2E",
"h%	c #252525",
"i%	c #1A1A1A",
"j%	c #191919",
"k%	c #282827",
"l%	c #2D2D2D",
"m%	c #2E2E2D",
"n%	c #2D2D2C",
"o%	c #232323",
"p%	c #222222",
"q%	c #181818",
"r%	c #202020",
"s%	c #2A2A2A",
"t%	c #2A2A29",
"u%	c #282828",
"v%	c #212121",
"w%	c #161616",
"x%	c #1E1E1E",
". + @ # $ % & * = - ; > , , ' ) ! ~ { ] ^ / ( _ : < [ } | | 1 2 3 ",
"4 5 6 7 8 9 0 a b c d e f g h i j k l m n o p q r s t u v w x y z ",
"A B C D E F G H I J K L M N O P Q R S T U V W X Y Z `  ...+.@.#.$.",
"%.&.*.=.-.;.>.,.'.).!.~.{.].^./.(._.:.<.[.}.|.1.2.Y 3.4.5.6.7.8.9.",
"0.a.b.c.d.e.f.g.h.i.j.k.l.m.n.o.p.q.r.s.t.u.S |.v.w.x.y.z.A.B.C.D.",
"E.F.G.H.I.J.K.L.M.N.O.P.Q.R.S.T.U.V.W.X.Y.Z.[.`.V  +.+++@+#+$+%+&+",
"*+=+-+;+>+,+'+)+!+~+{+]+^+/+(+_+:+<+[+}+|+1+2+3+4+5+6+7+8+9+0+a+b+",
"c+d+e+f+g+h+i+j+k+l+m+n+o+p+q+r+s+t+u+v+w+x+y+z+A+B+C+D+E+F+G+H+I+",
"J+d+K+L+M+N+O+P+Q+R+S+T+U+V+W+X+Y+Z+`+ @.@+@@@#@$@%@&@*@=@-@;@>@,@",
"'@)@!@~@{@]@^@/@(@_@:@<@[@}@|@1@2@3@4@5@6@7@8@9@0@a@b@c@d@e@f@g@h@",
"i@j@k@l@m@n@o@p@q@r@s@t@u@v@w@x@y@z@A@B@C@D@E@F@G@H@I@J@K@L@M@N@N@",
"O@P@Q@R@S@T@U@V@W@X@Y@Z@`@ #.#+#@###$#%#&#*#=#-#;#>#,#'#)#!#~#~#~#",
"{#]#^#/#(#_#:#<#[#}#|#1#2#3#4#5#6#k+7#8#9#0#a#b#c#d#e#f#g#2 y y y ",
"h#i#j#k#l#m#n#o#p#q#r#s#t#u#v#w#x#j+y#z#A#B#C#D#E#F#G#H#I#J#J#J#J#",
"K#L#M#N#O#P#Q#R#S#T#U#V#W#X#Y#Z#`# $.$+$@$#$$$%$&$*$=$h@-$-$-$-$-$",
";$>$L#,$'$)$!$~${$]$^$/$($($_$:$<$[$}$|$1$2$3$4$5$6$,@7$8$8$7$7$9$",
"0$a$b$c$d$e$f$g$h$~$i$j$k$l$m$S@~@n$o$p$q$r$s$t$0+u$v$v$v$v$v$v$w$",
"x$y$z$A$B$C$D$E$F$G$H$I$J$K$L$M$N$O$P$Q$R$S$T$U$V$9$9$9$9$9$9$W$X$",
"Y$I#)#Z$`$ %.%+%@%#%$%%%&%*%=%-%;%>%,%'%)%e@I#f#!%!%!%!%!%!%~%{%{%",
"]%]%^%N@/%(%_%:%<%[%}%|%|%}%1%<%2%3%4%5%6%7%7%7%7%7%7%7%7%7%8%8%8%",
"9%9%9%9%0%a%T$b%c%d%d%e%e%d%d%c%f%6%f#g%g%g%g%g%g%g%g%g%g%h%Y$Y$Y$",
"i%i%i%i%j%9%k%l%l%m%m%m%m%m%m%l%w$n%l%l%w$l%w$l%w$l%l%l%Y$o%p%p%o%",
"q%q%q%q%q%q%q%r%{%s%t%t%t%s%s%s%s%s%s%s%s%s%s%s%s%s%u%r%r%r%r%r%v%",
"]%w%w%w%w%w%w%w%j%8%u%u%u%u%u%u%u%u%u%u%u%u%u%u%u%v%x%x%x%x%x%x%x%"};
