/* XPM */
static char * close_normal_xpm[] = {
"33 24 318 2",
"  	c None",
". 	c #F1F5ED",
"+ 	c #C2D4B8",
"@ 	c #C1D5B7",
"# 	c #C0D4B6",
"$ 	c #C0D5B5",
"% 	c #C0D5B4",
"& 	c #C0D6B4",
"* 	c #C0D6B2",
"= 	c #BFD6B1",
"- 	c #BED6B1",
"; 	c #BDD6B0",
"> 	c #BED7B0",
", 	c #BDD8AE",
"' 	c #BDD9AD",
") 	c #BCD9AC",
"! 	c #BCD9AA",
"~ 	c #BAD9AA",
"{ 	c #BAD9A9",
"] 	c #BADAA8",
"^ 	c #BADBA7",
"/ 	c #BADCA7",
"( 	c #B9DCA6",
"_ 	c #B9DCA5",
": 	c #BADEA4",
"< 	c #B8DDA4",
"[ 	c #B8DDA3",
"} 	c #B7DEA2",
"| 	c #B7DFA1",
"1 	c #91C475",
"2 	c #3F3F3F",
"3 	c #AAAAAA",
"4 	c #F4F7F0",
"5 	c #D7E2CF",
"6 	c #D3E0CB",
"7 	c #D2E0CA",
"8 	c #CFDEC6",
"9 	c #CDDDC3",
"0 	c #CADCBF",
"a 	c #C8DBBD",
"b 	c #C5D9B9",
"c 	c #C3D9B7",
"d 	c #C1D8B4",
"e 	c #BED7B1",
"f 	c #BCD6AE",
"g 	c #BAD6AA",
"h 	c #B8D5A7",
"i 	c #B6D5A4",
"j 	c #B4D4A1",
"k 	c #B2D49E",
"l 	c #B0D39B",
"m 	c #AED398",
"n 	c #ABD395",
"o 	c #AAD393",
"p 	c #A8D390",
"q 	c #A6D38D",
"r 	c #A4D18A",
"s 	c #A3D387",
"t 	c #A0D284",
"u 	c #9ED182",
"v 	c #9CD17F",
"w 	c #9BD17C",
"x 	c #79A65F",
"y 	c #3D3D3D",
"z 	c #A7A7A7",
"A 	c #CFDDC4",
"B 	c #6E9A55",
"C 	c #6D9954",
"D 	c #6E9C54",
"E 	c #6F9D55",
"F 	c #6F9E55",
"G 	c #71A156",
"H 	c #72A356",
"I 	c #72A456",
"J 	c #73A656",
"K 	c #76A958",
"L 	c #76AC58",
"M 	c #77AD59",
"N 	c #79AF5A",
"O 	c #79B15A",
"P 	c #7AB35A",
"Q 	c #7BB45A",
"R 	c #7CB75B",
"S 	c #7DB85B",
"T 	c #7EBA5C",
"U 	c #7FBD5D",
"V 	c #81BF5D",
"W 	c #81C05D",
"X 	c #83C45E",
"Y 	c #84C55F",
"Z 	c #84C65F",
"` 	c #496F34",
" .	c #565656",
"..	c #949494",
"+.	c #C7D7B8",
"@.	c #6E9953",
"#.	c #709F56",
"$.	c #72A256",
"%.	c #2F4623",
"&.	c #7DB95C",
"*.	c #33442A",
"=.	c #717171",
"-.	c #7F7F7F",
";.	c #C0D2B0",
">.	c #6E9954",
",.	c #5F8948",
"'.	c #314824",
").	c #557E3F",
"!.	c #75B252",
"~.	c #282828",
"{.	c #8F8F8F",
"].	c #696969",
"^.	c #B8CCA6",
"/.	c #6D9854",
"(.	c #6D9853",
"_.	c #587E43",
":.	c #2E4223",
"<.	c #304523",
"[.	c #547A3E",
"}.	c #93BE7A",
"|.	c #517D38",
"1.	c #363636",
"2.	c #989898",
"3.	c #595959",
"4.	c #98B482",
"5.	c #40781E",
"6.	c #3D761C",
"7.	c #3E781D",
"8.	c #3F791E",
"9.	c #407D1E",
"0.	c #417E1F",
"a.	c #5A903B",
"b.	c #305E16",
"c.	c #1C360D",
"d.	c #386C1A",
"e.	c #3E791D",
"f.	c #1D380D",
"g.	c #356719",
"h.	c #6EA64F",
"i.	c #4C9324",
"j.	c #4F9825",
"k.	c #4F9A25",
"l.	c #509B26",
"m.	c #529E27",
"n.	c #53A027",
"o.	c #54A227",
"p.	c #55A528",
"q.	c #57A829",
"r.	c #59AD2A",
"s.	c #314725",
"t.	c #747474",
"u.	c #494949",
"v.	c #8EAD76",
"w.	c #3F741E",
"x.	c #3C751C",
"y.	c #3D761D",
"z.	c #65964A",
"A.	c #2F5A16",
"B.	c #1B350C",
"C.	c #1C380D",
"D.	c #315F17",
"E.	c #75A758",
"F.	c #4A8E23",
"G.	c #4B9223",
"H.	c #4E9625",
"I.	c #519D26",
"J.	c #54A328",
"K.	c #529C28",
"L.	c #232523",
"M.	c #5B5B5B",
"N.	c #484848",
"O.	c #82A369",
"P.	c #3E731D",
"Q.	c #3B711B",
"R.	c #3B711C",
"S.	c #6B9A51",
"T.	c #78A360",
"U.	c #7BA662",
"V.	c #468821",
"W.	c #478A21",
"X.	c #3C6525",
"Y.	c #2B2B2B",
"Z.	c #858585",
"`.	c #474747",
" +	c #464646",
".+	c #769B5C",
"++	c #3C701C",
"@+	c #3A6F1B",
"#+	c #3A701B",
"$+	c #254811",
"%+	c #1A320C",
"&+	c #1B340C",
"*+	c #224310",
"=+	c #438120",
"-+	c #458520",
";+	c #488B22",
">+	c #4A9023",
",+	c #529E26",
"'+	c #273021",
")+	c #525252",
"!+	c #676767",
"~+	c #454545",
"{+	c #444444",
"]+	c #6A9050",
"^+	c #3A6D1C",
"/+	c #386D1A",
"(+	c #396E1B",
"_+	c #1E3A0E",
":+	c #2B5414",
"<+	c #739D5B",
"[+	c #759E5D",
"}+	c #2D5915",
"|+	c #1A330C",
"1+	c #42801F",
"2+	c #448320",
"3+	c #458621",
"4+	c #3F7123",
"5+	c #202020",
"6+	c #767676",
"7+	c #424242",
"8+	c #5E8542",
"9+	c #396A1B",
"0+	c #36691A",
"a+	c #376B1A",
"b+	c #284E12",
"c+	c #699251",
"d+	c #2D5615",
"e+	c #19310C",
"f+	c #447E23",
"g+	c #1F221E",
"h+	c #686868",
"i+	c #404040",
"j+	c #507A35",
"k+	c #37671A",
"l+	c #366819",
"m+	c #1E3B0E",
"n+	c #274C12",
"o+	c #699152",
"p+	c #68954E",
"q+	c #588A3C",
"r+	c #468622",
"s+	c #222B1D",
"t+	c #303030",
"u+	c #416E25",
"v+	c #356618",
"w+	c #346517",
"x+	c #346518",
"y+	c #356619",
"z+	c #527D39",
"A+	c #628A4D",
"B+	c #488922",
"C+	c #24321C",
"D+	c #242424",
"E+	c #636363",
"F+	c #3C3C3C",
"G+	c #2D4F19",
"H+	c #326118",
"I+	c #428020",
"J+	c #26391B",
"K+	c #1D1D1D",
"L+	c #3A3A3A",
"M+	c #181A17",
"N+	c #2B4F17",
"O+	c #316017",
"P+	c #37651E",
"Q+	c #1E2519",
"R+	c #1E1E1E",
"S+	c #515151",
"T+	c #383838",
"U+	c #373737",
"V+	c #343434",
"W+	c #262626",
"X+	c #171816",
"Y+	c #274516",
"Z+	c #305D16",
"`+	c #3A6F1D",
" @	c #263D19",
".@	c #171717",
"+@	c #555555",
"@@	c #414141",
"#@	c #353535",
"$@	c #2C2C2C",
"%@	c #4A4A4A",
"&@	c #2A2A2A",
"*@	c #151515",
"=@	c #1C2816",
"-@	c #2A4D16",
";@	c #2F5B16",
">@	c #325E1A",
",@	c #253B18",
"'@	c #171916",
")@	c #434343",
"!@	c #2F2F2F",
"~@	c #222222",
"{@	c #192215",
"]@	c #213515",
"^@	c #274515",
"/@	c #2B5215",
"(@	c #2E5815",
"_@	c #2E5518",
":@	c #253E17",
"<@	c #1A2315",
"[@	c #333333",
"}@	c #323232",
"|@	c #292929",
"1@	c #1C1C1C",
"2@	c #272727",
"3@	c #1B1B1B",
"4@	c #181818",
"5@	c #212121",
"6@	c #4C4C4C",
"7@	c #232323",
"8@	c #2E2E2E",
"9@	c #252525",
"0@	c #1A1A1A",
"a@	c #191919",
"b@	c #2D2D2D",
"c@	c #161616",
". + @ # $ % & * = - ; > , , ' ) ! ~ { ] ^ / ( _ : < [ } | | 1 2 3 ",
"4 5 6 7 8 9 0 a b c d e f g h i j k l m n o p q r s t u v w x y z ",
"A B C D E F G H I J K K L M N O P Q R S S T U V W W X X Y Z `  ...",
"+.@.C D E E #.$.I I J K K L M O O %.Q R S &.T U V W W X X Y *.=.-.",
";.>.C C D E F #.$.,.J J K K L M '.).P Q R S &.T U V W W X !.~.{.].",
"^./.(.C C D E F #._.:.I J K K <.[.}.O P Q R S S T U U W W |.1.2.3.",
"4.5.6.7.8.8.9.0.0.a.b.c.d.e.f.g.h.i.i.j.k.l.m.n.o.p.q.q.r.s. .t.u.",
"v.w.6.x.y.7.8.8.9.0.z.A.B.C.D.E.F.F.G.i.H.j.l.I.n.o.J.q.K.L.t.M.N.",
"O.P.Q.R.x.x.y.7.8.8.9.S.T.U.$.V.V.W.F.F.G.i.j.k.l.m.n.o.X.Y.Z.`. +",
".+++@+#+#+#+R.x.y.7.8.$+%+&+*+=+-+V.W.;+F.>+i.j.k.l.m.,+'+)+!+~+{+",
"]+^+/+/+/+(+#+#+R.x._+:+<+[+}+|+1+2+3+V.W.F.>+i.H.j.l.4+5+6+u.7+7+",
"8+9+0+0+a+a+/+/+(+f.b+c+x.y.C d+e+0.=+-+V.W.F.F.G.H.f+g+2 h+i+i+i+",
"j+k+l+l+l+l+0+0+m+n+o+#+#+R.x.p+q+9.0.1+2+V.W.F.F.r+s+t+!+2 y y y ",
"u+v+w+x+x+y+y+l+z+A+a+/+/+#+#+x.y.8.8.0.1+2+V.W.B+C+D+E+7+F+F+F+F+",
"G+H+H+H+H+H+x+x+x+y+l+l+a+/+(+#+R.x.8.8.0.1+2+I+J+K+M.{+L+L+L+L+L+",
"M+N+O+O+O+O+O+O+H+x+x+y+l+0+a+/+#+R.x.8.8.0.P+Q+R+S+ +T+U+U+T+T+V+",
"W+X+Y+Z+Z+O+O+O+O+O+H+x+x+l+l+a+/+#+R.y.`+ @.@Y.+@@@#@#@#@#@#@#@$@",
"%@&@*@=@-@;@;@Z+O+O+O+O+x+x+l+l+a+(+>@,@'@R+)@S+T+V+V+V+V+V+V+!@Y.",
"D+7+i+~@*@{@]@^@/@(@;@;@;@D.D._@:@<@*@~@y )+@@[@[@[@[@[@[@[@}@|@|@",
"1@1@2@7+ +#@W+3@4@4@4@4@4@4@4@4@5@[@`.6@y t+t+t+t+t+t+t+t+t+W+W+W+",
"3@3@3@3@7@L+{+u.%@%@%@%@%@%@%@%@~+F+}@8@8@8@8@8@8@8@8@8@8@9@D+D+D+",
"0@0@0@0@a@3@~.b@b@b@b@b@b@b@b@b@$@b@b@b@$@b@$@b@$@b@b@b@D+7@~@~@7@",
"4@4@4@4@4@4@4@5+|@&@&@&@&@&@&@&@&@&@&@&@&@&@&@&@&@&@~.5+5+5+5+5+5@",
"1@c@c@c@c@c@c@c@a@W+~.~.~.~.~.~.~.~.~.~.~.~.~.~.~.5@R+R+R+R+R+R+R+"};
