/* XPM */
static char * hide_inactive_xpm[] = {
"29 24 202 2",
"  	c None",
". 	c #0D100C",
"+ 	c #647659",
"@ 	c #64755A",
"# 	c #64765B",
"$ 	c #64755B",
"% 	c #65755C",
"& 	c #64735C",
"* 	c #65725D",
"= 	c #66735D",
"- 	c #66725E",
"; 	c #65715E",
"> 	c #66705F",
", 	c #667060",
"' 	c #666F61",
") 	c #677062",
"! 	c #676F62",
"~ 	c #676F63",
"{ 	c #686F64",
"] 	c #696F64",
"^ 	c #697066",
"/ 	c #6A7066",
"( 	c #5F655B",
"_ 	c #0C0C0C",
": 	c #546A48",
"< 	c #596E4D",
"[ 	c #5B6F4E",
"} 	c #5B6F50",
"| 	c #5C7051",
"1 	c #5D7053",
"2 	c #5E6F54",
"3 	c #5F7056",
"4 	c #606F57",
"5 	c #627059",
"6 	c #63705B",
"7 	c #64705C",
"8 	c #64705D",
"9 	c #667260",
"0 	c #677261",
"a 	c #687263",
"b 	c #697264",
"c 	c #6B7366",
"d 	c #6C7468",
"e 	c #6E7569",
"f 	c #6E766B",
"g 	c #70776C",
"h 	c #72776E",
"i 	c #737970",
"j 	c #757A72",
"k 	c #767B74",
"l 	c #757972",
"m 	c #61675D",
"n 	c #0F0F0F",
"o 	c #324B23",
"p 	c #446132",
"q 	c #425F31",
"r 	c #415E31",
"s 	c #415D31",
"t 	c #415C31",
"u 	c #3F5B31",
"v 	c #3F5A31",
"w 	c #3E5830",
"x 	c #3D562F",
"y 	c #3C542F",
"z 	c #3C532F",
"A 	c #3B512E",
"B 	c #3A502E",
"C 	c #3A4F2E",
"D 	c #394D2E",
"E 	c #394D2D",
"F 	c #374A2C",
"G 	c #36492C",
"H 	c #36472C",
"I 	c #35462B",
"J 	c #35452B",
"K 	c #34442B",
"L 	c #313D29",
"M 	c #1B1B1B",
"N 	c #1B2A13",
"O 	c #426032",
"P 	c #3D542F",
"Q 	c #3B532E",
"R 	c #384C2C",
"S 	c #37492C",
"T 	c #313E2A",
"U 	c #363636",
"V 	c #0C0D0B",
"W 	c #3E5B2E",
"X 	c #405B31",
"Y 	c #3A512E",
"Z 	c #36482C",
"` 	c #313F2A",
" .	c #4E4E4E",
"..	c #0E0E0E",
"+.	c #203215",
"@.	c #3E572F",
"#.	c #32412A",
"$.	c #414141",
"%.	c #232323",
"&.	c #090B08",
"*.	c #244611",
"=.	c #284E13",
"-.	c #274C12",
";.	c #274B12",
">.	c #264911",
",.	c #254811",
"'.	c #244811",
").	c #244511",
"!.	c #234510",
"~.	c #224310",
"{.	c #224110",
"].	c #21400F",
"^.	c #203E0E",
"/.	c #1F3D0E",
"(.	c #1F3B0E",
"_.	c #1E3A0E",
":.	c #1D3A0D",
"<.	c #1C370D",
"[.	c #1B350C",
"}.	c #1B340C",
"|.	c #19320C",
"1.	c #19310C",
"2.	c #142709",
"3.	c #3F3F3F",
"4.	c #3C3C3C",
"5.	c #0D1309",
"6.	c #264A12",
"7.	c #274D13",
"8.	c #234410",
"9.	c #203F0F",
"0.	c #1F3C0E",
"a.	c #152909",
"b.	c #3D3D3D",
"c.	c #343434",
"d.	c #090909",
"e.	c #101B0A",
"f.	c #152A09",
"g.	c #3B3B3B",
"h.	c #2C2C2C",
"i.	c #080808",
"j.	c #15240C",
"k.	c #162B0A",
"l.	c #393939",
"m.	c #222222",
"n.	c #0E1609",
"o.	c #264811",
"p.	c #172E0A",
"q.	c #373737",
"r.	c #121212",
"s.	c #0A0A09",
"t.	c #1B330E",
"u.	c #182F0B",
"v.	c #272727",
"w.	c #2E2E2E",
"x.	c #353535",
"y.	c #313131",
"z.	c #1C1C1C",
"A.	c #060606",
"B.	c #0C1208",
"C.	c #203C0F",
"D.	c #19310B",
"E.	c #262626",
"F.	c #2B2B2B",
"G.	c #333333",
"H.	c #323232",
"I.	c #141414",
"J.	c #0C1108",
"K.	c #192F0D",
"L.	c #214010",
"M.	c #203F0E",
"N.	c #242424",
"O.	c #2F2F2F",
"P.	c #303030",
"Q.	c #2D2D2D",
"R.	c #212121",
"S.	c #131313",
"T.	c #0A0A0A",
"U.	c #3E3E3E",
"V.	c #404040",
"W.	c #434343",
"X.	c #444444",
"Y.	c #464646",
"Z.	c #484848",
"`.	c #494949",
" +	c #4C4C4C",
".+	c #4D4D4D",
"++	c #515151",
"@+	c #525252",
"#+	c #535353",
"$+	c #565656",
"%+	c #575757",
"&+	c #292929",
"*+	c #2A2A2A",
"=+	c #282828",
"-+	c #252525",
";+	c #202020",
">+	c #1E1E1E",
",+	c #1A1A1A",
"'+	c #191919",
")+	c #1F1F1F",
"!+	c #181818",
"~+	c #1D1D1D",
". + @ # $ $ % & & * = * - ; > , , , ' ) ! ! ~ { { ] ^ / ( ",
"_ : < [ } | 1 2 3 4 5 6 7 8 9 0 a b c d e f g h i j k l m ",
"n o p q r s t u v w w x y z A B C D E F F G G H I J J K L ",
"M N O q r s t u v w w x P z Q B B C E R F S G G H I I J T ",
"U V W q r s X v v w w x P y Q Y B C E E F F S G G Z H I ` ",
" ...+.q r s X v v w w @.x y Q A B B C E E F F S G G G Z #.",
"$.%.&.*.=.-.;.>.,.'.).!.~.{.].^./.(._.:.<.<.[.}.}.|.1.1.2.",
"3.4...5.6.7.;.>.,.,.).).8.~.].9.^.0.(._.:.<.<.<.[.}.}.}.a.",
"b.b.c.d.e.-.-.6.>.,.'.).).8.~.].9.^./.(.(.:.:.<.<.<.<.[.f.",
"g.4.4.h.i.j.-.;.6.,.,.'.).).8.~.{.].^.^.0.(.(.:.:.<.<.<.k.",
"l.l.l.l.m.d.n.o.;.6.,.,.'.).).8.~.{.].9.^.^.0.(.(._._.:.p.",
"c.q.q.q.q.h.r.s.t.;.6.,.,.,.).).!.8.~.{.].9.^.^./.0.(.(.u.",
"v.w.x.c.c.c.y.z.A.B.C.6.>.,.,.'.).).!.~.~.{.].].9.^.^.^.D.",
"E.E.F.G.G.G.G.H.E.I.A.J.K.L.8.8.8.{.{.{.].M.M./.0.0.0.(.u.",
"N.N.N.v.O.P.P.y.y.Q.R.S.T.i.i.i.i.i.i.i.i.i.i.i.i.i.i.i.i.",
"m.m.%.m.%.%.m.v.F.w.w.G.b.U.V.W.W.X.Y.Z.`. +.+ .++@+#+$+%+",
"R.R.R.R.R.R.R.R.R.R.R.%.E.h.h.h.h.h.F.F.h.h.h.h.h.h.h.h.h.",
"&+F.F.*+*+&+&+&+=+=+-+%.R.R.;+;+;+;+;+;+;+;+;+R.R.m.%.%.%.",
"&+&+&+&+&+&+&+&+&+&+&+&+&+&+v.R.>+>+>+>+>+>+>+>+>+>+>+>+>+",
"E.E.E.E.E.E.E.E.E.E.-+E.E.E.E.E.%.z.z.z.z.z.z.z.z.z.z.z.z.",
"N.N.N.N.N.N.N.N.N.N.%.;+%.N.N.N.N.z.M M M M M M M M M M M ",
"%.%.%.%.%.%.%.%.%.%.%.R.z.M z.z.,+,+,+,+,+'+,+'+,+,+,+,+'+",
";+;+;+;+;+;+;+;+;+;+R.;+;+)+z.'+!+!+!+!+!+!+!+!+,+M z.~+>+",
">+>+>+>+>+>+>+>+>+>+>+>+>+>+>+>+>+>+~+~+~+~+>+>+>+>+>+>+>+"};
