/* XPM */
static char * hide_pressed_xpm[] = {
"29 24 414 2",
"  	c None",
". 	c #181C15",
"+ 	c #AECD9C",
"@ 	c #AECC9D",
"# 	c #AFCD9E",
"$ 	c #B0CB9F",
"% 	c #B2CC9E",
"& 	c #B2CBA1",
"* 	c #B4CC9F",
"= 	c #B6CBA1",
"- 	c #B8CDA1",
"; 	c #B8CCA2",
"> 	c #BACDA2",
", 	c #BACCA2",
"' 	c #BCCCA4",
") 	c #BCCDA4",
"! 	c #BDCDA3",
"~ 	c #BECDA5",
"{ 	c #BECCA5",
"] 	c #BFCDA6",
"^ 	c #BECCA6",
"/ 	c #BFCBA7",
"( 	c #BFCAA8",
"_ 	c #BECAAA",
": 	c #BEC8AB",
"< 	c #BCC7AC",
"[ 	c #BBC6AF",
"} 	c #BAC5AF",
"| 	c #A6B19E",
"1 	c #151515",
"2 	c #93B97E",
"3 	c #9CC086",
"4 	c #9EC188",
"5 	c #A0C28B",
"6 	c #A3C48E",
"7 	c #A8C691",
"8 	c #ABC692",
"9 	c #AFC996",
"0 	c #B3CA98",
"a 	c #B8CD99",
"b 	c #BBCF9C",
"c 	c #BFD09E",
"d 	c #C2D29F",
"e 	c #C5D4A2",
"f 	c #C8D6A3",
"g 	c #CAD7A5",
"h 	c #CBD7A6",
"i 	c #CED9A8",
"j 	c #D0DAAB",
"k 	c #D0DBAD",
"l 	c #D0DBAF",
"m 	c #D2DCB2",
"n 	c #D3DBB5",
"o 	c #D3DBBA",
"p 	c #D2DABE",
"q 	c #D3DAC3",
"r 	c #CED5C2",
"s 	c #ACB6A2",
"t 	c #191919",
"u 	c #57833D",
"v 	c #76A958",
"w 	c #74A756",
"x 	c #75A657",
"y 	c #79A759",
"z 	c #7CA85B",
"A 	c #80A95C",
"B 	c #86AD60",
"C 	c #8AAD61",
"D 	c #91B264",
"E 	c #95B466",
"F 	c #99B567",
"G 	c #9EB86A",
"H 	c #A0B96B",
"I 	c #A5BB6D",
"J 	c #A7BC6E",
"K 	c #A8BC6F",
"L 	c #A8BC6E",
"M 	c #A6B96E",
"N 	c #A4B76D",
"O 	c #A0B36B",
"P 	c #9BB069",
"Q 	c #95A966",
"R 	c #8CA161",
"S 	c #81975C",
"T 	c #748D57",
"U 	c #698151",
"V 	c #5D724C",
"W 	c #242424",
"X 	c #304921",
"Y 	c #74A757",
"Z 	c #75A756",
"` 	c #76A757",
" .	c #7BA95A",
"..	c #80AB5D",
"+.	c #86AD5F",
"@.	c #8DB162",
"#.	c #93B365",
"$.	c #9AB968",
"%.	c #A0BC6B",
"&.	c #A7BF6F",
"*.	c #92A55F",
"=.	c #8F9F5D",
"-.	c #B5C874",
";.	c #BACB76",
">.	c #BCCC78",
",.	c #BBCB77",
"'.	c #BBC977",
").	c #9AA762",
"!.	c #7D8850",
"~.	c #ADBE71",
"{.	c #A5B76D",
"].	c #9AAD68",
"^.	c #8BA161",
"/.	c #7C945A",
"(.	c #6E8954",
"_.	c #61764E",
":.	c #3A3A3A",
"<.	c #151814",
"[.	c #6D9E50",
"}.	c #75A757",
"|.	c #78A758",
"1.	c #7DA95A",
"2.	c #83AB5E",
"3.	c #8AAF60",
"4.	c #93B565",
"5.	c #9AB869",
"6.	c #A2BE6B",
"7.	c #A9C26F",
"8.	c #B1C673",
"9.	c #92A15D",
"0.	c #414729",
"a.	c #94A15E",
"b.	c #C7D67C",
"c.	c #CBD87E",
"d.	c #CCD87E",
"e.	c #AFBA6C",
"f.	c #44482A",
"g.	c #889055",
"h.	c #B9C876",
"i.	c #B1C073",
"j.	c #94AA65",
"k.	c #839A5E",
"l.	c #728C55",
"m.	c #63794F",
"n.	c #4E4E4E",
"o.	c #171717",
"p.	c #395826",
"q.	c #78A759",
"r.	c #7EAA5B",
"s.	c #84AC5E",
"t.	c #8CB162",
"u.	c #95B766",
"v.	c #9EBB6A",
"w.	c #A7C26F",
"x.	c #B0C772",
"y.	c #B8CC76",
"z.	c #CDDB98",
"A.	c #8A9657",
"B.	c #464B2B",
"C.	c #9FA862",
"D.	c #D6E083",
"E.	c #B4BC6F",
"F.	c #494C2D",
"G.	c #939A5A",
"H.	c #DAE2A4",
"I.	c #C3D07A",
"J.	c #B8C776",
"K.	c #ABBC6F",
"L.	c #9AAE68",
"M.	c #869F5F",
"N.	c #779157",
"O.	c #677E50",
"P.	c #414141",
"Q.	c #282828",
"R.	c #11140F",
"S.	c #427D20",
"T.	c #4D8D25",
"U.	c #548F2A",
"V.	c #5E9430",
"W.	c #6A9A38",
"X.	c #76A241",
"Y.	c #83AA48",
"Z.	c #8FB151",
"`.	c #9BB957",
" +	c #A6C15F",
".+	c #B1C766",
"++	c #C8D786",
"@+	c #8A9650",
"#+	c #474B29",
"$+	c #D4DF7C",
"%+	c #80874B",
"&+	c #787E45",
"*+	c #D7E195",
"=+	c #C4D272",
"-+	c #B9C96B",
";+	c #A9BC62",
">+	c #98AD56",
",+	c #7E9A47",
"'+	c #648337",
")+	c #4D7028",
"!+	c #38551D",
"~+	c #3F3F3F",
"{+	c #3C3C3C",
"]+	c #192312",
"^+	c #498623",
"/+	c #528F29",
"(+	c #5C932E",
"_+	c #679936",
":+	c #75A13F",
"<+	c #83AB47",
"[+	c #90B250",
"}+	c #9DBB59",
"|+	c #A9C360",
"1+	c #8D9F51",
"2+	c #87934E",
"3+	c #D5E191",
"4+	c #949D57",
"5+	c #DAE580",
"6+	c #AFB766",
"7+	c #E0E895",
"8+	c #9DA65B",
"9+	c #636A3A",
"0+	c #BECD6D",
"a+	c #AEC164",
"b+	c #9BB159",
"c+	c #839D4A",
"d+	c #688839",
"e+	c #51762A",
"f+	c #3A5A1E",
"g+	c #3D3D3D",
"h+	c #353534",
"i+	c #111110",
"j+	c #233516",
"k+	c #4F8C27",
"l+	c #58912C",
"m+	c #639634",
"n+	c #709F3C",
"o+	c #7EA746",
"p+	c #8DB24E",
"q+	c #A8C361",
"r+	c #8E9E57",
"s+	c #424926",
"t+	c #9DA85B",
"u+	c #DEE797",
"v+	c #DDE681",
"w+	c #E2EA8F",
"x+	c #A0A65D",
"y+	c #494D2A",
"z+	c #8F9752",
"A+	c #C0CF6F",
"B+	c #AFC266",
"C+	c #9DB359",
"D+	c #85A14B",
"E+	c #6B8C3A",
"F+	c #51782A",
"G+	c #3B5C1E",
"H+	c #3B3B3B",
"I+	c #2E2E2E",
"J+	c #2D471A",
"K+	c #528E29",
"L+	c #5C932F",
"M+	c #689A37",
"N+	c #74A13F",
"O+	c #84AC49",
"P+	c #93B652",
"Q+	c #A3BE5C",
"R+	c #C3D58A",
"S+	c #889453",
"T+	c #454A28",
"U+	c #A2AC5F",
"V+	c #D9E47E",
"W+	c #C4CD72",
"X+	c #4A4E2B",
"Y+	c #939B55",
"Z+	c #D5DF95",
"`+	c #BCCD6D",
" @	c #ADC263",
".@	c #9BB458",
"+@	c #84A04A",
"@@	c #6A8C3A",
"#@	c #527A2B",
"$@	c #3C5D1F",
"%@	c #393939",
"&@	c #393938",
"*@	c #262625",
"=@	c #151512",
"-@	c #233117",
";@	c #528929",
">@	c #6A9B38",
",@	c #77A241",
"'@	c #87AD4A",
")@	c #95B854",
"!@	c #A5C05D",
"~@	c #C7D88F",
"{@	c #8A9656",
"]@	c #545C31",
"^@	c #CDDB77",
"/@	c #494F2B",
"(@	c #A4B060",
"_@	c #D6E29C",
":@	c #BED06E",
"<@	c #B2C666",
"[@	c #A4BC5F",
"}@	c #94AF54",
"|@	c #7F9E47",
"1@	c #688D38",
"2@	c #527C2A",
"3@	c #3C601F",
"4@	c #343434",
"5@	c #373737",
"6@	c #2F2F2E",
"7@	c #232321",
"8@	c #1E1F17",
"9@	c #416723",
"0@	c #5D942F",
"a@	c #84AB49",
"b@	c #92B652",
"c@	c #9FBC5A",
"d@	c #C3D58E",
"e@	c #A5B27F",
"f@	c #B6CD69",
"g@	c #AAB77A",
"h@	c #CBD995",
"i@	c #B0C665",
"j@	c #A9C161",
"k@	c #9FB95B",
"l@	c #94B153",
"m@	c #86A64B",
"n@	c #749741",
"o@	c #608833",
"p@	c #507B28",
"q@	c #3B601E",
"r@	c #272727",
"s@	c #353535",
"t@	c #333332",
"u@	c #272725",
"v@	c #161612",
"w@	c #263018",
"x@	c #4F7A29",
"y@	c #6E9E3B",
"z@	c #7BA543",
"A@	c #90B450",
"B@	c #96B655",
"C@	c #99B956",
"D@	c #9AB956",
"E@	c #97B555",
"F@	c #93B353",
"G@	c #8EAD50",
"H@	c #86A74A",
"I@	c #7DA145",
"J@	c #72983F",
"K@	c #658E35",
"L@	c #57832D",
"M@	c #497A25",
"N@	c #385F1C",
"O@	c #262626",
"P@	c #2B2B2B",
"Q@	c #333333",
"R@	c #2B2B29",
"S@	c #242420",
"T@	c #1A1A14",
"U@	c #2A331B",
"V@	c #486927",
"W@	c #5D8932",
"X@	c #699538",
"Y@	c #709A3D",
"Z@	c #759D40",
"`@	c #769B40",
" #	c #769C41",
".#	c #749B3F",
"+#	c #71983D",
"@#	c #6C943B",
"##	c #679137",
"$#	c #618A34",
"%#	c #5A8430",
"&#	c #527E2B",
"*#	c #497726",
"=#	c #416F1F",
"-#	c #325818",
";#	c #2F2F2F",
">#	c #303030",
",#	c #313131",
"'#	c #2D2D2D",
")#	c #222222",
"!#	c #0F0F0F",
"~#	c #0E0E0E",
"{#	c #232323",
"]#	c #3E3E3E",
"^#	c #404040",
"/#	c #434343",
"(#	c #444444",
"_#	c #464646",
":#	c #484848",
"<#	c #494949",
"[#	c #4C4C4C",
"}#	c #4D4D4D",
"|#	c #515151",
"1#	c #525252",
"2#	c #535353",
"3#	c #565656",
"4#	c #575756",
"5#	c #212121",
"6#	c #2C2C2C",
"7#	c #292929",
"8#	c #2A2A2A",
"9#	c #252525",
"0#	c #202020",
"a#	c #1E1E1E",
"b#	c #1C1C1C",
"c#	c #1B1B1B",
"d#	c #1A1A1A",
"e#	c #1F1F1F",
"f#	c #181818",
"g#	c #1D1D1D",
". + @ # @ $ % & * = - ; > , ' ) ! ~ { ] ^ / ( _ : < [ } | ",
"1 2 3 4 5 6 7 8 9 0 a b c d e f g h i j k l m n o p q r s ",
"t u v w x y z A B C D E F G H I J K L M N O P Q R S T U V ",
"W X Y Z `  ...+.@.#.$.%.&.*.=.-.;.>.,.'.).!.~.{.].^./.(._.",
":.<.[.}.|.1.2.3.4.5.6.7.8.9.0.a.b.c.d.e.f.g.h.i.N j.k.l.m.",
"n.o.p.}.q.r.s.t.u.v.w.x.y.z.A.B.C.D.E.F.G.H.I.J.K.L.M.N.O.",
"P.Q.R.S.T.U.V.W.X.Y.Z.`. +.+++@+#+$+%+&+*+=+-+;+>+,+'+)+!+",
"~+{+1 ]+^+/+(+_+:+<+[+}+|+1+2+3+4+5+6+7+8+9+0+a+b+c+d+e+f+",
"g+g+h+i+j+k+l+m+n+o+p+`.q+r+s+t+u+v+w+x+y+z+A+B+C+D+E+F+G+",
"H+{+{+I+i+J+K+L+M+N+O+P+Q+R+S+T+U+V+W+X+Y+Z+`+ @.@+@@@#@$@",
"%@%@%@&@*@=@-@;@V.>@,@'@)@!@~@{@]@^@/@(@_@:@<@[@}@|@1@2@3@",
"4@5@5@5@5@6@7@8@9@0@M+N+a@b@c@d@e@f@g@h@i@j@k@l@m@n@o@p@q@",
"r@I+s@4@4@4@t@u@v@w@x@m+y@z@'@A@B@C@D@E@F@G@H@I@J@K@L@M@N@",
"O@O@P@Q@Q@Q@t@t@R@S@T@U@V@W@X@Y@Z@`@ #.#+#@###$#%#&#*#=#-#",
"W W W r@;#>#>#,#,#'#)#o.!#~#~#~#~#~#~#~#~#~#~#~#~#~#~#~#~#",
")#)#{#)#{#{#)#r@P@I+I+Q@g+]#^#/#/#(#_#:#<#[#}#n.|#1#2#3#4#",
"5#5#5#5#5#5#5#5#5#5#5#{#O@6#6#6#6#6#P@P@6#6#6#6#6#6#6#6#6#",
"7#P@P@8#8#7#7#7#Q.Q.9#{#5#5#0#0#0#0#0#0#0#0#0#5#5#)#{#{#{#",
"7#7#7#7#7#7#7#7#7#7#7#7#7#7#r@5#a#a#a#a#a#a#a#a#a#a#a#a#a#",
"O@O@O@O@O@O@O@O@O@O@9#O@O@O@O@O@{#b#b#b#b#b#b#b#b#b#b#b#b#",
"W W W W W W W W W W {#0#{#W W W W b#c#c#c#c#c#c#c#c#c#c#c#",
"{#{#{#{#{#{#{#{#{#{#{#5#b#c#b#b#d#d#d#d#d#t d#t d#d#d#d#t ",
"0#0#0#0#0#0#0#0#0#0#5#0#0#e#b#t f#f#f#f#f#f#f#f#d#c#b#g#a#",
"a#a#a#a#a#a#a#a#a#a#a#a#a#a#a#a#a#a#g#g#g#g#a#a#a#a#a#a#a#"};
