/* XPM */
static char * hide_normal_xpm[] = {
"29 24 268 2",
"  	c None",
". 	c #181C15",
"+ 	c #AECD9C",
"@ 	c #AECC9D",
"# 	c #AFCD9E",
"$ 	c #AECC9E",
"% 	c #AFCB9F",
"& 	c #B0CBA0",
"* 	c #AFC9A1",
"= 	c #B0C7A2",
"- 	c #B1C8A3",
"; 	c #B0C6A3",
"> 	c #B1C6A4",
", 	c #B0C5A4",
"' 	c #B1C4A6",
") 	c #B1C4A7",
"! 	c #B2C4A7",
"~ 	c #B2C3A8",
"{ 	c #B2C2A9",
"] 	c #B4C3AA",
"^ 	c #B3C2AA",
"/ 	c #B4C2AB",
"( 	c #B4C1AC",
"_ 	c #B5C2AE",
": 	c #B6C2AE",
"< 	c #B7C2AF",
"[ 	c #B7C3B1",
"} 	c #B8C3B1",
"| 	c #A5B09F",
"1 	c #151515",
"2 	c #93B97E",
"3 	c #9CC087",
"4 	c #9EC189",
"5 	c #9FC28B",
"6 	c #A1C38E",
"7 	c #A3C391",
"8 	c #A4C193",
"9 	c #A6C396",
"0 	c #A7C298",
"a 	c #AAC39B",
"b 	c #ACC49E",
"c 	c #AEC3A1",
"d 	c #AFC4A3",
"e 	c #B1C6A7",
"f 	c #B4C6A9",
"g 	c #B6C7AC",
"h 	c #B7C7AE",
"i 	c #BAC9B1",
"j 	c #BDCAB5",
"k 	c #BFCCB7",
"l 	c #C0CDBA",
"m 	c #C4D0BD",
"n 	c #C6D0C0",
"o 	c #C9D2C3",
"p 	c #CBD4C6",
"q 	c #CED6CA",
"r 	c #CBD3C5",
"s 	c #AAB4A3",
"t 	c #191919",
"u 	c #57833D",
"v 	c #76A958",
"w 	c #73A656",
"x 	c #72A456",
"y 	c #72A356",
"z 	c #71A156",
"A 	c #6F9E55",
"B 	c #6F9D55",
"C 	c #6D9954",
"D 	c #6B9653",
"E 	c #699252",
"F 	c #699152",
"G 	c #678E51",
"H 	c #668C50",
"I 	c #658A50",
"J 	c #638750",
"K 	c #63864F",
"L 	c #61824E",
"M 	c #5F7F4D",
"N 	c #5E7C4D",
"O 	c #5D7A4C",
"P 	c #5C794C",
"Q 	c #5B764B",
"R 	c #576D49",
"S 	c #242424",
"T 	c #304921",
"U 	c #74A757",
"V 	c #6A9353",
"W 	c #587A45",
"X 	c #547441",
"Y 	c #668B50",
"Z 	c #62844E",
"` 	c #516D41",
" .	c #435936",
"..	c #596F4A",
"+.	c #3A3A3A",
"@.	c #151814",
"#.	c #6C9E50",
"$.	c #72A256",
"%.	c #709F56",
"&.	c #537441",
"*.	c #23311B",
"=.	c #4E6B3D",
"-.	c #557444",
";.	c #212C1A",
">.	c #445B36",
",.	c #60804D",
"'.	c #5F7E4D",
").	c #5E7B4C",
"!.	c #5A714B",
"~.	c #4E4E4E",
"{.	c #171717",
"].	c #385726",
"^.	c #6C9753",
"/.	c #8BAB7A",
"(.	c #496538",
"_.	c #4D693C",
":.	c #547343",
"<.	c #222E1B",
"[.	c #455E37",
"}.	c #90A782",
"|.	c #607F4D",
"1.	c #5D754B",
"2.	c #414141",
"3.	c #282828",
"4.	c #11140F",
"5.	c #407B1E",
"6.	c #468821",
"7.	c #458520",
"8.	c #448320",
"9.	c #42801F",
"0.	c #417E1F",
"a.	c #407D1E",
"b.	c #3F791E",
"c.	c #3E781D",
"d.	c #3C751C",
"e.	c #3B711C",
"f.	c #5D8944",
"g.	c #274C12",
"h.	c #122408",
"i.	c #366819",
"j.	c #1F3D0F",
"k.	c #1D390D",
"l.	c #5E8249",
"m.	c #316017",
"n.	c #305D16",
"o.	c #2F5B16",
"p.	c #2D5815",
"q.	c #2C5615",
"r.	c #2D5715",
"s.	c #294914",
"t.	c #3F3F3F",
"u.	c #3C3C3C",
"v.	c #172111",
"w.	c #438220",
"x.	c #458621",
"y.	c #3D761D",
"z.	c #2E5B15",
"A.	c #284E12",
"B.	c #608B48",
"C.	c #36691A",
"D.	c #2A5213",
"E.	c #577F3F",
"F.	c #264B11",
"G.	c #182F0B",
"H.	c #305C16",
"I.	c #2B4D15",
"J.	c #3D3D3D",
"K.	c #353535",
"L.	c #101010",
"M.	c #1D3013",
"N.	c #448520",
"O.	c #438120",
"P.	c #396122",
"Q.	c #142809",
"R.	c #2C5614",
"S.	c #386D1A",
"T.	c #4A7930",
"U.	c #274B12",
"V.	c #122308",
"W.	c #244610",
"X.	c #346518",
"Y.	c #326118",
"Z.	c #315E16",
"`.	c #2C4F15",
" +	c #3B3B3B",
".+	c #2E2E2E",
"++	c #0E0E0E",
"@+	c #254015",
"#+	c #6C9852",
"$+	c #34591F",
"%+	c #3A701B",
"&+	c #326117",
"*+	c #132508",
"=+	c #254912",
"-+	c #2D5116",
";+	c #393939",
">+	c #252525",
",+	c #192711",
"'+	c #427E1F",
")+	c #729D5A",
"!+	c #375C23",
"~+	c #19320B",
"{+	c #2E5815",
"]+	c #73985E",
"^+	c #356619",
"/+	c #356618",
"(+	c #2E5416",
"_+	c #343434",
":+	c #373737",
"<+	c #2D2D2D",
"[+	c #1E1E1E",
"}+	c #121311",
"|+	c #305919",
"1+	c #759F5E",
"2+	c #698758",
"3+	c #5F824C",
"4+	c #759B5F",
"5+	c #396E1B",
"6+	c #376B1A",
"7+	c #376919",
"8+	c #2F5717",
"9+	c #272727",
"0+	c #313131",
"a+	c #222222",
"b+	c #0C0C0C",
"c+	c #15200F",
"d+	c #38691B",
"e+	c #305816",
"f+	c #262626",
"g+	c #2B2B2B",
"h+	c #333333",
"i+	c #323232",
"j+	c #1C1C1C",
"k+	c #151F0F",
"l+	c #2C5217",
"m+	c #3A701C",
"n+	c #386E1A",
"o+	c #376A1A",
"p+	c #366719",
"q+	c #2D5415",
"r+	c #2F2F2F",
"s+	c #303030",
"t+	c #0F0F0F",
"u+	c #232323",
"v+	c #3E3E3E",
"w+	c #404040",
"x+	c #434343",
"y+	c #444444",
"z+	c #464646",
"A+	c #484848",
"B+	c #494949",
"C+	c #4C4C4C",
"D+	c #4D4D4D",
"E+	c #515151",
"F+	c #525252",
"G+	c #535353",
"H+	c #565656",
"I+	c #575756",
"J+	c #212121",
"K+	c #2C2C2C",
"L+	c #292929",
"M+	c #2A2A2A",
"N+	c #202020",
"O+	c #1B1B1B",
"P+	c #1A1A1A",
"Q+	c #1F1F1F",
"R+	c #181818",
"S+	c #1D1D1D",
". + @ # $ % & * * = - ; > , ' ) ! ~ { ] ^ / ( _ : < [ } | ",
"1 2 3 4 5 6 7 8 9 0 a b c d e f g h i j k l m n o p q r s ",
"t u v w x y z A B C C D E F G H I J K L L M M N O P P Q R ",
"S T U w x y z A B C C D V W X H Y I K Z `  .M M N O O O ..",
"+.@.#.w x $.%.B B C C D V &.*.=.H I K -.;.>.,.M M '.N ).!.",
"~.{.].w x $.%.B B C C ^.D /.(.*._.Y :.<.[.}.L ,.M M M |.1.",
"2.3.4.5.6.7.8.9.0.a.b.c.d.e.f.g.h.i.j.k.l.m.n.o.o.p.q.r.s.",
"t.u.1 v.w.x.8.9.0.0.b.b.y.z.A.B.g.C.D.E.F.G.m.m.n.o.o.H.I.",
"J.J.K.L.M.N.7.O.9.0.a.b.b.P.Q.R.B.S.T.U.V.W.X.Y.m.m.m.Z.`.",
" +u.u..+++@+N.8.O.0.0.a.b.#+$+Q.r.%+&+*+=+H i.X.X.Y.Y.&+-+",
";+;+;+;+>+L.,+'+8.O.0.0.a.b.)+!+~+e.Q.{+]+S.C.i.i.^+^+/+(+",
"_+:+:+:+:+<+[+}+|+8.O.0.0.0.b.1+2+y.3+4+%+5+S.S.6+C.i.7+8+",
"9+.+K._+_+_+0+a+b+c+d+O.9.0.0.a.b.b.c.d.d.e.%+%+5+S.S.S.e+",
"f+f+g+h+h+h+h+i+9+j+b+k+l+m+y.y.y.e.e.e.%+n+n+o+C.C.C.p+q+",
"S S S 9+r+s+s+0+0+<+a+{.t+++++++++++++++++++++++++++++++++",
"a+a+u+a+u+u+a+9+g+.+.+h+J.v+w+x+x+y+z+A+B+C+D+~.E+F+G+H+I+",
"J+J+J+J+J+J+J+J+J+J+J+u+f+K+K+K+K+K+g+g+K+K+K+K+K+K+K+K+K+",
"L+g+g+M+M+L+L+L+3.3.>+u+J+J+N+N+N+N+N+N+N+N+N+J+J+a+u+u+u+",
"L+L+L+L+L+L+L+L+L+L+L+L+L+L+9+J+[+[+[+[+[+[+[+[+[+[+[+[+[+",
"f+f+f+f+f+f+f+f+f+f+>+f+f+f+f+f+u+j+j+j+j+j+j+j+j+j+j+j+j+",
"S S S S S S S S S S u+N+u+S S S S j+O+O+O+O+O+O+O+O+O+O+O+",
"u+u+u+u+u+u+u+u+u+u+u+J+j+O+j+j+P+P+P+P+P+t P+t P+P+P+P+t ",
"N+N+N+N+N+N+N+N+N+N+J+N+N+Q+j+t R+R+R+R+R+R+R+R+P+O+j+S+[+",
"[+[+[+[+[+[+[+[+[+[+[+[+[+[+[+[+[+[+S+S+S+S+[+[+[+[+[+[+[+"};
