/* XPM */
static char * maximize_pressed_xpm[] = {
"27 24 438 2",
"  	c None",
". 	c #EFF1EB",
"+ 	c #BBC6B3",
"@ 	c #BFC8B4",
"# 	c #C1CAB4",
"$ 	c #C3CDB4",
"% 	c #C5CEB6",
"& 	c #C6D0B6",
"* 	c #C8D1B7",
"= 	c #CAD3B8",
"- 	c #CCD5B9",
"; 	c #CDD6BA",
"> 	c #CDD7B9",
", 	c #CED9BB",
"' 	c #D0DABC",
") 	c #D1D9BD",
"! 	c #D1DABD",
"~ 	c #CFD9BC",
"{ 	c #CEDABB",
"] 	c #CED8BB",
"^ 	c #CCD8BB",
"/ 	c #CBD8BB",
"( 	c #CAD7BA",
"_ 	c #C9D6B9",
": 	c #C8D6B9",
"< 	c #C7D5B8",
"[ 	c #C6D5B8",
"} 	c #B5C5A9",
"| 	c #F3F5EE",
"1 	c #DBE0D2",
"2 	c #DFE4D2",
"3 	c #E3E8D3",
"4 	c #E6EAD4",
"5 	c #E9EDD3",
"6 	c #ECEFD5",
"7 	c #EEF2D5",
"8 	c #F1F4D6",
"9 	c #F4F6D8",
"0 	c #F6F7D9",
"a 	c #F8F9DA",
"b 	c #FAFBDC",
"c 	c #FCFCDF",
"d 	c #FFFFE1",
"e 	c #FCFCE0",
"f 	c #F9FADE",
"g 	c #F7F9DE",
"h 	c #F4F7DC",
"i 	c #F2F4DA",
"j 	c #F0F3DA",
"k 	c #ECF1D9",
"l 	c #E9EED7",
"m 	c #E7EDD6",
"n 	c #E3EBD5",
"o 	c #DCE5CF",
"p 	c #B8C8AB",
"q 	c #C8D2BE",
"r 	c #698252",
"s 	c #738A55",
"t 	c #7D955A",
"u 	c #869B5F",
"v 	c #8CA162",
"w 	c #93A664",
"x 	c #97A966",
"y 	c #9CAE68",
"z 	c #A0B36B",
"A 	c #A3B66C",
"B 	c #A5B76D",
"C 	c #A6B96E",
"D 	c #A7BA6E",
"E 	c #A4B96D",
"F 	c #A2B76C",
"G 	c #9EB46A",
"H 	c #9BB269",
"I 	c #98B167",
"J 	c #93AE65",
"K 	c #8EAB62",
"L 	c #8BA961",
"M 	c #86A65E",
"N 	c #80A25D",
"O 	c #799D5A",
"P 	c #6E8D52",
"Q 	c #C2CDB5",
"R 	c #6F8954",
"S 	c #7C945A",
"T 	c #8A9F60",
"U 	c #95A865",
"V 	c #9DAF69",
"W 	c #A5B66D",
"X 	c #ABBC70",
"Y 	c #B1C173",
"Z 	c #B6C575",
"` 	c #BAC977",
" .	c #BECC78",
"..	c #869055",
"+.	c #42472A",
"@.	c #868F54",
"#.	c #BDCC78",
"$.	c #B8C975",
"%.	c #B4C574",
"&.	c #AFC272",
"*.	c #AABE6F",
"=.	c #A4BA6C",
"-.	c #9DB66A",
";.	c #97B266",
">.	c #90AE64",
",.	c #88A860",
"'.	c #80A25B",
").	c #719054",
"!.	c #BCC8AA",
"~.	c #758D57",
"{.	c #83995D",
"].	c #93A765",
"^.	c #A0B16B",
"/.	c #AABB6F",
"(.	c #B2C273",
"_.	c #BAC876",
":.	c #C0CE7A",
"<.	c #C7D37D",
"[.	c #CCD87F",
"}.	c #929959",
"|.	c #484C2C",
"1.	c #DEE6A3",
"2.	c #484B2C",
"3.	c #909859",
"4.	c #C8D57D",
"5.	c #C3D27B",
"6.	c #BCCD77",
"7.	c #B7C874",
"8.	c #AFC371",
"9.	c #A8BE6F",
"0.	c #A0B86B",
"a.	c #98B366",
"b.	c #8EAC62",
"c.	c #84A55E",
"d.	c #749157",
"e.	c #B5C3A4",
"f.	c #799258",
"g.	c #889F60",
"h.	c #98AD67",
"i.	c #A6B86D",
"j.	c #B0C173",
"k.	c #C2CF7A",
"l.	c #CBD67E",
"m.	c #D2DC81",
"n.	c #B0B76B",
"o.	c #4E5130",
"p.	c #E7EDA8",
"q.	c #E4EA99",
"r.	c #E5EBA5",
"s.	c #4A4D2D",
"t.	c #ABB46A",
"u.	c #CCD97F",
"v.	c #C4D37B",
"w.	c #BDCE78",
"x.	c #B5C874",
"y.	c #ADC271",
"z.	c #A5BC6D",
"A.	c #9BB668",
"B.	c #92AF63",
"C.	c #86A760",
"D.	c #769256",
"E.	c #94A97D",
"F.	c #4E722A",
"G.	c #648338",
"H.	c #7A9545",
"I.	c #8EA551",
"J.	c #9DB35B",
"K.	c #A9BC62",
"L.	c #B5C569",
"M.	c #C1CE70",
"N.	c #CBD676",
"O.	c #D8E18C",
"P.	c #E2E999",
"Q.	c #DEE782",
"R.	c #545731",
"S.	c #DBE480",
"T.	c #DEE699",
"U.	c #D2DD86",
"V.	c #C2D170",
"W.	c #B7CA6A",
"X.	c #ADC264",
"Y.	c #A2BA5D",
"Z.	c #97B256",
"`.	c #8CAA4F",
" +	c #7FA246",
".+	c #70963C",
"++	c #638D34",
"@+	c #4B7127",
"#+	c #8BA471",
"$+	c #52772B",
"%+	c #678838",
"&+	c #7E9946",
"*+	c #90A852",
"=+	c #9FB45B",
"-+	c #ACBF63",
";+	c #B8C96A",
">+	c #C4D271",
",+	c #CDDA78",
"'+	c #D7E17E",
")+	c #DEE682",
"!+	c #E2E985",
"~+	c #4D502D",
"{+	c #DFE782",
"]+	c #D7E27E",
"^+	c #CFDB78",
"/+	c #C5D372",
"(+	c #BBCC6C",
"_+	c #B0C364",
":+	c #A4BB5E",
"<+	c #99B357",
"[+	c #8EAB4F",
"}+	c #80A247",
"|+	c #71973C",
"1+	c #628C34",
"2+	c #4D7127",
"3+	c #819C66",
"4+	c #53782B",
"5+	c #688839",
"6+	c #7E9B47",
"7+	c #91AA52",
"8+	c #9FB65B",
"9+	c #ACC063",
"0+	c #B7C86A",
"a+	c #C3D171",
"b+	c #CDD977",
"c+	c #D6E17D",
"d+	c #DDE681",
"e+	c #E1E984",
"f+	c #D7E17D",
"g+	c #CDDB77",
"h+	c #C4D372",
"i+	c #B9CB6B",
"j+	c #AEC365",
"k+	c #A3BA5E",
"l+	c #98B357",
"m+	c #8CA94F",
"n+	c #7FA047",
"o+	c #70963D",
"p+	c #618B33",
"q+	c #4C7027",
"r+	c #77965C",
"s+	c #537A2B",
"t+	c #678937",
"u+	c #7C9A46",
"v+	c #8EA850",
"w+	c #9DB55A",
"x+	c #A9BE61",
"y+	c #B3C668",
"z+	c #BECE6E",
"A+	c #C8D574",
"B+	c #A6B060",
"C+	c #4A4D2B",
"D+	c #DAE47F",
"E+	c #E5ECA5",
"F+	c #484C29",
"G+	c #A4B05F",
"H+	c #BFCF6E",
"I+	c #B5C868",
"J+	c #AAC062",
"K+	c #A0B85B",
"L+	c #95B054",
"M+	c #89A74E",
"N+	c #7C9D45",
"O+	c #6E943C",
"P+	c #608932",
"Q+	c #4B7028",
"R+	c #6D924F",
"S+	c #527C2A",
"T+	c #658A36",
"U+	c #789A43",
"V+	c #88A64D",
"W+	c #96B055",
"X+	c #A1B95C",
"Y+	c #ABC062",
"Z+	c #B4C767",
"`+	c #BCCD6D",
" @	c #CCDA89",
".@	c #8D9652",
"+@	c #464A29",
"@@	c #CCD977",
"#@	c #454A28",
"$@	c #889450",
"%@	c #C5D482",
"&@	c #B4C768",
"*@	c #98B256",
"=@	c #8EAA4F",
"-@	c #82A249",
";@	c #779942",
">@	c #688F3A",
",@	c #5C8531",
"'@	c #486B26",
")@	c #628943",
"!@	c #507B28",
"~@	c #5F8732",
"{@	c #6F933C",
"]@	c #7D9E45",
"^@	c #91AD51",
"/@	c #9AB358",
"(@	c #A0B95C",
"_@	c #A7BE5F",
":@	c #ADC364",
"<@	c #C0D083",
"[@	c #7E8B49",
"}@	c #3E4423",
"|@	c #7C8A47",
"1@	c #BCCD81",
"2@	c #A7BE60",
"3@	c #92AD52",
"4@	c #89A74D",
"5@	c #81A047",
"6@	c #789942",
"7@	c #6D923C",
"8@	c #628934",
"9@	c #567F2C",
"0@	c #446723",
"a@	c #558136",
"b@	c #497825",
"c@	c #55812C",
"d@	c #6D933B",
"e@	c #749A3F",
"f@	c #7B9E43",
"g@	c #81A348",
"h@	c #86A74B",
"i@	c #8CAA4E",
"j@	c #90AE51",
"k@	c #92AE52",
"l@	c #A6BD71",
"m@	c #B1C582",
"n@	c #A7BD74",
"o@	c #8EAC51",
"p@	c #8BA74E",
"q@	c #86A44B",
"r@	c #80A047",
"s@	c #7A9C43",
"t@	c #759740",
"u@	c #678D37",
"v@	c #5E8532",
"w@	c #557F2C",
"x@	c #4D7827",
"y@	c #3D611F",
"z@	c #457226",
"A@	c #406F1F",
"B@	c #497525",
"C@	c #507B2A",
"D@	c #57802E",
"E@	c #5C8432",
"F@	c #608734",
"G@	c #648A36",
"H@	c #678D38",
"I@	c #698E3A",
"J@	c #6C903C",
"K@	c #6E913C",
"L@	c #6F923D",
"M@	c #6E903D",
"N@	c #6E903C",
"O@	c #6A8D3C",
"P@	c #688B3A",
"Q@	c #658837",
"R@	c #628535",
"S@	c #5F8332",
"T@	c #5B7F30",
"U@	c #567C2D",
"V@	c #51782B",
"W@	c #4B7327",
"X@	c #466F22",
"Y@	c #406B20",
"Z@	c #36571A",
"`@	c #11110F",
" #	c #141411",
".#	c #191914",
"+#	c #1E1E17",
"@#	c #212119",
"##	c #25251B",
"$#	c #27281C",
"%#	c #2A2A1E",
"&#	c #2C2C1F",
"*#	c #2E2E20",
"=#	c #2F2F21",
"-#	c #2F3021",
";#	c #303022",
">#	c #303021",
",#	c #222319",
"'#	c #202018",
")#	c #1A1A15",
"!#	c #161612",
"~#	c #21221B",
"{#	c #595959",
"]#	c #5A5A59",
"^#	c #5E5E5C",
"/#	c #62625F",
"(#	c #646460",
"_#	c #666662",
":#	c #696964",
"<#	c #6B6B66",
"[#	c #6B6B65",
"}#	c #6E6E69",
"|#	c #71716B",
"1#	c #73736E",
"2#	c #74746E",
"3#	c #75756F",
"4#	c #767671",
"5#	c #787872",
"6#	c #797A74",
"7#	c #7A7A74",
"8#	c #7B7B76",
"9#	c #7E7E7A",
"0#	c #7F7F7C",
"a#	c #81817E",
"b#	c #81817F",
"c#	c #80807D",
"d#	c #2C2C2A",
"e#	c #2C2C2C",
"f#	c #2C2C2B",
"g#	c #2D2D2C",
"h#	c #2E2E2D",
"i#	c #2F2F2D",
"j#	c #2F2F2E",
"k#	c #2E2E2E",
"l#	c #4C4C4A",
"m#	c #232323",
"n#	c #232322",
"o#	c #222221",
"p#	c #212120",
"q#	c #242424",
"r#	c #272727",
"s#	c #292929",
"t#	c #2D2D2D",
"u#	c #1E1E1E",
"v#	c #1F1F1F",
"w#	c #1C1C1C",
"x#	c #212121",
"y#	c #252525",
"z#	c #1D1D1D",
"A#	c #1B1B1B",
"B#	c #222222",
"C#	c #191919",
"D#	c #1A1A1A",
"E#	c #202020",
". + @ # $ % & * = - ; > , ' ) ! ~ { ] ^ / ( _ : < [ } ",
"| 1 2 3 4 5 6 7 8 9 0 a b c d e f g h i j k l m n o p ",
"q r s t u v w x y z A B C D C E F G H I J K L M N O P ",
"Q R S T U V W X Y Z `  ...+.@.#.$.%.&.*.=.-.;.>.,.'.).",
"!.~.{.].^./.(._.:.<.[.}.|.1.2.3.4.5.6.7.8.9.0.a.b.c.d.",
"e.f.g.h.i.j._.k.l.m.n.o.p.q.r.s.t.u.v.w.x.y.z.A.B.C.D.",
"E.F.G.H.I.J.K.L.M.N.O.P.Q.R.S.T.U.V.W.X.Y.Z.`. +.+++@+",
"#+$+%+&+*+=+-+;+>+,+'+)+!+~+{+]+^+/+(+_+:+<+[+}+|+1+2+",
"3+4+5+6+7+8+9+0+a+b+c+d+e+~+d+f+g+h+i+j+k+l+m+n+o+p+q+",
"r+s+t+u+v+w+x+y+z+A+B+C+D+E+f+F+G+H+I+J+K+L+M+N+O+P+Q+",
"R+S+T+U+V+W+X+Y+Z+`+ @.@+@@@#@$@%@&@Y+X+*@=@-@;@>@,@'@",
")@!@~@{@]@V+^@/@(@_@:@<@[@}@|@1@2@(@<+3@4@5@6@7@8@9@0@",
"a@b@c@1+d@e@f@g@h@i@j@k@l@m@n@o@p@q@r@s@t@7@u@v@w@x@y@",
"z@A@B@C@D@E@F@G@H@I@J@K@L@M@N@O@P@Q@R@S@T@U@V@W@X@Y@Z@",
"`@ #.#+#@###$#%#&#*#=#-#;#;#>#=#*#&#%#$###,#'#+#)#!#~#",
"{#]#^#/#(#_#:#<#[#}#|#1#2#3#4#5#6#7#8#8#9#9#0#a#b#c#d#",
"e#f#e#g#h#h#h#i#i#i#i#j#j#j#j#i#i#i#i#h#h#h#g#g#e#k#l#",
"m#m#m#n#n#n#n#n#n#m#m#m#m#m#m#m#m#o#p#p#p#p#p#q#r#s#t#",
"u#u#u#u#u#u#u#u#u#u#u#u#u#u#u#u#u#u#u#u#u#u#u#u#u#u#v#",
"w#w#w#w#w#w#w#w#w#w#w#w#w#u#x#m#q#q#q#y#q#q#x#z#w#w#w#",
"A#A#A#A#A#A#A#A#z#v#x#m#m#q#q#q#q#q#q#q#q#q#q#q#B#w#A#",
"C#D#D#w#v#x#B#m#B#m#m#m#m#B#B#m#m#m#m#m#m#m#B#m#m#B#w#",
"v#v#E#E#E#E#E#E#x#E#E#E#E#E#E#E#E#E#E#E#E#E#E#E#E#E#v#",
"u#u#u#u#u#u#u#u#u#u#u#u#u#u#u#u#u#u#u#u#u#u#u#u#u#u#u#"};
