/* XPM */
static char * maximize_normal_xpm[] = {
"27 24 212 2",
"  	c None",
". 	c #EFF1ED",
"+ 	c #BAC5B4",
"@ 	c #BCC6B6",
"# 	c #BDC7B7",
"$ 	c #BEC9B8",
"% 	c #C0CABA",
"& 	c #C0CBBA",
"* 	c #C2CCBC",
"= 	c #C3CEBD",
"- 	c #C5CFBF",
"; 	c #C6D0C0",
"> 	c #C6D1C0",
", 	c #C8D3C2",
"' 	c #CAD4C3",
") 	c #CAD4C4",
"! 	c #CAD5C4",
"~ 	c #C9D4C3",
"{ 	c #C8D5C1",
"] 	c #C8D4C1",
"^ 	c #C7D4C0",
"/ 	c #C6D4BF",
"( 	c #C6D4BE",
"_ 	c #C5D3BD",
": 	c #C5D4BC",
"< 	c #C4D3BB",
"[ 	c #C4D4BA",
"} 	c #B4C4AA",
"| 	c #F3F5F1",
"1 	c #D9DFD5",
"2 	c #DCE2D9",
"3 	c #DFE5DC",
"4 	c #E2E6DF",
"5 	c #E5E9E2",
"6 	c #E8ECE6",
"7 	c #EBEFE9",
"8 	c #EEF1EC",
"9 	c #F1F3EF",
"0 	c #F3F5F2",
"a 	c #F6F8F5",
"b 	c #F9FAF8",
"c 	c #FBFCFB",
"d 	c #FFFFFF",
"e 	c #FBFBFB",
"f 	c #F8F9F7",
"g 	c #F5F8F5",
"h 	c #F2F5F0",
"i 	c #EFF2ED",
"j 	c #EDF1EA",
"k 	c #E9EFE6",
"l 	c #E6ECE3",
"m 	c #E4EBE0",
"n 	c #E1E9DC",
"o 	c #DAE4D4",
"p 	c #B6C6AC",
"q 	c #C7D0C0",
"r 	c #5B764B",
"s 	c #5C794C",
"t 	c #5D7A4C",
"u 	c #5E7C4D",
"v 	c #5F7E4D",
"w 	c #5F7F4D",
"x 	c #60804D",
"y 	c #61824E",
"z 	c #62844E",
"A 	c #63864F",
"B 	c #638750",
"C 	c #658A50",
"D 	c #668B50",
"E 	c #668C50",
"F 	c #678E51",
"G 	c #689051",
"H 	c #699152",
"I 	c #699252",
"J 	c #64854E",
"K 	c #BFCBB7",
"L 	c #445B36",
"M 	c #212C1A",
"N 	c #445C36",
"O 	c #668D51",
"P 	c #6A9252",
"Q 	c #65864F",
"R 	c #B7C4AC",
"S 	c #5E7B4C",
"T 	c #8CA57D",
"U 	c #222E1B",
"V 	c #455E37",
"W 	c #699151",
"X 	c #648450",
"Y 	c #AFBEA5",
"Z 	c #607F4D",
"` 	c #4F6A3F",
" .	c #8DA57E",
"..	c #7A9869",
"+.	c #8AA47B",
"@.	c #506E41",
"#.	c #6A9353",
"$.	c #65854F",
"%.	c #8CA27C",
"&.	c #2D5715",
"*.	c #2C5615",
"=.	c #2D5815",
"-.	c #2F5B16",
";.	c #305D16",
">.	c #4B7235",
",.	c #5B8046",
"'.	c #316017",
").	c #122408",
"!.	c #326118",
"~.	c #60844C",
"{.	c #4B7733",
"].	c #346518",
"^.	c #356619",
"/.	c #366819",
"(.	c #36691A",
"_.	c #376B1A",
":.	c #386D1A",
"<.	c #386D19",
"[.	c #3C711C",
"}.	c #345E19",
"|.	c #819C6F",
"1.	c #305C16",
"2.	c #112108",
"3.	c #3B6F1C",
"4.	c #355E19",
"5.	c #769462",
"6.	c #315E16",
"7.	c #112208",
"8.	c #3A6E1B",
"9.	c #345D19",
"0.	c #6D8E57",
"a.	c #326117",
"b.	c #295013",
"c.	c #122308",
"d.	c #71935D",
"e.	c #2C5514",
"f.	c #3A6D1B",
"g.	c #63894B",
"h.	c #356618",
"i.	c #57803E",
"j.	c #254911",
"k.	c #537E3B",
"l.	c #396B1B",
"m.	c #335A19",
"n.	c #59823E",
"o.	c #376919",
"p.	c #5C8546",
"q.	c #254912",
"r.	c #5B8444",
"s.	c #38691A",
"t.	c #325918",
"u.	c #4D7C32",
"v.	c #5A8542",
"w.	c #6D9358",
"x.	c #5E8747",
"y.	c #37671A",
"z.	c #305617",
"A.	c #406E23",
"B.	c #36671A",
"C.	c #346419",
"D.	c #336219",
"E.	c #336118",
"F.	c #326018",
"G.	c #315F17",
"H.	c #315F16",
"I.	c #326017",
"J.	c #2D5015",
"K.	c #0E0E0E",
"L.	c #1C1D19",
"M.	c #595959",
"N.	c #5B5B5B",
"O.	c #5E5E5E",
"P.	c #5F5F5F",
"Q.	c #606060",
"R.	c #636363",
"S.	c #646464",
"T.	c #676767",
"U.	c #696969",
"V.	c #6B6B6B",
"W.	c #6C6C6C",
"X.	c #6D6D6D",
"Y.	c #6F6F6F",
"Z.	c #717171",
"`.	c #737373",
" +	c #757575",
".+	c #767676",
"++	c #797979",
"@+	c #7A7A7A",
"#+	c #7B7B7B",
"$+	c #7E7E7E",
"%+	c #7F7F7F",
"&+	c #7E7E7D",
"*+	c #2B2B2A",
"=+	c #2C2C2C",
"-+	c #2E2E2E",
";+	c #4C4C4B",
">+	c #232323",
",+	c #222222",
"'+	c #212121",
")+	c #242424",
"!+	c #272727",
"~+	c #292929",
"{+	c #2D2D2D",
"]+	c #1E1E1E",
"^+	c #1F1F1F",
"/+	c #1C1C1C",
"(+	c #252525",
"_+	c #1D1D1D",
":+	c #1B1B1B",
"<+	c #191919",
"[+	c #1A1A1A",
"}+	c #202020",
". + @ # $ % & * = - ; > , ' ) ! ~ { ] ^ / ( _ : < [ } ",
"| 1 2 3 4 5 6 7 8 9 0 a b c d e f g h i j k l m n o p ",
"q r r s s s t t u v w w x y y z A A B C D E F G H I J ",
"K s s t t t u v w w w x L M N A A B C D E O F G H P Q ",
"R S t u u v w w w x x L M T U V A C C D E O F G W P X ",
"Y Z v w w w w x y y ` U  ...+.U @.C D E E O F G W #.$.",
"%.&.*.*.=.-.-.-.-.;.>.,.'.).!.~.{.].^././.(._.:.<.[.}.",
"|.1.-.-.-.-.;.'.'.'.'.'.!.2.].].].^./././.(._.:.<.3.4.",
"5.6.;.'.'.'.'.'.!.!.].].].7.].^.^././././.(.(._.:.8.9.",
"0.a.'.!.!.].].].].].b.c.^.d.^.c.e././././.(.(.(._.f.9.",
"g.h.].^.^.^././././.i.j.c./.c.j.k./././././././.(.l.m.",
"n.o././.(.(.(.(.(.(.(.p.q.).j.r./././././././././.s.t.",
"u._._.:.:.:.:.:.:.:.:._.v.w.x.(./././././././.^.h.y.z.",
"A.h.B.B.B.B.B.B.B.^.^.^.^.C.C.D.D.E.E.E.E.F.F.G.H.I.J.",
"K.K.K.K.K.K.K.K.K.K.K.K.K.K.K.K.K.K.K.K.K.K.K.K.K.K.L.",
"M.M.N.O.P.Q.R.S.S.T.U.V.W.X.Y.Z.`.`. +.+++@+#+$+%+&+*+",
"=+=+=+=+=+=+=+=+=+=+=+=+=+=+=+=+=+=+=+=+=+=+=+=+=+-+;+",
">+>+>+>+>+>+>+>+>+>+>+>+>+>+>+>+>+,+'+'+'+'+'+)+!+~+{+",
"]+]+]+]+]+]+]+]+]+]+]+]+]+]+]+]+]+]+]+]+]+]+]+]+]+]+^+",
"/+/+/+/+/+/+/+/+/+/+/+/+/+]+'+>+)+)+)+(+)+)+'+_+/+/+/+",
":+:+:+:+:+:+:+:+_+^+'+>+>+)+)+)+)+)+)+)+)+)+)+)+,+/+:+",
"<+[+[+/+^+'+,+>+,+>+>+>+>+,+,+>+>+>+>+>+>+>+,+>+>+,+/+",
"^+^+}+}+}+}+}+}+'+}+}+}+}+}+}+}+}+}+}+}+}+}+}+}+}+}+^+",
"]+]+]+]+]+]+]+]+]+]+]+]+]+]+]+]+]+]+]+]+]+]+]+]+]+]+]+"};
