/* XPM */
static char * maximize_inactive_xpm[] = {
"27 24 144 2",
"  	c None",
". 	c #898A88",
"+ 	c #6B7167",
"@ 	c #6C7268",
"# 	c #6C7269",
"$ 	c #6D736A",
"% 	c #6E746B",
"& 	c #6E756B",
"* 	c #6F756C",
"= 	c #70766C",
"- 	c #71776E",
"; 	c #72776E",
"> 	c #72786E",
", 	c #73796F",
"' 	c #747A70",
") 	c #737A70",
"! 	c #737A6F",
"~ 	c #727A6E",
"{ 	c #727A6D",
"] 	c #71796C",
"^ 	c #717A6C",
"/ 	c #70796B",
"( 	c #707A6B",
"_ 	c #677062",
": 	c #8C8D8B",
"< 	c #7D807B",
"[ 	c #7E827D",
"} 	c #80847E",
"| 	c #828480",
"1 	c #848682",
"2 	c #858884",
"3 	c #878986",
"4 	c #8A8C89",
"5 	c #8D8E8D",
"6 	c #8F908E",
"7 	c #909190",
"8 	c #939393",
"9 	c #909090",
"0 	c #8E8F8E",
"a 	c #8B8D8A",
"b 	c #898B88",
"c 	c #888A86",
"d 	c #868984",
"e 	c #848882",
"f 	c #838781",
"g 	c #81867E",
"h 	c #7D837A",
"i 	c #687263",
"j 	c #72776F",
"k 	c #34442B",
"l 	c #35452B",
"m 	c #35462B",
"n 	c #36472C",
"o 	c #36482C",
"p 	c #36492C",
"q 	c #37492C",
"r 	c #374A2C",
"s 	c #384C2C",
"t 	c #394D2D",
"u 	c #394D2E",
"v 	c #3A4F2E",
"w 	c #3A502E",
"x 	c #3B512E",
"y 	c #3B532E",
"z 	c #3C532F",
"A 	c #3C542F",
"B 	c #6D746A",
"C 	c #3A512E",
"D 	c #687064",
"E 	c #646C5F",
"F 	c #4E5C47",
"G 	c #19310C",
"H 	c #19320C",
"I 	c #1B340C",
"J 	c #1B350C",
"K 	c #1C370D",
"L 	c #1D3A0D",
"M 	c #1E3A0E",
"N 	c #1F3B0E",
"O 	c #1F3C0E",
"P 	c #1F3D0E",
"Q 	c #203E0E",
"R 	c #21400F",
"S 	c #1A330C",
"T 	c #48583F",
"U 	c #203F0F",
"V 	c #425337",
"W 	c #19320B",
"X 	c #3C5031",
"Y 	c #364D2A",
"Z 	c #18300B",
"` 	c #314923",
" .	c #182F0B",
"..	c #2B461C",
"+.	c #182E0B",
"@.	c #233E14",
"#.	c #1D390E",
"$.	c #1D380E",
"%.	c #1D370D",
"&.	c #1C360D",
"*.	c #172B0A",
"=.	c #080808",
"-.	c #0E0E0D",
";.	c #595959",
">.	c #5B5B5B",
",.	c #5E5E5E",
"'.	c #5F5F5F",
").	c #606060",
"!.	c #636363",
"~.	c #646464",
"{.	c #676767",
"].	c #696969",
"^.	c #6B6B6B",
"/.	c #6C6C6C",
"(.	c #6D6D6D",
"_.	c #6F6F6F",
":.	c #717171",
"<.	c #737373",
"[.	c #757575",
"}.	c #767676",
"|.	c #797979",
"1.	c #7A7A7A",
"2.	c #7B7B7B",
"3.	c #7E7E7E",
"4.	c #7F7F7F",
"5.	c #202020",
"6.	c #2C2C2C",
"7.	c #2E2E2E",
"8.	c #4C4C4C",
"9.	c #232323",
"0.	c #222222",
"a.	c #212121",
"b.	c #242424",
"c.	c #272727",
"d.	c #292929",
"e.	c #2D2D2D",
"f.	c #1E1E1E",
"g.	c #1F1F1F",
"h.	c #1C1C1C",
"i.	c #252525",
"j.	c #1D1D1D",
"k.	c #1B1B1B",
"l.	c #191919",
"m.	c #1A1A1A",
". + @ # $ % & * = - ; > , ' ' ' ) ! ! ~ ~ { ] ^ / ( _ ",
": < [ } | 1 2 3 . 4 : 5 6 7 8 9 0 5 a b c d e f g h i ",
"j k k l l l m m n o p p q r r s t t u v w w x y z A s ",
"B l l m m m n o p p p q r r s t t u v w w C x y z A s ",
"D m m n n o p p p q q r r s t t t v v w w C x y z A r ",
"E o o p p p p q r r r r s t t t u v w w w C x y z A r ",
"F G G G H I I I I J J K K K K K L L M N N O P Q Q R S ",
"T I I I I I J K K K K K K K L L L M N N N O P Q Q U S ",
"V J J K K K K K K K L L L L L M M N N N N O O P Q Q W ",
"X K K K K L L L L L L M M M M N N N N N N O O O P P W ",
"Y L L M M M N N N N N N N N N N N N N N N N N N O O Z ",
"` N N N O O O O O O O O O O N N N N N N N N N N N N  .",
"..P P Q Q Q Q Q Q Q Q P P P O O N N N N N N N M M M +.",
"@.M N N N N N N N M M M M #.#.$.$.%.%.%.%.K K &.&.&.*.",
"=.=.=.=.=.=.=.=.=.=.=.=.=.=.=.=.=.=.=.=.=.=.=.=.=.=.-.",
";.;.>.,.'.).!.~.~.{.].^./.(._.:.<.<.[.}.|.1.2.3.4.3.5.",
"6.6.6.6.6.6.6.6.6.6.6.6.6.6.6.6.6.6.6.6.6.6.6.6.6.7.8.",
"9.9.9.9.9.9.9.9.9.9.9.9.9.9.9.9.9.0.a.a.a.a.a.b.c.d.e.",
"f.f.f.f.f.f.f.f.f.f.f.f.f.f.f.f.f.f.f.f.f.f.f.f.f.f.g.",
"h.h.h.h.h.h.h.h.h.h.h.h.h.f.a.9.b.b.b.i.b.b.a.j.h.h.h.",
"k.k.k.k.k.k.k.k.j.g.a.9.9.b.b.b.b.b.b.b.b.b.b.b.0.h.k.",
"l.m.m.h.g.a.0.9.0.9.9.9.9.0.0.9.9.9.9.9.9.9.0.9.9.0.h.",
"g.g.5.5.5.5.5.5.a.5.5.5.5.5.5.5.5.5.5.5.5.5.5.5.5.5.g.",
"f.f.f.f.f.f.f.f.f.f.f.f.f.f.f.f.f.f.f.f.f.f.f.f.f.f.f."};
