/* XPM */
static char * title_4_active_xpm[] = {
"77 24 88 1",
" 	c None",
".	c #848484",
"+	c #858585",
"@	c #868686",
"#	c #878787",
"$	c #888888",
"%	c #898989",
"&	c #8B8B8B",
"*	c #8D8D8D",
"=	c #8E8E8E",
"-	c #8F8F8F",
";	c #909090",
">	c #919191",
",	c #929292",
"'	c #939393",
")	c #949494",
"!	c #959595",
"~	c #969696",
"{	c #979797",
"]	c #989898",
"^	c #999999",
"/	c #9A9A9A",
"(	c #9B9B9B",
"_	c #9C9C9C",
":	c #9D9D9D",
"<	c #9E9E9E",
"[	c #9F9F9F",
"}	c #A1A1A1",
"|	c #595959",
"1	c #555555",
"2	c #585858",
"3	c #575757",
"4	c #565656",
"5	c #535353",
"6	c #525252",
"7	c #505050",
"8	c #4E4E4E",
"9	c #4C4C4C",
"0	c #494949",
"a	c #474747",
"b	c #454545",
"c	c #484848",
"d	c #4A4A4A",
"e	c #4D4D4D",
"f	c #515151",
"g	c #4F4F4F",
"h	c #4B4B4B",
"i	c #464646",
"j	c #444444",
"k	c #424242",
"l	c #3C3C3C",
"m	c #414141",
"n	c #404040",
"o	c #3E3E3E",
"p	c #393939",
"q	c #363636",
"r	c #343434",
"s	c #323232",
"t	c #303030",
"u	c #333333",
"v	c #3F3F3F",
"w	c #383838",
"x	c #3B3B3B",
"y	c #3D3D3D",
"z	c #313131",
"A	c #2F2F2F",
"B	c #3A3A3A",
"C	c #353535",
"D	c #2E2E2E",
"E	c #373737",
"F	c #2D2D2D",
"G	c #2C2C2C",
"H	c #2A2A2A",
"I	c #292929",
"J	c #2B2B2B",
"K	c #272727",
"L	c #282828",
"M	c #262626",
"N	c #242424",
"O	c #252525",
"P	c #232323",
"Q	c #222222",
"R	c #212121",
"S	c #202020",
"T	c #1F1F1F",
"U	c #1E1E1E",
"V	c #1D1D1D",
"W	c #1C1C1C",
"...............................................+@#$%%&&*=-;>,')!~{]^/(_:<[}}(",
"||||||||||||||||||||||||||||||||||||||||||||||||||||||||||||||||||||||||||||1",
"22222222222223223222222222222223222232222232323322223322222322222222223322222",
"44411111114111141141111111114114114111111114141414111411411111141111111411111",
"555555555555555555555555555555555555555555555567890abbbaacd9e7655555555555555",
"77ffffffffffff7ghijjjadegffffffffffffffffffgdklllllllllllllllllmdgfffffffffff",
"mnolpqqqqqrstttttttttttttuommmmmvwwxyoylxwutttttttttttttttttttttttzpommmmmmmm",
"vvvvvvolpqsAAAzqBlovoooypuACovvvvvywzAAAAAAsrqpxlyooooBAAAAAAAAAAAAAAzxvvvvvv",
"yyyyyyyyyyyyylyyyyyyyyyyyylzDEyyyyyyyylllyyyyyyyyyyyyyyAFFFFFFFFFFFFFFFAElyyy",
"xlxllllxxllxlxlxxxlxlllllxlwGFAwllllxxlllxxllxlllllxllxFFGFGFFFFGFGFFFGFGFwll",
"ppppppppppppwqszsrwppppppppCHHHHDCwppppppppppppppppErDHHHHHHHHHHHHHHHHHHHHHAw",
"EEEEEEEEEqsGIIIIIIIDCEEEEqrHIIIIIIIIGFzuCqqqqqCrzFIIIIIIIIJsqqEEqqCuAIIIIIIIH",
"CCCCrCCCCrrrCurusAHKKLJJIKKKKKKKKKKKKKKKKKKKKKKKKKKKKKKLDzrCrCCrrrCrrutLKKKKK",
"uuuuuuuuuuuuuuuuuuustLMMMMMMMMMMMMMMMMMLIHJJJJGGGGGJFtsuuuuuuuuuuuuuuuuzMMMMM",
"zzzzzzzzzzzzzzzzzzzzzzINNNNNNNNNMGAttzzzzzzzzzzzzzzzzzztAAAtzzzzzzzzzzzDNNNNN",
"DDDDDADDADDDDDAAAADADDDDFGGFFFDDDADAAADDAAAADDDDDDDDDHOPQQQQPLJFADDDDDDNQQPQP",
"GGGGGGGGGGGGGGGGGGGGGGGGGGGGGGGGGGGGGGGGGGGGGGGGGGJLMLIIILPRRRRRQNMKMPRRRRRRR",
"JJJJJJJJJJJJJJJJJJJJJJJJJJJJJJJJJJJJJJJJJJJJJJJJJJJJJJJJJJJIRSSSSSSSSSSSSSSSQ",
"IIIIIIIIIIIIIIIIIIIIIIIIIIIIIIIIIIIIIIIIIIIIIIIIIIIIIIIIIIIIIKPTUUUUUUUUUURMI",
"MMMMMMMMMMMMMMMMMMMMMMMMMMMMMMMMMMMMMMMMMMMMMMMMMMMMMMMMMMMMMMMMNQTVWWTQNOMMM",
"NNNNNNNNNNNNNNNNNNNNNNNNNNNNNNNNNNNNNNNNNNNNNNNNNNNNNNNNNNNNNNNNNNNNNNNNNNNNN",
"PQPPPQPPPPPPPPQPPPQPPPPPPPQPQPQPPPPPPPPPQPPPPPPPPPPPPPPPPPPPPQPPPPPPPPPQPPPPP",
"SSSRSSSSSSSSRSSSSSSSSSSSSSSSRSSSSSSSSSSRSRSRSSSSSSRSSRSSSSSSSSSRRSSSSSRSSSSSS",
"UUUUUUUUUUUUUUUUUUUUUUUUUUUUUUUUUUUUUUUUUUUUUUUUUUUUUUUUUUUUUUUUUUUUUUUUUUUUU"};
