/* XPM */
static char * close_pressed_xpm[] = {
"22 24 115 2",
"  	c #222222",
". 	c #5C5C5C",
"+ 	c #484848",
"@ 	c #464646",
"# 	c #444444",
"$ 	c #424242",
"% 	c #404040",
"& 	c #313131",
"* 	c #272727",
"= 	c #3E3E3E",
"- 	c #3A3A3A",
"; 	c #331919",
"> 	c #4C1818",
", 	c #682726",
"' 	c #682627",
") 	c #4A1818",
"! 	c #321919",
"~ 	c #3C3C3C",
"{ 	c #262626",
"] 	c #3F1616",
"^ 	c #97403E",
"/ 	c #B26B67",
"( 	c #B4847F",
"_ 	c #B3837F",
": 	c #B26967",
"< 	c #953F3C",
"[ 	c #3C1616",
"} 	c #3B3B3B",
"| 	c #2E2E2E",
"1 	c #36191A",
"2 	c #8A2929",
"3 	c #AD5552",
"4 	c #B05954",
"5 	c #AF5752",
"6 	c #AF5955",
"7 	c #AE5652",
"8 	c #8B2929",
"9 	c #341919",
"0 	c #383838",
"a 	c #252525",
"b 	c #5C1718",
"c 	c #9E2726",
"d 	c #AB3533",
"e 	c #AE4040",
"f 	c #AF4644",
"g 	c #B04744",
"h 	c #AE403F",
"i 	c #9C2625",
"j 	c #581415",
"k 	c #373737",
"l 	c #363636",
"m 	c #212121",
"n 	c #851B1C",
"o 	c #A72122",
"p 	c #AE2B2B",
"q 	c #B23332",
"r 	c #B33636",
"s 	c #B33737",
"t 	c #B02D2D",
"u 	c #A42424",
"v 	c #821919",
"w 	c #353535",
"x 	c #343434",
"y 	c #902222",
"z 	c #AE2829",
"A 	c #B23333",
"B 	c #B34140",
"C 	c #B34947",
"D 	c #B44948",
"E 	c #B54442",
"F 	c #AC2A29",
"G 	c #8E2220",
"H 	c #333333",
"I 	c #323232",
"J 	c #242424",
"K 	c #732929",
"L 	c #AE3333",
"M 	c #B34948",
"N 	c #B44D4B",
"O 	c #B45754",
"P 	c #B65955",
"Q 	c #B34F4C",
"R 	c #B44A49",
"S 	c #AC3534",
"T 	c #702525",
"U 	c #303030",
"V 	c #292929",
"W 	c #452627",
"X 	c #A84141",
"Y 	c #B35958",
"Z 	c #B56361",
"` 	c #B5716F",
" .	c #B67371",
"..	c #B56462",
"+.	c #B55B5B",
"@.	c #A54442",
"#.	c #422122",
"$.	c #232323",
"%.	c #5B3133",
"&.	c #A95E5E",
"*.	c #B26F6F",
"=.	c #B57C7C",
"-.	c #B27170",
";.	c #AA6260",
">.	c #592F2F",
",.	c #2D2D2D",
"'.	c #2C2C2C",
").	c #2A2A2A",
"!.	c #472D2E",
"~.	c #784E4E",
"{.	c #9A6D6D",
"].	c #996C6D",
"^.	c #764A4C",
"/.	c #45292A",
"(.	c #282828",
"                                            ",
". . . . . . . . . . . . . . . . . . . . . . ",
"+ + + + + + + + + + + + + + + + + + + + + + ",
"@ @ @ @ @ @ @ @ @ @ @ @ @ @ @ @ @ @ @ @ @ @ ",
"# # # # # # # # # # # # # # # # # # # # # # ",
"$ $ $ $ $ $ $ $ $ $ $ $ $ $ $ $ $ $ $ $ $ $ ",
"% % % % % % % % & *     * & % % % % % % % % ",
"= = = = = = - * ; > , ' ) ! * - = = = = = = ",
"~ ~ ~ ~ ~ ~ { ] ^ / ( _ : < [ { } ~ ~ ~ ~ ~ ",
"- - - - - | 1 2 3 4 5 5 6 7 8 9 | - - - - - ",
"0 0 0 0 0 a b c d e f g h d i j a k 0 0 0 0 ",
"l l l l l m n o p q r s q t u v m w l l l l ",
"x x x x x m y z A B C D E q F G m H x x x x ",
"I I I I I J K L M N O P Q R S T J & I I I I ",
"U U U U U V W X Y Z `  ...+.@.#.V U U U U U ",
"| | | | | | $.%.&.*.=.=.-.;.>.$.,.| | | | | ",
"'.'.'.'.'.'.).$.!.~.{.].^./.$.).'.'.'.'.'.'.",
").).).).).).).V a   m m   a V ).).).).).).).",
"(.(.(.(.(.(.(.(.(.* * * * (.(.(.(.(.(.(.(.(.",
"{ { { { { { { { { { { { { { { { { { { { { { ",
"J J J J J J J J J J J J J J J J J J J J J J ",
"                                            ",
"'.'.'.'.'.'.'.'.'.'.'.'.'.'.'.'.'.'.'.'.'.'.",
"                                            "};
