/* XPM */
static char * close_active_xpm[] = {
"22 24 117 2",
"  	c #222222",
". 	c #5C5C5C",
"+ 	c #484848",
"@ 	c #464646",
"# 	c #444444",
"$ 	c #424242",
"% 	c #404040",
"& 	c #313131",
"* 	c #272727",
"= 	c #3E3E3E",
"- 	c #3A3A3A",
"; 	c #391C1C",
"> 	c #5E1F1F",
", 	c #863433",
"' 	c #863334",
") 	c #5C1F1F",
"! 	c #371C1C",
"~ 	c #3C3C3C",
"{ 	c #262626",
"] 	c #4A1B1B",
"^ 	c #C65351",
"/ 	c #E38A85",
"( 	c #DEAAA3",
"_ 	c #DDA9A2",
": 	c #E38885",
"< 	c #C45250",
"[ 	c #461B1B",
"} 	c #3B3B3B",
"| 	c #2E2E2E",
"1 	c #3E1C1D",
"2 	c #B43636",
"3 	c #E1706A",
"4 	c #E6756F",
"5 	c #E5726D",
"6 	c #E57570",
"7 	c #E2716B",
"8 	c #B63636",
"9 	c #3B1C1C",
"0 	c #383838",
"a 	c #252525",
"b 	c #711D1F",
"c 	c #CE3433",
"d 	c #DF4644",
"e 	c #E45553",
"f 	c #E55C5A",
"g 	c #E65D5A",
"h 	c #E45653",
"i 	c #CC3332",
"j 	c #6D1A1B",
"k 	c #373737",
"l 	c #363636",
"m 	c #212121",
"n 	c #AB2425",
"o 	c #D82D2E",
"p 	c #E43C3C",
"q 	c #E84746",
"r 	c #EA4E4C",
"s 	c #EA4F4D",
"t 	c #E94947",
"u 	c #E44040",
"v 	c #D53031",
"w 	c #A82221",
"x 	c #353535",
"y 	c #343434",
"z 	c #B83131",
"A 	c #DE3D3E",
"B 	c #E84B4A",
"C 	c #EA5958",
"D 	c #EA615F",
"E 	c #EB6260",
"F 	c #EC5B59",
"G 	c #E74C4B",
"H 	c #DC3F3E",
"I 	c #B6302F",
"J 	c #333333",
"K 	c #323232",
"L 	c #242424",
"M 	c #8D3334",
"N 	c #DF4747",
"O 	c #E85D5C",
"P 	c #E96564",
"Q 	c #E96F6C",
"R 	c #EA706C",
"S 	c #E86765",
"T 	c #E75E5D",
"U 	c #DB4948",
"V 	c #892E2F",
"W 	c #303030",
"X 	c #292929",
"Y 	c #4C2B2C",
"Z 	c #D95452",
"` 	c #E66E6D",
" .	c #E97A78",
"..	c #E8807F",
"+.	c #E9817F",
"@.	c #E97A79",
"#.	c #E67070",
"$.	c #D75755",
"%.	c #492627",
"&.	c #232323",
"*.	c #6A3A3C",
"=.	c #DB7575",
"-.	c #E28584",
";.	c #E18D8E",
">.	c #E28686",
",.	c #DC7A78",
"'.	c #683737",
").	c #2D2D2D",
"!.	c #2C2C2C",
"~.	c #2A2A2A",
"{.	c #4E3233",
"].	c #965C5D",
"^.	c #C27778",
"/.	c #C27677",
"(.	c #94595B",
"_.	c #4C2E2F",
":.	c #282828",
"                                            ",
". . . . . . . . . . . . . . . . . . . . . . ",
"+ + + + + + + + + + + + + + + + + + + + + + ",
"@ @ @ @ @ @ @ @ @ @ @ @ @ @ @ @ @ @ @ @ @ @ ",
"# # # # # # # # # # # # # # # # # # # # # # ",
"$ $ $ $ $ $ $ $ $ $ $ $ $ $ $ $ $ $ $ $ $ $ ",
"% % % % % % % % & *     * & % % % % % % % % ",
"= = = = = = - * ; > , ' ) ! * - = = = = = = ",
"~ ~ ~ ~ ~ ~ { ] ^ / ( _ : < [ { } ~ ~ ~ ~ ~ ",
"- - - - - | 1 2 3 4 5 5 6 7 8 9 | - - - - - ",
"0 0 0 0 0 a b c d e f g h d i j a k 0 0 0 0 ",
"l l l l l m n o p q r s t u v w m x l l l l ",
"y y y y y m z A B C D E F G H I m J y y y y ",
"K K K K K L M N O P Q R S T U V L & K K K K ",
"W W W W W X Y Z `  ...+.@.#.$.%.X W W W W W ",
"| | | | | | &.*.=.-.;.;.>.,.'.&.).| | | | | ",
"!.!.!.!.!.!.~.&.{.].^./.(._.&.~.!.!.!.!.!.!.",
"~.~.~.~.~.~.~.X a   m m   a X ~.~.~.~.~.~.~.",
":.:.:.:.:.:.:.:.:.* * * * :.:.:.:.:.:.:.:.:.",
"{ { { { { { { { { { { { { { { { { { { { { { ",
"L L L L L L L L L L L L L L L L L L L L L L ",
"                                            ",
"!.!.!.!.!.!.!.!.!.!.!.!.!.!.!.!.!.!.!.!.!.!.",
"                                            "};
