/* XPM */
static char * hide_active_xpm[] = {
"22 24 111 2",
"  	c #222222",
". 	c #5C5C5C",
"+ 	c #484848",
"@ 	c #464646",
"# 	c #444444",
"$ 	c #424242",
"% 	c #404040",
"& 	c #313131",
"* 	c #272727",
"= 	c #3E3E3E",
"- 	c #3A3A3A",
"; 	c #212D1E",
"> 	c #2A431F",
", 	c #406430",
"' 	c #406230",
") 	c #29421E",
"! 	c #202D1D",
"~ 	c #3C3C3C",
"{ 	c #262626",
"] 	c #20351B",
"^ 	c #5F903E",
"/ 	c #90B860",
"( 	c #B2C9A2",
"_ 	c #B1C9A2",
": 	c #8EB75D",
"< 	c #5C8F3C",
"[ 	c #20341A",
"} 	c #3B3B3B",
"| 	c #2E2E2E",
"1 	c #22301E",
"2 	c #517B37",
"3 	c #7DB24A",
"4 	c #85C352",
"5 	c #82C355",
"6 	c #86C453",
"7 	c #537D37",
"8 	c #21301E",
"9 	c #383838",
"0 	c #252525",
"a 	c #2E4F1F",
"b 	c #588939",
"c 	c #6BA63E",
"d 	c #71B145",
"e 	c #74B444",
"f 	c #75B644",
"g 	c #72AD45",
"h 	c #68A43E",
"i 	c #588A38",
"j 	c #2F501E",
"k 	c #373737",
"l 	c #363636",
"m 	c #212121",
"n 	c #497630",
"o 	c #599636",
"p 	c #62A438",
"q 	c #6AAC3C",
"r 	c #6DAD41",
"s 	c #70AD41",
"t 	c #6CAB3D",
"u 	c #63A238",
"v 	c #5B9238",
"w 	c #487432",
"x 	c #353535",
"y 	c #343434",
"z 	c #517D37",
"A 	c #62A836",
"B 	c #6EB23A",
"C 	c #74B93B",
"D 	c #7ABD3D",
"E 	c #74B73D",
"F 	c #6BAF3D",
"G 	c #548036",
"H 	c #333333",
"I 	c #323232",
"J 	c #242424",
"K 	c #496834",
"L 	c #69AB3B",
"M 	c #78BC3A",
"N 	c #82C444",
"O 	c #8EC64E",
"P 	c #8CC650",
"Q 	c #84C244",
"R 	c #496933",
"S 	c #303030",
"T 	c #292929",
"U 	c #313F27",
"V 	c #72AB3F",
"W 	c #81BE42",
"X 	c #94C852",
"Y 	c #99C85B",
"Z 	c #9CC75E",
"` 	c #73AC40",
" .	c #232323",
"..	c #425630",
"+.	c #82B448",
"@.	c #9BC357",
"#.	c #A2CA64",
"$.	c #A2CB63",
"%.	c #95C258",
"&.	c #84B747",
"*.	c #425731",
"=.	c #2D2D2D",
"-.	c #2C2C2C",
";.	c #2A2A2A",
">.	c #37432D",
",.	c #617B43",
"'.	c #83A454",
").	c #83A355",
"!.	c #5F7A42",
"~.	c #37442C",
"{.	c #282828",
"                                            ",
". . . . . . . . . . . . . . . . . . . . . . ",
"+ + + + + + + + + + + + + + + + + + + + + + ",
"@ @ @ @ @ @ @ @ @ @ @ @ @ @ @ @ @ @ @ @ @ @ ",
"# # # # # # # # # # # # # # # # # # # # # # ",
"$ $ $ $ $ $ $ $ $ $ $ $ $ $ $ $ $ $ $ $ $ $ ",
"% % % % % % % % & *     * & % % % % % % % % ",
"= = = = = = - * ; > , ' ) ! * - = = = = = = ",
"~ ~ ~ ~ ~ ~ { ] ^ / ( _ : < [ { } ~ ~ ~ ~ ~ ",
"- - - - - | 1 2 3 4 5 5 6 3 7 8 | - - - - - ",
"9 9 9 9 9 0 a b c d e f g h i j 0 k 9 9 9 9 ",
"l l l l l m n o p q r s t u v w m x l l l l ",
"y y y y y m z A B C D D E F A G m H y y y y ",
"I I I I I J K L M N O P Q C L R J & I I I I ",
"S S S S S T U V W X Y Z X W ` U T S S S S S ",
"| | | | | |  ...+.@.#.$.%.&.*. .=.| | | | | ",
"-.-.-.-.-.-.;. .>.,.'.).!.~. .;.-.-.-.-.-.-.",
";.;.;.;.;.;.;.T 0   m m   0 T ;.;.;.;.;.;.;.",
"{.{.{.{.{.{.{.{.{.* * * * {.{.{.{.{.{.{.{.{.",
"{ { { { { { { { { { { { { { { { { { { { { { ",
"J J J J J J J J J J J J J J J J J J J J J J ",
"                                            ",
"-.-.-.-.-.-.-.-.-.-.-.-.-.-.-.-.-.-.-.-.-.-.",
"                                            "};
