/* XPM */
static char * hide_pressed_xpm[] = {
"22 24 113 2",
"  	c #222222",
". 	c #5C5C5C",
"+ 	c #484848",
"@ 	c #464646",
"# 	c #444444",
"$ 	c #424242",
"% 	c #404040",
"& 	c #313131",
"* 	c #272727",
"= 	c #3E3E3E",
"- 	c #3A3A3A",
"; 	c #1C281A",
"> 	c #23391A",
", 	c #335026",
"' 	c #344F26",
") 	c #223919",
"! 	c #1B281A",
"~ 	c #3C3C3C",
"{ 	c #262626",
"] 	c #1D2F17",
"^ 	c #547C38",
"/ 	c #86A15D",
"( 	c #90A381",
"_ 	c #8FA381",
": 	c #839F5B",
"< 	c #527B35",
"[ 	c #1D2E17",
"} 	c #3B3B3B",
"| 	c #2E2E2E",
"1 	c #1D2B1A",
"2 	c #41642C",
"3 	c #729949",
"4 	c #739F4B",
"5 	c #6D9C4A",
"6 	c #73A04B",
"7 	c #729849",
"8 	c #42652C",
"9 	c #1C2B1A",
"0 	c #383838",
"a 	c #252525",
"b 	c #26431A",
"c 	c #497230",
"d 	c #578833",
"e 	c #5E8F3C",
"f 	c #60923C",
"g 	c #61933D",
"h 	c #5E8D3A",
"i 	c #558633",
"j 	c #49732F",
"k 	c #274419",
"l 	c #373737",
"m 	c #363636",
"n 	c #212121",
"o 	c #3A6026",
"p 	c #497C2D",
"q 	c #51872E",
"r 	c #568D31",
"s 	c #5A8F35",
"t 	c #5C8F36",
"u 	c #598C31",
"v 	c #52852F",
"w 	c #49792E",
"x 	c #395F27",
"y 	c #353535",
"z 	c #343434",
"A 	c #42672D",
"B 	c #508A2C",
"C 	c #5B9331",
"D 	c #609535",
"E 	c #659639",
"F 	c #609437",
"G 	c #599132",
"H 	c #43682C",
"I 	c #333333",
"J 	c #323232",
"K 	c #242424",
"L 	c #3D562B",
"M 	c #558C30",
"N 	c #639734",
"O 	c #6D9C3F",
"P 	c #759D46",
"Q 	c #749D47",
"R 	c #6E9C3F",
"S 	c #3D592A",
"T 	c #303030",
"U 	c #292929",
"V 	c #2D3923",
"W 	c #5C8933",
"X 	c #6D973B",
"Y 	c #799F49",
"Z 	c #82A452",
"` 	c #84A453",
" .	c #6B973B",
"..	c #5C8A33",
"+.	c #232323",
"@.	c #3A4C2B",
"#.	c #6A8F3E",
"$.	c #7E9C4C",
"%.	c #84A156",
"&.	c #84A255",
"*.	c #7A9B4C",
"=.	c #6A903D",
"-.	c #3A4D2C",
";.	c #2D2D2D",
">.	c #2C2C2C",
",.	c #2A2A2A",
"'.	c #323D28",
").	c #536939",
"!.	c #6A8545",
"~.	c #6A8446",
"{.	c #516838",
"].	c #323E28",
"^.	c #282828",
"                                            ",
". . . . . . . . . . . . . . . . . . . . . . ",
"+ + + + + + + + + + + + + + + + + + + + + + ",
"@ @ @ @ @ @ @ @ @ @ @ @ @ @ @ @ @ @ @ @ @ @ ",
"# # # # # # # # # # # # # # # # # # # # # # ",
"$ $ $ $ $ $ $ $ $ $ $ $ $ $ $ $ $ $ $ $ $ $ ",
"% % % % % % % % & *     * & % % % % % % % % ",
"= = = = = = - * ; > , ' ) ! * - = = = = = = ",
"~ ~ ~ ~ ~ ~ { ] ^ / ( _ : < [ { } ~ ~ ~ ~ ~ ",
"- - - - - | 1 2 3 4 5 5 6 7 8 9 | - - - - - ",
"0 0 0 0 0 a b c d e f g h i j k a l 0 0 0 0 ",
"m m m m m n o p q r s t u v w x n y m m m m ",
"z z z z z n A B C D E E F G B H n I z z z z ",
"J J J J J K L M N O P Q R D M S K & J J J J ",
"T T T T T U V W X Y Z ` Y  ...V U T T T T T ",
"| | | | | | +.@.#.$.%.&.*.=.-.+.;.| | | | | ",
">.>.>.>.>.>.,.+.'.).!.~.{.].+.,.>.>.>.>.>.>.",
",.,.,.,.,.,.,.U a   n n   a U ,.,.,.,.,.,.,.",
"^.^.^.^.^.^.^.^.^.* * * * ^.^.^.^.^.^.^.^.^.",
"{ { { { { { { { { { { { { { { { { { { { { { ",
"K K K K K K K K K K K K K K K K K K K K K K ",
"                                            ",
">.>.>.>.>.>.>.>.>.>.>.>.>.>.>.>.>.>.>.>.>.>.",
"                                            "};
