/* XPM */
static char * maximize_toggled_active_xpm[] = {
"22 24 108 2",
"  	c #222222",
". 	c #5C5C5C",
"+ 	c #484848",
"@ 	c #464646",
"# 	c #444444",
"$ 	c #424242",
"% 	c #404040",
"& 	c #313131",
"* 	c #272727",
"= 	c #3E3E3E",
"- 	c #3A3A3A",
"; 	c #39281D",
"> 	c #53381D",
", 	c #6B562D",
"' 	c #6A552C",
") 	c #39271D",
"! 	c #3C3C3C",
"~ 	c #262626",
"{ 	c #452D19",
"] 	c #977F31",
"^ 	c #B7B34F",
"/ 	c #CCC590",
"( 	c #CCC592",
"_ 	c #B9B250",
": 	c #998031",
"< 	c #44301A",
"[ 	c #3B3B3B",
"} 	c #2E2E2E",
"| 	c #3C2A1E",
"1 	c #846B2F",
"2 	c #B2A33C",
"3 	c #BEB346",
"4 	c #C4B346",
"5 	c #C4B748",
"6 	c #C1B545",
"7 	c #B2A33A",
"8 	c #3E2B1E",
"9 	c #383838",
"0 	c #252525",
"a 	c #65451B",
"b 	c #9C7B2C",
"c 	c #B8962E",
"d 	c #C1A433",
"e 	c #C3A735",
"f 	c #C4AB36",
"g 	c #C2A234",
"h 	c #B69530",
"i 	c #9F7D2B",
"j 	c #373737",
"k 	c #363636",
"l 	c #212121",
"m 	c #7A5F26",
"n 	c #A88528",
"o 	c #B79429",
"p 	c #C2A02A",
"q 	c #C6A72C",
"r 	c #B99629",
"s 	c #7C6126",
"t 	c #353535",
"u 	c #343434",
"v 	c #816D2F",
"w 	c #B0952A",
"x 	c #C6AA2A",
"y 	c #CCB42C",
"z 	c #CEB630",
"A 	c #CDB52F",
"B 	c #CCB32A",
"C 	c #C4A92A",
"D 	c #B4992A",
"E 	c #333333",
"F 	c #323232",
"G 	c #242424",
"H 	c #6F5F2B",
"I 	c #BFA429",
"J 	c #CBB32D",
"K 	c #CEC236",
"L 	c #D1C541",
"M 	c #CFC341",
"N 	c #CEBE36",
"O 	c #CBB72D",
"P 	c #BBA52B",
"Q 	c #71602B",
"R 	c #303030",
"S 	c #292929",
"T 	c #463E22",
"U 	c #AFA12E",
"V 	c #CCBF30",
"W 	c #CFC741",
"X 	c #D0CE4C",
"Y 	c #D2CD4C",
"Z 	c #CBC231",
"` 	c #483E22",
" .	c #232323",
"..	c #5D5529",
"+.	c #B2AE32",
"@.	c #C8C33E",
"#.	c #CDCC49",
"$.	c #B6B131",
"%.	c #2D2D2D",
"&.	c #2C2C2C",
"*.	c #2A2A2A",
"=.	c #4A4326",
"-.	c #7F7B35",
";.	c #A7A93D",
">.	c #A6A73D",
",.	c #7F7A35",
"'.	c #4A4426",
").	c #282828",
"                                            ",
". . . . . . . . . . . . . . . . . . . . . . ",
"+ + + + + + + + + + + + + + + + + + + + + + ",
"@ @ @ @ @ @ @ @ @ @ @ @ @ @ @ @ @ @ @ @ @ @ ",
"# # # # # # # # # # # # # # # # # # # # # # ",
"$ $ $ $ $ $ $ $ $ $ $ $ $ $ $ $ $ $ $ $ $ $ ",
"% % % % % % % % & *     * & % % % % % % % % ",
"= = = = = = - * ; > , ' > ) * - = = = = = = ",
"! ! ! ! ! ! ~ { ] ^ / ( _ : < ~ [ ! ! ! ! ! ",
"- - - - - } | 1 2 3 4 5 6 7 1 8 } - - - - - ",
"9 9 9 9 9 0 a b c d e f g h i a 0 j 9 9 9 9 ",
"k k k k k l m n o p q q p r n s l t k k k k ",
"u u u u u l v w x y z A B C D v l E u u u u ",
"F F F F F G H I J K L M N O P Q G & F F F F ",
"R R R R R S T U V W X Y W Z U ` S R R R R R ",
"} } } } } }  ...+.@.#.#.@.$... .%.} } } } } ",
"&.&.&.&.&.&.*. .=.-.;.>.,.'. .*.&.&.&.&.&.&.",
"*.*.*.*.*.*.*.S 0   l l   0 S *.*.*.*.*.*.*.",
").).).).).).).).).* * * * ).).).).).).).).).",
"~ ~ ~ ~ ~ ~ ~ ~ ~ ~ ~ ~ ~ ~ ~ ~ ~ ~ ~ ~ ~ ~ ",
"G G G G G G G G G G G G G G G G G G G G G G ",
"                                            ",
"&.&.&.&.&.&.&.&.&.&.&.&.&.&.&.&.&.&.&.&.&.&.",
"                                            "};
