/* XPM */
static char * maximize_pressed_xpm[] = {
"22 24 112 2",
"  	c #222222",
". 	c #5C5C5C",
"+ 	c #484848",
"@ 	c #464646",
"# 	c #444444",
"$ 	c #424242",
"% 	c #404040",
"& 	c #313131",
"* 	c #272727",
"= 	c #3E3E3E",
"- 	c #3A3A3A",
"; 	c #361919",
"> 	c #531915",
", 	c #712D22",
"' 	c #712C21",
") 	c #361A19",
"! 	c #3C3C3C",
"~ 	c #262626",
"{ 	c #441613",
"] 	c #9C5133",
"^ 	c #B28661",
"/ 	c #B79382",
"( 	c #B69383",
"_ 	c #B48663",
": 	c #9C5234",
"< 	c #441713",
"[ 	c #3B3B3B",
"} 	c #2E2E2E",
"| 	c #391B19",
"1 	c #923820",
"2 	c #AE7451",
"3 	c #AF7C55",
"4 	c #B07652",
"5 	c #AF7853",
"6 	c #B07B54",
"7 	c #AD7351",
"8 	c #933920",
"9 	c #391A19",
"0 	c #383838",
"a 	c #252525",
"b 	c #661C12",
"c 	c #A13E24",
"d 	c #AB5235",
"e 	c #AE623F",
"f 	c #AE6645",
"g 	c #B06845",
"h 	c #AE6040",
"i 	c #AB5335",
"j 	c #A33F24",
"k 	c #661B12",
"l 	c #373737",
"m 	c #363636",
"n 	c #212121",
"o 	c #862D18",
"p 	c #A84224",
"q 	c #AE4E2C",
"r 	c #B05834",
"s 	c #B2603B",
"t 	c #AE502E",
"u 	c #862E19",
"v 	c #353535",
"w 	c #343434",
"x 	c #8D3C1F",
"y 	c #AB522B",
"z 	c #B35F37",
"A 	c #B6673D",
"B 	c #B76B41",
"C 	c #B66A41",
"D 	c #B5673C",
"E 	c #B35F35",
"F 	c #AD522B",
"G 	c #333333",
"H 	c #323232",
"I 	c #242424",
"J 	c #723921",
"K 	c #AE5B32",
"L 	c #B5683F",
"M 	c #B77749",
"N 	c #B77D52",
"O 	c #B87C51",
"P 	c #B77649",
"Q 	c #B56B3F",
"R 	c #AE5D32",
"S 	c #733A22",
"T 	c #303030",
"U 	c #292929",
"V 	c #452D1D",
"W 	c #A76336",
"X 	c #B57241",
"Y 	c #B77F52",
"Z 	c #B7895C",
"` 	c #B8875D",
" .	c #B87F52",
"..	c #B47541",
"+.	c #462D1D",
"@.	c #232323",
"#.	c #5D3C22",
"$.	c #AA7140",
"%.	c #B27D4E",
"&.	c #B4875C",
"*.	c #B5875B",
"=.	c #B27D4D",
"-.	c #AB7240",
";.	c #2D2D2D",
">.	c #2C2C2C",
",.	c #2A2A2A",
"'.	c #493221",
").	c #7C542D",
"!.	c #9B6F41",
"~.	c #9C7042",
"{.	c #7D542E",
"].	c #282828",
"                                            ",
". . . . . . . . . . . . . . . . . . . . . . ",
"+ + + + + + + + + + + + + + + + + + + + + + ",
"@ @ @ @ @ @ @ @ @ @ @ @ @ @ @ @ @ @ @ @ @ @ ",
"# # # # # # # # # # # # # # # # # # # # # # ",
"$ $ $ $ $ $ $ $ $ $ $ $ $ $ $ $ $ $ $ $ $ $ ",
"% % % % % % % % & *     * & % % % % % % % % ",
"= = = = = = - * ; > , ' > ) * - = = = = = = ",
"! ! ! ! ! ! ~ { ] ^ / ( _ : < ~ [ ! ! ! ! ! ",
"- - - - - } | 1 2 3 4 5 6 7 8 9 } - - - - - ",
"0 0 0 0 0 a b c d e f g h i j k a l 0 0 0 0 ",
"m m m m m n o p q r s s r t p u n v m m m m ",
"w w w w w n x y z A B C D E F x n G w w w w ",
"H H H H H I J K L M N O P Q R S I & H H H H ",
"T T T T T U V W X Y Z `  ...W +.U T T T T T ",
"} } } } } } @.#.$.%.&.*.=.-.#.@.;.} } } } } ",
">.>.>.>.>.>.,.@.'.).!.~.{.'.@.,.>.>.>.>.>.>.",
",.,.,.,.,.,.,.U a   n n   a U ,.,.,.,.,.,.,.",
"].].].].].].].].].* * * * ].].].].].].].].].",
"~ ~ ~ ~ ~ ~ ~ ~ ~ ~ ~ ~ ~ ~ ~ ~ ~ ~ ~ ~ ~ ~ ",
"I I I I I I I I I I I I I I I I I I I I I I ",
"                                            ",
">.>.>.>.>.>.>.>.>.>.>.>.>.>.>.>.>.>.>.>.>.>.",
"                                            "};
