/* XPM */
static char * maximize_toggled_prelight_xpm[] = {
"22 24 111 2",
"  	c #222222",
". 	c #5C5C5C",
"+ 	c #484848",
"@ 	c #464646",
"# 	c #444444",
"$ 	c #424242",
"% 	c #404040",
"& 	c #313131",
"* 	c #272727",
"= 	c #3E3E3E",
"- 	c #3A3A3A",
"; 	c #4C3E32",
"> 	c #7B6248",
", 	c #98845F",
"' 	c #97835E",
") 	c #4C3D32",
"! 	c #3C3C3C",
"~ 	c #262626",
"{ 	c #644E3B",
"] 	c #C3AD65",
"^ 	c #DFDD7C",
"/ 	c #E4DCAD",
"( 	c #E4DDAE",
"_ 	c #E0DD7D",
": 	c #C4AF65",
"< 	c #644F3B",
"[ 	c #3B3B3B",
"} 	c #2E2E2E",
"| 	c #4F3F33",
"1 	c #AF9961",
"2 	c #E0D56C",
"3 	c #E2D972",
"4 	c #E3D470",
"5 	c #E3D771",
"6 	c #E4DA71",
"7 	c #E0D46B",
"8 	c #B09962",
"9 	c #514033",
"0 	c #383838",
"a 	c #252525",
"b 	c #896B46",
"c 	c #C2A35E",
"d 	c #D9BB5E",
"e 	c #E1C761",
"f 	c #E3C962",
"g 	c #E4CD62",
"h 	c #E1C461",
"i 	c #D9BB5F",
"j 	c #C4A55D",
"k 	c #373737",
"l 	c #363636",
"m 	c #212121",
"n 	c #A68C58",
"o 	c #CCAC59",
"p 	c #D9BA59",
"q 	c #E1C359",
"r 	c #E5C959",
"s 	c #DABB59",
"t 	c #A78C58",
"u 	c #353535",
"v 	c #343434",
"w 	c #AA9760",
"x 	c #D4BC59",
"y 	c #E4CC59",
"z 	c #EAD459",
"A 	c #ECD55D",
"B 	c #EBD55C",
"C 	c #E3CB59",
"D 	c #D7BE59",
"E 	c #AA9860",
"F 	c #333333",
"G 	c #323232",
"H 	c #242424",
"I 	c #938353",
"J 	c #DFC759",
"K 	c #E8D25B",
"L 	c #ECE062",
"M 	c #EDE26B",
"N 	c #ECE16B",
"O 	c #ECDD62",
"P 	c #E8D65B",
"Q 	c #DCC85A",
"R 	c #948453",
"S 	c #303030",
"T 	c #292929",
"U 	c #5B5237",
"V 	c #D6C95E",
"W 	c #EADE5D",
"X 	c #ECE56B",
"Y 	c #ECEB74",
"Z 	c #EDE974",
"` 	c #E8E05F",
" .	c #D5C95F",
"..	c #232323",
"+.	c #797248",
"@.	c #DAD663",
"#.	c #E6E269",
"$.	c #EAE871",
"%.	c #EAE971",
"&.	c #DDD962",
"*.	c #7A7348",
"=.	c #2D2D2D",
"-.	c #2C2C2C",
";.	c #2A2A2A",
">.	c #5D573B",
",.	c #9F9B5C",
"'.	c #C8CA69",
").	c #C8C969",
"!.	c #9F9B5D",
"~.	c #5D583B",
"{.	c #282828",
"                                            ",
". . . . . . . . . . . . . . . . . . . . . . ",
"+ + + + + + + + + + + + + + + + + + + + + + ",
"@ @ @ @ @ @ @ @ @ @ @ @ @ @ @ @ @ @ @ @ @ @ ",
"# # # # # # # # # # # # # # # # # # # # # # ",
"$ $ $ $ $ $ $ $ $ $ $ $ $ $ $ $ $ $ $ $ $ $ ",
"% % % % % % % % & *     * & % % % % % % % % ",
"= = = = = = - * ; > , ' > ) * - = = = = = = ",
"! ! ! ! ! ! ~ { ] ^ / ( _ : < ~ [ ! ! ! ! ! ",
"- - - - - } | 1 2 3 4 5 6 7 8 9 } - - - - - ",
"0 0 0 0 0 a b c d e f g h i j b a k 0 0 0 0 ",
"l l l l l m n o p q r r q s o t m u l l l l ",
"v v v v v m w x y z A B z C D E m F v v v v ",
"G G G G G H I J K L M N O P Q R H & G G G G ",
"S S S S S T U V W X Y Z X `  .U T S S S S S ",
"} } } } } } ..+.@.#.$.%.#.&.*...=.} } } } } ",
"-.-.-.-.-.-.;...>.,.'.).!.~...;.-.-.-.-.-.-.",
";.;.;.;.;.;.;.T a   m m   a T ;.;.;.;.;.;.;.",
"{.{.{.{.{.{.{.{.{.* * * * {.{.{.{.{.{.{.{.{.",
"~ ~ ~ ~ ~ ~ ~ ~ ~ ~ ~ ~ ~ ~ ~ ~ ~ ~ ~ ~ ~ ~ ",
"H H H H H H H H H H H H H H H H H H H H H H ",
"                                            ",
"-.-.-.-.-.-.-.-.-.-.-.-.-.-.-.-.-.-.-.-.-.-.",
"                                            "};
