/* XPM */
static char * maximize_inactive_xpm[] = {
"22 24 69 1",
" 	c #222222",
".	c #474747",
"+	c #363636",
"@	c #353535",
"#	c #343434",
"$	c #333333",
"%	c #323232",
"&	c #2A2A2A",
"*	c #242424",
"=	c #212121",
"-	c #313131",
";	c #2F2F2F",
">	c #2D2D2D",
",	c #3D3D3D",
"'	c #595959",
")	c #2E2E2E",
"!	c #303030",
"~	c #7F7F7F",
"{	c #9D9D9D",
"]	c #A9A9A9",
"^	c #AAAAAA",
"/	c #9E9E9E",
"(	c #282828",
"_	c #6E6E6E",
":	c #919191",
"<	c #989898",
"[	c #9B9B9B",
"}	c #999999",
"|	c #232323",
"1	c #434343",
"2	c #777777",
"3	c #898989",
"4	c #959595",
"5	c #787878",
"6	c #5F5F5F",
"7	c #7C7C7C",
"8	c #868686",
"9	c #8C8C8C",
"0	c #606060",
"a	c #2C2C2C",
"b	c #676767",
"c	c #838383",
"d	c #8F8F8F",
"e	c #949494",
"f	c #979797",
"g	c #969696",
"h	c #939393",
"i	c #848484",
"j	c #696969",
"k	c #2B2B2B",
"l	c #525252",
"m	c #8A8A8A",
"n	c #9C9C9C",
"o	c #A2A2A2",
"p	c #535353",
"q	c #252525",
"r	c #383838",
"s	c #878787",
"t	c #A3A3A3",
"u	c #A7A7A7",
"v	c #393939",
"w	c #292929",
"x	c #444444",
"y	c #8E8E8E",
"z	c #A5A5A5",
"A	c #A6A6A6",
"B	c #272727",
"C	c #3C3C3C",
"D	c #262626",
"                      ",
"......................",
"++++++++++++++++++++++",
"@@@@@@@@@@@@@@@@@@@@@@",
"######################",
"$$$$$$$$$$$$$$$$$$$$$$",
"%%%%%%%%&*==*&%%%%%%%%",
"------;*>,'',>*)------",
"!!!!!!*;~{]^/~;*;!!!!!",
";;;;;(;_:<[[}:_;(;;;;;",
")))))|123:44:351|>))))",
">>>>>=6789::9870=a>>>>",
"aaaaa=bcdefghdij=kaaaa",
"kkkkk|lm4noon43p|&kkkk",
"&&&&&qrsgtu]t4svq&&&&&",
"wwwwww xy{zA{yx (wwwww",
"((((((B C08s0C B((((((",
"BBBBBBBD* == *DBBBBBBB",
"DDDDDDDDDqqqqDDDDDDDDD",
"qqqqqqqqqqqqqqqqqqqqqq",
"**********************",
"||||||||||||||||||||||",
"aaaaaaaaaaaaaaaaaaaaaa",
"                      "};
