/* XPM */
static char * maximize_active_xpm[] = {
"22 24 116 2",
"  	c #222222",
". 	c #5C5C5C",
"+ 	c #484848",
"@ 	c #464646",
"# 	c #444444",
"$ 	c #424242",
"% 	c #404040",
"& 	c #313131",
"* 	c #272727",
"= 	c #3E3E3E",
"- 	c #3A3A3A",
"; 	c #3D1C1C",
"> 	c #66201B",
", 	c #933B2C",
"' 	c #933A2C",
") 	c #3D1D1C",
"! 	c #3C3C3C",
"~ 	c #262626",
"{ 	c #501B18",
"] 	c #C7643F",
"^ 	c #DDA075",
"/ 	c #E4BBA9",
"( 	c #E1BBAA",
"_ 	c #DFA077",
": 	c #C76541",
"< 	c #501C18",
"[ 	c #3B3B3B",
"} 	c #2E2E2E",
"| 	c #401F1C",
"1 	c #BE4A2A",
"2 	c #D8855A",
"3 	c #DF9768",
"4 	c #E69A6C",
"5 	c #E59E6E",
"6 	c #E09767",
"7 	c #D7845A",
"8 	c #BF4B2B",
"9 	c #401E1C",
"0 	c #383838",
"a 	c #252525",
"b 	c #7D2317",
"c 	c #D2512F",
"d 	c #DE6D46",
"e 	c #E38052",
"f 	c #E4875B",
"g 	c #E6895B",
"h 	c #E37E54",
"i 	c #DE6E46",
"j 	c #D4522F",
"k 	c #7E2217",
"l 	c #373737",
"m 	c #363636",
"n 	c #212121",
"o 	c #AE3B20",
"p 	c #DC582F",
"q 	c #E3673C",
"r 	c #E6794A",
"s 	c #E88250",
"t 	c #E88150",
"u 	c #E67A4A",
"v 	c #E2693E",
"w 	c #AE3C21",
"x 	c #353535",
"y 	c #343434",
"z 	c #B64E2A",
"A 	c #DF6B39",
"B 	c #E97C48",
"C 	c #ED8851",
"D 	c #EF8C56",
"E 	c #EE8B55",
"F 	c #EC8750",
"G 	c #E97C46",
"H 	c #E16B39",
"I 	c #333333",
"J 	c #323232",
"K 	c #242424",
"L 	c #8B4729",
"M 	c #E47842",
"N 	c #EA8952",
"O 	c #ED955D",
"P 	c #ED9B63",
"Q 	c #EE9B63",
"R 	c #ED965C",
"S 	c #EA8B51",
"T 	c #E27A42",
"U 	c #8D482A",
"V 	c #303030",
"W 	c #292929",
"X 	c #4C3222",
"Y 	c #DB8147",
"Z 	c #E79254",
"` 	c #EC9E64",
" .	c #EBA56C",
"..	c #ECA46D",
"+.	c #EC9E63",
"@.	c #E79654",
"#.	c #4D3222",
"$.	c #232323",
"%.	c #6C4629",
"&.	c #DD9353",
"*.	c #E39D63",
"=.	c #E6AA72",
"-.	c #E7AA71",
";.	c #E49D62",
">.	c #DD9454",
",.	c #6C4628",
"'.	c #2D2D2D",
").	c #2C2C2C",
"!.	c #2A2A2A",
"~.	c #503726",
"{.	c #986738",
"].	c #C89055",
"^.	c #C99156",
"/.	c #996839",
"(.	c #503826",
"_.	c #282828",
"                                            ",
". . . . . . . . . . . . . . . . . . . . . . ",
"+ + + + + + + + + + + + + + + + + + + + + + ",
"@ @ @ @ @ @ @ @ @ @ @ @ @ @ @ @ @ @ @ @ @ @ ",
"# # # # # # # # # # # # # # # # # # # # # # ",
"$ $ $ $ $ $ $ $ $ $ $ $ $ $ $ $ $ $ $ $ $ $ ",
"% % % % % % % % & *     * & % % % % % % % % ",
"= = = = = = - * ; > , ' > ) * - = = = = = = ",
"! ! ! ! ! ! ~ { ] ^ / ( _ : < ~ [ ! ! ! ! ! ",
"- - - - - } | 1 2 3 4 5 6 7 8 9 } - - - - - ",
"0 0 0 0 0 a b c d e f g h i j k a l 0 0 0 0 ",
"m m m m m n o p q r s t u v p w n x m m m m ",
"y y y y y n z A B C D E F G H z n I y y y y ",
"J J J J J K L M N O P Q R S T U K & J J J J ",
"V V V V V W X Y Z `  ...+.@.Y #.W V V V V V ",
"} } } } } } $.%.&.*.=.-.;.>.,.$.'.} } } } } ",
").).).).).).!.$.~.{.].^./.(.$.!.).).).).).).",
"!.!.!.!.!.!.!.W a   n n   a W !.!.!.!.!.!.!.",
"_._._._._._._._._.* * * * _._._._._._._._._.",
"~ ~ ~ ~ ~ ~ ~ ~ ~ ~ ~ ~ ~ ~ ~ ~ ~ ~ ~ ~ ~ ~ ",
"K K K K K K K K K K K K K K K K K K K K K K ",
"                                            ",
").).).).).).).).).).).).).).).).).).).).).).",
"                                            "};
