/* XPM */
static char * maximize_prelight_xpm[] = {
"22 24 112 2",
"  	c #222222",
". 	c #5C5C5C",
"+ 	c #484848",
"@ 	c #464646",
"# 	c #444444",
"$ 	c #424242",
"% 	c #404040",
"& 	c #313131",
"* 	c #272727",
"= 	c #3E3E3E",
"- 	c #3A3A3A",
"; 	c #503232",
"> 	c #884F49",
", 	c #B26E63",
"' 	c #B26E62",
") 	c #503332",
"! 	c #3C3C3C",
"~ 	c #262626",
"{ 	c #6C3E3B",
"] 	c #DF9477",
"^ 	c #F2C8A5",
"/ 	c #F3D2C4",
"( 	c #F0D2C5",
"_ 	c #F4C7A5",
": 	c #DF9578",
"< 	c #6C3F3B",
"[ 	c #3B3B3B",
"} 	c #2E2E2E",
"| 	c #543532",
"1 	c #D57C63",
"2 	c #F2B894",
"3 	c #F4BF99",
"4 	c #F5BA96",
"5 	c #F4BC98",
"6 	c #F5BE99",
"7 	c #F0B794",
"8 	c #D67D64",
"9 	c #543432",
"0 	c #383838",
"a 	c #252525",
"b 	c #9B5146",
"c 	c #E58268",
"d 	c #EE9779",
"e 	c #F2A582",
"f 	c #F3AB89",
"g 	c #F5AC89",
"h 	c #F2A384",
"i 	c #EE9879",
"j 	c #E68268",
"k 	c #373737",
"l 	c #363636",
"m 	c #212121",
"n 	c #C76E59",
"o 	c #EC8768",
"p 	c #F29270",
"q 	c #F59B78",
"r 	c #F5A37F",
"s 	c #F19372",
"t 	c #C76F5A",
"u 	c #353535",
"v 	c #343434",
"w 	c #CE7D61",
"x 	c #EE956F",
"y 	c #F6A37A",
"z 	c #F9AC81",
"A 	c #FBAE86",
"B 	c #FAAD85",
"C 	c #F8AC80",
"D 	c #F6A379",
"E 	c #F0956F",
"F 	c #333333",
"G 	c #323232",
"H 	c #242424",
"I 	c #A76E55",
"J 	c #F39F76",
"K 	c #F8AC82",
"L 	c #FBBC8E",
"M 	c #FBC196",
"N 	c #FCBF94",
"O 	c #FBBA8E",
"P 	c #F8AF82",
"Q 	c #F1A276",
"R 	c #A86F56",
"S 	c #303030",
"T 	c #292929",
"U 	c #5F4638",
"V 	c #ECA679",
"W 	c #F8B586",
"X 	c #FBC396",
"Y 	c #FBCCA1",
"Z 	c #FCCBA2",
"` 	c #FCC395",
" .	c #F7B986",
"..	c #604638",
"+.	c #232323",
"@.	c #85644B",
"#.	c #EDB583",
"$.	c #F5C192",
"%.	c #F7CBA0",
"&.	c #F8CB9F",
"*.	c #F5C191",
"=.	c #EEB584",
"-.	c #85644A",
";.	c #2D2D2D",
">.	c #2C2C2C",
",.	c #2A2A2A",
"'.	c #624B3C",
").	c #B18962",
"!.	c #DCB082",
"~.	c #DDB183",
"{.	c #B28963",
"].	c #282828",
"                                            ",
". . . . . . . . . . . . . . . . . . . . . . ",
"+ + + + + + + + + + + + + + + + + + + + + + ",
"@ @ @ @ @ @ @ @ @ @ @ @ @ @ @ @ @ @ @ @ @ @ ",
"# # # # # # # # # # # # # # # # # # # # # # ",
"$ $ $ $ $ $ $ $ $ $ $ $ $ $ $ $ $ $ $ $ $ $ ",
"% % % % % % % % & *     * & % % % % % % % % ",
"= = = = = = - * ; > , ' > ) * - = = = = = = ",
"! ! ! ! ! ! ~ { ] ^ / ( _ : < ~ [ ! ! ! ! ! ",
"- - - - - } | 1 2 3 4 5 6 7 8 9 } - - - - - ",
"0 0 0 0 0 a b c d e f g h i j b a k 0 0 0 0 ",
"l l l l l m n o p q r r q s o t m u l l l l ",
"v v v v v m w x y z A B C D E w m F v v v v ",
"G G G G G H I J K L M N O P Q R H & G G G G ",
"S S S S S T U V W X Y Z `  .V ..T S S S S S ",
"} } } } } } +.@.#.$.%.&.*.=.-.+.;.} } } } } ",
">.>.>.>.>.>.,.+.'.).!.~.{.'.+.,.>.>.>.>.>.>.",
",.,.,.,.,.,.,.T a   m m   a T ,.,.,.,.,.,.,.",
"].].].].].].].].].* * * * ].].].].].].].].].",
"~ ~ ~ ~ ~ ~ ~ ~ ~ ~ ~ ~ ~ ~ ~ ~ ~ ~ ~ ~ ~ ~ ",
"H H H H H H H H H H H H H H H H H H H H H H ",
"                                            ",
">.>.>.>.>.>.>.>.>.>.>.>.>.>.>.>.>.>.>.>.>.>.",
"                                            "};
