/* XPM */
static char * menu_pressed_xpm[] = {
"22 24 109 2",
"  	c #222222",
". 	c #5C5C5C",
"+ 	c #484848",
"@ 	c #464646",
"# 	c #444444",
"$ 	c #424242",
"% 	c #404040",
"& 	c #313131",
"* 	c #272727",
"= 	c #3E3E3E",
"- 	c #3A3A3A",
"; 	c #1A1C28",
"> 	c #1C253F",
", 	c #2B385B",
"' 	c #2A385A",
") 	c #1B243F",
"! 	c #1A1C29",
"~ 	c #3C3C3C",
"{ 	c #262626",
"] 	c #181E31",
"^ 	c #475E85",
"/ 	c #7791AA",
"( 	c #8992A6",
"_ 	c #748FA9",
": 	c #435B85",
"< 	c #3B3B3B",
"[ 	c #2E2E2E",
"} 	c #1A1D2C",
"| 	c #314873",
"1 	c #607EA1",
"2 	c #6480A6",
"3 	c #617BA4",
"4 	c #6480A7",
"5 	c #314975",
"6 	c #1A1D2D",
"7 	c #383838",
"8 	c #252525",
"9 	c #1B2849",
"0 	c #375182",
"a 	c #436090",
"b 	c #4F6997",
"c 	c #526D9A",
"d 	c #526E9B",
"e 	c #4D6996",
"f 	c #435F8E",
"g 	c #374F82",
"h 	c #1A294A",
"i 	c #373737",
"j 	c #363636",
"k 	c #212121",
"l 	c #293E6C",
"m 	c #36518A",
"n 	c #3E5A91",
"o 	c #416094",
"p 	c #496497",
"q 	c #496696",
"r 	c #426294",
"s 	c #3E5B8F",
"t 	c #365289",
"u 	c #2A3C6B",
"v 	c #353535",
"w 	c #343434",
"x 	c #314575",
"y 	c #3D5992",
"z 	c #44659A",
"A 	c #496B9C",
"B 	c #4E709E",
"C 	c #446399",
"D 	c #3C5993",
"E 	c #304775",
"F 	c #333333",
"G 	c #323232",
"H 	c #242424",
"I 	c #2D4060",
"J 	c #415E94",
"K 	c #496E9E",
"L 	c #5678A4",
"M 	c #5D80A5",
"N 	c #5E80A5",
"O 	c #5579A4",
"P 	c #2D4062",
"Q 	c #303030",
"R 	c #292929",
"S 	c #242E3B",
"T 	c #436591",
"U 	c #52779F",
"V 	c #6084A5",
"W 	c #6D8DAB",
"X 	c #6F90AA",
"Y 	c #52769F",
"Z 	c #466592",
"` 	c #232F3C",
" .	c #232323",
"..	c #2D3C51",
"+.	c #527497",
"@.	c #6389A4",
"#.	c #7090A8",
"$.	c #6385A4",
"%.	c #2D3D52",
"&.	c #2D2D2D",
"*.	c #2C2C2C",
"=.	c #2A2A2A",
"-.	c #283440",
";.	c #40586F",
">.	c #57758D",
",.	c #58748C",
"'.	c #3F566F",
").	c #293340",
"!.	c #282828",
"                                            ",
". . . . . . . . . . . . . . . . . . . . . . ",
"+ + + + + + + + + + + + + + + + + + + + + + ",
"@ @ @ @ @ @ @ @ @ @ @ @ @ @ @ @ @ @ @ @ @ @ ",
"# # # # # # # # # # # # # # # # # # # # # # ",
"$ $ $ $ $ $ $ $ $ $ $ $ $ $ $ $ $ $ $ $ $ $ ",
"% % % % % % % % & *     * & % % % % % % % % ",
"= = = = = = - * ; > , ' ) ! * - = = = = = = ",
"~ ~ ~ ~ ~ ~ { ] ^ / ( ( _ : ] { < ~ ~ ~ ~ ~ ",
"- - - - - [ } | 1 2 3 3 4 1 5 6 [ - - - - - ",
"7 7 7 7 7 8 9 0 a b c d e f g h 8 i 7 7 7 7 ",
"j j j j j k l m n o p q r s t u k v j j j j ",
"w w w w w k x y z A B B A C D E k F w w w w ",
"G G G G G H I J K L M N O A J P H & G G G G ",
"Q Q Q Q Q R S T U V W X V Y Z ` R Q Q Q Q Q ",
"[ [ [ [ [ [  ...+.@.#.X $.+.%. .&.[ [ [ [ [ ",
"*.*.*.*.*.*.=. .-.;.>.,.'.). .=.*.*.*.*.*.*.",
"=.=.=.=.=.=.=.R 8   k k   8 R =.=.=.=.=.=.=.",
"!.!.!.!.!.!.!.!.!.* * * * !.!.!.!.!.!.!.!.!.",
"{ { { { { { { { { { { { { { { { { { { { { { ",
"H H H H H H H H H H H H H H H H H H H H H H ",
"                                            ",
"*.*.*.*.*.*.*.*.*.*.*.*.*.*.*.*.*.*.*.*.*.*.",
"                                            "};
