/* XPM */
static char * menu_active_xpm[] = {
"22 24 114 2",
"  	c #222222",
". 	c #5C5C5C",
"+ 	c #484848",
"@ 	c #464646",
"# 	c #444444",
"$ 	c #424242",
"% 	c #404040",
"& 	c #313131",
"* 	c #272727",
"= 	c #3E3E3E",
"- 	c #3A3A3A",
"; 	c #272728",
"> 	c #212531",
", 	c #273351",
"' 	c #394976",
") 	c #394A75",
"! 	c #273252",
"~ 	c #212633",
"{ 	c #3C3C3C",
"] 	c #262626",
"^ 	c #1F263D",
"/ 	c #556FA1",
"( 	c #82A0C1",
"_ 	c #AFBAD0",
": 	c #AEB9D0",
"< 	c #7E9DBF",
"[ 	c #536EA0",
"} 	c #20273E",
"| 	c #3B3B3B",
"1 	c #2E2E2E",
"2 	c #1E2231",
"3 	c #415E93",
"4 	c #7397C5",
"5 	c #7EA1D1",
"6 	c #7FA1D6",
"7 	c #7EA1D2",
"8 	c #405E96",
"9 	c #1E2232",
"0 	c #383838",
"a 	c #252525",
"b 	c #22325A",
"c 	c #4969AA",
"d 	c #597EBC",
"e 	c #678AC6",
"f 	c #6B8EC9",
"g 	c #6C8FCA",
"h 	c #658AC5",
"i 	c #597CBA",
"j 	c #4867AA",
"k 	c #21335B",
"l 	c #373737",
"m 	c #363636",
"n 	c #212121",
"o 	c #36518C",
"p 	c #4769B5",
"q 	c #5176BD",
"r 	c #577DC3",
"s 	c #5F83C6",
"t 	c #5F86C5",
"u 	c #5880C2",
"v 	c #5178BB",
"w 	c #476BB3",
"x 	c #374F8B",
"y 	c #353535",
"z 	c #343434",
"A 	c #415A98",
"B 	c #5174BE",
"C 	c #5A84C9",
"D 	c #618DCD",
"E 	c #6693CF",
"F 	c #618CCB",
"G 	c #5A81C8",
"H 	c #5074BF",
"I 	c #405D99",
"J 	c #333333",
"K 	c #323232",
"L 	c #242424",
"M 	c #385076",
"N 	c #557BC2",
"O 	c #6290CE",
"P 	c #6E9AD2",
"Q 	c #79A6D8",
"R 	c #7AA6D8",
"S 	c #6D9BD1",
"T 	c #375078",
"U 	c #303030",
"V 	c #292929",
"W 	c #293342",
"X 	c #5984BD",
"Y 	c #6A9BCF",
"Z 	c #78A6D3",
"` 	c #83ADD7",
" .	c #85AED5",
"..	c #6A99CF",
"+.	c #5C85BE",
"@.	c #283443",
"#.	c #232323",
"$.	c #34465E",
"%.	c #6D98C5",
"&.	c #7AABD0",
"*.	c #8BB2D6",
"=.	c #89B2D7",
"-.	c #79A7CF",
";.	c #344760",
">.	c #2D2D2D",
",.	c #2C2C2C",
"'.	c #2A2A2A",
").	c #2D3A47",
"!.	c #506D88",
"~.	c #6F94B3",
"{.	c #7094B3",
"].	c #4F6B88",
"^.	c #2E3947",
"/.	c #282828",
"                                            ",
". . . . . . . . . . . . . . . . . . . . . . ",
"+ + + + + + + + + + + + + + + + + + + + + + ",
"@ @ @ @ @ @ @ @ @ @ @ @ @ @ @ @ @ @ @ @ @ @ ",
"# # # # # # # # # # # # # # # # # # # # # # ",
"$ $ $ $ $ $ $ $ $ $ $ $ $ $ $ $ $ $ $ $ $ $ ",
"% % % % % % % % & *     * & % % % % % % % % ",
"= = = = = = - ; > , ' ) ! ~ ; - = = = = = = ",
"{ { { { { { ] ^ / ( _ : < [ } ] | { { { { { ",
"- - - - - 1 2 3 4 5 6 6 7 4 8 9 1 - - - - - ",
"0 0 0 0 0 a b c d e f g h i j k a l 0 0 0 0 ",
"m m m m m n o p q r s t u v w x n y m m m m ",
"z z z z z n A B C D E E F G H I n J z z z z ",
"K K K K K L M N O P Q R S D N T L & K K K K ",
"U U U U U V W X Y Z `  .Z ..+.@.V U U U U U ",
"1 1 1 1 1 1 #.$.%.&.*.=.-.%.;.#.>.1 1 1 1 1 ",
",.,.,.,.,.,.'.#.).!.~.{.].^.#.'.,.,.,.,.,.,.",
"'.'.'.'.'.'.'.V a   n n   a V '.'.'.'.'.'.'.",
"/././././././././.* * * * /././././././././.",
"] ] ] ] ] ] ] ] ] ] ] ] ] ] ] ] ] ] ] ] ] ] ",
"L L L L L L L L L L L L L L L L L L L L L L ",
"                                            ",
",.,.,.,.,.,.,.,.,.,.,.,.,.,.,.,.,.,.,.,.,.,.",
"                                            "};
