/* XPM */
static char * menu_prelight_xpm[] = {
"22 24 110 2",
"  	c #222222",
". 	c #5C5C5C",
"+ 	c #484848",
"@ 	c #464646",
"# 	c #444444",
"$ 	c #424242",
"% 	c #404040",
"& 	c #313131",
"* 	c #272727",
"= 	c #3E3E3E",
"- 	c #3A3A3A",
"; 	c #343742",
"> 	c #515B74",
", 	c #6C799D",
"' 	c #6B799C",
") 	c #515974",
"! 	c #343743",
"~ 	c #3C3C3C",
"{ 	c #262626",
"] 	c #404559",
"^ 	c #8AA3C9",
"/ 	c #B3CDE6",
"( 	c #CAD3E1",
"_ 	c #B0CCE6",
": 	c #879FC9",
"< 	c #3B3B3B",
"[ 	c #2E2E2E",
"} 	c #343845",
"| 	c #758BB6",
"1 	c #A3C2E5",
"2 	c #A8C4EB",
"3 	c #A4BEE7",
"4 	c #A8C4EC",
"5 	c #758DB9",
"6 	c #343846",
"7 	c #383838",
"8 	c #252525",
"9 	c #515D7E",
"0 	c #7B94C6",
"a 	c #87A3D4",
"b 	c #92ACDB",
"c 	c #95B1DD",
"d 	c #96B2DE",
"e 	c #91ACDA",
"f 	c #87A3D2",
"g 	c #7A92C6",
"h 	c #505D7F",
"i 	c #373737",
"j 	c #363636",
"k 	c #212121",
"l 	c #6A80AE",
"m 	c #7994CE",
"n 	c #829DD5",
"o 	c #86A3D9",
"p 	c #8CA8DB",
"q 	c #8CABDA",
"r 	c #87A5D9",
"s 	c #829FD3",
"t 	c #7995CC",
"u 	c #6B7EAD",
"v 	c #353535",
"w 	c #343434",
"x 	c #7387B7",
"y 	c #819CD5",
"z 	c #88A9DD",
"A 	c #8EAFE1",
"B 	c #92B4E3",
"C 	c #8EAEE0",
"D 	c #88A6DD",
"E 	c #809CD6",
"F 	c #7289B7",
"G 	c #333333",
"H 	c #323232",
"I 	c #242424",
"J 	c #627595",
"K 	c #85A3D9",
"L 	c #8EB3E3",
"M 	c #9ABCE7",
"N 	c #A2C4E9",
"O 	c #A3C4E9",
"P 	c #99BDE7",
"Q 	c #617597",
"R 	c #303030",
"S 	c #292929",
"T 	c #3F4756",
"U 	c #87A9D5",
"V 	c #95BBE3",
"W 	c #A3C8EA",
"X 	c #B1D1EE",
"Y 	c #B4D4ED",
"Z 	c #95BAE3",
"` 	c #8AAAD5",
" .	c #3E4857",
"..	c #232323",
"+.	c #546478",
"@.	c #97B8DB",
"#.	c #A7CCE7",
"$.	c #B4D4EC",
"%.	c #A6C9E7",
"&.	c #54647A",
"*.	c #2D2D2D",
"=.	c #2C2C2C",
"-.	c #2A2A2A",
";.	c #424D5B",
">.	c #758DA3",
",.	c #99B7CE",
"'.	c #9AB6CE",
").	c #748BA3",
"!.	c #434C5B",
"~.	c #282828",
"                                            ",
". . . . . . . . . . . . . . . . . . . . . . ",
"+ + + + + + + + + + + + + + + + + + + + + + ",
"@ @ @ @ @ @ @ @ @ @ @ @ @ @ @ @ @ @ @ @ @ @ ",
"# # # # # # # # # # # # # # # # # # # # # # ",
"$ $ $ $ $ $ $ $ $ $ $ $ $ $ $ $ $ $ $ $ $ $ ",
"% % % % % % % % & *     * & % % % % % % % % ",
"= = = = = = - * ; > , ' ) ! * - = = = = = = ",
"~ ~ ~ ~ ~ ~ { ] ^ / ( ( _ : ] { < ~ ~ ~ ~ ~ ",
"- - - - - [ } | 1 2 3 3 4 1 5 6 [ - - - - - ",
"7 7 7 7 7 8 9 0 a b c d e f g h 8 i 7 7 7 7 ",
"j j j j j k l m n o p q r s t u k v j j j j ",
"w w w w w k x y z A B B C D E F k G w w w w ",
"H H H H H I J K L M N O P A K Q I & H H H H ",
"R R R R R S T U V W X Y W Z `  .S R R R R R ",
"[ [ [ [ [ [ ..+.@.#.$.Y %.@.&...*.[ [ [ [ [ ",
"=.=.=.=.=.=.-...;.>.,.'.).!...-.=.=.=.=.=.=.",
"-.-.-.-.-.-.-.S 8   k k   8 S -.-.-.-.-.-.-.",
"~.~.~.~.~.~.~.~.~.* * * * ~.~.~.~.~.~.~.~.~.",
"{ { { { { { { { { { { { { { { { { { { { { { ",
"I I I I I I I I I I I I I I I I I I I I I I ",
"                                            ",
"=.=.=.=.=.=.=.=.=.=.=.=.=.=.=.=.=.=.=.=.=.=.",
"                                            "};
