/* XPM */
static char * title_5_active_xpm[] = {
"4 24 21 1",
" 	c #222222",
".	c #5C5C5C",
"+	c #484848",
"@	c #464646",
"#	c #444444",
"$	c #424242",
"%	c #404040",
"&	c #3E3E3E",
"*	c #3C3C3C",
"=	c #3A3A3A",
"-	c #383838",
";	c #363636",
">	c #343434",
",	c #323232",
"'	c #303030",
")	c #2E2E2E",
"!	c #2C2C2C",
"~	c #2A2A2A",
"{	c #282828",
"]	c #262626",
"^	c #242424",
"    ",
"....",
"++++",
"@@@@",
"####",
"$$$$",
"%%%%",
"&&&&",
"****",
"====",
"----",
";;;;",
">>>>",
",,,,",
"''''",
"))))",
"!!!!",
"~~~~",
"{{{{",
"]]]]",
"^^^^",
"    ",
"!!!!",
"    "};
